<svg width="97" height="96" viewBox="0 0 97 96" fill="none" xmlns="http://www.w3.org/2000/svg">
<path d="M55.9191 87.3742L59.5431 85.5214L55.6215 84.4462L53.7687 80.8174L52.6887 84.7438L49.0647 86.5966L52.9863 87.6766L54.8391 91.3006L55.9191 87.3742Z" fill="white"/>
<path d="M81.964 70.1135L83.6152 67.1183L80.3752 68.2175L77.3752 66.5615L78.4744 69.8063L76.8232 72.8015L80.0632 71.7071L83.0632 73.3583L81.964 70.1135Z" fill="white"/>
<path d="M25.4103 69.787L32.6679 68.2318L25.7511 66.763L27.1335 64.627L24.7911 66.1486L23.2167 58.7998L21.6567 66.1438L19.3191 64.627L20.7063 66.7678L13.7847 68.251L21.0375 69.7918L19.3191 72.4462L21.7719 70.8526L23.2359 77.683L24.6855 70.8574L27.1335 72.4462L25.4103 69.787Z" fill="white"/>
<path d="M67.8614 15.6864L75.119 14.1312L68.2022 12.6624L69.5846 10.5264L67.2422 12.048L65.6678 4.69922L64.1078 12.048L61.7702 10.5264L63.1574 12.6672L56.2358 14.1504L63.4886 15.6912L61.7702 18.3456L64.223 16.752L65.687 23.5824L67.1366 16.7568L69.5846 18.3456L67.8614 15.6864Z" fill="white"/>
<path d="M71.8118 69.7628L74.1014 69.2732L71.8118 68.7884L73.0838 66.8204L71.1206 68.0972L70.6262 65.8076L70.1414 68.0972L68.1734 66.8252L69.4502 68.7884L67.1606 69.278L69.455 69.7628L68.1782 71.7308L70.1462 70.454L70.6358 72.7436L71.1206 70.454L73.0886 71.726L71.8118 69.7628Z" fill="white"/>
<path d="M36.4023 39.2691L39.6951 38.5635L36.4023 37.8627L38.2311 35.0403L35.4087 36.8739L34.7031 33.5811L34.0023 36.8739L31.1751 35.0451L33.0135 37.8675L29.7207 38.5731L33.0135 39.2691L31.1847 42.0963L34.0071 40.2627L34.7127 43.5555L35.4087 40.2627L38.2359 42.0915L36.4023 39.2691Z" fill="white"/>
<path d="M28.727 45.1826L65.687 12.2354C65.687 12.2354 62.9558 30.5186 65.9702 43.5554C69.1094 57.1394 80.2262 69.845 80.2262 69.845L31.6934 63.4658C31.6934 63.4658 24.3542 69.8114 23.2262 69.2786C22.0982 68.7458 18.263 53.0882 17.9126 49.4066C17.5622 45.725 28.727 45.1826 28.727 45.1826C28.7738 48.5782 29.124 51.9629 29.7734 55.2962L30.8198 60.3698" stroke="white" stroke-width="0.36" stroke-miterlimit="10"/>
<path d="M80.2167 69.845C80.2167 69.845 81.2631 51.653 79.1703 40.3154C77.0775 28.9778 65.6775 12.2354 65.6775 12.2354" stroke="white" stroke-width="0.36" stroke-miterlimit="10"/>
<path d="M64.7175 29.5488C64.7175 29.5488 71.0679 32.088 73.4055 40.08C75.7431 48.072 71.4279 57.5616 71.4279 57.5616C71.4279 57.5616 66.3255 48.1296 65.6679 42.2256C65.0103 36.3216 64.7175 29.5488 64.7175 29.5488Z" fill="white"/>
<path d="M30.9927 43.1572C30.9927 43.1572 31.6839 50.9092 32.6679 55.6372C33.2613 58.4768 34.1078 61.2575 35.1975 63.946" stroke="white" stroke-width="0.36" stroke-miterlimit="10"/>
<path d="M63.5367 14.1406C63.5367 14.1406 60.2919 28.9774 62.5767 41.8846C64.8615 54.7918 77.0199 69.427 77.0199 69.427" stroke="white" stroke-width="0.36" stroke-miterlimit="10"/>
<path d="M27.5798 66.8159C27.5798 66.8159 31.5398 78.3791 32.063 80.9951C32.5862 83.6111 32.1254 86.0927 32.9414 86.7551C33.7574 87.4175 42.2246 87.1439 43.0214 86.7551C43.8182 86.3663 42.9014 82.1759 42.0902 80.6063C41.279 79.0367 40.1174 77.4671 39.767 74.3279C39.4166 71.1887 39.431 64.6943 39.431 64.6943" stroke="white" stroke-width="0.36" stroke-miterlimit="10"/>
<path d="M39.7863 68.2412C39.7863 68.2412 42.3687 68.39 42.5559 69.4268C42.7431 70.4636 43.3047 74.3228 43.0359 74.582C42.7671 74.8412 40.1559 75.422 40.1559 75.422C40.1559 75.422 39.4551 72.8204 39.4983 71.3132C39.5342 70.2845 39.6304 69.2587 39.7863 68.2412Z" fill="white"/>
</svg>
