<svg width="97" height="96" viewBox="0 0 97 96" fill="none" xmlns="http://www.w3.org/2000/svg">
<path d="M13.3886 75.2202L17.5646 73.0842L13.043 71.841L10.907 67.665L9.66379 72.1866L5.48779 74.3226L10.0094 75.5658L12.1454 79.7418L13.3886 75.2202Z" fill="white"/>
<path d="M90.0206 75.6389L91.3166 72.7349L88.3982 74.0069L85.499 72.7109L86.7662 75.6245L85.4702 78.5285L88.3838 77.2565L91.2878 78.5525L90.0206 75.6389Z" fill="white"/>
<path d="M76.8399 24.8354L82.5087 23.621L77.1039 22.4738L78.1839 20.8082L76.3551 21.9938L75.1263 16.2578L73.9071 21.9938L72.0831 20.8082L73.1631 22.4786L67.7583 23.6354L73.4271 24.8402L72.0831 26.9138L73.9983 25.6706L75.1407 31.0034L76.2735 25.6706L78.1839 26.9138L76.8399 24.8354Z" fill="white"/>
<path d="M18.4815 51.8112L17.7759 48.5088L17.1087 51.6528L16.1391 51.024L16.8303 52.0896L13.4895 52.8048L16.8303 53.5152L16.1391 54.576L17.1087 53.9472L17.7855 57.0912L18.4815 53.7936L19.6911 54.576L18.9663 53.4624L22.0719 52.7952L18.9663 52.1376L19.6911 51.024L18.4815 51.8112Z" fill="white"/>
<path d="M63.7839 56.7837L64.9023 55.1709L63.3039 56.1357L63.1839 55.4781L63.0063 56.1933L61.3743 55.0605L62.4015 56.7597L61.6767 56.8893L62.3343 57.0525L61.2639 58.5885L62.9439 57.5709L63.0879 58.3965L63.2751 57.6477L64.7919 58.6989L63.8367 57.1197L64.5999 56.9853L63.7839 56.7837Z" fill="white"/>
<path d="M64.2352 24.0092L66.0208 23.6252L64.2352 23.246L65.2288 21.71L63.6928 22.7084L63.3088 20.918L62.9296 22.7084L61.3936 21.7148L62.392 23.246L60.6016 23.63L62.392 24.0092L61.3984 25.5452L62.9344 24.5516L63.3136 26.3372L63.6928 24.5468L65.2288 25.5404L64.2352 24.0092Z" fill="white"/>
<path d="M84.4527 69.393L87.0207 68.841L84.4479 68.2938L85.8783 66.0906L83.6751 67.521L83.1231 64.9482L82.5759 67.521L80.3727 66.0954L81.8031 68.2986L79.2351 68.8506L81.8031 69.393L80.3775 71.601L82.5807 70.1706L83.1327 72.7386L83.6751 70.1658L85.8831 71.5962L84.4527 69.393Z" fill="white"/>
<path d="M75.16 23.4619H25.0288V59.5867H75.16V23.4619Z" stroke="white" stroke-width="0.36" stroke-miterlimit="10"/>
<path d="M75.16 59.5866L87.1072 73.7034H13.0816L25.0288 59.5866H75.16ZM75.328 59.2266H24.88L24.7744 59.3562L12.808 73.473L12.304 74.0634H87.8848L87.4047 73.473L75.4624 59.3562L75.3519 59.2266H75.328Z" fill="white"/>
<path d="M87.6255 74.3326V76.9246H12.5631V74.3326H87.6255ZM87.9855 73.9726H12.2031V77.2798H87.9855V73.9678V73.9726Z" fill="white"/>
<path d="M72.9086 26.1748H27.2798V56.8804H72.9086V26.1748Z" stroke="white" stroke-width="0.36" stroke-miterlimit="10"/>
<path d="M50.0943 43.2434C53.6705 43.2434 56.5695 40.3443 56.5695 36.7682C56.5695 33.192 53.6705 30.293 50.0943 30.293C46.5182 30.293 43.6191 33.192 43.6191 36.7682C43.6191 40.3443 46.5182 43.2434 50.0943 43.2434Z" fill="white"/>
<path d="M40.0623 56.8795C40.0623 50.5531 46.3695 45.4219 50.0943 45.4219C53.6943 45.4219 60.1263 50.5531 60.1263 56.8795" fill="white"/>
<path d="M74.4256 61.7236L78.4432 66.7204H22.072L26.0896 61.7428H74.4256V61.7236ZM74.5984 61.3828H25.9168L25.8112 61.5172L21.7888 66.4948L21.3088 67.0804H79.1968L78.7168 66.4948L74.6944 61.5172L74.5888 61.3828H74.5984Z" fill="white"/>
<path d="M59.0463 72.3697H41.1423L43.5375 68.6641H56.6511L59.0463 72.3697Z" fill="white"/>
</svg>
