<svg width="97" height="96" viewBox="0 0 97 96" fill="none" xmlns="http://www.w3.org/2000/svg">
<path d="M15.1673 87.375L10.0889 87.0198L14.0777 83.8518L14.4329 78.7734L17.6009 82.7622L22.6841 83.1174L18.6905 86.2854L18.3353 91.3686L15.1673 87.375Z" fill="white"/>
<path d="M69.8875 88.9683L68.7403 91.4307L67.9243 88.8387L65.4619 87.6915L68.0539 86.8755L69.2011 84.4131L70.0171 87.0051L72.4795 88.1523L69.8875 88.9683Z" fill="white"/>
<path d="M67.9529 19.9914L66.3833 17.1354L69.4697 18.1818L72.3257 16.6074L71.2793 19.6938L72.8537 22.5498L69.7625 21.5082L66.9113 23.0778L67.9529 19.9914Z" fill="white"/>
<path d="M37.3387 29.8756L34.3003 28.6948L37.3387 27.5188L38.5195 24.4756L39.7003 27.5188L42.7387 28.6948L39.7003 29.8756L38.5195 32.914L37.3387 29.8756Z" fill="white"/>
<path d="M34.7464 40.2818L31.708 39.101L34.7464 37.9202L35.9272 34.8818L37.108 37.9202L40.1464 39.101L37.108 40.2818L35.9272 43.3202L34.7464 40.2818Z" fill="white"/>
<path d="M32.3895 51.0143L29.3511 49.8335L32.3895 48.6527L33.5655 45.6143L34.7463 48.6527L37.7847 49.8335L34.7463 51.0143L33.5655 54.0527L32.3895 51.0143Z" fill="white"/>
<path d="M29.7737 19.3725L19.9961 17.2797L29.3177 15.3021L27.4505 12.4269L30.6089 14.4717L32.7305 4.56934L34.8281 14.4669L37.9817 12.4269L36.1145 15.3069L45.4361 17.3037L35.6633 19.3773L37.9817 22.9581L34.6745 20.8125L32.7017 30.0141L30.7529 20.8173L27.4505 22.9581L29.7737 19.3725Z" fill="white"/>
<path d="M59.4619 87.1964L55.0171 88.7468L58.2811 85.6748L56.8315 84.974L58.5979 85.022L57.0331 80.5244L60.2971 83.99L61.0651 82.3964L61.0171 84.014L65.2555 82.5356L61.8331 85.7612L63.6379 86.63L61.7851 86.5772L63.2443 90.758L60.2107 87.5372L59.4043 89.2076L59.4619 87.1964Z" fill="white"/>
<path d="M81.0857 64.5502L78.6089 64.0222L81.0857 63.4942L79.7081 61.3678L81.8345 62.7502L82.3625 60.2734L82.8905 62.7502L85.0169 61.3726L83.6345 63.499L86.1113 64.0318L83.6345 64.555L85.0121 66.6814L82.8857 65.299L82.3577 67.7806L81.8297 65.299L79.7033 66.6766L81.0857 64.5502Z" fill="white"/>
<path d="M46.4154 12.1772L44.2314 11.7116L46.4154 11.246L45.201 9.37398L47.073 10.5884L47.5386 8.40918L48.0042 10.5932L49.8762 9.37878L48.6618 11.2508L50.841 11.7164L48.6618 12.182L49.8714 14.054L47.9994 12.8396L47.5338 15.0188L47.073 12.8348L45.1962 14.0492L46.4154 12.1772Z" fill="white"/>
<path d="M17.7546 79.2813C17.585 81.1341 17.4762 82.9901 17.4282 84.8493C34.6701 83.8057 51.9748 84.837 68.9706 87.9213C70.281 67.0509 75.2106 42.5613 83.049 23.0781" stroke="white" stroke-width="0.36" stroke-miterlimit="10"/>
<path d="M17.7547 79.2814C17.5051 65.8798 26.3995 28.8526 32.6683 18.2398C50.0443 15.499 66.5083 19.1566 83.0683 23.0734C83.0683 23.0734 86.7067 23.0974 84.0283 34.8766C84.0283 34.8766 82.7083 41.995 81.7387 40.1566C80.7691 38.3182 83.0683 31.9054 83.0683 31.9054L80.1883 31.5406" stroke="white" stroke-width="0.36" stroke-miterlimit="10"/>
<path d="M72.3351 31.9003C72.3351 31.9003 58.7559 29.1403 51.4071 28.7707C44.0583 28.4011 37.7031 28.7707 37.7031 28.7707" stroke="white" stroke-width="0.36" stroke-miterlimit="10"/>
<path d="M70.6603 42.5616C70.6603 42.5616 57.0811 39.8064 49.7323 39.432C42.3835 39.0576 36.0283 39.432 36.0283 39.432" stroke="white" stroke-width="0.36" stroke-miterlimit="10"/>
<path d="M68.1545 53.0401C68.1545 53.0401 54.5753 50.2801 47.2265 49.9057C39.8777 49.5313 33.5225 49.9057 33.5225 49.9057" stroke="white" stroke-width="0.36" stroke-miterlimit="10"/>
<path d="M81.7192 40.1517L77.5 39.2637" stroke="white" stroke-width="0.36" stroke-miterlimit="10"/>
<path d="M33.5659 62.7744C32.0943 62.7704 30.6587 63.2294 29.4624 64.0864C28.2661 64.9434 27.3697 66.1551 26.9002 67.5498C26.4307 68.9445 26.4118 70.4515 26.8463 71.8575C27.2807 73.2636 28.1465 74.4973 29.3209 75.384C30.4954 76.2707 31.919 76.7655 33.3903 76.7983C34.8615 76.8311 36.3058 76.4002 37.5186 75.5667C38.7314 74.7331 39.6512 73.5392 40.1479 72.1539C40.6445 70.7687 40.6928 69.2623 40.2859 67.848L32.8795 73.8864L28.2235 68.88L30.5803 68.0688L32.9418 70.6752L38.8026 65.1456C38.1486 64.4007 37.3432 63.8039 36.4401 63.395C35.5371 62.9861 34.5572 62.7745 33.5659 62.7744Z" fill="white"/>
<path d="M44.5287 68.3468C44.6823 65.9948 42.4119 62.8316 40.8999 62.0732C39.3879 61.3148 38.4999 59.3516 37.2663 58.0988C36.0327 56.846 32.8743 57.9596 32.2743 58.0988C30.3543 58.55 30.0039 60.4076 27.4311 60.758C24.8583 61.1084 23.7975 63.8876 23.4951 66.158C23.1927 68.4284 20.9223 72.062 21.8343 74.3804C22.7463 76.6988 25.6167 76.7516 27.1143 79.0556C28.6119 81.3596 33.0279 81.5996 36.0567 80.1596C39.0855 78.7196 42.2631 77.9708 44.5383 76.1564C46.8135 74.342 44.3799 70.6988 44.5287 68.3468ZM41.4087 69.7868C41.412 71.6351 40.7632 73.4254 39.5765 74.8425C38.3898 76.2596 36.7413 77.2127 34.9211 77.534C33.1009 77.8554 31.2257 77.5243 29.6255 76.5992C28.0254 75.6741 26.8028 74.2142 26.173 72.4765C25.5432 70.7387 25.5466 68.8345 26.1825 67.099C26.8184 65.3635 28.0461 63.908 29.6496 62.9885C31.253 62.0691 33.1294 61.7447 34.9484 62.0725C36.7675 62.4002 38.4126 63.3591 39.5943 64.7804L42.9159 65.7404L40.9959 67.31C41.2643 68.1001 41.4037 68.9283 41.4087 69.7628V69.7868Z" fill="white"/>
<path d="M68.9707 87.9216C68.9707 87.9216 71.7979 89.1312 73.6699 85.0704C75.5419 81.0096 77.3899 73.9776 76.4779 73.7568C74.2171 73.2096 72.3355 81.3792 72.3355 81.3792L69.5659 80.5824" stroke="white" stroke-width="0.36" stroke-miterlimit="10"/>
<path d="M76.4776 73.7564L70.54 72.3164" stroke="white" stroke-width="0.36" stroke-miterlimit="10"/>
</svg>
