<svg width="97" height="96" viewBox="0 0 97 96" fill="none" xmlns="http://www.w3.org/2000/svg">
<path d="M67.3709 22.5558L62.3981 25.263L64.2365 19.911L61.5293 14.943L66.8813 16.7814L71.8541 14.0742L70.0109 19.4262L72.7229 24.3942L67.3709 22.5558Z" fill="white"/>
<path d="M7.13099 54.3893L5.38379 51.2165L8.81579 52.3781L11.9886 50.6309L10.827 54.0629L12.5742 57.2309L9.14219 56.0693L5.96939 57.8213L7.13099 54.3893Z" fill="white"/>
<path d="M25.976 20.5391L16.7456 18.5615L25.5488 16.6943L23.7872 13.9775L26.768 15.9119L28.7696 6.56152L30.752 15.9071L33.728 13.9775L31.9616 16.6991L40.7648 18.5855L31.5392 20.5439L33.728 23.9183L30.6032 21.8927L28.7456 30.5807L26.9024 21.8975L23.7872 23.9183L25.976 20.5391Z" fill="white"/>
<path d="M66.286 63.1152L61.3516 64.8336L64.9756 61.4208L63.3628 60.6432L65.326 60.7008L63.5884 55.6992L67.2124 59.5488L68.0668 57.7824L68.014 59.5776L72.7228 57.936L68.9164 61.5168L70.9276 62.4864L68.8684 62.424L70.486 67.0704L67.1164 63.4944L66.2236 65.3472L66.286 63.1152Z" fill="white"/>
<path d="M38.048 29.6397L35.624 29.1213L38.048 28.6077L36.6992 26.5293L38.7776 27.8781L39.296 25.4541L39.8144 27.8781L41.8928 26.5341L40.544 28.6125L42.968 29.1309L40.5392 29.6445L41.888 31.7229L39.8096 30.3741L39.2912 32.7981L38.7776 30.3741L36.6944 31.7181L38.048 29.6397Z" fill="white"/>
<path d="M25.8415 70.997L23.4175 70.4738L25.8415 69.9602L24.4975 67.8818L26.5759 69.2306L27.0943 66.8066L27.6079 69.2306L29.6863 67.8866L28.3375 69.965L30.7615 70.4834L28.3375 70.997L29.6815 73.0802L27.6031 71.7266L27.0847 74.1506L26.5711 71.7266L24.4879 73.0754L25.8415 70.997Z" fill="white"/>
<path d="M52.2606 62.0826C52.2606 62.0826 44.0622 57.0426 41.5998 49.305C39.1374 41.5674 38.3982 28.665 38.3982 28.665C35.619 21.1194 28.347 16.905 22.1502 19.1994C15.9534 21.4938 13.1694 29.4234 15.9438 36.9306C15.9438 36.9306 23.979 47.1594 27.123 54.6426C30.267 62.1258 27.3102 71.2938 27.3102 71.2938" stroke="white" stroke-width="0.48" stroke-miterlimit="10"/>
<path d="M61.2295 58.7708L18.8335 74.4199L20.3012 78.3961L62.6972 62.747L61.2295 58.7708Z" stroke="white" stroke-width="0.48" stroke-miterlimit="10"/>
<path d="M68.6261 69.5911L20.2456 87.4492L20.9786 89.4351L69.3592 71.5769L68.6261 69.5911Z" fill="white"/>
<path d="M67.242 61.0722L15.7544 80.0771L18.6881 88.025L70.1757 69.02L67.242 61.0722Z" stroke="white" stroke-width="0.48" stroke-miterlimit="10"/>
<path d="M59.4844 34.2723L65.7388 41.1891L82.63 25.2627L92.2156 27.9891L65.5804 49.7139L53.23 36.4227L59.4844 34.2723Z" fill="white"/>
</svg>
