<svg width="96" height="96" viewBox="0 0 96 96" fill="none" xmlns="http://www.w3.org/2000/svg">
<path d="M82.08 18.5517L77.6688 20.9565L79.3008 16.2045L76.896 11.7933L81.648 13.4253L86.0592 11.0205L84.4272 15.7725L86.832 20.1837L82.08 18.5517Z" fill="white"/>
<path d="M85.1954 63.0342L83.645 60.2166L86.6882 61.2486L89.5058 59.6934L88.4738 62.7414L90.0242 65.5542L86.981 64.527L84.1634 66.0774L85.1954 63.0342Z" fill="white"/>
<path d="M12.8065 74.7649L5.97607 73.3009L12.4897 71.9185L11.1841 69.9073L13.3921 71.3425L14.8705 64.4209L16.3393 71.3377L18.5425 69.9073L17.2369 71.9233L23.7505 73.3201L16.9201 74.7697L18.5425 77.2705L16.2337 75.7681L14.8561 82.2001L13.4929 75.7729L11.1841 77.2705L12.8065 74.7649Z" fill="white"/>
<path d="M35.1265 14.3665L32.9761 13.9057L35.1265 13.4497L33.9313 11.6017L35.7745 12.7969L36.2353 10.6465L36.6913 12.8017L38.5393 11.6065L37.3441 13.4497L39.4945 13.9105L37.3393 14.3665L38.5345 16.2145L36.6913 15.0145L36.2305 17.1649L35.7745 15.0145L33.9265 16.2097L35.1265 14.3665Z" fill="white"/>
<path d="M78.4127 30.9746L76.3823 30.1394L78.5807 30.077L77.7359 28.0418L79.3343 29.5538L80.1743 27.5186L80.2367 29.717L82.2671 28.8722L80.7599 30.4754L82.7951 31.3106L80.5919 31.3778L81.4367 33.4082L79.8383 31.8962L78.9983 33.9314L78.9359 31.733L76.9055 32.5778L78.4127 30.9746Z" fill="white"/>
<path d="M25.3105 31.0373L24.5185 27.0053C24.4193 26.5182 24.4177 26.0162 24.5136 25.5285C24.6096 25.0407 24.8012 24.5768 25.0775 24.1635C25.3538 23.7503 25.7092 23.3958 26.1232 23.1207C26.5372 22.8455 27.0016 22.6551 27.4897 22.5605L57.9601 16.5701C58.9421 16.3783 59.9601 16.5839 60.7908 17.1418C61.6214 17.6997 62.1967 18.5644 62.3904 19.5461L72.2641 69.8117C72.3604 70.2975 72.3599 70.7974 72.2626 71.283C72.1653 71.7685 71.9731 72.2301 71.6971 72.6412C71.4211 73.0524 71.0666 73.405 70.654 73.6789C70.2415 73.9528 69.7789 74.1425 69.2929 74.2373" stroke="white" stroke-width="0.48" stroke-miterlimit="10"/>
<path d="M34.752 27.9744L35.0928 17.5536C35.1291 16.5562 35.5591 15.6138 36.2887 14.9328C37.0183 14.2517 37.988 13.8876 38.9856 13.92L70.0224 14.9424C71.0223 14.9749 71.9683 15.4033 72.6525 16.1334C73.3366 16.8634 73.7027 17.8352 73.6704 18.8352L72 70.0224" stroke="white" stroke-width="0.48" stroke-miterlimit="10"/>
<path d="M41.3472 25.0989L43.7472 12.3933C43.9323 11.4109 44.4999 10.5421 45.3252 9.97777C46.1505 9.41347 47.1661 9.19982 48.1488 9.38375L78.672 15.1101C79.6544 15.2953 80.5233 15.8629 81.0876 16.6882C81.6518 17.5135 81.8655 18.529 81.6816 19.5117L72.2208 69.8589" stroke="white" stroke-width="0.48" stroke-miterlimit="10"/>
<path d="M72.2448 71.0404L54.8016 22.8868C54.4576 21.9497 53.7563 21.1872 52.8512 20.7661C51.9462 20.3451 50.9111 20.2999 49.9728 20.6404L20.7744 31.2004C20.3087 31.3688 19.8808 31.6273 19.5151 31.9612C19.1494 32.295 18.8531 32.6977 18.6431 33.1462C18.4331 33.5946 18.3136 34.0801 18.2914 34.5748C18.2692 35.0695 18.3447 35.5637 18.5136 36.0292L35.9568 84.1924C36.1251 84.6598 36.3841 85.0892 36.719 85.4561C37.0539 85.823 37.458 86.12 37.9082 86.3302C38.3583 86.5403 38.8455 86.6593 39.3418 86.6804C39.8381 86.7015 40.3337 86.6243 40.8 86.4532L69.9984 75.8932C70.4656 75.7235 70.8946 75.4631 71.2607 75.1269C71.6269 74.7907 71.9229 74.3854 72.1317 73.9344C72.3405 73.4833 72.458 72.9954 72.4774 72.4987C72.4968 72.002 72.4177 71.5064 72.2448 71.0404ZM68.8848 72.1924C68.6529 72.6911 68.3243 73.1388 67.9181 73.5095C67.5119 73.8803 67.0361 74.1668 66.5184 74.3524L42.4848 83.0644C42.0239 83.2346 41.5361 83.3208 41.0448 83.3188C40.4308 83.3174 39.8246 83.1814 39.2688 82.9204C38.7701 82.6885 38.3224 82.3599 37.9516 81.9537C37.5809 81.5475 37.2944 81.0717 37.1088 80.554L21.7488 38.0836C21.5609 37.5661 21.4769 37.0167 21.5016 36.4667C21.5264 35.9167 21.6594 35.3771 21.893 34.8786C22.1267 34.3801 22.4564 33.9326 22.8632 33.5617C23.2701 33.1908 23.7461 32.9038 24.264 32.7172L48.2784 24.0004C49.3229 23.622 50.475 23.6738 51.4813 24.1446C52.4876 24.6153 53.2658 25.4664 53.6448 26.5108L69.0048 68.9812C69.1997 69.4993 69.2891 70.0511 69.2677 70.6042C69.2463 71.1573 69.1144 71.7006 68.88 72.202L68.8848 72.1924Z" fill="white"/>
<path d="M52.8577 26.8086C52.5529 25.9738 51.9298 25.2938 51.1249 24.9174C50.6755 24.7023 50.183 24.5923 49.6849 24.5958C49.2953 24.5962 48.9087 24.6645 48.5425 24.7974L24.5329 33.4998C23.6974 33.8041 23.0167 34.427 22.6397 35.2323C22.2627 36.0375 22.2203 36.9593 22.5217 37.7958L37.9201 80.271C38.2253 81.1044 38.8479 81.7831 39.6519 82.159C40.4559 82.535 41.376 82.5775 42.2113 82.2774L66.2401 73.5798C67.0755 73.2755 67.7562 72.6525 68.1332 71.8473C68.5102 71.0421 68.5526 70.1202 68.2513 69.2838L52.8577 26.8086ZM33.3697 54.1686L32.1169 52.1478L31.5169 52.9398L31.7617 51.8886L29.2561 52.2342L31.3009 50.9622L30.6097 50.439L31.5361 50.655L31.2001 48.1302L32.5537 50.2998L33.1201 49.5414L32.9137 50.4006L35.3137 50.0742L33.1681 51.4086L34.0273 52.0614L33.0673 51.8358L33.3697 54.1686ZM39.1297 59.3046C38.8129 60.0342 38.0977 60.6054 36.9793 61.0038C36.7575 61.0894 36.5297 61.1584 36.2977 61.2102C36.1317 61.248 35.9633 61.2737 35.7937 61.287C35.6514 61.296 35.5087 61.296 35.3665 61.287L34.9393 59.5206C35.0286 59.5441 35.1205 59.557 35.2129 59.559C35.32 59.5652 35.4273 59.5652 35.5345 59.559C35.6712 59.5356 35.806 59.5019 35.9377 59.4582C36.1458 59.3808 36.3319 59.254 36.4801 59.0886C36.5953 58.9662 36.672 58.8126 36.7009 58.647C36.7281 58.4581 36.7184 58.2657 36.6721 58.0806C36.6203 57.8627 36.5562 57.648 36.4801 57.4374L35.2417 54.0102C35.1911 53.8706 35.1318 53.7343 35.0641 53.6022C34.9921 53.4534 34.9201 53.3238 34.8529 53.2086L34.7521 53.0214L37.5217 52.023L37.5601 52.2294C37.5601 52.3638 37.6129 52.5078 37.6513 52.671C37.6897 52.8342 37.7281 52.9734 37.7713 53.0982L39.0097 56.5254C39.4129 57.655 39.4577 58.5846 39.1441 59.3142L39.1297 59.3046ZM46.4161 57.4806L44.5921 53.9574L45.4225 57.8406L42.4657 58.9062L38.8225 52.6662C38.7518 52.5474 38.6732 52.4336 38.5873 52.3254C38.5007 52.2145 38.4077 52.1087 38.3089 52.0086L38.1121 51.7974L41.1025 50.7174L41.1649 50.895C41.2129 51.0246 41.2657 51.1638 41.3281 51.3174C41.3905 51.471 41.4529 51.6006 41.5105 51.7206L43.7905 56.2854L42.6337 51.3606C42.6049 51.231 42.5665 51.087 42.5185 50.9334C42.4755 50.7863 42.4125 50.6457 42.3313 50.5158L42.2353 50.3526L44.5585 49.5174L44.6209 49.6902C44.6689 49.8246 44.7217 49.9638 44.7841 50.1174C44.8465 50.271 44.9089 50.4006 44.9665 50.5206L47.2945 55.1286L46.1857 50.0838C46.1521 49.9542 46.1137 49.8102 46.0657 49.6518C46.0177 49.4934 45.9697 49.3542 45.9217 49.2198L45.8593 49.047L48.7393 48.015V48.303C48.7393 48.4374 48.7393 48.5766 48.7393 48.7206C48.7318 48.8597 48.7318 48.9991 48.7393 49.1382L49.7281 56.3382L46.4161 57.4806ZM55.7617 54.2406C55.2106 54.4522 54.6238 54.5548 54.0337 54.543C53.5122 54.533 52.9993 54.4085 52.5313 54.1782C52.0615 53.9354 51.6491 53.595 51.3217 53.1798C50.9456 52.7102 50.6533 52.1792 50.4577 51.6102C50.2328 51.1005 50.1167 50.5496 50.1167 49.9926C50.1167 49.4355 50.2328 48.8846 50.4577 48.375C50.9185 47.4502 51.8129 46.7478 53.1409 46.2678C53.5057 46.1334 53.8321 46.0326 54.1009 45.9558C54.3697 45.879 54.6289 45.8262 54.8305 45.7878C55.0321 45.7494 55.2721 45.7302 55.4497 45.7158L55.9681 47.9142C55.8002 47.9048 55.6319 47.9048 55.4641 47.9142C55.3137 47.9142 55.1409 47.9382 54.9457 47.9862C54.7411 48.0198 54.5402 48.0729 54.3457 48.1446C54.0816 48.2353 53.8325 48.3647 53.6065 48.5286C53.4074 48.6726 53.2434 48.8597 53.1265 49.0758C53.009 49.2911 52.9448 49.5314 52.9393 49.7766C52.9357 50.0721 52.9895 50.3655 53.0977 50.6406C53.1755 50.9124 53.3086 51.1653 53.4886 51.3834C53.6687 51.6014 53.8918 51.7799 54.1441 51.9078C54.4011 52.015 54.6768 52.0702 54.9553 52.0702C55.2337 52.0702 55.5094 52.015 55.7665 51.9078C55.9732 51.8323 56.1739 51.7408 56.3665 51.6342C56.5537 51.5286 56.7169 51.4326 56.8465 51.3366C57.0009 51.2339 57.1499 51.1234 57.2929 51.0054L57.8161 53.2038C57.6577 53.3142 57.4705 53.4246 57.2545 53.5446C57.0385 53.6646 56.8609 53.7606 56.6017 53.8854C56.3279 54.018 56.0475 54.1365 55.7617 54.2406ZM59.9377 56.7846L58.5889 58.1958L58.6321 56.247L57.2209 54.8982L59.1697 54.9414L60.5185 53.5302L60.4801 55.4886L61.8913 56.8374L59.9377 56.7846Z" fill="white"/>
</svg>
