<svg width="611" height="300" viewBox="0 0 611 300" fill="none" xmlns="http://www.w3.org/2000/svg">
<rect width="132" height="216" rx="7" transform="matrix(0.866025 0.5 0.5 -0.866025 362.272 220.062)" fill="url(#paint0_linear_211_2162)"/>
<rect x="1.36603" y="-0.366025" width="102.923" height="187.084" rx="6" transform="matrix(0.866025 0.5 0.5 -0.866025 381.093 213.811)" stroke="url(#paint1_linear_211_2162)" stroke-width="2"/>
<rect width="132" height="216" rx="7" transform="matrix(0.984808 0.173648 0.173648 -0.984808 278.272 212.719)" fill="url(#paint2_linear_211_2162)"/>
<rect x="1.15846" y="-0.81116" width="102.923" height="187.084" rx="6" transform="matrix(0.984808 0.173648 0.173648 -0.984808 294.101 200.005)" stroke="url(#paint3_linear_211_2162)" stroke-width="2"/>
<rect width="132" height="216" rx="7" transform="matrix(0.984808 -0.173648 -0.173648 -0.984808 194.78 236.461)" fill="url(#paint4_linear_211_2162)"/>
<rect x="0.81116" y="-1.15846" width="102.923" height="187.084" rx="6" transform="matrix(0.984808 -0.173648 -0.173648 -0.984808 205.588 218.698)" stroke="url(#paint5_linear_211_2162)" stroke-width="2"/>
<rect width="132" height="216" rx="7" transform="matrix(0.866025 -0.5 -0.5 -0.866025 134.413 288.351)" fill="url(#paint6_linear_211_2162)"/>
<rect x="0.366025" y="-1.36603" width="102.923" height="187.084" rx="6" transform="matrix(0.866025 -0.5 -0.5 -0.866025 138.775 267.561)" stroke="url(#paint7_linear_211_2162)" stroke-width="2"/>
<path d="M52.1266 242.24V268.121C52.1266 269.737 51.8517 271.197 51.3017 272.503C50.7862 273.809 50.03 274.927 49.0333 275.855C48.0709 276.783 46.8851 277.504 45.476 278.02C44.0668 278.535 42.4857 278.793 40.7328 278.793C37.3989 278.793 34.804 277.934 32.948 276.215C31.092 274.463 29.9062 272.143 29.3906 269.255L35.6804 267.967C35.9897 269.513 36.5397 270.716 37.3302 271.575C38.1551 272.4 39.2721 272.813 40.6813 272.813C42.0217 272.813 43.1216 272.4 43.9808 271.575C44.8745 270.716 45.3213 269.41 45.3213 267.657V247.808H33.9791V242.24H52.1266Z" fill="#F1EDE4"/>
<path d="M74.1059 273.741H73.8481C73.6075 274.428 73.281 275.081 72.8686 275.7C72.4905 276.284 71.9921 276.817 71.3734 277.298C70.7891 277.779 70.0674 278.157 69.2081 278.432C68.3832 278.707 67.4209 278.845 66.321 278.845C63.537 278.845 61.406 277.934 59.9281 276.112C58.4502 274.291 57.7112 271.696 57.7112 268.327V251.314H64.3103V267.657C64.3103 269.513 64.6712 270.94 65.393 271.936C66.1148 272.899 67.2662 273.38 68.8472 273.38C69.5003 273.38 70.1361 273.294 70.7548 273.122C71.4078 272.95 71.9749 272.692 72.4561 272.349C72.9373 271.971 73.3326 271.524 73.6419 271.008C73.9512 270.458 74.1059 269.823 74.1059 269.101V251.314H80.705V278.226H74.1059V273.741Z" fill="#F1EDE4"/>
<path d="M86.3911 278.226V251.314H92.9902V255.799H93.248C93.7979 254.356 94.6572 253.153 95.8258 252.191C97.0287 251.194 98.6785 250.695 100.775 250.695C103.559 250.695 105.69 251.606 107.168 253.428C108.646 255.249 109.385 257.844 109.385 261.213V278.226H102.786V261.883C102.786 259.958 102.442 258.515 101.755 257.552C101.067 256.59 99.933 256.109 98.352 256.109C97.6646 256.109 96.9944 256.212 96.3413 256.418C95.7226 256.59 95.1555 256.865 94.64 257.243C94.1588 257.587 93.7635 258.033 93.4542 258.583C93.1449 259.099 92.9902 259.718 92.9902 260.439V278.226H86.3911Z" fill="#F1EDE4"/>
<path d="M118.061 247.396C116.686 247.396 115.69 247.087 115.071 246.468C114.487 245.849 114.195 245.059 114.195 244.096V243.065C114.195 242.103 114.487 241.312 115.071 240.694C115.69 240.075 116.686 239.766 118.061 239.766C119.402 239.766 120.381 240.075 121 240.694C121.619 241.312 121.928 242.103 121.928 243.065V244.096C121.928 245.059 121.619 245.849 121 246.468C120.381 247.087 119.402 247.396 118.061 247.396ZM114.762 251.314H121.361V278.226H114.762V251.314Z" fill="#F1EDE4"/>
<path d="M137.743 278.845C135.819 278.845 134.083 278.518 132.536 277.865C131.024 277.212 129.718 276.267 128.618 275.03C127.553 273.792 126.728 272.314 126.143 270.596C125.559 268.843 125.267 266.884 125.267 264.719C125.267 262.553 125.559 260.611 126.143 258.893C126.728 257.174 127.553 255.713 128.618 254.511C129.718 253.273 131.024 252.328 132.536 251.675C134.083 251.022 135.819 250.695 137.743 250.695C139.668 250.695 141.404 251.022 142.951 251.675C144.497 252.328 145.803 253.273 146.869 254.511C147.969 255.713 148.811 257.174 149.395 258.893C149.979 260.611 150.271 262.553 150.271 264.719C150.271 266.884 149.979 268.843 149.395 270.596C148.811 272.314 147.969 273.792 146.869 275.03C145.803 276.267 144.497 277.212 142.951 277.865C141.404 278.518 139.668 278.845 137.743 278.845ZM137.743 273.535C139.496 273.535 140.871 273.002 141.868 271.936C142.865 270.871 143.363 269.307 143.363 267.245V262.244C143.363 260.216 142.865 258.669 141.868 257.604C140.871 256.538 139.496 256.006 137.743 256.006C136.025 256.006 134.667 256.538 133.671 257.604C132.674 258.669 132.175 260.216 132.175 262.244V267.245C132.175 269.307 132.674 270.871 133.671 271.936C134.667 273.002 136.025 273.535 137.743 273.535Z" fill="#F1EDE4"/>
<path d="M154.183 278.226V251.314H160.782V256.882H161.04C161.212 256.16 161.47 255.473 161.813 254.82C162.192 254.132 162.673 253.531 163.257 253.015C163.841 252.5 164.529 252.087 165.319 251.778C166.144 251.469 167.089 251.314 168.155 251.314H169.598V257.552H167.536C165.302 257.552 163.618 257.879 162.484 258.532C161.349 259.185 160.782 260.25 160.782 261.728V278.226H154.183Z" fill="#F1EDE4"/>
<path d="M190.154 278.226L181.802 242.24H188.607L192.165 259.511L194.381 270.544H194.536L197.114 259.511L201.238 242.24H208.765L212.89 259.511L215.416 270.544H215.571L217.839 259.511L221.5 242.24H227.996L219.386 278.226H211.704L207.116 259.202L204.899 249.716H204.796L202.476 259.202L197.887 278.226H190.154Z" fill="#F1EDE4"/>
<path d="M240.996 278.845C239.002 278.845 237.215 278.518 235.634 277.865C234.087 277.178 232.764 276.233 231.664 275.03C230.599 273.792 229.774 272.314 229.19 270.596C228.605 268.843 228.313 266.884 228.313 264.719C228.313 262.588 228.588 260.663 229.138 258.944C229.722 257.226 230.547 255.765 231.613 254.562C232.678 253.325 233.984 252.38 235.531 251.727C237.078 251.039 238.83 250.695 240.79 250.695C242.886 250.695 244.708 251.056 246.254 251.778C247.801 252.5 249.073 253.479 250.07 254.717C251.066 255.954 251.805 257.398 252.286 259.047C252.802 260.663 253.06 262.399 253.06 264.255V266.42H235.17V267.09C235.17 269.049 235.72 270.63 236.82 271.833C237.92 273.002 239.552 273.586 241.718 273.586C243.367 273.586 244.708 273.242 245.739 272.555C246.804 271.868 247.75 270.991 248.574 269.926L252.132 273.895C251.032 275.442 249.52 276.662 247.595 277.556C245.705 278.415 243.505 278.845 240.996 278.845ZM240.893 255.645C239.14 255.645 237.748 256.229 236.717 257.398C235.686 258.566 235.17 260.079 235.17 261.935V262.347H246.203V261.883C246.203 260.027 245.739 258.532 244.811 257.398C243.917 256.229 242.611 255.645 240.893 255.645Z" fill="#F1EDE4"/>
<path d="M256.927 240.075H263.526V255.748H263.733C264.214 254.201 265.125 252.981 266.465 252.087C267.806 251.159 269.369 250.695 271.157 250.695C274.594 250.695 277.206 251.916 278.993 254.356C280.815 256.762 281.726 260.216 281.726 264.719C281.726 269.255 280.815 272.744 278.993 275.184C277.206 277.625 274.594 278.845 271.157 278.845C269.369 278.845 267.806 278.381 266.465 277.453C265.159 276.525 264.248 275.287 263.733 273.741H263.526V278.226H256.927V240.075ZM269.043 273.38C270.761 273.38 272.153 272.813 273.219 271.679C274.284 270.544 274.817 269.015 274.817 267.09V262.45C274.817 260.525 274.284 258.996 273.219 257.862C272.153 256.693 270.761 256.109 269.043 256.109C267.462 256.109 266.139 256.504 265.073 257.295C264.042 258.085 263.526 259.133 263.526 260.439V268.998C263.526 270.407 264.042 271.489 265.073 272.246C266.139 273.002 267.462 273.38 269.043 273.38Z" fill="#F1EDE4"/>
<path d="M285.902 278.226V251.314H292.501V255.799H292.759C293.275 254.39 294.099 253.187 295.234 252.191C296.368 251.194 297.949 250.695 299.977 250.695C301.833 250.695 303.431 251.142 304.771 252.036C306.112 252.929 307.109 254.287 307.762 256.109H307.865C308.346 254.596 309.291 253.325 310.7 252.294C312.144 251.228 313.948 250.695 316.114 250.695C318.76 250.695 320.788 251.606 322.197 253.428C323.641 255.249 324.363 257.844 324.363 261.213V278.226H317.763V261.883C317.763 258.033 316.32 256.109 313.433 256.109C312.78 256.109 312.144 256.212 311.525 256.418C310.941 256.59 310.408 256.865 309.927 257.243C309.48 257.587 309.119 258.033 308.844 258.583C308.569 259.099 308.432 259.718 308.432 260.439V278.226H301.833V261.883C301.833 258.033 300.389 256.109 297.502 256.109C296.883 256.109 296.265 256.212 295.646 256.418C295.062 256.59 294.529 256.865 294.048 257.243C293.601 257.587 293.223 258.033 292.914 258.583C292.639 259.099 292.501 259.718 292.501 260.439V278.226H285.902Z" fill="#F1EDE4"/>
<path d="M349.527 278.226C348.083 278.226 346.932 277.814 346.072 276.989C345.247 276.129 344.732 274.995 344.526 273.586H344.216C343.769 275.339 342.859 276.662 341.484 277.556C340.109 278.415 338.408 278.845 336.38 278.845C333.63 278.845 331.516 278.123 330.039 276.679C328.561 275.236 327.822 273.311 327.822 270.905C327.822 268.121 328.818 266.059 330.812 264.719C332.805 263.344 335.641 262.656 339.319 262.656H343.907V260.697C343.907 259.185 343.512 258.016 342.721 257.191C341.931 256.367 340.659 255.954 338.906 255.954C337.359 255.954 336.105 256.298 335.143 256.985C334.215 257.638 333.424 258.429 332.771 259.357L328.853 255.851C329.849 254.304 331.173 253.067 332.823 252.139C334.472 251.177 336.655 250.695 339.37 250.695C343.013 250.695 345.78 251.52 347.671 253.17C349.561 254.82 350.506 257.191 350.506 260.285V272.967H353.187V278.226H349.527ZM338.597 274.05C340.075 274.05 341.329 273.724 342.36 273.071C343.391 272.417 343.907 271.455 343.907 270.183V266.626H339.679C336.242 266.626 334.524 267.726 334.524 269.926V270.802C334.524 271.902 334.868 272.727 335.555 273.277C336.277 273.792 337.291 274.05 338.597 274.05Z" fill="#F1EDE4"/>
<path d="M365.405 278.845C362.828 278.845 360.662 278.415 358.909 277.556C357.156 276.662 355.61 275.442 354.269 273.895L358.291 269.977C359.287 271.111 360.37 272.005 361.539 272.658C362.742 273.311 364.116 273.638 365.663 273.638C367.244 273.638 368.378 273.363 369.066 272.813C369.788 272.263 370.148 271.507 370.148 270.544C370.148 269.754 369.891 269.135 369.375 268.688C368.894 268.207 368.052 267.881 366.849 267.709L364.168 267.348C361.246 266.97 359.012 266.145 357.466 264.873C355.953 263.567 355.197 261.677 355.197 259.202C355.197 257.896 355.438 256.727 355.919 255.696C356.4 254.631 357.088 253.737 357.981 253.015C358.875 252.259 359.94 251.692 361.178 251.314C362.449 250.902 363.859 250.695 365.405 250.695C366.711 250.695 367.863 250.799 368.86 251.005C369.891 251.177 370.819 251.452 371.644 251.83C372.468 252.173 373.225 252.62 373.912 253.17C374.599 253.686 375.27 254.27 375.923 254.923L372.056 258.79C371.265 257.965 370.32 257.277 369.22 256.727C368.121 256.177 366.918 255.903 365.612 255.903C364.168 255.903 363.12 256.16 362.467 256.676C361.848 257.191 361.539 257.862 361.539 258.687C361.539 259.58 361.796 260.268 362.312 260.749C362.862 261.196 363.773 261.522 365.044 261.728L367.777 262.089C373.585 262.914 376.49 265.561 376.49 270.029C376.49 271.335 376.215 272.538 375.665 273.638C375.149 274.703 374.41 275.631 373.448 276.422C372.486 277.178 371.317 277.779 369.942 278.226C368.602 278.639 367.089 278.845 365.405 278.845Z" fill="#F1EDE4"/>
<path d="M388.379 278.226C386.111 278.226 384.375 277.642 383.172 276.473C382.003 275.27 381.419 273.569 381.419 271.369V256.573H377.449V251.314H379.511C380.508 251.314 381.178 251.091 381.522 250.644C381.9 250.163 382.089 249.458 382.089 248.53V243.942H388.018V251.314H393.535V256.573H388.018V272.967H393.122V278.226H388.379Z" fill="#F1EDE4"/>
<path d="M407.997 278.845C406.003 278.845 404.216 278.518 402.635 277.865C401.088 277.178 399.765 276.233 398.665 275.03C397.6 273.792 396.775 272.314 396.191 270.596C395.606 268.843 395.314 266.884 395.314 264.719C395.314 262.588 395.589 260.663 396.139 258.944C396.723 257.226 397.548 255.765 398.614 254.562C399.679 253.325 400.985 252.38 402.532 251.727C404.079 251.039 405.832 250.695 407.791 250.695C409.887 250.695 411.709 251.056 413.255 251.778C414.802 252.5 416.074 253.479 417.071 254.717C418.067 255.954 418.806 257.398 419.288 259.047C419.803 260.663 420.061 262.399 420.061 264.255V266.42H402.171V267.09C402.171 269.049 402.721 270.63 403.821 271.833C404.921 273.002 406.553 273.586 408.719 273.586C410.368 273.586 411.709 273.242 412.74 272.555C413.805 271.868 414.751 270.991 415.576 269.926L419.133 273.895C418.033 275.442 416.521 276.662 414.596 277.556C412.706 278.415 410.506 278.845 407.997 278.845ZM407.894 255.645C406.141 255.645 404.749 256.229 403.718 257.398C402.687 258.566 402.171 260.079 402.171 261.935V262.347H413.204V261.883C413.204 260.027 412.74 258.532 411.812 257.398C410.918 256.229 409.612 255.645 407.894 255.645Z" fill="#F1EDE4"/>
<path d="M423.928 278.226V251.314H430.527V256.882H430.785C430.957 256.16 431.215 255.473 431.559 254.82C431.937 254.132 432.418 253.531 433.002 253.015C433.586 252.5 434.274 252.087 435.064 251.778C435.889 251.469 436.834 251.314 437.9 251.314H439.343V257.552H437.281C435.047 257.552 433.363 257.879 432.229 258.532C431.095 259.185 430.527 260.25 430.527 261.728V278.226H423.928Z" fill="#F1EDE4"/>
<path d="M468.406 278.845C466.034 278.845 463.886 278.467 461.961 277.711C460.071 276.92 458.438 275.751 457.063 274.205C455.723 272.658 454.692 270.751 453.97 268.482C453.248 266.179 452.887 263.516 452.887 260.491C452.887 257.466 453.248 254.785 453.97 252.448C454.692 250.077 455.723 248.1 457.063 246.519C458.438 244.904 460.071 243.684 461.961 242.859C463.886 242.034 466.034 241.622 468.406 241.622C471.637 241.622 474.317 242.309 476.448 243.684C478.579 245.059 480.281 247.138 481.552 249.922L475.727 253.015C475.211 251.4 474.369 250.111 473.2 249.149C472.032 248.152 470.434 247.654 468.406 247.654C465.862 247.654 463.834 248.513 462.322 250.231C460.844 251.95 460.105 254.356 460.105 257.449V263.12C460.105 266.248 460.844 268.654 462.322 270.338C463.834 271.988 465.862 272.813 468.406 272.813C470.434 272.813 472.083 272.263 473.355 271.163C474.661 270.063 475.606 268.705 476.191 267.09L481.707 270.338C480.401 273.019 478.665 275.116 476.5 276.628C474.335 278.106 471.637 278.845 468.406 278.845Z" fill="#F1EDE4"/>
<path d="M504.959 278.226C503.515 278.226 502.364 277.814 501.504 276.989C500.68 276.129 500.164 274.995 499.958 273.586H499.648C499.202 275.339 498.291 276.662 496.916 277.556C495.541 278.415 493.84 278.845 491.812 278.845C489.062 278.845 486.949 278.123 485.471 276.679C483.993 275.236 483.254 273.311 483.254 270.905C483.254 268.121 484.25 266.059 486.244 264.719C488.237 263.344 491.073 262.656 494.751 262.656H499.339V260.697C499.339 259.185 498.944 258.016 498.153 257.191C497.363 256.367 496.091 255.954 494.338 255.954C492.792 255.954 491.537 256.298 490.575 256.985C489.647 257.638 488.856 258.429 488.203 259.357L484.285 255.851C485.282 254.304 486.605 253.067 488.255 252.139C489.904 251.177 492.087 250.695 494.802 250.695C498.445 250.695 501.212 251.52 503.103 253.17C504.993 254.82 505.938 257.191 505.938 260.285V272.967H508.619V278.226H504.959ZM494.029 274.05C495.507 274.05 496.761 273.724 497.792 273.071C498.824 272.417 499.339 271.455 499.339 270.183V266.626H495.112C491.674 266.626 489.956 267.726 489.956 269.926V270.802C489.956 271.902 490.3 272.727 490.987 273.277C491.709 273.792 492.723 274.05 494.029 274.05Z" fill="#F1EDE4"/>
<path d="M512.021 278.226V251.314H518.621V255.799H518.878C519.394 254.39 520.219 253.187 521.353 252.191C522.487 251.194 524.068 250.695 526.096 250.695C527.952 250.695 529.55 251.142 530.891 252.036C532.231 252.929 533.228 254.287 533.881 256.109H533.984C534.465 254.596 535.41 253.325 536.82 252.294C538.263 251.228 540.068 250.695 542.233 250.695C544.879 250.695 546.907 251.606 548.317 253.428C549.76 255.249 550.482 257.844 550.482 261.213V278.226H543.883V261.883C543.883 258.033 542.439 256.109 539.552 256.109C538.899 256.109 538.263 256.212 537.645 256.418C537.06 256.59 536.528 256.865 536.046 257.243C535.6 257.587 535.239 258.033 534.964 258.583C534.689 259.099 534.551 259.718 534.551 260.439V278.226H527.952V261.883C527.952 258.033 526.509 256.109 523.621 256.109C523.003 256.109 522.384 256.212 521.765 256.418C521.181 256.59 520.648 256.865 520.167 257.243C519.72 257.587 519.342 258.033 519.033 258.583C518.758 259.099 518.621 259.718 518.621 260.439V278.226H512.021Z" fill="#F1EDE4"/>
<path d="M555.849 251.314H562.448V255.748H562.654C563.135 254.201 564.046 252.981 565.386 252.087C566.727 251.159 568.291 250.695 570.078 250.695C573.515 250.695 576.127 251.916 577.914 254.356C579.736 256.762 580.647 260.216 580.647 264.719C580.647 269.255 579.736 272.744 577.914 275.184C576.127 277.625 573.515 278.845 570.078 278.845C568.291 278.845 566.727 278.381 565.386 277.453C564.08 276.525 563.169 275.287 562.654 273.741H562.448V288.537H555.849V251.314ZM567.964 273.38C569.683 273.38 571.075 272.813 572.14 271.679C573.206 270.544 573.738 269.015 573.738 267.09V262.45C573.738 260.525 573.206 258.996 572.14 257.862C571.075 256.693 569.683 256.109 567.964 256.109C566.383 256.109 565.06 256.504 563.994 257.295C562.963 258.085 562.448 259.133 562.448 260.439V268.998C562.448 270.407 562.963 271.489 563.994 272.246C565.06 273.002 566.383 273.38 567.964 273.38Z" fill="#F1EDE4"/>
<g filter="url(#filter0_d_211_2162)">
<g filter="url(#filter1_d_211_2162)">
<path d="M66.315 209.728C66.315 209.728 86.5804 214.133 103.499 213.421C140.829 211.85 145.162 192.23 143.591 154.91L141.17 97.3676C140.992 93.1393 141.495 87.5931 142.053 83.3338L142.465 80.0014L95.94 81.9593L96.6309 85.2452C97.5445 89.4426 98.5121 94.9269 98.6901 99.1553L101.112 156.698C101.754 171.956 100.379 183.064 83.6446 183.768C73.7142 184.186 68.2111 180.366 68.2111 180.366L66.315 209.728Z" fill="#E4D0A2"/>
<path d="M65.3171 209.664C65.2852 210.158 65.6191 210.601 66.1026 210.706L66.315 209.728C66.1026 210.706 66.1028 210.706 66.103 210.706L66.1039 210.706L66.1071 210.707L66.119 210.709L66.1645 210.719C66.2044 210.728 66.2635 210.74 66.3409 210.756C66.4957 210.789 66.7241 210.836 67.0201 210.896C67.6122 211.016 68.4753 211.187 69.5633 211.389C71.7389 211.793 74.8153 212.323 78.4229 212.832C85.6282 213.847 94.993 214.78 103.541 214.42C122.368 213.628 133.205 208.261 139.002 198.065C144.717 188.015 145.374 173.495 144.59 154.868L142.169 97.3256C141.995 93.1847 142.489 87.7067 143.045 83.4636L143.045 83.4566L143.458 80.1242C143.494 79.8325 143.4 79.5397 143.201 79.3235C143.001 79.1074 142.717 78.9899 142.423 79.0023L95.898 80.9602C95.6043 80.9726 95.3309 81.1135 95.1505 81.3456C94.9701 81.5777 94.9009 81.8774 94.9614 82.1651L95.6523 85.451L95.6538 85.4579C96.5639 89.6394 97.5167 95.0565 97.691 99.1973L100.112 156.74C100.435 164.394 100.225 170.736 97.9976 175.248C96.9026 177.467 95.3184 179.241 93.0368 180.514C90.7403 181.795 87.682 182.598 83.6025 182.769C78.7758 182.972 75.0423 182.145 72.5301 181.279C71.2732 180.845 70.321 180.401 69.6902 180.071C69.3749 179.906 69.14 179.769 68.9878 179.676C68.9117 179.629 68.8562 179.594 68.8217 179.571C68.8045 179.56 68.7924 179.552 68.7857 179.548L68.7813 179.545C68.7811 179.545 68.7809 179.544 68.7807 179.544C68.7805 179.544 68.7803 179.544 68.7801 179.544C68.7799 179.544 68.7797 179.544 68.7796 179.543C68.4836 179.339 68.1005 179.309 67.7763 179.466C67.4516 179.622 67.2364 179.942 67.2132 180.302L65.3171 209.664Z" stroke="#6B541F" stroke-width="2" stroke-linejoin="round"/>
</g>
<g filter="url(#filter2_d_211_2162)">
<path d="M195.915 212.312C196.915 212.312 197.762 211.573 197.897 210.581L205.569 154.015L213.073 210.575C213.205 211.569 214.053 212.312 215.056 212.312H263.248C264.194 212.312 265.01 211.65 265.205 210.725L287.044 107.274C287.903 103.479 289.622 99.1671 290.997 95.5451L292.544 91.5781H247.681V94.3378C247.681 98.4772 247.51 103.652 246.994 107.619L237.196 183.509L227.914 107.619C227.399 103.652 227.227 98.4772 227.227 94.3378V91.5781H190.786L191.302 94.3378C191.646 96.235 191.818 98.1323 191.818 100.202C191.818 102.789 191.646 105.376 191.302 107.619L182.708 182.646L173.941 107.619C173.426 103.652 173.254 98.4772 173.254 94.3378V91.5781H126.328L128.047 95.5451C129.594 99.1671 131.141 103.479 131.829 107.274L150.949 210.676C151.125 211.624 151.952 212.312 152.916 212.312H195.915Z" fill="#E4D0A2"/>
<path d="M237.223 175.491L228.907 107.497L228.906 107.49C228.398 103.586 228.227 98.4617 228.227 94.3378V91.5781V90.5781H227.227H190.786H189.582L189.803 91.7618L190.318 94.5161C190.318 94.5169 190.318 94.5177 190.318 94.5185C190.651 96.3544 190.818 98.1912 190.818 100.202C190.818 102.749 190.648 105.284 190.314 107.467L190.311 107.486L190.308 107.505L182.698 173.945L174.934 107.502L174.935 107.502L174.933 107.49C174.425 103.586 174.254 98.4617 174.254 94.3378V91.5781V90.5781H173.254H126.328H124.805L125.411 91.9757L127.128 95.9403C128.663 99.5338 130.177 103.765 130.845 107.452L130.845 107.455L149.966 210.858C150.229 212.28 151.47 213.312 152.916 213.312H195.915C197.416 213.312 198.686 212.203 198.888 210.715L205.558 161.536L212.082 210.707C212.28 212.198 213.552 213.312 215.056 213.312H263.248C264.666 213.312 265.891 212.319 266.184 210.932L288.019 107.494C288.02 107.492 288.02 107.49 288.021 107.487C288.771 104.18 290.192 100.458 291.475 97.0982C291.63 96.6948 291.782 96.2966 291.93 95.9049C291.931 95.9033 291.932 95.9017 291.932 95.9L293.476 91.9414L294.008 90.5781H292.544H247.681H246.681V91.5781V94.3378C246.681 98.4617 246.51 103.586 246.002 107.49L246.002 107.49L237.223 175.491Z" stroke="#6B541F" stroke-width="2"/>
</g>
<g filter="url(#filter3_d_211_2162)">
<path d="M378.264 179.87C378.264 179.87 364.807 185.042 350.428 185.042C329.965 185.042 308.501 173.221 308.501 151.979C308.501 130.738 330.518 121.502 349.506 121.502C363.148 121.502 374.946 126.674 374.946 126.674L379.001 91.0256C379.001 91.0256 365.728 86.7773 341.395 86.7773C296.967 86.7773 272.449 110.605 272.449 151.979C272.449 193.354 296.414 219.767 337.339 219.767C359.276 219.767 374.946 212.506 374.946 212.506L378.264 179.87Z" fill="#E4D0A2"/>
<path d="M377.905 178.937L379.423 178.353L379.259 179.971L375.941 212.607L375.883 213.173L375.366 213.413L374.946 212.506C375.366 213.413 375.366 213.413 375.366 213.413L375.365 213.414L375.361 213.415L375.351 213.42L375.313 213.437C375.28 213.452 375.232 213.474 375.169 213.502C375.044 213.557 374.859 213.638 374.618 213.739C374.135 213.943 373.425 214.231 372.506 214.576C370.669 215.267 367.995 216.184 364.632 217.101C357.908 218.934 348.416 220.767 337.339 220.767C316.655 220.767 300.149 214.086 288.82 202.075C277.498 190.072 271.449 172.856 271.449 151.979C271.449 131.093 277.642 114.502 289.572 103.139C301.495 91.7819 319.009 85.7773 341.395 85.7773C353.62 85.7773 363.077 86.8445 369.488 87.9151C372.693 88.4504 375.137 88.9866 376.785 89.3906C377.609 89.5926 378.234 89.7616 378.656 89.8809C378.867 89.9405 379.027 89.9878 379.135 90.0205C379.189 90.0369 379.231 90.0497 379.259 90.0585L379.293 90.0689L379.302 90.0718L379.305 90.0727L379.306 90.073C379.306 90.0731 379.306 90.0732 379.001 91.0256L379.306 90.0732L380.088 90.3234L379.995 91.1387L375.939 126.787L375.786 128.135L377.905 178.937ZM377.905 178.937L377.905 178.937L377.904 178.937L377.898 178.94L377.872 178.95L377.843 178.96C377.822 178.968 377.794 178.979 377.761 178.991C377.663 179.027 377.515 179.081 377.321 179.151C376.933 179.289 376.36 179.488 375.626 179.728C374.159 180.207 372.05 180.846 369.495 181.486C364.379 182.768 357.506 184.042 350.428 184.042C340.372 184.042 330.1 181.134 322.369 175.66C314.658 170.201 309.501 162.218 309.501 151.979C309.501 141.768 314.768 134.441 322.416 129.621C330.097 124.781 340.152 122.502 349.506 122.502C356.207 122.502 362.473 123.774 367.074 125.052C369.371 125.69 371.246 126.328 372.544 126.805C373.193 127.043 373.697 127.241 374.037 127.379C374.207 127.448 374.336 127.501 374.421 127.538C374.464 127.556 374.496 127.569 374.516 127.578L374.539 127.588L374.544 127.59L374.544 127.59M377.905 178.937L374.544 127.59M374.544 127.59L374.545 127.59L374.544 127.59Z" stroke="#6B541F" stroke-width="2"/>
</g>
<g filter="url(#filter4_d_211_2162)">
<path d="M394.195 211.941H438.79L438.261 208.772C437.556 204.723 436.851 199.441 436.851 195.392V105.251C436.851 101.202 437.556 95.9203 438.261 91.871L438.79 88.702H404.066C395.782 99.6175 374.277 112.47 360 116.519L363.702 149.265C379.389 145.744 389.436 137.822 396.134 126.906V195.392C396.134 199.441 395.429 204.723 394.724 208.772L394.195 211.941Z" fill="#E4D0A2"/>
<path d="M545.946 211.941L550 175.498C535.546 179.195 522.15 179.019 506.287 179.019H506.11C523.913 170.744 548.237 156.132 548.237 125.146C548.237 95.7442 526.909 86.9414 490.07 86.9414C465.217 86.9414 451.645 90.9907 451.645 90.9907L455.523 124.97C455.523 124.97 467.685 120.04 482.667 120.04C495.358 120.04 505.053 123.561 505.053 136.061C505.053 153.667 484.959 169.688 453.231 186.941V211.941H545.946Z" fill="#E4D0A2"/>
<path d="M546.94 212.052C546.883 212.558 546.455 212.941 545.946 212.941H453.231C452.679 212.941 452.231 212.494 452.231 211.941V186.941C452.231 186.575 452.431 186.238 452.753 186.063C468.596 177.448 481.463 169.177 490.359 160.901C499.263 152.617 504.053 144.458 504.053 136.061C504.053 130.122 501.78 126.459 498.099 124.217C494.327 121.92 488.957 121.04 482.667 121.04C475.281 121.04 468.579 122.256 463.72 123.475C461.292 124.084 459.329 124.692 457.976 125.147C457.299 125.375 456.776 125.564 456.424 125.695C456.247 125.76 456.114 125.812 456.026 125.846C455.981 125.863 455.949 125.876 455.927 125.885L455.904 125.894L455.899 125.896L455.898 125.896L546.94 212.052ZM546.94 212.052L550.994 175.608C551.03 175.282 550.904 174.958 550.656 174.743M546.94 212.052L550.656 174.743M550.656 174.743C550.408 174.528 550.07 174.448 549.752 174.529M550.656 174.743L549.752 174.529M549.752 174.529C536.726 177.861 524.566 178.019 510.5 178.02M549.752 174.529L510.5 178.02M451.645 90.9907L451.359 90.0325C450.894 90.171 450.596 90.6226 450.651 91.1041L454.529 125.083C454.564 125.394 454.743 125.67 455.012 125.829C455.28 125.989 455.608 126.014 455.898 125.896L451.645 90.9907ZM451.645 90.9907C451.359 90.0325 451.359 90.0324 451.359 90.0323L451.36 90.032L451.363 90.0312L451.373 90.0284L451.406 90.0186C451.435 90.0102 451.477 89.9981 451.533 89.9826C451.643 89.9515 451.806 89.9066 452.021 89.8498C452.452 89.7363 453.09 89.5755 453.931 89.3832C455.614 88.9985 458.11 88.4879 461.384 87.978C467.931 86.9582 477.589 85.9414 490.07 85.9414C508.524 85.9414 523.297 88.1374 533.477 94.1572C538.591 97.1807 542.547 101.17 545.217 106.312C547.883 111.446 549.237 117.676 549.237 125.146C549.237 154.498 527.825 169.404 510.5 178.02M451.645 90.9907L510.5 178.02M393.209 211.777C393.16 212.067 393.242 212.363 393.432 212.588C393.622 212.812 393.901 212.941 394.195 212.941H438.79C439.084 212.941 439.363 212.812 439.553 212.588C439.743 212.363 439.825 212.067 439.776 211.777L439.248 208.608L439.246 208.601C438.544 204.568 437.851 199.354 437.851 195.392V105.251C437.851 101.29 438.544 96.0757 439.246 92.0425L439.248 92.0356L439.776 88.8666C439.825 88.5766 439.743 88.28 439.553 88.0557C439.363 87.8313 439.084 87.702 438.79 87.702H404.066C403.753 87.702 403.459 87.8483 403.269 88.0974C399.236 93.4113 391.91 99.2763 383.753 104.335C375.609 109.387 366.75 113.565 359.727 115.557C359.256 115.69 358.951 116.145 359.006 116.631L362.708 149.378C362.74 149.66 362.89 149.915 363.122 150.08C363.353 150.245 363.643 150.303 363.921 150.241C378.491 146.971 388.327 139.941 395.134 130.25V195.392C395.134 199.354 394.441 204.568 393.739 208.601L393.738 208.608L393.209 211.777Z" stroke="#6B541F" stroke-width="2" stroke-linejoin="round"/>
</g>
</g>
<defs>
<filter id="filter0_d_211_2162" x="64.3145" y="78.0014" width="491.686" height="150.766" filterUnits="userSpaceOnUse" color-interpolation-filters="sRGB">
<feFlood flood-opacity="0" result="BackgroundImageFix"/>
<feColorMatrix in="SourceAlpha" type="matrix" values="0 0 0 0 0 0 0 0 0 0 0 0 0 0 0 0 0 0 127 0" result="hardAlpha"/>
<feOffset dx="4" dy="7"/>
<feComposite in2="hardAlpha" operator="out"/>
<feColorMatrix type="matrix" values="0 0 0 0 0.232609 0 0 0 0 0.182609 0 0 0 0 0.0673913 0 0 0 1 0"/>
<feBlend mode="normal" in2="BackgroundImageFix" result="effect1_dropShadow_211_2162"/>
<feBlend mode="normal" in="SourceGraphic" in2="effect1_dropShadow_211_2162" result="shape"/>
</filter>
<filter id="filter1_d_211_2162" x="60.3145" y="74.0014" width="89.5469" height="145.497" filterUnits="userSpaceOnUse" color-interpolation-filters="sRGB">
<feFlood flood-opacity="0" result="BackgroundImageFix"/>
<feColorMatrix in="SourceAlpha" type="matrix" values="0 0 0 0 0 0 0 0 0 0 0 0 0 0 0 0 0 0 127 0" result="hardAlpha"/>
<feOffset/>
<feGaussianBlur stdDeviation="2"/>
<feComposite in2="hardAlpha" operator="out"/>
<feColorMatrix type="matrix" values="0 0 0 0 0.496 0 0 0 0 0.389333 0 0 0 0 0.144 0 0 0 0.6 0"/>
<feBlend mode="normal" in2="BackgroundImageFix" result="effect1_dropShadow_211_2162"/>
<feBlend mode="normal" in="SourceGraphic" in2="effect1_dropShadow_211_2162" result="shape"/>
</filter>
<filter id="filter2_d_211_2162" x="119.282" y="85.5781" width="180.188" height="132.734" filterUnits="userSpaceOnUse" color-interpolation-filters="sRGB">
<feFlood flood-opacity="0" result="BackgroundImageFix"/>
<feColorMatrix in="SourceAlpha" type="matrix" values="0 0 0 0 0 0 0 0 0 0 0 0 0 0 0 0 0 0 127 0" result="hardAlpha"/>
<feOffset/>
<feGaussianBlur stdDeviation="2"/>
<feComposite in2="hardAlpha" operator="out"/>
<feColorMatrix type="matrix" values="0 0 0 0 0.494118 0 0 0 0 0.388235 0 0 0 0 0.145098 0 0 0 0.6 0"/>
<feBlend mode="normal" in2="BackgroundImageFix" result="effect1_dropShadow_211_2162"/>
<feBlend mode="normal" in="SourceGraphic" in2="effect1_dropShadow_211_2162" result="shape"/>
</filter>
<filter id="filter3_d_211_2162" x="266.449" y="80.7773" width="118.725" height="144.99" filterUnits="userSpaceOnUse" color-interpolation-filters="sRGB">
<feFlood flood-opacity="0" result="BackgroundImageFix"/>
<feColorMatrix in="SourceAlpha" type="matrix" values="0 0 0 0 0 0 0 0 0 0 0 0 0 0 0 0 0 0 127 0" result="hardAlpha"/>
<feOffset/>
<feGaussianBlur stdDeviation="2"/>
<feComposite in2="hardAlpha" operator="out"/>
<feColorMatrix type="matrix" values="0 0 0 0 0.494118 0 0 0 0 0.388235 0 0 0 0 0.145098 0 0 0 0.6 0"/>
<feBlend mode="normal" in2="BackgroundImageFix" result="effect1_dropShadow_211_2162"/>
<feBlend mode="normal" in="SourceGraphic" in2="effect1_dropShadow_211_2162" result="shape"/>
</filter>
<filter id="filter4_d_211_2162" x="354" y="80.9414" width="202" height="137" filterUnits="userSpaceOnUse" color-interpolation-filters="sRGB">
<feFlood flood-opacity="0" result="BackgroundImageFix"/>
<feColorMatrix in="SourceAlpha" type="matrix" values="0 0 0 0 0 0 0 0 0 0 0 0 0 0 0 0 0 0 127 0" result="hardAlpha"/>
<feOffset/>
<feGaussianBlur stdDeviation="2"/>
<feComposite in2="hardAlpha" operator="out"/>
<feColorMatrix type="matrix" values="0 0 0 0 0.496 0 0 0 0 0.389333 0 0 0 0 0.144 0 0 0 0.6 0"/>
<feBlend mode="normal" in2="BackgroundImageFix" result="effect1_dropShadow_211_2162"/>
<feBlend mode="normal" in="SourceGraphic" in2="effect1_dropShadow_211_2162" result="shape"/>
</filter>
<linearGradient id="paint0_linear_211_2162" x1="66" y1="0" x2="66" y2="216" gradientUnits="userSpaceOnUse">
<stop stop-color="#DC4223" stop-opacity="0"/>
<stop offset="1" stop-color="#DC4223"/>
</linearGradient>
<linearGradient id="paint1_linear_211_2162" x1="52.4615" y1="0" x2="52.4615" y2="189.084" gradientUnits="userSpaceOnUse">
<stop stop-color="#E4D0A2" stop-opacity="0"/>
<stop offset="1" stop-color="#E4D0A2"/>
</linearGradient>
<linearGradient id="paint2_linear_211_2162" x1="66" y1="0" x2="66" y2="216" gradientUnits="userSpaceOnUse">
<stop stop-color="#7423DC" stop-opacity="0"/>
<stop offset="1" stop-color="#7423DC"/>
</linearGradient>
<linearGradient id="paint3_linear_211_2162" x1="52.4615" y1="0" x2="52.4615" y2="189.084" gradientUnits="userSpaceOnUse">
<stop stop-color="#E4D0A2" stop-opacity="0"/>
<stop offset="1" stop-color="#E4D0A2"/>
</linearGradient>
<linearGradient id="paint4_linear_211_2162" x1="66" y1="0" x2="66" y2="216" gradientUnits="userSpaceOnUse">
<stop stop-color="#A1DD40" stop-opacity="0"/>
<stop offset="1" stop-color="#A1DD40"/>
</linearGradient>
<linearGradient id="paint5_linear_211_2162" x1="52.4615" y1="0" x2="52.4615" y2="189.084" gradientUnits="userSpaceOnUse">
<stop stop-color="#C89D3D" stop-opacity="0"/>
<stop offset="1" stop-color="#C89D3D"/>
</linearGradient>
<linearGradient id="paint6_linear_211_2162" x1="66" y1="0" x2="66" y2="216" gradientUnits="userSpaceOnUse">
<stop stop-color="#1DC5B2" stop-opacity="0"/>
<stop offset="1" stop-color="#1DC5B2"/>
</linearGradient>
<linearGradient id="paint7_linear_211_2162" x1="52.4615" y1="0" x2="52.4615" y2="189.084" gradientUnits="userSpaceOnUse">
<stop stop-color="#E4D0A2" stop-opacity="0"/>
<stop offset="1" stop-color="#E4D0A2"/>
</linearGradient>
</defs>
</svg>
