<svg width="1075" height="727" viewBox="0 0 1075 727" fill="none" xmlns="http://www.w3.org/2000/svg">
<g clip-path="url(#clip0_737_3767)">
<g filter="url(#filter0_b_737_3767)">
<path d="M1048.98 0H26.0225C19.1209 0 12.502 3.05535 7.62182 8.4939C2.74165 13.9325 0 21.3087 0 29L0 697C0 704.691 2.74165 712.067 7.62182 717.506C12.502 722.944 19.1209 726 26.0225 726H1048.98C1054.08 726.022 1059.08 724.355 1063.33 721.21C1066.43 718.927 1069.06 715.934 1071.04 712.43C1073.65 707.808 1075.02 702.457 1075 697V29C1075 21.3087 1072.26 13.9325 1067.38 8.4939C1062.5 3.05535 1055.88 0 1048.98 0Z" fill="#1D1B23" fill-opacity="0.3"/>
</g>
<path d="M1037.81 25.04H42.6033C31.3816 25.04 22.2847 35.1271 22.2847 47.57V678.44C22.2847 690.883 31.3816 700.97 42.6033 700.97H1037.81C1049.03 700.97 1058.13 690.883 1058.13 678.44V47.57C1058.13 35.1271 1049.03 25.04 1037.81 25.04Z" stroke="#E4D0A2" stroke-width="2" stroke-miterlimit="10"/>
<path d="M540.205 693.67L528.454 687.93L533.631 700.96L528.454 714L540.205 708.26L551.956 714L546.78 700.96L551.956 687.93L540.205 693.67Z" fill="#E4D0A2"/>
<path d="M559.523 704.57C561.321 704.57 562.779 702.953 562.779 700.96C562.779 698.966 561.321 697.35 559.523 697.35C557.725 697.35 556.268 698.966 556.268 700.96C556.268 702.953 557.725 704.57 559.523 704.57Z" fill="#E4D0A2"/>
<path d="M520.888 704.57C522.686 704.57 524.144 702.953 524.144 700.96C524.144 698.966 522.686 697.35 520.888 697.35C519.09 697.35 517.632 698.966 517.632 700.96C517.632 702.953 519.09 704.57 520.888 704.57Z" fill="#E4D0A2"/>
<path d="M540.205 17.74L528.454 12L533.631 25.04L528.454 38.07L540.205 32.33L551.956 38.07L546.78 25.04L551.956 12L540.205 17.74Z" fill="#E4D0A2"/>
<path d="M559.523 28.6497C561.321 28.6497 562.779 27.0334 562.779 25.0397C562.779 23.0459 561.321 21.4297 559.523 21.4297C557.725 21.4297 556.268 23.0459 556.268 25.0397C556.268 27.0334 557.725 28.6497 559.523 28.6497Z" fill="#E4D0A2"/>
<path d="M520.888 28.6497C522.686 28.6497 524.144 27.0334 524.144 25.0397C524.144 23.0459 522.686 21.4297 520.888 21.4297C519.09 21.4297 517.632 23.0459 517.632 25.0397C517.632 27.0334 519.09 28.6497 520.888 28.6497Z" fill="#E4D0A2"/>
<path d="M1022.6 86.3102L1046.65 80.6002L1023.73 75.2102L1028.31 67.3602L1020.56 72.9402L1015.33 45.9502L1010.18 72.9402L1002.42 67.3602L1007.02 75.2202L984.094 80.6702L1008.13 86.3202L1002.42 96.0802L1010.55 90.2302L1015.4 115.31L1020.19 90.2402L1028.31 96.0802L1022.6 86.3102Z" fill="#E4D0A2"/>
<path d="M973.741 56.3405L969.908 65.1705L978.114 61.5205L986.078 65.7805L982.795 56.6705L986.628 47.8405L978.421 51.4905L970.449 47.2305L973.741 56.3405Z" fill="#E4D0A2"/>
<path d="M989.947 505.79C988.606 499.875 988.828 493.657 990.587 487.879C992.346 482.1 995.568 477.004 999.867 473.201C995.141 472.233 990.272 472.598 985.706 474.26C981.141 475.923 977.025 478.831 973.737 482.718C970.449 486.604 968.094 491.344 966.888 496.502C965.683 501.66 965.665 507.072 966.837 512.24C968.009 517.407 970.333 522.166 973.596 526.078C976.859 529.991 980.955 532.932 985.51 534.631C990.065 536.33 994.932 536.734 999.664 535.804C1004.4 534.874 1008.84 532.642 1012.59 529.31C1007.18 528.213 1002.17 525.411 998.152 521.241C994.137 517.07 991.288 511.707 989.947 505.79Z" fill="#E4D0A2"/>
<path d="M879.633 607.63L878.515 629.19L892.457 614.11L911.901 615.35L898.31 599.89L899.429 578.33L885.477 593.4L866.033 592.16L879.633 607.63Z" fill="#E4D0A2"/>
<path d="M930.741 646.43L936.955 638.53L928.378 642.92L927.729 632.46L924.473 642.3L917.348 635.39L921.317 644.92L911.883 645.62L920.766 649.25L914.553 657.14L923.129 652.75L923.779 663.22L927.034 653.38L934.159 660.28L930.191 650.76L939.615 650.06L930.741 646.43Z" fill="#E4D0A2"/>
<path d="M900.24 580.73C902.357 580.73 904.073 578.828 904.073 576.48C904.073 574.133 902.357 572.23 900.24 572.23C898.123 572.23 896.407 574.133 896.407 576.48C896.407 578.828 898.123 580.73 900.24 580.73Z" fill="#E4D0A2"/>
<path d="M878.623 635.89C880.74 635.89 882.456 633.987 882.456 631.64C882.456 629.292 880.74 627.39 878.623 627.39C876.506 627.39 874.79 629.292 874.79 631.64C874.79 633.987 876.506 635.89 878.623 635.89Z" fill="#E4D0A2"/>
<path d="M1019.84 510.39C1026.23 510.39 1031.4 504.65 1031.4 497.57C1031.4 490.49 1026.23 484.75 1019.84 484.75C1013.46 484.75 1008.28 490.49 1008.28 497.57C1008.28 504.65 1013.46 510.39 1019.84 510.39Z" fill="#E4D0A2"/>
<path d="M922.308 726.14H912.334C915.603 727.096 919.04 727.096 922.308 726.14Z" fill="#E4D0A2"/>
<path d="M912.199 726.11H922.444L922.787 726H911.847L912.199 726.11Z" fill="#E4D0A2"/>
<path d="M1050.58 726H1054.28C1059.41 726.022 1064.43 724.355 1068.71 721.21C1071.82 718.927 1074.46 715.934 1076.45 712.43C1079.06 707.806 1080.44 702.455 1080.41 697V646.15C1077.18 652.09 1072.81 655.52 1070.42 655.15C1066.18 654.46 1067.62 640.27 1067.93 630.15C1068.24 620.03 1076.77 592.94 1060.3 580.75C1043.83 568.56 1055.06 527.97 1055.06 527.97C1046.75 541.84 1038.33 575.34 1049.01 590.55C1059.69 605.76 1053.28 621.67 1051.71 638.55C1050.15 655.43 1042.86 663.55 1042.55 655.14C1042.25 646.73 1050.78 632.14 1031.5 617.34C1012.21 602.54 1006.85 570.56 1006.85 570.56C1006.85 570.56 997.685 607.77 1013.56 622.75C1029.43 637.73 1034.93 661.21 1029.43 663.93C1023.93 666.65 1006.88 635.5 995.872 622.65C984.861 609.8 969.024 624.65 957.436 605.74C945.847 586.83 932.509 581.35 932.509 581.35C933.51 582.79 939.155 589.27 948.525 609.35C957.896 629.43 962.567 629.15 977.438 632.19C992.31 635.23 1012.21 661.37 1011.29 671.53C1010.37 681.69 1007.87 664.68 982.435 673.82C957.003 682.96 946.956 667.49 946.956 667.49C956.777 688.56 979.423 681.71 988.82 682.49C998.217 683.27 1019.25 695.67 994.538 695.67C969.827 695.67 936.648 700.23 927.485 713.01C918.323 725.79 900.25 719.77 900.25 719.77C903.804 722.501 907.719 724.603 911.856 726H922.796C930.488 723.65 938.01 717 952.196 713C977.826 705.73 1026.15 718.25 1010.09 720.28C1004.6 721.059 999.293 723.001 994.465 726H1050.58Z" fill="#E4D0A2"/>
<path d="M1255.5 678.81C1255.5 812.44 1157.8 920.81 1037.25 920.81C931.796 920.81 843.821 837.87 823.466 727.62C820.513 711.57 819.03 695.23 819.038 678.85C819.038 545.22 916.735 436.85 1037.28 436.85C1051.77 436.842 1066.21 438.427 1080.41 441.58C1180.27 463.77 1255.5 561.55 1255.5 678.81Z" stroke="#E4D0A2" stroke-width="7" stroke-miterlimit="10"/>
<path d="M1199.69 678.81C1199.66 715.902 1189.28 752.077 1169.99 782.379C1150.7 812.682 1123.43 835.632 1091.92 848.086C1060.41 860.541 1026.2 861.891 993.974 851.952C961.745 842.013 933.076 821.271 911.89 792.565C890.704 763.86 878.039 728.595 875.627 691.599C873.216 654.603 881.177 617.685 898.42 585.9C915.663 554.115 941.345 529.017 971.949 514.042C1002.55 499.068 1036.58 494.949 1069.38 502.25C1106.15 510.467 1139.22 532.543 1162.97 564.728C1186.72 596.912 1199.7 637.222 1199.69 678.81V678.81Z" stroke="#E4D0A2" stroke-miterlimit="10"/>
<path d="M27.5062 850.1C0.108866 850.1 -26.6732 841.092 -49.4533 824.214C-72.2334 807.336 -89.9883 783.347 -100.473 755.281C-110.957 727.214 -113.701 696.33 -108.356 666.535C-103.011 636.739 -89.8175 609.37 -70.4447 587.889C-51.0718 566.408 -26.3893 551.779 0.481638 545.852C27.3526 539.925 55.205 542.967 80.5169 554.593C105.829 566.218 127.463 585.905 142.684 611.165C157.905 636.424 166.03 666.121 166.03 696.5C166.036 706.695 165.129 716.865 163.324 726.86C156.993 761.629 140.009 792.897 115.253 815.361C90.497 837.824 59.4946 850.098 27.5062 850.1V850.1Z" stroke="#E4D0A2" stroke-width="7" stroke-miterlimit="10"/>
<path d="M27.5063 810.821C7.11521 810.821 -12.8179 804.116 -29.7725 791.554C-46.727 778.993 -59.9415 761.138 -67.7448 740.249C-75.5481 719.36 -77.5898 696.374 -73.6117 674.198C-69.6336 652.022 -59.8144 631.652 -45.3957 615.664C-30.9771 599.676 -12.6066 588.788 7.39265 584.377C27.3919 579.966 48.1217 582.23 66.9605 590.883C85.7994 599.535 101.901 614.188 113.23 632.988C124.559 651.788 130.605 673.89 130.605 696.501C130.608 704.089 129.934 711.659 128.594 719.101C123.879 744.976 111.237 768.247 92.812 784.964C74.3869 801.682 51.3136 810.817 27.5063 810.821V810.821Z" stroke="#E4D0A2" stroke-miterlimit="10"/>
</g>
<defs>
<filter id="filter0_b_737_3767" x="-8" y="-8" width="1091" height="742" filterUnits="userSpaceOnUse" color-interpolation-filters="sRGB">
<feFlood flood-opacity="0" result="BackgroundImageFix"/>
<feGaussianBlur in="BackgroundImage" stdDeviation="4"/>
<feComposite in2="SourceAlpha" operator="in" result="effect1_backgroundBlur_737_3767"/>
<feBlend mode="normal" in="SourceGraphic" in2="effect1_backgroundBlur_737_3767" result="shape"/>
</filter>
<clipPath id="clip0_737_3767">
<rect width="1075" height="727" fill="white"/>
</clipPath>
</defs>
</svg>
