<svg width="97" height="96" viewBox="0 0 97 96" fill="none" xmlns="http://www.w3.org/2000/svg">
<path d="M74.1112 52.4194C76.9847 52.4194 79.0303 50.4955 79.4199 47.695L79.4927 47.1837C79.9067 44.31 78.4216 42.5324 75.7185 42.5324H73.9406L72.3821 52.4194H74.1112ZM69.825 38.9526H75.8887C81.6115 38.9526 84.7528 41.9723 84.2416 47.476C83.7301 53.0526 79.8583 55.9991 73.8676 55.9991H67.1465L69.825 38.9526ZM61.3261 47.9386H66.8055L66.2697 51.2991H60.7904L61.3261 47.9386ZM49.1989 43.3359H53.7527L52.9491 48.3526H53.4117L58.2823 43.3359H62.7144L62.5682 44.2371L57.1379 49.5945L60.8878 54.8545L60.7173 55.9991H56.2853L52.9977 51.0313H52.5351L51.7559 55.9991H47.202L49.1989 43.3359ZM43.257 48.2308C43.5247 46.5992 43.0377 45.7225 41.5036 45.7225C40.0912 45.7225 39.1414 46.5261 38.8736 48.2308H43.257ZM34.3197 49.1806C34.9773 45.0406 37.6073 43.0438 41.7959 43.0438C45.4973 43.0438 47.4698 45.0163 46.9341 48.4014L46.5687 50.6903H38.4838C38.2649 52.1028 38.8006 52.9064 41.1139 52.9064H46.228L45.7407 55.9991H40.2617C35.927 55.9991 33.6379 53.4178 34.3197 49.1806ZM23.1907 52.4194C26.0643 52.4194 28.1099 50.4955 28.4996 47.695L28.5726 47.1837C28.9866 44.31 27.5011 42.5324 24.798 42.5324H23.0203L21.4618 52.4194H23.1907ZM18.9049 38.9526H24.9685C30.6912 38.9526 33.8327 41.9723 33.3212 47.476C32.81 53.0526 28.9379 55.9991 22.9472 55.9991H16.2261L18.9049 38.9526Z" fill="white" stroke="#CECECF" stroke-width="0.00118776" stroke-miterlimit="10"/>
</svg>
