<svg width="331" height="96" viewBox="0 0 331 96" fill="none" xmlns="http://www.w3.org/2000/svg">
<g clip-path="url(#clip0_853_4628)">
<path d="M111.408 17.5547L85.6239 89.8984L5.3319 60.9006L2.34863 64.7696L87.8917 95.8224L115.288 18.3751L111.408 17.5547Z" fill="white"/>
<path fill-rule="evenodd" clip-rule="evenodd" d="M48.4648 3.80176L108.753 16.4868L83.8561 86.5996L6.12256 58.4889L48.4648 3.80176ZM48.7867 4.68061L7.41644 58.113L83.3762 85.5823L107.701 17.0765L48.7867 4.68061Z" fill="white"/>
<path fill-rule="evenodd" clip-rule="evenodd" d="M47.026 0.667969L113.018 14.3875L85.7641 90.2196L0.680176 59.8134L47.026 0.667969ZM47.2133 1.17767L1.43757 59.5943L85.4848 89.6307L112.403 14.731L47.2133 1.17767Z" fill="white"/>
<path d="M57.9024 50.8131C57.8666 50.4998 58.0581 50.0131 58.4768 49.353C56.5707 49.8616 54.6204 50.1896 52.6533 50.3325C50.6883 50.475 48.9189 50.382 47.341 50.0537C45.6054 49.6911 44.1516 49.0643 42.9776 48.1725C41.8037 47.281 41.1852 46.1569 41.1241 44.8004C41.0631 43.4438 41.6059 42.0829 42.7567 40.7177C44.1705 39.0359 46.3838 37.5164 49.3944 36.1598C52.2851 34.8375 55.363 33.9727 58.5209 33.5962C61.5947 33.2403 64.2456 33.2958 66.4715 33.7629C68.1692 34.1189 69.5872 34.6978 70.7233 35.4997C71.8594 36.3016 72.5728 37.3112 72.8586 38.5291L75.8291 36.2945L81.0638 37.3872L67.9567 47.1493C66.1348 48.5116 65.1418 49.2712 64.9777 49.4277C64.7252 49.7255 64.7104 50.0234 64.9313 50.3218C65.1522 50.6202 65.5478 50.8289 66.1159 50.9478C67.1531 51.1614 68.7857 51.1223 71.0136 50.8304C73.8371 50.484 76.5912 49.7084 79.1806 48.5305C81.6805 47.379 83.5673 46.0458 84.8423 44.5312C86.3279 42.7622 86.883 40.9359 86.5062 39.0525C86.128 37.169 84.6718 35.421 82.139 33.8088C79.604 32.1971 76.3362 30.9738 72.3371 30.1384C67.7422 29.1831 63.0358 28.8883 58.359 29.2626C53.6105 29.6315 49.2871 30.6796 45.3887 32.4073C41.4902 34.1349 38.5006 36.2358 36.4241 38.7097C34.2466 41.3002 33.4092 43.7478 33.9142 46.0523C34.417 48.3567 36.2621 50.366 39.4453 52.0801C42.6263 53.7933 46.6089 55.1497 51.391 56.1488C56.5033 57.2169 61.1802 57.6442 65.4216 57.4307C69.6608 57.2169 73.2017 56.6216 76.044 55.6446L81.3374 56.7491C79.4142 57.647 76.7596 58.4186 73.37 59.0637C69.9807 59.7091 66.3409 60.0174 62.4509 59.9889C58.5525 59.9612 54.2522 59.457 49.5522 58.4762C45.2203 57.5712 41.4797 56.4369 38.3281 55.0731C35.1765 53.7094 32.8202 52.1531 31.2571 50.404C29.696 48.6594 28.9259 46.8642 28.9449 45.0183C28.9827 42.6812 29.9737 40.3571 31.9176 38.0463C34.0846 35.4705 37.1226 33.2203 41.0337 31.2953C45.8178 28.9319 51.0375 27.4467 56.6948 26.8398C62.35 26.2332 68.2976 26.5814 74.5376 27.8846C79.374 28.8944 83.2664 30.3375 86.2161 32.214C89.1658 34.0904 90.8592 36.3223 91.2968 38.9094C91.6528 41.1327 90.9286 43.3162 89.1214 45.4604C86.5463 48.5227 82.265 50.8279 76.2839 52.3759C70.9337 53.7674 66.1516 54.0235 61.9334 53.144C60.5849 52.8634 59.5897 52.5266 58.9417 52.1335C58.2958 51.7405 57.9487 51.3002 57.9003 50.8131H57.9024ZM47.9995 42.0594C46.773 43.5151 46.4532 44.7793 47.0381 45.8524C47.623 46.9258 48.7317 47.6324 50.3684 47.9729C51.4583 48.1993 52.7521 48.2641 54.2543 48.1673C55.8743 48.0501 57.4796 47.7637 59.0406 47.3128C60.7721 46.8212 62.432 46.1095 63.9805 45.1955C65.5857 44.2528 66.8564 43.2525 67.7905 42.1951C68.9897 40.7338 69.2695 39.4649 68.6299 38.3881C67.9925 37.3114 66.7281 36.5758 64.843 36.1813C63.5429 35.9191 62.2111 35.8472 60.8898 35.9675C59.4992 36.083 57.9697 36.4159 56.2972 36.9663C54.6036 37.5267 52.9815 38.2904 51.4688 39.2404C49.9246 40.2026 48.7674 41.1422 47.9995 42.0594Z" fill="white"/>
<path d="M57.9024 50.8131C57.8666 50.4998 58.0581 50.0131 58.4768 49.353C56.5707 49.8616 54.6204 50.1896 52.6533 50.3325C50.6883 50.475 48.9189 50.382 47.341 50.0537C45.6054 49.6911 44.1516 49.0643 42.9776 48.1725C41.8037 47.281 41.1852 46.1569 41.1241 44.8004C41.0631 43.4438 41.6059 42.0829 42.7567 40.7177C44.1705 39.0359 46.3838 37.5164 49.3944 36.1598C52.2851 34.8375 55.363 33.9727 58.5209 33.5962C61.5947 33.2403 64.2456 33.2958 66.4715 33.7629C68.1692 34.1189 69.5872 34.6978 70.7233 35.4997C71.8594 36.3016 72.5728 37.3112 72.8586 38.5291L75.8291 36.2945L81.0638 37.3872L67.9567 47.1493C66.1348 48.5116 65.1418 49.2712 64.9777 49.4277C64.7252 49.7255 64.7104 50.0234 64.9313 50.3218C65.1522 50.6202 65.5478 50.8289 66.1159 50.9478C67.1531 51.1614 68.7857 51.1223 71.0136 50.8304C73.8371 50.484 76.5912 49.7084 79.1806 48.5305C81.6805 47.379 83.5673 46.0458 84.8423 44.5312C86.3279 42.7622 86.883 40.9359 86.5062 39.0525C86.128 37.169 84.6718 35.421 82.139 33.8088C79.604 32.1971 76.3362 30.9738 72.3371 30.1384C67.7422 29.1831 63.0358 28.8883 58.359 29.2626C53.6105 29.6315 49.2871 30.6796 45.3887 32.4073C41.4902 34.1349 38.5006 36.2358 36.4241 38.7097C34.2466 41.3002 33.4092 43.7478 33.9142 46.0523C34.417 48.3567 36.2621 50.366 39.4453 52.0801C42.6263 53.7933 46.6089 55.1497 51.391 56.1488C56.5033 57.2169 61.1802 57.6442 65.4216 57.4307C69.6608 57.2169 73.2017 56.6216 76.044 55.6446L81.3374 56.7491C79.4142 57.647 76.7596 58.4186 73.37 59.0637C69.9807 59.7091 66.3409 60.0174 62.4509 59.9889C58.5525 59.9612 54.2522 59.457 49.5522 58.4762C45.2203 57.5712 41.4797 56.4369 38.3281 55.0731C35.1765 53.7094 32.8202 52.1531 31.2571 50.404C29.696 48.6594 28.9259 46.8642 28.9449 45.0183C28.9827 42.6812 29.9737 40.3571 31.9176 38.0463C34.0846 35.4705 37.1226 33.2203 41.0337 31.2953C45.8178 28.9319 51.0375 27.4467 56.6948 26.8398C62.35 26.2332 68.2976 26.5814 74.5376 27.8846C79.374 28.8944 83.2664 30.3375 86.2161 32.214C89.1658 34.0904 90.8592 36.3223 91.2968 38.9094C91.6528 41.1327 90.9286 43.3162 89.1214 45.4604C86.5463 48.5227 82.265 50.8279 76.2839 52.3759C70.9337 53.7674 66.1516 54.0235 61.9334 53.144C60.5849 52.8634 59.5897 52.5266 58.9417 52.1335C58.2958 51.7405 57.9487 51.3002 57.9003 50.8131H57.9024ZM47.9995 42.0594C46.773 43.5151 46.4532 44.7793 47.0381 45.8524C47.623 46.9258 48.7317 47.6324 50.3684 47.9729C51.4583 48.1993 52.7521 48.2641 54.2543 48.1673C55.8743 48.0501 57.4796 47.7637 59.0406 47.3128C60.7721 46.8212 62.432 46.1095 63.9805 45.1955C65.5857 44.2528 66.8564 43.2525 67.7905 42.1951C68.9897 40.7338 69.2695 39.4649 68.6299 38.3881C67.9925 37.3114 66.7281 36.5758 64.843 36.1813C63.5429 35.9191 62.2111 35.8472 60.8898 35.9675C59.4992 36.083 57.9697 36.4159 56.2972 36.9663C54.6036 37.5267 52.9815 38.2904 51.4688 39.2404C49.9246 40.2026 48.7674 41.1422 47.9995 42.0594Z" fill="white"/>
<path d="M132.872 60.6812V44.6599H128.181V41.3955H140.758V44.6652H136.067V60.6812H132.872Z" fill="white"/>
<path d="M142.828 60.6812V41.3955H146.023V48.9827H152.286V41.3955H155.48V60.6812H152.286V52.246H146.023V60.6812H142.828Z" fill="white"/>
<path d="M173.024 60.6812H169.56L168.181 56.3166H161.858L160.551 60.6833H157.153L163.291 41.3955H166.707L173.024 60.6812ZM167.169 53.0446L164.977 45.889L162.83 53.0446H167.169Z" fill="white"/>
<path d="M174.623 60.6812V41.3955H177.817V60.6812H174.623Z" fill="white"/>
<path d="M189.252 60.6812L185.465 41.3955H188.742L191.119 54.6527L193.986 41.3955H197.782L200.573 54.8834L202.99 41.3955H206.201L202.411 60.6866H198.999L195.833 46.2518L192.711 60.6866L189.252 60.6812Z" fill="white"/>
<path d="M207.862 60.6812V41.3955H219.59V44.6652H211.06V48.9322H218.996V52.1773H211.06V57.4179H219.894V60.6866L207.862 60.6812Z" fill="white"/>
<path d="M222.578 41.3955H228.91C230.638 41.3955 231.854 41.5533 232.559 41.8688C233.264 42.1845 233.856 42.7412 234.336 43.5392C234.793 44.3306 235.042 45.2248 235.061 46.1387C235.08 47.0526 234.867 47.9562 234.443 48.7658C234.028 49.5151 233.492 50.0698 232.833 50.4297C233.74 50.737 234.518 51.3399 235.043 52.1419C235.574 52.9491 235.84 53.932 235.84 55.0906C235.84 56.4947 235.503 57.6823 234.827 58.6534C234.152 59.6245 233.354 60.2232 232.432 60.4494C231.788 60.6096 230.301 60.6887 227.972 60.6866H222.59L222.578 41.3955ZM225.772 44.6159V49.0589H227.87C229.13 49.0589 229.908 49.037 230.205 48.9934C230.7 48.929 231.153 48.6807 231.474 48.2978C231.781 47.9278 231.933 47.4233 231.932 46.7843C231.932 46.2174 231.808 45.7569 231.559 45.4027C231.349 45.0775 231.027 44.8415 230.654 44.7404C230.3 44.6538 229.284 44.6101 227.606 44.6094L225.772 44.6159ZM225.772 52.2782V57.419H228.732C230.031 57.419 230.864 57.3514 231.233 57.2161C231.623 57.0612 231.949 56.779 232.159 56.4153C232.41 56.0181 232.534 55.5125 232.534 54.9017C232.534 54.2713 232.401 53.7528 232.134 53.3463C231.884 52.9541 231.508 52.6582 231.067 52.5069C230.625 52.3544 229.72 52.2782 228.351 52.2782H225.772Z" fill="white"/>
<path d="M238.5 60.6812V41.3955H243.272L246.15 54.5797L248.984 41.3955H253.798V60.6812H250.83V45.4746L247.677 60.6844H244.611L241.471 45.4746V60.6812H238.5Z" fill="white"/>
<path d="M271.207 60.6812H267.742L266.363 56.3166H260.039L258.736 60.6812H255.34L261.475 41.3955H264.889L271.207 60.6812ZM265.35 53.0446L263.159 45.889L261.013 53.0446H265.35Z" fill="white"/>
<path d="M278.553 61.0052C274.677 61.0052 272.519 58.8004 272.082 54.3906L275.201 54.017C275.551 56.4795 276.696 57.7108 278.636 57.7108C279.598 57.7108 280.354 57.4603 280.907 56.9594C281.172 56.726 281.383 56.4377 281.526 56.1144C281.669 55.7911 281.739 55.4406 281.733 55.0872C281.745 54.6954 281.646 54.3081 281.446 53.9708C281.229 53.6442 280.925 53.384 280.569 53.2195C280.176 53.0219 279.221 52.6917 277.704 52.2287C276.345 51.8171 275.349 51.3706 274.717 50.889C274.071 50.3867 273.555 49.7355 273.215 48.9911C272.841 48.2007 272.65 47.3362 272.657 46.4621C272.642 45.4688 272.889 44.4893 273.374 43.6228C273.831 42.8035 274.522 42.1398 275.359 41.7174C276.202 41.288 277.244 41.0732 278.483 41.0732C280.343 41.0732 281.799 41.5778 282.848 42.5868C283.898 43.5959 284.451 45.0383 284.509 46.914L281.315 47.0836C281.171 46.0466 280.867 45.3213 280.4 44.9077C279.934 44.494 279.267 44.2876 278.401 44.2883C277.535 44.2883 276.869 44.4672 276.401 44.825C275.933 45.1828 275.7 45.6283 275.7 46.1615C275.697 46.4168 275.755 46.669 275.866 46.8986C275.978 47.1281 276.142 47.3288 276.344 47.485C276.768 47.8428 277.739 48.2364 279.256 48.6658C280.861 49.1317 282.02 49.6215 282.734 50.1354C283.445 50.6427 284.009 51.3274 284.371 52.1213C284.747 52.9321 284.935 53.9165 284.935 55.0743C284.935 56.749 284.42 58.1567 283.39 59.2973C282.36 60.4381 280.75 61.0081 278.56 61.0074L278.553 61.0052Z" fill="white"/>
<path d="M291.185 60.6812V44.6599H286.494V41.3955H299.069V44.6652H294.379V60.6812H291.185Z" fill="white"/>
<path d="M301.14 60.6812V41.3955H312.869V44.6652H304.336V48.9322H312.269V52.1773H304.336V57.4179H313.168V60.6866L301.14 60.6812Z" fill="white"/>
<path d="M315.877 60.6812V41.3955H322.595C324.313 41.3955 325.54 41.5687 326.277 41.9151C327.014 42.2614 327.618 42.8618 328.092 43.7163C328.565 44.575 328.801 45.5992 328.802 46.7885C328.802 48.2964 328.441 49.5104 327.718 50.4308C326.995 51.3511 325.969 51.9296 324.638 52.1666C325.279 52.6193 325.85 53.164 326.333 53.7832C326.782 54.3671 327.39 55.4137 328.158 56.923L330.073 60.6866H326.244L323.957 56.4883C323.132 54.9661 322.571 54.0144 322.273 53.6329C322.03 53.2938 321.705 53.0217 321.328 52.8417C320.995 52.6986 320.462 52.6271 319.728 52.6271H319.071V60.6876L315.877 60.6812ZM319.071 49.5537H321.433C322.875 49.5537 323.793 49.49 324.186 49.3626C324.588 49.2296 324.927 48.9568 325.143 48.5941C325.388 48.2076 325.51 47.6945 325.511 47.0547C325.511 46.4407 325.388 45.9476 325.143 45.5755C324.909 45.2119 324.558 44.9401 324.147 44.8059C323.848 44.7099 322.987 44.662 321.563 44.662H319.073L319.071 49.5537Z" fill="white"/>
<path d="M128.929 84.208L135.01 64.917H137.255L143.726 84.208H141.332L139.494 78.3685H132.831L131.123 84.208H128.929ZM133.437 76.298H138.85L137.201 70.9498C136.692 69.3081 136.319 67.9734 136.081 66.9458C135.873 68.1929 135.583 69.4248 135.211 70.6331L133.437 76.298Z" fill="white"/>
<path d="M149.971 77.9453L151.967 77.7712C152.071 78.8372 152.309 79.6675 152.682 80.2622C153.073 80.8761 153.623 81.3719 154.274 81.6972C154.996 82.064 155.797 82.2488 156.607 82.2337C157.847 82.2337 158.811 81.93 159.497 81.3225C160.183 80.7149 160.526 79.9276 160.526 78.9612C160.538 78.4396 160.409 77.9252 160.152 77.4717C159.879 77.0268 159.488 76.6665 159.022 76.4293C158.521 76.1607 157.433 75.776 155.757 75.2766C154.269 74.8332 153.207 74.3875 152.573 73.9405C151.949 73.5028 151.442 72.9182 151.097 72.2376C150.737 71.5136 150.556 70.7137 150.57 69.9052C150.57 68.3444 151.074 67.0691 152.082 66.0794C153.09 65.0897 154.45 64.5945 156.16 64.5938C157.336 64.5938 158.364 64.8263 159.243 65.2915C160.109 65.7417 160.822 66.4379 161.294 67.2924C161.781 68.1604 162.041 69.1828 162.076 70.3593L160.08 70.5342C159.975 69.2804 159.6 68.3501 158.955 67.7433C158.311 67.1364 157.405 66.8341 156.238 66.8362C155.054 66.8362 154.151 67.1014 153.528 67.6316C153.224 67.8807 152.982 68.1959 152.82 68.5529C152.657 68.9099 152.578 69.2993 152.588 69.6916C152.588 70.4716 152.817 71.076 153.273 71.5047C153.73 71.9331 154.754 72.3672 156.345 72.8057C157.903 73.2348 158.998 73.6081 159.63 73.9254C160.591 74.4162 161.319 75.0624 161.809 75.8641C162.3 76.6657 162.545 77.6229 162.543 78.7362C162.556 79.7929 162.288 80.8339 161.767 81.753C161.279 82.6328 160.546 83.3521 159.658 83.8249C158.769 84.2985 157.698 84.5356 156.446 84.5356C154.492 84.5356 152.934 83.9424 151.774 82.7567C150.614 81.5711 150.013 79.967 149.971 77.9453Z" fill="white"/>
<path d="M169.989 77.9453L171.985 77.7712C172.089 78.8372 172.328 79.6675 172.7 80.2622C173.09 80.8761 173.641 81.3719 174.292 81.6972C175.014 82.064 175.815 82.2488 176.624 82.2337C177.865 82.2337 178.829 81.93 179.516 81.3225C180.203 80.7149 180.545 79.9276 180.544 78.9612C180.556 78.4396 180.427 77.9252 180.169 77.4717C179.896 77.0268 179.505 76.6658 179.039 76.4293C178.538 76.1607 177.45 75.776 175.774 75.2766C174.286 74.8332 173.225 74.3875 172.592 73.9405C171.967 73.5035 171.46 72.9182 171.115 72.2376C170.755 71.5138 170.574 70.7138 170.588 69.9052C170.588 68.3444 171.092 67.0691 172.099 66.0794C173.107 65.0897 174.466 64.5945 176.178 64.5938C177.352 64.5938 178.379 64.8263 179.26 65.2915C180.126 65.7424 180.839 66.4383 181.311 67.2924C181.797 68.1604 182.057 69.1828 182.093 70.3593L180.098 70.5342C179.991 69.2804 179.616 68.3501 178.972 67.7433C178.328 67.1364 177.422 66.8341 176.253 66.8362C175.069 66.8362 174.166 67.1014 173.543 67.6316C173.241 67.881 173.001 68.1958 172.839 68.5522C172.677 68.9085 172.599 69.2971 172.609 69.6883C172.609 70.4684 172.837 71.0727 173.293 71.5015C173.748 71.9302 174.773 72.3637 176.366 72.8021C177.926 73.232 179.02 73.6052 179.651 73.9219C180.615 74.4133 181.341 75.0595 181.831 75.8605C182.32 76.6622 182.565 77.62 182.565 78.7333C182.577 79.7893 182.31 80.8303 181.79 81.7495C181.301 82.6292 180.569 83.3485 179.681 83.8213C178.792 84.2956 177.72 84.532 176.467 84.532C174.513 84.532 172.955 83.9395 171.796 82.7532C170.636 81.5675 170.034 79.9649 169.989 77.9453Z" fill="white"/>
<path d="M192.064 81.4836C190.776 79.6453 190.132 77.4237 190.132 74.8195C190.132 71.5328 190.856 69.007 192.303 67.2422C193.75 65.4775 195.551 64.5944 197.706 64.593C199.07 64.5822 200.402 64.9948 201.52 65.7738C202.665 66.561 203.574 67.706 204.248 69.2089C204.922 70.7117 205.258 72.5004 205.254 74.5759C205.254 77.4337 204.605 79.7592 203.308 81.5538C201.877 83.5333 200.005 84.5234 197.693 84.5248C195.361 84.5248 193.486 83.5082 192.066 81.4743L192.064 81.4836ZM192.303 74.8532C192.303 77.2238 192.825 79.0643 193.87 80.3746C194.914 81.6849 196.184 82.339 197.68 82.3369C199.209 82.3369 200.492 81.6763 201.527 80.3545C202.563 79.0327 203.082 77.0891 203.083 74.5243C203.083 72.8694 202.816 71.3897 202.282 70.0858C201.901 69.1296 201.258 68.3005 200.426 67.6942C199.645 67.1096 198.694 66.794 197.719 66.7946C196.144 66.7946 194.848 67.4508 193.83 68.7633C192.812 70.0758 192.301 72.1057 192.299 74.8532H192.303Z" fill="white"/>
<path d="M224.438 77.4454L226.534 78.0895C226.068 80.2545 225.254 81.8693 224.091 82.9332C222.929 83.9971 221.513 84.5301 219.844 84.5308C218.378 84.5308 217.126 84.1726 216.088 83.4569C215.049 82.7412 214.198 81.5964 213.534 80.0224C212.87 78.4427 212.539 76.5786 212.539 74.4307C212.539 72.3094 212.87 70.5141 213.534 69.0449C214.197 67.5756 215.095 66.4664 216.227 65.7172C217.35 64.9698 218.672 64.5778 220.021 64.5922C221.548 64.5922 222.86 65.0656 223.957 66.0123C225.054 66.9592 225.823 68.3493 226.264 70.1827L224.217 70.7817C223.515 68.1195 222.106 66.7884 219.99 66.7884C218.936 66.7884 218.023 67.0575 217.25 67.5957C216.478 68.1339 215.861 68.9726 215.401 70.1119C214.941 71.2498 214.711 72.6891 214.71 74.4307C214.71 77.0657 215.175 79.0423 216.105 80.3612C217.035 81.6802 218.273 82.3386 219.819 82.3364C220.369 82.3429 220.913 82.239 221.421 82.0305C221.929 81.822 222.389 81.514 222.775 81.1235C223.603 80.3161 224.157 79.0903 224.438 77.4454Z" fill="white"/>
<path d="M234.812 84.208V64.917H236.909V84.208H234.812Z" fill="white"/>
<path d="M244.117 84.208L250.197 64.917H252.443L258.913 84.208H256.519L254.685 78.3685H248.02L246.314 84.208H244.117ZM248.624 76.298H254.032L252.383 70.9498C251.875 69.3081 251.502 67.9734 251.265 66.9458C251.057 68.193 250.765 69.4249 250.393 70.6331L248.624 76.298Z" fill="white"/>
<path d="M268.308 84.208V67.1884H263.093V64.917H275.644V67.1884H270.403V84.208H268.308Z" fill="white"/>
<path d="M283.421 84.208V64.917H285.517V84.208H283.421Z" fill="white"/>
<path d="M295.808 81.4836C294.52 79.6453 293.876 77.4237 293.876 74.8195C293.876 71.5329 294.599 69.007 296.046 67.2422C297.493 65.4775 299.295 64.5944 301.452 64.593C302.815 64.5821 304.147 64.9947 305.266 65.7738C306.414 66.561 307.323 67.706 307.994 69.2088C308.664 70.7117 309 72.5004 309 74.5759C309 77.4337 308.351 79.7592 307.055 81.5538C305.624 83.5333 303.752 84.5234 301.439 84.5248C299.107 84.5248 297.231 83.5082 295.812 81.4743L295.808 81.4836ZM296.045 74.8532C296.045 77.2238 296.568 79.0643 297.612 80.3746C298.657 81.6849 299.927 82.339 301.422 82.3369C302.952 82.3369 304.235 81.6763 305.27 80.3545C306.305 79.0327 306.824 77.0891 306.825 74.5243C306.825 72.8694 306.558 71.3897 306.024 70.0858C305.644 69.1299 305.001 68.3009 304.17 67.6941C303.388 67.1098 302.438 66.7942 301.462 66.7946C299.888 66.7946 298.591 67.4508 297.573 68.7633C296.553 70.0758 296.045 72.1057 296.045 74.8532Z" fill="white"/>
<path d="M316.876 84.208V64.917H319.028L327.332 80.1108V64.917H329.328V84.208H327.188L318.898 69.039V84.208H316.876Z" fill="white"/>
<path d="M142.486 15.8949C142.164 16.3335 141.758 16.7044 141.294 16.9867C140.798 17.2501 140.264 17.4352 139.712 17.5352C140.064 17.8496 140.344 18.2359 140.533 18.6681C140.721 19.1002 140.815 19.568 140.807 20.0396V30.1355H138.958L135.427 22.6213C135.27 22.3243 135.033 22.0765 134.744 21.9053C134.516 21.7521 134.245 21.6767 133.97 21.6906C133.87 21.6888 133.77 21.6949 133.671 21.7088C132.803 21.8419 132.374 22.3529 132.374 23.2567V25.8448C132.462 25.8111 132.554 25.787 132.648 25.7729C132.755 25.7514 132.944 25.7332 133.221 25.7107C133.836 25.6974 134.431 25.9252 134.879 26.3451C135.103 26.5497 135.281 26.8004 135.4 27.08C135.518 27.3596 135.575 27.6614 135.566 27.9649C135.57 28.2674 135.512 28.5675 135.398 28.8473C135.268 29.1437 135.082 29.412 134.849 29.6373C134.431 30.089 133.861 30.3154 133.139 30.3169C132.348 30.3169 131.72 30.0883 131.256 29.6309C130.802 29.1378 130.558 28.487 130.576 27.8168V23.0721C130.576 22.355 130.813 21.7775 131.297 21.3256C131.689 20.8925 132.203 20.5889 132.772 20.455C132.937 20.4239 133.174 20.3906 133.483 20.3584C133.792 20.3262 133.984 20.3004 134.056 20.2876C134.378 20.2843 134.698 20.3134 135.014 20.3745C135.3 20.4294 135.577 20.5301 135.831 20.673C136.3 20.8876 136.657 21.2748 136.905 21.8344L139.011 26.4299V20.3627C139.011 19.5941 138.667 18.9339 137.986 18.3736C137.306 17.8132 136.484 17.5352 135.51 17.5352C133.538 17.5352 132.232 18.3103 131.59 19.8603H129.728C130.065 18.7089 130.768 17.7904 131.836 17.1048C132.382 16.79 132.967 16.5479 133.576 16.3845C134.242 16.2101 134.928 16.1249 135.616 16.1312C135.896 16.1312 136.171 16.1451 136.432 16.1665C136.722 16.1925 137.009 16.2432 137.291 16.3179C137.453 16.3512 137.613 16.3909 137.784 16.4252C137.971 16.4821 138.165 16.5412 138.365 16.5949C138.461 16.6221 138.562 16.6344 138.664 16.6314C139.029 16.6178 139.38 16.4869 139.665 16.2578C140.134 15.8816 140.512 15.4046 140.771 14.8623L142.486 15.8949ZM134.27 27.9424C134.27 27.7062 134.162 27.4808 133.933 27.2693C133.841 27.1711 133.73 27.0938 133.605 27.0431C133.481 26.9923 133.347 26.9691 133.212 26.9752C132.933 26.9794 132.664 27.0837 132.454 27.2693C132.301 27.4121 132.208 27.6375 132.174 27.9424C132.169 28.0779 132.189 28.2131 132.232 28.3417C132.282 28.4611 132.358 28.5678 132.454 28.6541C132.556 28.7281 132.669 28.786 132.789 28.8259C132.928 28.8706 133.072 28.9009 133.218 28.916C133.353 28.919 133.489 28.9009 133.619 28.8623C133.739 28.8135 133.848 28.7429 133.942 28.6541C134.044 28.5659 134.126 28.4568 134.183 28.334C134.24 28.2112 134.27 28.0776 134.27 27.9424Z" fill="white"/>
<path d="M156.297 28.2367C156.297 29.4934 155.744 30.1224 154.638 30.1238H154.02C153.739 29.3058 153.163 28.4829 152.293 27.6548C151.868 27.2363 151.394 26.8718 150.88 26.5696C150.402 26.2934 149.892 26.0771 149.36 25.9255V28.0177C149.369 28.3065 149.321 28.5943 149.217 28.8638C149.113 29.1334 148.955 29.3794 148.755 29.5871C148.356 30.0057 147.788 30.2172 147.064 30.2172C146.352 30.2227 145.665 29.9509 145.15 29.4593C144.629 28.8986 144.349 28.1559 144.37 27.3908C144.37 26.6071 144.7 25.918 145.354 25.3255C145.669 25.0408 146.033 24.8159 146.428 24.6621C146.821 24.5096 147.238 24.4321 147.66 24.4334V20.7278C147.569 20.7669 147.473 20.7925 147.376 20.8041C147.268 20.8201 147.073 20.8427 146.786 20.8642C146.15 20.8721 145.534 20.6394 145.062 20.2126C144.849 20.0141 144.676 19.7765 144.553 19.5127C144.425 19.2301 144.361 18.9224 144.366 18.612C144.365 18.3056 144.426 18.002 144.544 17.7191C144.662 17.4362 144.835 17.1796 145.053 16.9643C145.28 16.7317 145.552 16.5488 145.854 16.4268C146.155 16.3049 146.478 16.2466 146.802 16.2558C147.579 16.2558 148.194 16.4952 148.645 16.974C149.119 17.4108 149.357 17.998 149.357 18.7419V24.5214C149.798 24.5641 150.23 24.6727 150.639 24.8434C152.136 25.5082 153.459 26.5122 154.502 27.7762V16.4146H156.299L156.297 28.2367ZM147.759 18.6378C147.758 18.5106 147.73 18.3849 147.679 18.2686C147.628 18.1522 147.553 18.0478 147.459 17.9615C147.368 17.8643 147.257 17.7871 147.134 17.7349C147.011 17.6826 146.879 17.6563 146.746 17.6578C146.608 17.6584 146.471 17.6864 146.344 17.7402C146.218 17.794 146.102 17.8726 146.006 17.9712C145.843 18.1108 145.75 18.3319 145.712 18.6378C145.708 18.7688 145.729 18.8993 145.776 19.0221C145.826 19.1463 145.905 19.2567 146.006 19.3442C146.105 19.4154 146.213 19.4725 146.328 19.5137C146.465 19.5559 146.607 19.5861 146.75 19.6039C147.015 19.6072 147.271 19.5066 147.463 19.3237C147.559 19.2375 147.635 19.1314 147.686 19.0131C147.737 18.8947 147.762 18.7666 147.759 18.6378ZM147.659 27.8255V25.9255C147.224 25.9139 146.799 26.0634 146.468 26.3452C146.324 26.4745 146.21 26.6325 146.131 26.8089C146.053 26.9853 146.013 27.1762 146.013 27.3693C146 27.6884 146.082 28.0041 146.248 28.2764C146.331 28.3959 146.44 28.4945 146.566 28.5644C146.693 28.6343 146.835 28.6736 146.98 28.6789C147.437 28.6789 147.663 28.3955 147.663 27.8245L147.659 27.8255Z" fill="white"/>
<path d="M168.115 30.1234H166.319V20.3549C166.319 19.5283 166.067 18.8456 165.568 18.3014C165.04 17.7776 164.346 17.521 163.481 17.521C162.711 17.521 162.068 17.7207 161.563 18.1157C161.059 18.5107 160.652 19.0915 160.362 19.8471H158.491C158.767 18.7796 159.386 17.8324 160.253 17.1517C161.124 16.4626 162.215 16.1187 163.525 16.1201C164.867 16.1201 165.97 16.4647 166.831 17.1667C167.691 17.8688 168.119 18.8123 168.119 20.0028L168.115 30.1234Z" fill="white"/>
<path d="M182.408 30.1231H180.611V21.2027C180.632 20.2831 180.313 19.388 179.716 18.6886C179.035 17.9125 178.091 17.5239 176.874 17.5239C175.717 17.5239 174.77 17.8699 174.033 18.5619C173.296 19.2539 172.927 20.0662 172.925 20.9987C172.925 21.3078 172.935 21.6234 172.96 21.9476C172.986 22.2825 173.031 22.6154 173.097 22.9449L173.526 25.1261V26.7739C173.501 26.9413 173.486 27.0638 173.477 27.141L173.757 25.0789C173.89 24.3744 174.06 23.6772 174.265 22.9899C174.445 22.3911 174.674 21.8078 174.948 21.2456C175.44 20.2065 176.228 19.6866 177.316 19.6859C177.94 19.6841 178.54 19.9237 178.992 20.3546C179.225 20.5608 179.411 20.8156 179.537 21.1011C179.662 21.3866 179.725 21.6959 179.718 22.0077C179.722 22.3112 179.664 22.6122 179.546 22.8919C179.429 23.1716 179.255 23.4239 179.035 23.633C178.808 23.8537 178.538 24.0265 178.244 24.1412C177.949 24.2559 177.634 24.3101 177.317 24.3007C176.745 24.306 176.19 24.1167 175.74 23.7639C175.514 24.3422 175.215 25.3441 174.841 26.7696C174.691 27.3632 174.547 27.9332 174.422 28.4871C174.298 29.041 174.17 29.5853 174.056 30.1317H172.14V27.9676C172.14 27.0337 171.925 25.5748 171.496 23.575C171.403 23.0715 171.321 22.5799 171.249 22.0936C171.188 21.7201 171.152 21.3427 171.142 20.9643C171.142 19.664 171.656 18.5405 172.685 17.5937C173.821 16.6125 175.253 16.1223 176.985 16.123C178.618 16.123 179.933 16.5789 180.93 17.4906C181.926 18.4023 182.424 19.5144 182.421 20.8269L182.408 30.1231ZM178.366 22.0024C178.364 21.8723 178.336 21.744 178.281 21.6259C178.227 21.5076 178.148 21.4023 178.051 21.3164C177.962 21.2121 177.85 21.1294 177.725 21.0747C177.599 21.02 177.462 20.9947 177.326 21.0009C177.186 20.9999 177.047 21.0274 176.918 21.0816C176.788 21.1359 176.672 21.2158 176.574 21.3164C176.434 21.4495 176.334 21.6814 176.274 22.0024C176.273 22.1362 176.299 22.2688 176.351 22.3922C176.402 22.5156 176.478 22.6273 176.574 22.7205C176.692 22.8152 176.831 22.8809 176.979 22.9127C177.144 22.9513 177.263 22.9749 177.331 22.9878C177.465 22.9908 177.599 22.9742 177.728 22.9384C177.849 22.8887 177.958 22.8158 178.051 22.7238C178.246 22.5339 178.359 22.2749 178.366 22.0024Z" fill="white"/>
<path d="M197.213 28.2358C197.213 29.4925 196.66 30.1215 195.554 30.1229H194.937C194.65 29.3049 194.073 28.482 193.206 27.6539C192.781 27.2349 192.307 26.8703 191.792 26.5687C191.315 26.2918 190.807 26.0755 190.277 25.9247V28.0168C190.285 28.3055 190.235 28.5927 190.131 28.8622C190.028 29.1316 189.871 29.3776 189.672 29.5862C189.265 30.0049 188.705 30.2164 187.977 30.2164C187.265 30.2212 186.577 29.9496 186.06 29.4585C185.541 28.9003 185.286 28.2132 185.286 27.3899C185.286 26.6063 185.608 25.9171 186.271 25.3246C186.585 25.0397 186.949 24.8148 187.344 24.6612C187.738 24.5085 188.157 24.431 188.58 24.4325V20.727C188.488 20.7651 188.391 20.7907 188.293 20.8032C188.186 20.8192 187.99 20.8418 187.706 20.8633C187.068 20.8712 186.452 20.6386 185.978 20.2117C185.766 20.0126 185.594 19.7751 185.47 19.5118C185.342 19.2292 185.279 18.9215 185.286 18.6112C185.284 18.3045 185.344 18.0006 185.461 17.7176C185.579 17.4345 185.753 17.178 185.972 16.9634C186.198 16.7305 186.47 16.5472 186.771 16.4252C187.071 16.3033 187.394 16.2453 187.719 16.2549C188.496 16.2549 189.111 16.4943 189.562 16.9731C190.036 17.41 190.277 17.9971 190.277 18.7411V24.5205C190.717 24.5637 191.148 24.6723 191.556 24.8426C193.055 25.5065 194.377 26.5107 195.42 27.7753V16.4138H197.216L197.213 28.2358ZM188.679 18.637C188.678 18.5095 188.65 18.3838 188.598 18.2675C188.546 18.1512 188.471 18.0468 188.377 17.9607C188.285 17.8638 188.174 17.7868 188.051 17.7346C187.928 17.6823 187.796 17.6558 187.662 17.6569C187.524 17.6576 187.388 17.6857 187.261 17.7395C187.134 17.7933 187.02 17.8718 186.924 17.9703C186.765 18.1099 186.665 18.331 186.633 18.637C186.63 18.7673 186.649 18.8972 186.69 19.0212C186.744 19.144 186.824 19.2537 186.924 19.3433C187.023 19.4143 187.131 19.4714 187.245 19.5129C187.383 19.5549 187.524 19.5851 187.667 19.6031C187.932 19.6059 188.188 19.5055 188.381 19.3229C188.477 19.2367 188.554 19.1309 188.606 19.0125C188.657 18.8942 188.682 18.766 188.679 18.637ZM188.58 27.8247V25.9247C188.144 25.9125 187.72 26.0621 187.389 26.3443C187.245 26.4732 187.129 26.6311 187.051 26.8076C186.973 26.9842 186.932 27.1753 186.933 27.3684C186.917 27.6875 186.999 28.004 187.167 28.2755C187.249 28.3941 187.357 28.4922 187.483 28.5621C187.609 28.6318 187.75 28.6716 187.894 28.6781C188.349 28.6781 188.58 28.3946 188.58 27.8236V27.8247Z" fill="white"/>
<path d="M211.424 28.0006C211.424 28.7607 211.267 29.307 210.953 29.6398C210.671 29.9618 210.238 30.1239 209.656 30.1239H209.042L206.129 23.7573L203.232 30.1239H200.842V18.7453C200.842 18.0089 201.072 17.4099 201.522 16.9494C201.973 16.4889 202.614 16.2517 203.444 16.2517C203.765 16.2438 204.084 16.3038 204.379 16.4275C204.675 16.5513 204.942 16.736 205.162 16.9698C205.384 17.1737 205.563 17.4212 205.686 17.6971C205.809 17.9729 205.874 18.2712 205.877 18.5732C205.88 18.8752 205.821 19.1747 205.703 19.4529C205.585 19.7311 205.412 19.982 205.192 20.1902C204.97 20.4091 204.705 20.581 204.415 20.6957C204.125 20.8104 203.814 20.8656 203.502 20.8579C203.328 20.8617 203.154 20.8552 202.98 20.8385C202.859 20.8224 202.741 20.7826 202.635 20.7215V27.6185L205.508 21.5406L206.783 21.5352L209.622 27.6249V16.4148H211.418L211.424 28.0006ZM204.535 18.638C204.534 18.5108 204.506 18.3853 204.452 18.2702C204.398 18.155 204.32 18.0531 204.222 17.9713C204.135 17.8694 204.026 17.7884 203.902 17.7341C203.78 17.6799 203.646 17.6539 203.512 17.6579C203.374 17.6585 203.237 17.6865 203.109 17.7403C202.982 17.7941 202.866 17.8726 202.769 17.9713C202.619 18.1109 202.526 18.332 202.489 18.638C202.487 18.7719 202.508 18.9052 202.551 19.0319C202.597 19.1485 202.671 19.252 202.766 19.3335C202.88 19.4308 203.018 19.4972 203.165 19.5268C203.327 19.5654 203.44 19.589 203.508 19.6019C203.642 19.6066 203.774 19.5899 203.902 19.5525C204.022 19.503 204.132 19.43 204.223 19.3378C204.322 19.2497 204.4 19.1418 204.454 19.0212C204.508 18.9005 204.535 18.7699 204.535 18.638Z" fill="white"/>
<path d="M211.418 36.0939C211.418 36.9613 211.211 37.6193 210.794 38.0529C210.377 38.4866 209.703 38.7088 208.755 38.7088H204.412V37.4883C204.894 37.4883 205.234 37.4196 205.433 37.2854C205.598 37.1265 205.679 36.8335 205.679 36.4159V35.6796L204.955 35.8201C204.657 35.8295 204.359 35.7798 204.08 35.6741C203.801 35.5683 203.545 35.4086 203.327 35.204C202.914 34.7911 202.683 34.2313 202.683 33.6475C202.683 33.0637 202.914 32.5038 203.327 32.091C203.545 31.8861 203.801 31.7263 204.08 31.6207C204.359 31.5152 204.657 31.466 204.955 31.4759C205.685 31.4759 206.284 31.6981 206.752 32.135C207.237 32.5375 207.476 33.0871 207.476 33.7849V37.4347H208.12C208.764 37.4347 209.177 37.322 209.376 37.104C209.455 36.9514 209.514 36.7895 209.551 36.622C209.6 36.3827 209.623 36.1386 209.62 35.8942V31.6165L211.417 31.5994L211.418 36.0939ZM205.93 33.6485C205.934 33.5294 205.914 33.4108 205.869 33.2999C205.826 33.1891 205.759 33.0885 205.674 33.0045C205.476 32.8256 205.223 32.7193 204.957 32.7029C204.835 32.6981 204.714 32.7175 204.599 32.76C204.485 32.8027 204.381 32.8675 204.292 32.9508C204.112 33.1417 204.003 33.3889 203.984 33.6507C203.982 33.7761 204.005 33.9007 204.054 34.0166C204.102 34.1324 204.174 34.237 204.265 34.3238C204.458 34.4894 204.702 34.586 204.957 34.5986C205.078 34.6035 205.199 34.584 205.313 34.5412C205.427 34.4984 205.53 34.4332 205.618 34.3495C205.801 34.1593 205.911 33.9114 205.93 33.6485Z" fill="white"/>
<path d="M214.062 9.29762C213.919 10.736 213.266 11.8614 212.104 12.6736C211.582 13.0129 211.013 13.275 210.416 13.4519C209.754 13.6414 209.067 13.7347 208.377 13.7288C207.781 13.7304 207.186 13.6642 206.605 13.5313C206.909 13.3723 207.179 13.1575 207.403 12.898C207.618 12.6386 207.778 12.337 207.871 12.0123L207.5 12.0553C207.113 12.0702 206.732 11.9666 206.406 11.7582C206.079 11.5499 205.825 11.2468 205.676 10.8895C205.528 10.5424 205.489 10.159 205.563 9.78908C205.636 9.41927 205.819 9.08005 206.088 8.81562C206.28 8.64862 206.497 8.51343 206.732 8.41521C206.974 8.31255 207.236 8.26032 207.499 8.26168C207.784 8.2533 208.067 8.30108 208.333 8.40246C208.599 8.50376 208.842 8.65657 209.049 8.85208C209.248 9.03627 209.406 9.26051 209.513 9.51011C209.619 9.75964 209.672 10.0289 209.667 10.3002C209.674 10.672 209.635 11.0432 209.548 11.4048C209.495 11.6165 209.428 11.8245 209.348 12.0274C209.269 12.1971 209.175 12.3594 209.067 12.5126C209.512 12.5174 209.953 12.4213 210.355 12.2314C210.783 12.0298 211.173 11.7556 211.506 11.4209C212.146 10.8062 212.466 10.0984 212.464 9.29762H214.062ZM208.374 10.1564C208.374 9.58813 208.076 9.30407 207.481 9.30407C206.88 9.30407 206.577 9.58849 206.577 10.1564C206.577 10.7038 206.88 10.9776 207.481 10.9776C208.082 10.9776 208.374 10.6984 208.374 10.1564Z" fill="white"/>
<path d="M225.691 30.1234H223.895V21.203C223.895 20.1713 223.595 19.3201 223.002 18.6556C222.351 17.8978 221.431 17.5242 220.246 17.5242C219.135 17.5242 218.218 17.8344 217.482 18.4613C216.747 19.0882 216.347 19.6819 216.278 20.2508L216.209 21.5164C216.215 21.9624 216.251 22.4074 216.316 22.8486C216.388 23.3495 216.508 23.9578 216.678 24.6734C216.999 26.0939 217.16 27.0375 217.161 27.5041C217.243 27.3603 217.33 27.2164 217.421 27.0747C217.527 26.9061 217.642 26.7434 217.766 26.5874C217.856 26.4475 217.954 26.3131 218.059 26.1849C218.21 25.9959 218.382 25.792 218.578 25.5654L219.758 24.229C219.241 24.1143 218.773 23.838 218.423 23.44C218.095 23.0323 217.915 22.5251 217.912 22.0015C217.912 21.409 218.14 20.8659 218.599 20.3785C219.068 19.9338 219.692 19.6873 220.339 19.6905C220.971 19.6893 221.578 19.9364 222.03 20.3785C222.262 20.5798 222.447 20.8299 222.573 21.111C222.698 21.392 222.759 21.6972 222.753 22.0048C222.753 22.4728 222.665 22.8464 222.492 23.1255C222.399 23.3073 222.291 23.4814 222.17 23.6461C222.033 23.8233 221.902 23.9853 221.774 24.1302L219.702 26.625C219.245 27.2207 218.789 27.8477 218.333 28.5121C217.968 29.0219 217.645 29.5604 217.367 30.1223H215.421V28.1321C215.418 27.6272 215.382 27.1232 215.314 26.6228C215.243 26.0861 215.117 25.4063 214.94 24.5832C214.758 23.7621 214.625 23.0729 214.544 22.5083C214.467 21.9961 214.426 21.4792 214.422 20.9614C214.422 19.6056 214.946 18.4645 216 17.5264C217.054 16.5882 218.474 16.1201 220.261 16.1201C221.877 16.1201 223.186 16.5677 224.191 17.4759C225.196 18.384 225.7 19.4962 225.7 20.824L225.691 30.1234ZM221.397 22.0026C221.396 21.8719 221.366 21.7431 221.311 21.6248C221.255 21.5065 221.175 21.4014 221.076 21.3167C220.982 21.2138 220.869 21.1322 220.741 21.0777C220.614 21.0233 220.475 20.9971 220.337 21.0011C220.193 20.9996 220.05 21.0271 219.917 21.082C219.783 21.137 219.662 21.2183 219.561 21.321C219.392 21.467 219.293 21.6924 219.255 22.0069C219.253 22.1375 219.273 22.2673 219.317 22.3902C219.375 22.5149 219.457 22.6261 219.561 22.7165C219.662 22.7931 219.775 22.8519 219.895 22.8904C220.038 22.9391 220.187 22.9704 220.338 22.9838C220.609 22.988 220.871 22.8929 221.076 22.7165C221.275 22.5307 221.391 22.274 221.399 22.0026H221.397Z" fill="white"/>
<path d="M225.721 36.0939C225.721 36.9613 225.515 37.6193 225.097 38.053C224.68 38.4867 224.007 38.7088 223.058 38.7088H218.716V37.4884C219.197 37.4884 219.537 37.4196 219.735 37.2855C219.902 37.1266 219.982 36.8335 219.982 36.4159V35.6795L219.259 35.8202C218.96 35.8296 218.663 35.78 218.384 35.6742C218.104 35.5685 217.849 35.4087 217.631 35.2041C217.218 34.7912 216.987 34.2313 216.987 33.6475C216.987 33.0638 217.218 32.5039 217.631 32.091C217.849 31.886 218.104 31.7262 218.384 31.6206C218.663 31.515 218.96 31.4659 219.259 31.4759C219.989 31.4759 220.588 31.6981 221.055 32.135C221.539 32.5379 221.78 33.0879 221.779 33.7849V37.4347H222.423C223.067 37.4347 223.481 37.3219 223.681 37.1041C223.76 36.952 223.819 36.7898 223.855 36.6221C223.906 36.3829 223.928 36.1387 223.923 35.8943V31.6165L225.72 31.5994L225.721 36.0939ZM220.232 33.6486C220.237 33.5293 220.217 33.4104 220.172 33.2995C220.128 33.1886 220.061 33.0881 219.976 33.0045C219.778 32.8258 219.525 32.7195 219.259 32.7029C219.138 32.6977 219.017 32.7171 218.904 32.7597C218.79 32.8023 218.686 32.8673 218.598 32.9508C218.415 33.1403 218.305 33.3881 218.285 33.6507C218.283 33.7766 218.307 33.9016 218.356 34.0175C218.405 34.1335 218.478 34.2378 218.57 34.3238C218.763 34.4899 219.005 34.5866 219.259 34.5986C219.381 34.6032 219.502 34.5836 219.616 34.5408C219.73 34.498 219.835 34.433 219.924 34.3496C220.106 34.1594 220.215 33.9113 220.232 33.6486Z" fill="white"/>
<path d="M234.909 27.9487C234.913 28.2537 234.856 28.5563 234.74 28.8386C234.61 29.1328 234.424 29.3987 234.191 29.6212C233.968 29.8473 233.699 30.0251 233.404 30.1432C233.109 30.2614 232.793 30.3176 232.475 30.3081C231.676 30.3081 231.039 30.0763 230.558 29.6169C230.101 29.1291 229.854 28.4802 229.872 27.8113V16.4326H231.669V25.8297C231.809 25.7738 232.098 25.7277 232.533 25.6955C233.149 25.6894 233.743 25.9156 234.199 26.3289C234.43 26.5295 234.613 26.779 234.736 27.059C234.858 27.3391 234.917 27.643 234.909 27.9487ZM233.561 27.9336C233.56 27.8059 233.532 27.6799 233.479 27.5637C233.425 27.4476 233.348 27.3439 233.252 27.2596C233.156 27.1643 233.043 27.0892 232.917 27.0383C232.792 26.9875 232.658 26.962 232.523 26.9632C232.241 26.959 231.97 27.0654 231.766 27.2596C231.603 27.4026 231.503 27.6274 231.465 27.9336C231.46 28.065 231.481 28.1961 231.528 28.319C231.581 28.4434 231.663 28.5536 231.766 28.6411C231.866 28.7108 231.974 28.7671 232.088 28.8085C232.227 28.8557 232.371 28.8874 232.518 28.903C232.788 28.9067 233.049 28.8059 233.247 28.6218C233.346 28.5366 233.424 28.4309 233.478 28.312C233.532 28.1932 233.559 28.064 233.557 27.9336H233.561ZM241.746 27.9487C241.75 28.2536 241.693 28.5562 241.578 28.8386C241.447 29.1326 241.261 29.3985 241.029 29.6212C240.804 29.8473 240.536 30.0251 240.241 30.1432C239.946 30.2614 239.629 30.3176 239.311 30.3081C238.512 30.3081 237.876 30.0763 237.396 29.6169C237.181 29.381 237.01 29.1073 236.894 28.8096C236.77 28.4914 236.708 28.1526 236.711 27.8113V16.4326H238.506V25.8297C238.786 25.7498 239.074 25.7047 239.365 25.6955C239.98 25.6892 240.575 25.9153 241.031 26.3289C241.261 26.5293 241.445 26.7786 241.568 27.0588C241.691 27.3389 241.75 27.6429 241.741 27.9487H241.746ZM240.398 27.9336C240.396 27.8048 240.366 27.678 240.31 27.5617C240.255 27.4455 240.175 27.3424 240.077 27.2596C239.985 27.1602 239.873 27.0822 239.749 27.0309C239.624 26.9797 239.49 26.9567 239.355 26.9632C239.087 26.9536 238.827 27.0494 238.629 27.2301C238.431 27.4108 238.312 27.6619 238.298 27.9293C238.293 28.0607 238.315 28.1916 238.36 28.3147C238.414 28.4386 238.496 28.5487 238.598 28.6368C238.698 28.7066 238.806 28.763 238.921 28.8042C239.059 28.8517 239.203 28.8834 239.35 28.8987C239.62 28.9024 239.882 28.8017 240.081 28.6175C240.18 28.5331 240.259 28.4282 240.313 28.3102C240.367 28.192 240.395 28.0636 240.394 27.9336H240.398Z" fill="white"/>
<path d="M254.665 30.1237H252.819L249.291 22.6095C249.128 22.315 248.893 22.0676 248.607 21.8913C248.378 21.7414 248.108 21.6664 247.834 21.6766C247.735 21.6747 247.634 21.6801 247.535 21.6927C246.667 21.8301 246.234 22.3368 246.234 23.2396V25.8298C246.323 25.7938 246.416 25.7679 246.511 25.7525C246.619 25.7375 246.807 25.7193 247.085 25.6956C247.699 25.6836 248.293 25.9107 248.741 26.329C248.965 26.533 249.143 26.783 249.262 27.0621C249.38 27.3412 249.437 27.6426 249.428 27.9456C249.433 28.2503 249.377 28.5529 249.263 28.8356C249.131 29.1287 248.944 29.3942 248.713 29.6181C248.296 30.0732 247.72 30.3051 247.003 30.3051C246.212 30.3051 245.581 30.0732 245.12 29.6116C244.664 29.1214 244.419 28.4713 244.437 27.8018V23.0635C244.437 22.3422 244.678 21.7636 245.157 21.317C245.551 20.8833 246.066 20.5793 246.636 20.4454C246.798 20.4121 247.035 20.3799 247.347 20.3434C247.659 20.3069 247.849 20.2876 247.92 20.2779C248.24 20.2755 248.56 20.3039 248.876 20.3627C249.162 20.4175 249.439 20.5194 249.692 20.6644C250.164 20.8791 250.522 21.2648 250.765 21.8215L252.87 26.4202V20.3466C252.87 19.5855 252.532 18.921 251.852 18.3629C251.171 17.8047 250.349 17.5245 249.374 17.5245C247.403 17.5245 246.095 18.2999 245.45 19.8507H243.589C243.929 18.6957 244.634 17.78 245.7 17.0951C246.246 16.7799 246.831 16.5381 247.44 16.3759C248.106 16.1998 248.792 16.115 249.479 16.1236C250.959 16.1236 252.192 16.4747 253.179 17.1767C254.167 17.8787 254.663 18.822 254.668 20.0063L254.665 30.1237ZM248.126 27.9338C248.122 27.8042 248.091 27.677 248.033 27.5607C247.975 27.4444 247.894 27.3418 247.793 27.2597C247.702 27.1604 247.589 27.0824 247.464 27.0313C247.339 26.98 247.204 26.9569 247.069 26.9634C246.791 26.9681 246.524 27.0733 246.318 27.2597C246.162 27.4035 246.068 27.6279 246.034 27.9338C246.031 28.0688 246.053 28.2033 246.096 28.331C246.146 28.4512 246.221 28.5587 246.318 28.6455C246.42 28.7156 246.531 28.7719 246.649 28.813C246.788 28.8587 246.932 28.8903 247.078 28.9074C247.215 28.912 247.353 28.8916 247.483 28.8473C247.603 28.8028 247.713 28.7342 247.805 28.6455C247.906 28.5561 247.986 28.4465 248.041 28.3238C248.097 28.2012 248.126 28.0683 248.126 27.9338Z" fill="white"/>
<path d="M263.85 27.9487C263.854 28.2535 263.797 28.5561 263.682 28.8386C263.549 29.1328 263.361 29.3986 263.127 29.6212C262.683 30.0763 262.11 30.3081 261.41 30.3081C260.617 30.3081 259.978 30.0763 259.498 29.6169C259.04 29.129 258.794 28.4798 258.814 27.8113V16.4326H260.611V25.8297C260.748 25.7738 261.04 25.7277 261.47 25.6955C262.085 25.6881 262.68 25.9145 263.135 26.3289C263.366 26.5292 263.551 26.7784 263.674 27.0585C263.798 27.3386 263.858 27.6426 263.85 27.9487ZM262.503 27.9336C262.501 27.8058 262.473 27.6797 262.419 27.5636C262.365 27.4475 262.288 27.3439 262.192 27.2596C262.096 27.1643 261.981 27.0891 261.856 27.0383C261.73 26.9874 261.596 26.9619 261.461 26.9632C261.181 26.9592 260.911 27.0656 260.71 27.2596C260.54 27.4026 260.44 27.6274 260.409 27.9336C260.405 28.0645 260.425 28.1951 260.467 28.319C260.523 28.443 260.606 28.553 260.71 28.6411C260.809 28.7115 260.917 28.7679 261.031 28.8085C261.171 28.8558 261.315 28.8875 261.461 28.903C261.732 28.9067 261.993 28.806 262.192 28.6218C262.291 28.5366 262.369 28.4309 262.423 28.3121C262.477 28.1933 262.504 28.0641 262.503 27.9336Z" fill="white"/>
<path d="M275.634 27.8049C275.634 28.5449 275.408 29.1471 274.955 29.6115C274.506 30.0742 273.862 30.3082 273.033 30.3082C272.709 30.3148 272.387 30.2575 272.086 30.1397C271.784 30.0218 271.509 29.8456 271.276 29.6212C270.838 29.1749 270.593 28.5741 270.595 27.9487C270.591 27.6485 270.653 27.3511 270.774 27.0766C270.896 26.8022 271.075 26.5571 271.299 26.3579C271.748 25.9259 272.349 25.689 272.971 25.6987C273.145 25.695 273.319 25.7004 273.492 25.7149C273.613 25.7342 273.73 25.7741 273.837 25.8329V20.3583C273.837 19.5532 273.515 18.8823 272.876 18.3359C272.238 17.7895 271.454 17.5201 270.532 17.5201C269.714 17.5183 268.908 17.7263 268.192 18.1244C267.545 18.5253 267.05 19.1293 266.782 19.842H264.905C265.3 18.6405 266.007 17.7219 267.027 17.0864C267.551 16.7771 268.113 16.5354 268.698 16.3672C269.327 16.1907 269.977 16.1057 270.63 16.1149C272.046 16.1149 273.235 16.466 274.196 17.1777C275.158 17.8894 275.637 18.8308 275.637 20.0041L275.634 27.8049ZM274.038 27.9337C274.033 27.8038 274.001 27.6763 273.942 27.5601C273.884 27.4438 273.801 27.3413 273.7 27.2595C273.609 27.1603 273.497 27.0824 273.372 27.0311C273.247 26.98 273.112 26.9568 272.977 26.9633C272.699 26.969 272.433 27.0741 272.226 27.2595C272.07 27.4034 271.978 27.6278 271.945 27.9337C271.942 28.0685 271.962 28.203 272.005 28.3309C272.054 28.4509 272.13 28.5583 272.226 28.6454C272.329 28.7156 272.442 28.7719 272.561 28.8129C272.698 28.8588 272.838 28.8905 272.981 28.9073C273.119 28.9118 273.256 28.8915 273.387 28.8472C273.507 28.8028 273.617 28.7341 273.709 28.6454C273.811 28.5565 273.892 28.4473 273.949 28.3246C274.006 28.202 274.036 28.0687 274.038 27.9337Z" fill="white"/>
<path d="M275.821 7.3584C275.821 8.16996 275.429 8.83551 274.64 9.36365C273.853 9.8943 272.922 10.1711 271.972 10.1569H270.708C270.543 10.1569 270.386 10.1569 270.215 10.1665C270.032 10.1756 269.85 10.1989 269.67 10.2363C269.364 10.2363 269.015 10.4103 268.615 10.7612C268.26 11.0328 268.085 11.4268 268.085 11.9474C268.083 12.1477 268.123 12.3461 268.202 12.5299C268.282 12.7136 268.399 12.8788 268.546 13.0144C268.712 13.1971 268.944 13.307 269.19 13.3204L270.493 11.5578C270.55 11.6136 270.613 11.677 270.676 11.7477C270.728 11.8031 270.772 11.8661 270.805 11.9346L271.529 12.598C271.611 12.154 271.837 11.7497 272.173 11.4483C272.56 11.1294 273.049 10.9608 273.55 10.9734C274.052 10.9861 274.532 11.1791 274.903 11.517C275.075 11.6824 275.215 11.8796 275.313 12.0977C275.414 12.3233 275.465 12.5678 275.463 12.8148C275.465 13.0663 275.413 13.3154 275.31 13.545C275.208 13.7746 275.056 13.9792 274.867 14.1448C274.66 14.318 274.421 14.4503 274.165 14.5345C273.896 14.6298 273.612 14.6773 273.327 14.6751C273.067 14.6735 272.809 14.6439 272.556 14.5871C272.301 14.5244 272.055 14.4322 271.821 14.3122C271.339 14.0871 270.91 13.7639 270.56 13.3633L269.768 14.5366H268.751C268.445 14.5376 268.142 14.4782 267.859 14.3615C267.576 14.2449 267.318 14.0735 267.101 13.8571C266.621 13.402 266.381 12.7837 266.381 12.0204C266.381 11.283 266.679 10.625 267.282 10.0292C267.833 9.50858 268.434 9.21227 269.068 9.15002C269.413 9.08668 269.761 9.04657 270.111 9.0298H271.966C272.556 9.0298 273.05 8.90959 273.451 8.66264C273.828 8.36962 274.017 7.9359 274.017 7.3584H275.821ZM274.274 12.7997C274.274 12.3038 274.019 12.0484 273.501 12.0484C272.982 12.0484 272.728 12.2995 272.728 12.7997C272.728 13.3 272.986 13.5512 273.501 13.5512C274.016 13.5512 274.274 13.2989 274.274 12.7997Z" fill="white"/>
<path d="M290.743 26.896C290.743 27.977 290.492 28.8046 289.992 29.3713C289.498 29.8723 288.619 30.1228 287.352 30.1228H279.212V28.8132C279.902 28.8132 280.376 28.7058 280.634 28.5019C280.891 28.2979 281.018 27.8674 281.018 27.2406V20.7279C280.928 20.7661 280.833 20.7918 280.737 20.8041C280.629 20.8202 280.441 20.8427 280.161 20.8642C279.53 20.872 278.921 20.6389 278.456 20.2126C278.245 20.0139 278.075 19.7762 277.955 19.5127C277.829 19.2294 277.766 18.9221 277.771 18.6121C277.771 18.305 277.831 18.0009 277.95 17.7179C278.069 17.4347 278.244 17.1785 278.464 16.9643C278.694 16.7314 278.969 16.5483 279.273 16.4264C279.576 16.3045 279.902 16.2465 280.23 16.2559C281.016 16.2559 281.638 16.4952 282.093 16.974C282.571 17.4109 282.81 17.998 282.81 18.742V28.7251H286.359C287.453 28.7251 288.152 28.6081 288.457 28.3623C288.787 28.0682 288.95 27.4659 288.95 26.5374V16.4147H290.746L290.743 26.896ZM281.211 18.6379C281.21 18.5098 281.182 18.3834 281.129 18.267C281.075 18.1505 280.998 18.0465 280.902 17.9616C280.808 17.8643 280.694 17.7872 280.569 17.735C280.444 17.6828 280.309 17.6565 280.174 17.6578C279.889 17.6575 279.616 17.7703 279.414 17.9713C279.253 18.1108 279.153 18.3319 279.116 18.6379C279.111 18.7688 279.132 18.8994 279.179 19.0222C279.231 19.1463 279.312 19.2565 279.414 19.3442C279.514 19.4149 279.622 19.4719 279.737 19.5138C279.877 19.5558 280.02 19.586 280.166 19.604C280.436 19.6073 280.697 19.507 280.894 19.3238C280.995 19.2401 281.076 19.1351 281.13 19.0165C281.185 18.8979 281.212 18.7685 281.211 18.6379Z" fill="white"/>
<path d="M300.948 27.9478C300.953 28.2526 300.896 28.5552 300.782 28.8377C300.65 29.1318 300.464 29.3976 300.231 29.6203C299.815 30.0754 299.242 30.3073 298.522 30.3073C297.732 30.3073 297.097 30.0769 296.619 29.616C296.405 29.3811 296.236 29.1085 296.121 28.8119C296.007 28.49 295.952 28.1499 295.958 27.8082V9.65071L293.567 11.9597C293.245 11.2169 292.876 10.4962 292.459 9.80209C291.533 8.28779 290.536 7.25909 289.471 6.7159L291.015 5.73047C291.778 6.17559 292.522 6.91485 293.245 7.94821C293.352 8.09099 293.469 8.27024 293.597 8.48495C293.725 8.69966 293.884 8.97448 294.071 9.31156L296.446 7.01647C296.63 7.01667 296.81 7.06296 296.972 7.15111C297.133 7.23924 297.269 7.36641 297.368 7.52101C297.493 7.70599 297.585 7.91117 297.64 8.12753C297.706 8.36481 297.738 8.61011 297.737 8.85634V25.8288C297.827 25.7927 297.921 25.7667 298.017 25.7515C298.125 25.7365 298.314 25.7182 298.59 25.6946C299.207 25.6818 299.804 25.909 300.256 26.328C300.483 26.5315 300.661 26.7818 300.781 27.0616C300.9 27.3414 300.958 27.6438 300.948 27.9478ZM299.652 27.9328C299.652 27.688 299.539 27.4669 299.314 27.2587C299.224 27.1595 299.112 27.0816 298.988 27.0304C298.863 26.9791 298.729 26.9559 298.595 26.9624C298.313 26.9576 298.04 27.064 297.836 27.2587C297.684 27.4025 297.589 27.6269 297.555 27.9328C297.55 28.0679 297.572 28.2026 297.617 28.3299C297.663 28.4477 297.737 28.5525 297.832 28.6349C297.949 28.7319 298.088 28.7993 298.238 28.8313C298.4 28.8721 298.518 28.8935 298.59 28.9064C298.724 28.9097 298.857 28.8923 298.984 28.8549C299.17 28.7778 299.33 28.6508 299.447 28.488C299.565 28.3251 299.634 28.1329 299.648 27.9328H299.652Z" fill="white"/>
<path d="M314.901 30.1238H313.104V19.7252C313.104 18.4056 312.659 17.7465 311.769 17.7479C311.488 17.7479 311.279 17.9916 311.136 18.4747L307.237 30.1238H305.268V20.7279C305.179 20.7672 305.084 20.7928 304.987 20.8041C304.879 20.8201 304.691 20.8427 304.41 20.8642C303.781 20.8719 303.172 20.6387 302.708 20.2126C302.498 20.0136 302.329 19.776 302.208 19.5127C302.082 19.2297 302.019 18.9221 302.025 18.6121C302.024 18.3051 302.085 18.001 302.204 17.718C302.323 17.4349 302.497 17.1787 302.717 16.9643C302.947 16.7315 303.223 16.5485 303.526 16.4266C303.83 16.3048 304.155 16.2466 304.483 16.2558C305.27 16.2558 305.89 16.4952 306.345 16.974C306.826 17.4108 307.065 18.0002 307.065 18.7473V23.4437C307.065 23.6745 307.05 23.9879 307.015 24.3765C306.981 24.7651 306.931 25.2074 306.865 25.699C306.865 25.8965 306.852 26.1284 306.828 26.3807C306.803 26.6329 306.765 26.926 306.72 27.2341C306.788 26.926 306.841 26.6855 306.877 26.5181C306.904 26.375 306.944 26.2348 306.998 26.0994C307.129 25.5125 307.298 24.9342 307.5 24.368L309.647 17.7941C309.963 16.7711 310.712 16.2558 311.901 16.2558C312.831 16.2558 313.559 16.5063 314.084 17.0072C314.364 17.2689 314.574 17.5962 314.695 17.9594C314.847 18.4229 314.92 18.9089 314.91 19.3968L314.901 30.1238ZM305.468 18.6379C305.467 18.5098 305.439 18.3835 305.386 18.267C305.333 18.1505 305.256 18.0464 305.16 17.9616C305.065 17.8641 304.951 17.787 304.826 17.7348C304.7 17.6826 304.565 17.6564 304.429 17.6578C304.145 17.6578 303.872 17.7706 303.671 17.9712C303.507 18.1108 303.406 18.3319 303.372 18.6379C303.369 18.7687 303.39 18.8991 303.435 19.0221C303.488 19.146 303.569 19.2561 303.671 19.3442C303.771 19.4144 303.879 19.4714 303.993 19.5137C304.134 19.5559 304.277 19.5861 304.422 19.6039C304.693 19.6075 304.955 19.5072 305.154 19.3237C305.253 19.2399 305.334 19.1348 305.388 19.0162C305.442 18.8976 305.47 18.7683 305.468 18.6379Z" fill="white"/>
<path d="M328.529 26.895C328.529 27.9996 328.279 28.8122 327.777 29.3404C327.276 29.8685 326.401 30.1229 325.138 30.1229H318.644V25.2827C318.644 24.5878 318.812 24.0286 319.149 23.6049C319.318 23.4256 319.632 23.2002 320.091 22.919C319.613 22.8041 319.173 22.5691 318.812 22.2362C318.64 22.0592 318.506 21.8495 318.417 21.6196C318.328 21.3897 318.286 21.1441 318.294 20.8976V18.7443C318.294 17.9928 318.518 17.3853 318.968 16.9365C319.417 16.4878 320.059 16.2582 320.892 16.2582C321.212 16.2526 321.53 16.3135 321.825 16.4371C322.121 16.5607 322.387 16.7443 322.608 16.9763C322.841 17.1801 323.026 17.4324 323.151 17.7154C323.275 17.9983 323.336 18.3053 323.33 18.6144C323.33 19.2263 323.086 19.7598 322.606 20.2149C322.391 20.4233 322.14 20.5904 321.865 20.7076C321.573 20.8219 321.263 20.8759 320.95 20.8665C320.526 20.8665 320.238 20.8203 320.085 20.7302C320.085 21.1156 320.286 21.4655 320.692 21.7779C321.131 22.0741 321.732 22.2233 322.494 22.2233H323.578V23.6242H322.453C321.109 23.6242 320.435 24.2071 320.435 25.3868V28.7242H324.14C325.23 28.7242 325.925 28.6072 326.229 28.3614C326.558 28.0672 326.722 27.465 326.722 26.5365V16.4138H328.52L328.529 26.895ZM321.99 18.637C321.989 18.5089 321.961 18.3826 321.908 18.2661C321.855 18.1497 321.778 18.0456 321.682 17.9607C321.587 17.8629 321.473 17.7856 321.347 17.7334C321.221 17.6812 321.086 17.6551 320.949 17.6569C320.667 17.6586 320.397 17.7712 320.198 17.9703C320.033 18.1099 319.934 18.331 319.899 18.637C319.894 18.768 319.915 18.8986 319.962 19.0212C320.013 19.146 320.094 19.2564 320.198 19.3433C320.297 19.4143 320.405 19.4714 320.52 19.5129C320.66 19.555 320.803 19.5851 320.949 19.603C321.22 19.6072 321.482 19.5069 321.682 19.3229C321.781 19.2384 321.86 19.1331 321.913 19.0144C321.967 18.8959 321.992 18.7669 321.99 18.637Z" fill="white"/>
</g>
<defs>
<clipPath id="clip0_853_4628">
<rect width="329.497" height="96" fill="white" transform="translate(0.680176)"/>
</clipPath>
</defs>
</svg>
