<svg width="96" height="96" viewBox="0 0 96 96" fill="none" xmlns="http://www.w3.org/2000/svg">
<g clip-path="url(#clip0_859_4865)">
<path d="M18.5348 79.8734C15.0064 79.8734 12.1196 76.9866 12.1196 73.4583V32.5001C12.1196 28.9718 15.0064 26.085 18.5348 26.085C22.0631 26.085 24.9499 28.9718 24.9499 32.5001V73.4583C24.9499 76.9866 22.0631 79.8734 18.5348 79.8734Z" fill="white"/>
<path d="M18.5348 21.1506C15.0064 21.1506 12.1196 18.2638 12.1196 14.7354C12.1196 11.2071 15.0064 8.32031 18.5348 8.32031C22.0631 8.32031 24.9499 11.2071 24.9499 14.7354C24.9499 18.2638 22.0631 21.1506 18.5348 21.1506Z" fill="white"/>
<path d="M73.261 26.085H32.3028C28.7745 26.085 25.8877 28.9718 25.8877 32.5001C25.8877 36.0284 28.7745 38.9152 32.3028 38.9152H46.3668V73.4583C46.3668 76.9866 49.2536 79.8734 52.7819 79.8734C56.3102 79.8734 59.197 76.9866 59.197 73.4583V38.9152H73.261C76.7893 38.9152 79.6761 36.0284 79.6761 32.5001C79.6761 28.9718 76.7893 26.085 73.261 26.085Z" fill="white"/>
<path d="M6.29659 5.98088C7.94816 5.98088 9.28703 4.64201 9.28703 2.99044C9.28703 1.33886 7.94816 0 6.29659 0C4.64502 0 3.30615 1.33886 3.30615 2.99044C3.30615 4.64201 4.64502 5.98088 6.29659 5.98088Z" fill="white"/>
<path d="M3.35561 27.1214C5.20886 27.1214 6.71122 25.619 6.71122 23.7658C6.71122 21.9125 5.20886 20.4102 3.35561 20.4102C1.50236 20.4102 0 21.9125 0 23.7658C0 25.619 1.50236 27.1214 3.35561 27.1214Z" fill="white"/>
<path d="M31.0688 14.0439C32.7585 14.0439 34.1283 12.6741 34.1283 10.9843C34.1283 9.2946 32.7585 7.9248 31.0688 7.9248C29.3791 7.9248 28.0093 9.2946 28.0093 10.9843C28.0093 12.6741 29.3791 14.0439 31.0688 14.0439Z" fill="white"/>
<path d="M7.95501 3.62116L6.9082 4.66797L14.864 12.6237L15.9108 11.5769L7.95501 3.62116Z" fill="white"/>
<path d="M14.5673 15.7656L5.16455 21.9443L5.97755 23.1815L15.3803 17.0028L14.5673 15.7656Z" fill="white"/>
<path d="M30.8689 10.0212L20.3735 14.0752L20.907 15.4562L31.4024 11.4021L30.8689 10.0212Z" fill="white"/>
<path d="M36.1025 20.7552C40.1295 18.2878 44.4812 16.3943 49.0315 15.1297C50.4527 14.7349 75.5112 8.10755 84.7589 20.4592C86.792 23.1782 87.3841 25.9071 87.621 27.0717C91.327 45.1772 65.4542 64.1067 63.1448 65.7599C68.2799 63.0725 73.0829 59.7933 77.4555 55.9891C83.4166 50.8027 91.9932 43.3365 94.5296 31.5129C95.334 27.7675 96.8687 20.6121 92.8518 15.031C89.2939 10.0864 83.2538 8.97606 79.4244 8.33455C60.9636 5.22074 42.873 16.2054 36.1025 20.7552Z" fill="white"/>
<path d="M40.879 95.8516C40.7416 95.8516 40.6098 95.797 40.5126 95.6998C40.4154 95.6027 40.3608 95.4709 40.3608 95.3335V88.4742C40.3608 88.3368 40.4154 88.205 40.5126 88.1078C40.6098 88.0106 40.7416 87.9561 40.879 87.9561C41.0164 87.9561 41.1482 88.0106 41.2454 88.1078C41.3425 88.205 41.3971 88.3368 41.3971 88.4742V95.3335C41.3971 95.4709 41.3425 95.6027 41.2454 95.6998C41.1482 95.797 41.0164 95.8516 40.879 95.8516V95.8516Z" fill="white"/>
<path d="M51.7456 87.9561H46.9491C46.7468 87.9561 46.5889 88.188 46.5889 88.4742C46.5889 88.7604 46.7517 88.9923 46.9491 88.9923H48.8786V95.3335C48.8786 95.4709 48.9332 95.6027 49.0303 95.6998C49.1275 95.797 49.2593 95.8516 49.3967 95.8516C49.5341 95.8516 49.6659 95.797 49.7631 95.6998C49.8603 95.6027 49.9149 95.4709 49.9149 95.3335V88.9923H51.7456C51.948 88.9923 52.1059 88.7604 52.1059 88.4742C52.1059 88.188 51.948 87.9561 51.7456 87.9561Z" fill="white"/>
<path d="M61.674 94.8153H58.3776V88.4742C58.3776 88.3368 58.323 88.205 58.2258 88.1078C58.1287 88.0106 57.9969 87.9561 57.8595 87.9561C57.722 87.9561 57.5902 88.0106 57.4931 88.1078C57.3959 88.205 57.3413 88.3368 57.3413 88.4742V95.3335C57.3413 95.6197 57.4795 95.8516 57.6473 95.8516H61.674C61.8418 95.8516 61.9799 95.6197 61.9799 95.3335C61.9799 95.0472 61.8418 94.8153 61.674 94.8153Z" fill="white"/>
<path d="M20.2075 95.299L17.8585 91.2821L19.7633 88.6371C19.9114 88.4299 19.8423 88.1288 19.6104 87.9611C19.3784 87.7933 19.0725 87.8229 18.9244 88.0302L16.235 91.7608V88.4743C16.235 88.3369 16.1804 88.2051 16.0833 88.1079C15.9861 88.0107 15.8543 87.9561 15.7169 87.9561C15.5795 87.9561 15.4477 88.0107 15.3505 88.1079C15.2533 88.2051 15.1987 88.3369 15.1987 88.4743V95.3335C15.1987 95.471 15.2533 95.6027 15.3505 95.6999C15.4477 95.7971 15.5795 95.8517 15.7169 95.8517C15.8543 95.8517 15.9861 95.7971 16.0833 95.6999C16.1804 95.6027 16.235 95.471 16.235 95.3335V93.5324L17.1973 92.2L19.3143 95.8221C19.4179 95.9997 19.7041 96.0244 19.9509 95.8813C20.1976 95.7382 20.3111 95.4766 20.2075 95.299Z" fill="white"/>
<path d="M34.2471 88.238C34.2471 88.238 33.9659 87.8383 33.3836 87.8777C32.8013 87.9172 32.599 88.1245 32.4312 88.5686L30.0822 94.6383L27.7333 88.5686C27.5606 88.1245 27.3632 87.9123 26.7809 87.8777C26.1986 87.8432 25.9173 88.238 25.9173 88.238C25.8633 88.2866 25.8201 88.3459 25.7903 88.4122C25.7606 88.4785 25.745 88.5502 25.7446 88.6229V95.4821C25.7446 95.6196 25.7992 95.7514 25.8964 95.8485C25.9936 95.9457 26.1254 96.0003 26.2628 96.0003C26.4002 96.0003 26.532 95.9457 26.6292 95.8485C26.7263 95.7514 26.7809 95.6196 26.7809 95.4821V88.9732L29.2433 95.339C29.2528 95.3646 29.2644 95.3894 29.2779 95.4131V95.4131C29.2779 95.4131 29.4753 95.9954 30.0724 95.9608C30.6695 95.9263 30.8027 95.645 30.9211 95.339L33.3836 88.9732V95.4821C33.3836 95.6196 33.4382 95.7514 33.5353 95.8485C33.6325 95.9457 33.7643 96.0003 33.9017 96.0003C34.0391 96.0003 34.1709 95.9457 34.2681 95.8485C34.3653 95.7514 34.4199 95.6196 34.4199 95.4821V88.6229C34.4182 88.5504 34.4021 88.4791 34.3724 88.413C34.3428 88.3469 34.3002 88.2874 34.2471 88.238V88.238Z" fill="white"/>
</g>
<defs>
<clipPath id="clip0_859_4865">
<rect width="95.4991" height="96" fill="white"/>
</clipPath>
</defs>
</svg>
