<svg width="458" height="96" viewBox="0 0 458 96" fill="none" xmlns="http://www.w3.org/2000/svg">
<g clip-path="url(#clip0_853_4507)">
<path d="M28.0586 79.8479C28.0586 83.6961 24.9326 86.8175 21.0826 86.8175C17.2298 86.8175 14.1047 83.6961 14.1047 79.8479V35.6221C14.1047 31.7738 17.2298 28.6543 21.0826 28.6543C24.9326 28.6543 28.0586 31.7738 28.0586 35.6221V79.8479Z" fill="#2357A5"/>
<path d="M80.651 28.6572H36.3722C32.5194 28.6572 29.3953 31.7777 29.3953 35.625C29.3953 39.4769 32.5194 42.5937 36.3722 42.5937H51.5356V79.8892C51.5356 83.7338 54.657 86.857 58.5107 86.857C62.3626 86.857 65.4894 83.7338 65.4894 79.8892V42.5937H80.651C84.5029 42.5937 87.627 39.4769 87.627 35.625C87.627 31.7777 84.5029 28.6572 80.651 28.6572Z" fill="#2357A5"/>
<path d="M94.489 23.3144C102.189 36.0066 91.1985 56.9208 69.7685 71.554V71.5576C71.2396 70.7732 72.7052 69.9421 74.1653 69.058C98.3756 54.4047 111.36 31.575 103.166 18.0655C94.9708 4.5533 68.6988 5.47855 44.4867 20.1318C43.0229 21.0178 41.604 21.9348 40.2234 22.8765C63.1326 10.6726 86.7898 10.6242 94.489 23.3144" fill="#F26721"/>
<path d="M38.2544 11.038C37.6921 9.22868 35.7657 8.21931 33.9545 8.77976C32.3984 9.26342 31.4357 10.7491 31.5509 12.3052L28.0875 13.3795C26.9584 10.7135 24.3161 8.83645 21.2322 8.83645C19.3726 8.83645 17.6757 9.52399 16.371 10.6504L10.9374 5.23782C11.7621 3.91119 11.6002 2.14845 10.4464 1.00011C9.1024 -0.338407 6.9264 -0.335664 5.58606 1.00651C4.24846 2.34868 4.24938 4.52285 5.59429 5.86045C6.74812 7.00879 8.51177 7.16605 9.83749 6.34045L15.3077 11.7896C14.3614 13.0348 13.7954 14.5809 13.7954 16.2659C13.7954 17.2918 14.0002 18.2655 14.3787 19.156L7.21349 23.5949C6.11178 22.4895 4.35543 22.2445 2.97212 23.1021C1.36206 24.1014 0.863776 26.217 1.86583 27.828C2.86515 29.438 4.98355 29.9336 6.59452 28.9343C7.98058 28.0758 8.5392 26.3944 8.03635 24.9196L15.1376 20.5164C16.4816 22.4346 18.7088 23.6927 21.2322 23.6927C25.3392 23.6927 28.6681 20.3674 28.6681 16.2659C28.6681 15.7896 28.6178 15.3242 28.5328 14.8717L32.0126 13.7937C32.8034 15.1386 34.4382 15.8179 35.9943 15.3343C37.8064 14.772 38.8194 12.8492 38.2544 11.038" fill="#2357A5"/>
<path d="M122.313 47.6179H125.364V43.9837C125.364 41.687 126.221 39.767 130.404 39.767H131.534V37.2646H130.404C127.764 37.2646 126.461 37.676 125.467 39.4589L125.364 39.4241V35.6198C125.364 32.5688 126.941 31.0255 130.026 31.0255C133.145 31.0255 134.757 32.5688 134.757 35.6198V47.6179H137.808V35.6198C137.808 31.0255 135.477 28.4893 130.061 28.4893C124.644 28.4893 122.313 31.0255 122.313 35.6198V47.6179V47.6179Z" fill="white"/>
<path d="M147.236 47.9608C147.989 47.9608 148.812 47.8575 149.67 47.4461L149.223 45.2527C148.847 45.3898 148.401 45.4584 147.955 45.4584C146.961 45.4584 146.515 45.047 146.515 44.0184V41.0013C146.515 38.5674 147.887 37.6074 149.601 37.6074L149.875 35.9626L145.967 34.1112C146.001 32.0888 147.75 31.0255 150.183 31.0255C152.446 31.0255 154.571 31.9517 154.571 35.2422V41.7217C154.571 46.2118 156.971 47.9608 160.467 47.9608C162.936 47.9608 165.095 46.7265 165.884 44.6355H166.055L166.227 47.6179H168.73V28.8321H165.679V39.8017C165.679 43.1608 163.827 45.3898 161.084 45.3898C158.96 45.3898 157.622 44.2241 157.622 41.4813V34.9341C157.622 30.2026 153.989 28.4893 150.218 28.4893C145.727 28.4893 142.847 30.9231 142.847 33.9393V35.0712L146.79 36.5103L146.756 36.6136C144.801 37.1274 143.464 38.1907 143.464 41.036V44.3613C143.464 47.1718 145.281 47.9608 147.236 47.9608V47.9608Z" fill="white"/>
<path d="M176.991 35.8258H181.996V33.4258H177.093C176.237 33.4258 175.963 32.9796 175.963 32.3972C175.963 31.9858 176.1 31.5406 176.203 31.3001L173.631 30.8887C173.288 31.4034 173.083 32.1915 173.083 32.8772C173.083 34.3858 174.146 35.8258 176.991 35.8258V35.8258ZM176.991 45.424H181.996V43.024H177.093C176.237 43.024 175.963 42.5787 175.963 41.9963C175.963 41.5849 176.1 41.1387 176.203 40.8992L173.631 40.4878C173.288 41.0016 173.083 41.7906 173.083 42.4754C173.083 43.984 174.146 45.424 176.991 45.424V45.424Z" fill="white"/>
<path d="M190.361 47.9588C191.115 47.9588 191.938 47.8555 192.828 47.444L192.417 45.2159C192.006 45.3531 191.526 45.4564 191.115 45.4564C190.086 45.4564 189.675 45.0449 189.675 43.9816V28.8301H186.624V44.3592C186.624 47.1697 188.475 47.9588 190.361 47.9588V47.9588Z" fill="white"/>
<path d="M196.325 47.6179H199.376V36.7507C199.376 33.5626 201.193 31.0602 204.416 31.0602C207.089 31.0602 208.494 32.5002 208.494 35.2422V47.6179H211.545V35.0712C211.545 30.5117 209.078 28.4893 204.998 28.4893C202.084 28.4893 199.925 29.7574 199.136 31.8145H198.999L198.45 28.8321H196.325V47.6179V47.6179Z" fill="white"/>
<path d="M217.1 47.6179H220.151V43.9837C220.151 41.687 221.008 39.767 225.19 39.767H226.322V37.2646H225.19C222.55 37.2646 221.247 37.676 220.253 39.4589L220.151 39.4241V35.6198C220.151 32.5688 221.727 31.0255 224.813 31.0255C227.933 31.0255 229.544 32.5688 229.544 35.6198V47.6179H232.594V35.6198C232.594 31.0255 230.263 28.4893 224.847 28.4893C219.431 28.4893 217.1 31.0255 217.1 35.6198V47.6179V47.6179Z" fill="white"/>
<path d="M242.878 47.961C243.633 47.961 244.455 47.8576 245.347 47.4462L244.936 45.2181C244.524 45.3552 244.044 45.4586 243.633 45.4586C242.605 45.4586 242.194 45.0471 242.194 43.9838V26.1242C242.194 23.8951 241.371 22.5246 240.376 21.8389L240.411 21.7018H247.369V19.3018H238.216L235.68 20.3989V21.7018C237.703 21.7018 239.143 22.7989 239.143 25.5408V44.3614C239.143 47.1719 240.993 47.961 242.878 47.961V47.961Z" fill="white"/>
<path d="M254.98 47.9588C257.962 47.9588 260.053 46.6897 260.876 44.8392H261.048L261.185 47.6159H263.721V28.8301H260.67V39.6964C260.67 43.1588 258.819 45.3878 255.631 45.3878C252.957 45.3878 251.552 43.9478 251.552 41.2049V28.8301H248.501V41.3768C248.501 45.9354 250.935 47.9588 254.98 47.9588Z" fill="white"/>
<path d="M274.245 47.961C275 47.961 275.823 47.8576 276.714 47.4462L276.303 45.2181C275.891 45.3552 275.411 45.4586 275 45.4586C273.971 45.4586 273.56 45.0471 273.56 43.9838V26.1242C273.56 23.8951 272.737 22.5246 271.743 21.8389L271.777 21.7018H278.736V19.3018H269.584L267.046 20.3989V21.7018C269.069 21.7018 270.509 22.7989 270.509 25.5408V44.3614C270.509 47.1719 272.36 47.961 274.245 47.961V47.961Z" fill="white"/>
<path d="M284.839 47.9608C285.97 47.9608 286.998 47.8237 287.89 47.4808L287.41 45.1841C286.827 45.3898 286.175 45.4922 285.421 45.4922C283.09 45.4922 281.719 44.567 281.719 42.5098C281.719 40.3155 283.193 39.2193 287.855 38.9103L290.735 38.7046V47.6179H293.751V34.9341C293.751 30.5117 291.421 28.4893 286.621 28.4893C283.776 28.4893 281.41 29.2088 280.108 29.8945V32.7398C281.959 31.6426 284.05 30.9917 286.347 30.9917C289.5 30.9917 290.735 32.1574 290.735 35.105V36.1674L287.443 36.3731C281.204 36.7507 278.633 38.8079 278.633 42.5784C278.633 46.0408 280.828 47.9608 284.839 47.9608V47.9608Z" fill="white"/>
<path d="M306.538 47.9262C311.749 47.9262 314.114 45.9724 314.114 41.1733V28.8323H311.063V41.379C311.063 43.9152 310 45.4238 306.538 45.4238C303.007 45.4238 302.047 43.8128 302.047 41.8243C302.047 39.5614 303.315 38.6361 306.058 38.6361H306.709V36.408H306.058C304.001 36.408 301.945 35.928 301.945 33.528C301.945 32.0542 302.836 31.0942 304.755 31.0942C305.613 31.0942 306.469 31.2999 306.983 31.4718L307.532 29.1065C306.881 28.7637 305.544 28.5918 304.447 28.5918C300.367 28.5918 298.859 30.9232 298.859 33.2885C298.859 35.928 300.642 37.0937 302.047 37.4704V37.6076C300.538 37.8819 298.962 38.9452 298.962 42.0985C298.962 45.6633 300.985 47.9262 306.538 47.9262Z" fill="white"/>
<path d="M299.545 25.8472H314.114V24.5096H314.149V20.6357H311.269V23.4124H302.047L299.545 24.5096V25.8472V25.8472Z" fill="white"/>
<path d="M324.775 47.9587C325.906 47.9587 326.935 47.8215 327.826 47.4787L327.346 45.182C326.764 45.3877 326.112 45.4901 325.358 45.4901C323.027 45.4901 321.656 44.5648 321.656 42.5077C321.656 40.3134 323.129 39.2172 327.792 38.9082L330.671 38.7024V47.6158H333.689V34.9319C333.689 33.32 333.38 32.0181 332.591 31.1605C334.1 30.5434 335.196 29.3438 335.196 27.5957H332.214C332.214 28.5557 331.598 29.1728 330.809 29.5495C329.849 28.7614 328.375 28.4871 326.558 28.4871C323.713 28.4871 321.347 29.2067 320.045 29.8924V32.7376C321.896 31.6405 323.987 30.9895 326.284 30.9895C329.437 30.9895 330.671 32.1552 330.671 35.1029V36.1653L327.381 36.371C321.142 36.7486 318.571 38.8058 318.571 42.5763C318.571 46.0387 320.764 47.9587 324.775 47.9587V47.9587Z" fill="white"/>
<path d="M344.59 47.6179H347.641V33.8369C347.641 29.9283 345.378 28.4893 341.813 28.4893C339.482 28.4893 337.768 29.0717 336.842 29.5178V32.2598C338.179 31.5055 339.585 31.0255 341.23 31.0255C343.665 31.0255 344.59 32.0541 344.59 34.2822V47.6179V47.6179Z" fill="white"/>
<path d="M358.473 47.9608C363.89 47.9608 365.81 45.3551 365.81 42.4751C365.81 39.116 363.102 37.7793 359.811 36.6474C356.211 35.4141 355.08 34.7969 355.08 33.2883C355.08 32.0888 356.177 30.9917 359.262 30.9917C361.422 30.9917 363.582 31.6088 364.747 32.1574V29.5864C363.65 28.9007 361.559 28.4893 359.365 28.4893C354.257 28.4893 352.029 30.5802 352.029 33.4255C352.029 36.6822 354.36 38.0536 358.714 39.4241C361.524 40.3155 362.759 41.207 362.759 42.7494C362.759 44.4984 360.976 45.4237 358.542 45.4237C356.245 45.4237 354.12 44.7379 352.68 44.1555L351.789 46.6232C353.4 47.3437 355.765 47.9608 358.473 47.9608V47.9608Z" fill="white"/>
<path d="M375.031 47.9587C376.162 47.9587 377.191 47.8215 378.082 47.4787L377.602 45.182C377.02 45.3877 376.368 45.4901 375.614 45.4901C373.283 45.4901 371.911 44.5648 371.911 42.5077C371.911 40.3134 373.385 39.2172 378.048 38.9082L380.927 38.7024V47.6158H383.944V34.9319C383.944 33.32 383.635 32.0181 382.847 31.1605C384.356 30.5434 385.453 29.3438 385.453 27.5957H382.47C382.47 28.5557 381.853 29.1728 381.064 29.5495C380.104 28.7614 378.631 28.4871 376.814 28.4871C373.969 28.4871 371.603 29.2067 370.3 29.8924V32.7376C372.152 31.6405 374.243 30.9895 376.54 30.9895C379.693 30.9895 380.927 32.1552 380.927 35.1029V36.1653L377.637 36.371C371.398 36.7486 368.827 38.8058 368.827 42.5763C368.827 46.0387 371.02 47.9587 375.031 47.9587V47.9587Z" fill="white"/>
<path d="M396.011 47.9588C398.993 47.9588 401.084 46.6897 401.907 44.8392H402.078L402.215 47.6159H404.752V28.8301H401.701V39.6964C401.701 43.1588 399.85 45.3878 396.662 45.3878C393.988 45.3878 392.582 43.9478 392.582 41.2049V28.8301H389.531V41.3768C389.531 45.9354 391.965 47.9588 396.011 47.9588Z" fill="white"/>
<path d="M414.797 47.9588C415.552 47.9588 416.374 47.8555 417.265 47.444L416.854 45.2159C416.443 45.3531 415.963 45.4564 415.552 45.4564C414.523 45.4564 414.112 45.0449 414.112 43.9816V28.8301H411.061V44.3592C411.061 47.1697 412.912 47.9588 414.797 47.9588Z" fill="white"/>
<path d="M420.762 47.6179H423.813V36.7507C423.813 33.5626 425.629 31.0602 428.852 31.0602C431.526 31.0602 432.932 32.5002 432.932 35.2422V47.6179H435.983V35.0712C435.983 30.5117 433.514 28.4893 429.435 28.4893C426.521 28.4893 424.361 29.7574 423.573 31.8145H423.436L422.887 28.8321H420.762V47.6179Z" fill="white"/>
<path d="M441.536 47.6158H444.587V43.9815C444.587 41.6848 445.479 39.7648 449.626 39.7648H450.758V37.2624H449.626C446.986 37.2624 445.718 37.6739 444.69 39.4567L444.587 39.422V35.6176C444.587 32.5667 446.163 31.0234 449.283 31.0234C452.369 31.0234 453.98 32.5667 453.98 35.6176V47.6158H457.031V35.6176C457.031 33.7315 456.654 32.1891 455.694 31.2291C457.305 30.6467 458.471 29.4124 458.471 27.5957H455.488C455.488 28.6243 454.734 29.31 453.877 29.6181C452.78 28.7952 451.238 28.4871 449.283 28.4871C443.867 28.4871 441.536 31.0234 441.536 35.6176V47.6158V47.6158Z" fill="white"/>
<path d="M125.103 70.9016C125.626 70.9016 126.111 70.8239 126.518 70.6301L126.305 69.3519C126.072 69.468 125.781 69.5256 125.452 69.5256C124.522 69.5256 123.94 69.0218 123.94 67.8205C123.94 66.5615 124.56 65.9023 126.402 65.7478L127.719 65.6317V70.7078H129.347V63.5197C129.347 62.5889 129.191 61.8721 128.804 61.3875C129.54 61.0584 130.005 60.38 130.005 59.3926H128.474C128.474 59.8963 128.242 60.2447 127.932 60.4385C127.467 60.0509 126.809 59.8964 125.995 59.8964C124.677 59.8964 123.592 60.3032 123.011 60.6899V62.2406C123.824 61.6207 124.813 61.2714 125.839 61.2714C127.176 61.2714 127.719 61.9306 127.719 63.6166V64.2365L126.189 64.3526C123.456 64.5464 122.313 65.7286 122.313 67.8598C122.313 69.8164 123.301 70.9016 125.103 70.9016Z" fill="white"/>
<path d="M133.881 70.9027C134.268 70.9027 134.694 70.8442 135.082 70.6312L134.869 69.3914C134.714 69.4691 134.501 69.5267 134.307 69.5267C133.862 69.5267 133.668 69.2945 133.668 68.6938V66.7756C133.668 65.3996 134.23 65.0321 134.985 65.012L135.12 64.1013L133.493 63.0554C133.493 62.0287 134.191 61.2725 135.373 61.2725C136.535 61.2725 137.388 61.9509 137.388 63.7146V70.7089H139.015V63.54C139.015 60.9626 137.426 59.8975 135.411 59.8975C133.126 59.8975 131.807 61.3887 131.807 62.9585V63.5976L133.552 64.4113L133.532 64.4698C132.641 64.7605 132.04 65.3612 132.04 66.9695V68.9068C132.04 70.4767 132.873 70.9027 133.881 70.9027V70.9027Z" fill="white"/>
<path d="M144.131 70.7089H145.778V62.9C145.778 60.7112 144.693 59.8975 143.065 59.8975C142 59.8975 141.205 60.2266 140.779 60.478V61.9893C141.341 61.5441 141.961 61.2725 142.678 61.2725C143.724 61.2725 144.131 61.8732 144.131 63.1523V70.7089V70.7089Z" fill="white"/>
<path d="M151.978 70.9032C154.459 70.9032 155.485 69.4888 155.485 66.9115V60.0918H153.858V66.9115C153.858 68.6559 153.257 69.5272 151.978 69.5272C150.68 69.5272 150.079 68.6559 150.079 66.9115V60.0918H148.452V66.9115C148.452 69.4888 149.478 70.9032 151.978 70.9032Z" fill="white"/>
<path d="M153.451 58.3858H157.403V57.1067H153.664C153.276 57.1067 153.121 56.816 153.121 56.4868C153.121 56.2738 153.16 56.0022 153.199 55.8861L151.92 55.6338C151.746 55.9245 151.649 56.4283 151.649 56.7968C151.649 57.6297 152.113 58.3858 153.451 58.3858V58.3858Z" fill="white"/>
<path d="M161.085 70.9032C162.441 70.9032 163.371 70.2056 163.72 69.1405H163.798L163.933 70.7094H165.232V60.0918H163.604V66.2916C163.604 68.2491 162.848 69.508 161.492 69.508C160.388 69.508 159.787 68.6943 159.787 67.1245V60.0918H158.159V67.2022C158.159 69.7796 159.244 70.9032 161.085 70.9032V70.9032Z" fill="white"/>
<path d="M170.114 70.9032C170.521 70.9032 170.927 70.8447 171.315 70.6317L171.121 69.3919C170.948 69.4696 170.735 69.5272 170.56 69.5272C170.114 69.5272 169.94 69.295 169.94 68.6943V60.0918H168.292V68.9073C168.292 70.4772 169.106 70.9032 170.114 70.9032Z" fill="white"/>
<path d="M173.157 70.7089H174.784V64.5082C174.784 62.7263 175.559 61.2917 176.896 61.2917C178.001 61.2917 178.601 62.1064 178.601 63.6753V70.7089H180.229V63.5976C180.229 61.0211 179.163 59.8975 177.284 59.8975C175.946 59.8975 175.016 60.5951 174.668 61.7763H174.59L174.319 60.0913H173.157V70.7089V70.7089Z" fill="white"/>
<path d="M182.903 70.7089H184.53V68.6161C184.53 67.3178 184.898 66.2335 186.681 66.2335H187.146V64.8575H186.681C185.557 64.8575 185.015 65.0897 184.588 66.0972L184.53 66.078V63.8883C184.53 62.1448 185.189 61.2725 186.487 61.2725C187.824 61.2725 188.464 62.1448 188.464 63.8883V70.7089H190.11V63.8883C190.11 61.3119 189.025 59.8975 186.506 59.8975C183.987 59.8975 182.903 61.3119 182.903 63.8883V70.7089Z" fill="white"/>
<path d="M195.129 70.9028C195.536 70.9028 195.943 70.8443 196.33 70.6313L196.137 69.3915C195.962 69.4692 195.749 69.5268 195.575 69.5268C195.129 69.5268 194.954 69.2946 194.954 68.6939V60.0914H194.935V58.5216C194.935 57.2617 194.587 56.4873 194.121 56.0996L194.141 56.0219H197.125V54.7236H193.056L191.796 55.3051V56.0219C192.688 56.0219 193.308 56.6418 193.308 58.1924V68.9069C193.308 70.4768 194.121 70.9028 195.129 70.9028V70.9028Z" fill="white"/>
<path d="M200.922 70.9032C202.278 70.9032 203.208 70.2056 203.557 69.1405H203.635L203.77 70.7094H205.069V60.0918H203.441V66.2916C203.441 68.2491 202.685 69.508 201.329 69.508C200.225 69.508 199.624 68.6943 199.624 67.1245V60.0918H197.997V67.2022C197.997 69.7796 199.081 70.9032 200.922 70.9032V70.9032Z" fill="white"/>
<path d="M210.204 70.9028C210.611 70.9028 211.017 70.8443 211.405 70.6313L211.211 69.3915C211.037 69.4692 210.824 69.5268 210.649 69.5268C210.204 69.5268 210.029 69.2946 210.029 68.6939V60.0914H210.01V58.5216C210.01 57.2617 209.661 56.4873 209.196 56.0996L209.215 56.0219H212.2V54.7236H208.13L206.871 55.3051V56.0219C207.763 56.0219 208.382 56.6418 208.382 58.1924V68.9069C208.382 70.4768 209.196 70.9028 210.204 70.9028Z" fill="white"/>
<path d="M215.416 70.9027C215.939 70.9027 216.423 70.825 216.83 70.6312L216.617 69.353C216.385 69.4691 216.094 69.5267 215.764 69.5267C214.834 69.5267 214.253 69.0229 214.253 67.8216C214.253 66.5626 214.873 65.9034 216.714 65.7489L218.032 65.6328V70.7089H219.659V63.5208C219.659 61.0595 218.458 59.8975 216.307 59.8975C214.99 59.8975 213.905 60.3043 213.323 60.6911V62.2417C214.137 61.6218 215.125 61.2725 216.152 61.2725C217.489 61.2725 218.032 61.9317 218.032 63.6177V64.2376L216.501 64.3537C213.769 64.5475 212.625 65.7297 212.625 67.8609C212.625 69.8175 213.614 70.9027 215.416 70.9027Z" fill="white"/>
<path d="M225.685 70.8835C228.107 70.8835 229.211 69.7791 229.211 67.0664V60.0913H227.565V67.1825C227.565 68.6353 227.138 69.5075 225.685 69.5075C224.212 69.5075 223.825 68.5777 223.825 67.4541C223.825 66.1366 224.348 65.6127 225.491 65.6127H225.782V64.3921H225.491C224.619 64.3921 223.767 64.1014 223.767 62.7263C223.767 61.8925 224.135 61.3311 224.949 61.3311C225.297 61.3311 225.666 61.4472 225.879 61.5441L226.15 60.2458C225.84 60.052 225.24 59.9551 224.697 59.9551C222.817 59.9551 222.12 61.2726 222.12 62.6102C222.12 64.1014 222.895 64.7798 223.554 64.9736V65.0513C222.875 65.2058 222.159 65.7873 222.159 67.5894C222.159 69.6045 223.108 70.8835 225.685 70.8835Z" fill="white"/>
<path d="M222.507 58.386H229.211V57.6683H229.23V55.4795H227.738V57.0676H223.767L222.507 57.6683V58.386V58.386Z" fill="white"/>
<path d="M232.796 70.7094H234.365L235.664 65.0125C235.8 64.2381 235.954 63.7919 236.09 62.6107H236.148C236.264 63.7919 236.401 64.3734 236.555 65.0125L237.853 70.7094H239.462L240.954 60.0918H239.268L238.726 64.548C238.629 65.3032 238.57 66.4854 238.454 68.1521H238.396C238.125 66.4662 237.873 65.3032 237.698 64.4895L236.711 60.0918H235.509L234.521 64.4895C234.346 65.3032 234.095 66.4662 233.823 68.1521H233.765C233.649 66.4854 233.591 65.3032 233.513 64.548L232.951 60.0918H231.285L232.796 70.7094V70.7094Z" fill="white"/>
<path d="M245.546 70.9027C248.065 70.9027 248.917 69.4499 248.917 67.8216C248.917 65.9235 247.794 65.2058 246.263 64.5475C244.752 63.8883 244.209 63.4623 244.209 62.59C244.209 61.8924 244.674 61.2725 245.914 61.2725C246.864 61.2725 247.871 61.6026 248.394 61.9125V60.5173C247.91 60.1297 246.961 59.8975 245.914 59.8975C243.666 59.8975 242.562 61.0988 242.562 62.6677C242.562 64.5082 243.608 65.2643 245.488 66.0396C246.708 66.5434 247.271 67.0856 247.271 67.977C247.271 68.9845 246.573 69.5267 245.546 69.5267C244.519 69.5267 243.53 69.1592 242.891 68.8099L242.426 70.1667C243.22 70.5544 244.345 70.9027 245.546 70.9027V70.9027Z" fill="white"/>
<path d="M252.172 64.0245H254.459V62.707H252.366C251.959 62.707 251.843 62.4546 251.843 62.1255C251.843 61.8923 251.882 61.6217 251.94 61.5056L250.642 61.2725C250.487 61.544 250.37 61.9893 250.37 62.3577C250.37 63.2108 250.855 64.0245 252.172 64.0245V64.0245ZM252.172 69.4498H254.459V68.1314H252.366C251.959 68.1314 251.843 67.88 251.843 67.5509C251.843 67.3177 251.882 67.0471 251.94 66.931L250.642 66.6978C250.487 66.9694 250.37 67.4146 250.37 67.7831C250.37 68.6352 250.855 69.4498 252.172 69.4498V69.4498Z" fill="white"/>
<path d="M257.482 70.7089H258.974C261.783 70.7089 262.81 68.7715 262.81 65.3804C262.81 61.9125 261.706 59.8975 258.858 59.8975C257.637 59.8975 256.571 60.2458 255.951 60.7112V62.2609C256.726 61.5825 257.618 61.2725 258.625 61.2725C260.407 61.2725 261.144 62.4547 261.144 65.3612C261.144 68.2869 260.466 69.3722 259.187 69.3722H259.012V64.6444H256.396V65.9619H257.482V70.7089V70.7089Z" fill="white"/>
<path d="M268.254 70.9027C270.967 70.9027 271.995 68.9068 271.995 65.4773C271.995 62.0863 270.87 59.8975 268.08 59.8975C266.898 59.8975 265.775 60.2458 265.155 60.6527V62.2033C265.929 61.6026 266.879 61.2725 267.847 61.2725C269.669 61.2725 270.328 62.59 270.328 65.4581C270.328 68.7715 269.514 69.5468 268.235 69.5468C267.034 69.5468 266.452 68.8684 266.452 66.3496V65.9619H268.274V64.6444H264.922C264.864 65.2451 264.825 65.8458 264.825 66.3688C264.825 69.5267 265.948 70.9027 268.254 70.9027V70.9027Z" fill="white"/>
<path d="M278.679 70.9032C280.519 70.9032 281.566 69.7796 281.566 67.2214V60.0918H279.919V67.1245C279.919 68.6943 279.357 69.508 278.253 69.508C276.896 69.508 276.122 68.2491 276.122 66.2916V60.0918H274.493V70.7094H275.791L275.928 69.0235H276.004C276.354 70.2056 277.323 70.9032 278.679 70.9032V70.9032Z" fill="white"/>
<path d="M286.332 70.9032C286.739 70.9032 287.146 70.8447 287.534 70.6317L287.34 69.3919C287.165 69.4696 286.952 69.5272 286.779 69.5272C286.332 69.5272 286.158 69.295 286.158 68.6943V60.0918H284.511V68.9073C284.511 70.4772 285.325 70.9032 286.332 70.9032V70.9032Z" fill="white"/>
<path d="M289.259 70.7089H290.886V67.0079C290.886 65.6328 291.467 65.0321 292.243 65.012L292.359 64.1013L290.789 63.0554C290.789 62.0287 291.487 61.2725 292.669 61.2725C293.813 61.2725 294.665 61.9509 294.665 63.7146V70.7089H296.292V63.54C296.292 60.9626 294.703 59.8975 292.688 59.8975C290.421 59.8975 289.104 61.3887 289.104 62.9585V63.5976L290.789 64.4113L290.77 64.4698C289.859 64.7605 289.259 65.3612 289.259 66.9887V70.7089V70.7089Z" fill="white"/>
<path d="M301.272 70.9027C301.795 70.9027 302.279 70.825 302.686 70.6312L302.473 69.353C302.24 69.4691 301.949 69.5267 301.62 69.5267C300.69 69.5267 300.109 69.0229 300.109 67.8216C300.109 66.5626 300.729 65.9034 302.57 65.7489L303.888 65.6328V70.7089H305.515V63.5208C305.515 61.0595 304.314 59.8975 302.163 59.8975C300.845 59.8975 299.761 60.3043 299.179 60.6911V62.2417C299.993 61.6218 300.981 61.2725 302.008 61.2725C303.345 61.2725 303.888 61.9317 303.888 63.6177V64.2376L302.356 64.3537C299.624 64.5475 298.481 65.7297 298.481 67.8609C298.481 69.8175 299.47 70.9027 301.272 70.9027V70.9027Z" fill="white"/>
<path d="M300.962 58.404H305.787V57.0865H303.345C303.538 56.7957 303.655 56.4081 303.655 55.9619C303.655 55.1098 303.151 54.4707 302.299 54.4707C301.97 54.4707 301.369 54.5676 300.942 54.9745L301.253 56.0012C301.407 55.9235 301.62 55.7882 301.833 55.7882C302.124 55.7882 302.279 56.0396 302.279 56.3496C302.279 57.0664 301.523 57.3964 300.962 57.5509V58.404Z" fill="white"/>
<path d="M310.631 70.7089H312.277V62.9C312.277 60.7112 311.192 59.8975 309.564 59.8975C308.499 59.8975 307.705 60.2266 307.278 60.478V61.9893C307.84 61.5441 308.46 61.2725 309.177 61.2725C310.224 61.2725 310.631 61.8732 310.631 63.1523V70.7089Z" fill="white"/>
<path d="M317.044 70.9032C317.451 70.9032 317.858 70.8447 318.245 70.6317L318.052 69.3919C317.877 69.4696 317.664 69.5272 317.49 69.5272C317.044 69.5272 316.87 69.295 316.87 68.6943V60.0918H315.222V68.9073C315.222 70.4772 316.037 70.9032 317.044 70.9032V70.9032Z" fill="white"/>
<path d="M320.59 70.7089H322.082C324.891 70.7089 325.918 68.7715 325.918 65.3804C325.918 61.9125 324.814 59.8975 321.965 59.8975C320.744 59.8975 319.679 60.2458 319.059 60.7112V62.2609C319.833 61.5825 320.725 61.2725 321.732 61.2725C323.515 61.2725 324.251 62.4547 324.251 65.3612C324.251 68.2869 323.573 69.3722 322.295 69.3722H322.12V64.6444H319.504V65.9619H320.59V70.7089V70.7089Z" fill="white"/>
<path d="M321.151 58.404H325.976V57.0865H323.535C323.728 56.7957 323.845 56.4081 323.845 55.9619C323.845 55.1098 323.341 54.4707 322.489 54.4707C322.159 54.4707 321.558 54.5676 321.132 54.9745L321.442 56.0012C321.597 55.9235 321.81 55.7882 322.023 55.7882C322.314 55.7882 322.469 56.0396 322.469 56.3496C322.469 57.0664 321.713 57.3964 321.151 57.5509V58.404Z" fill="white"/>
<path d="M330.703 70.7089H332.351V62.9C332.351 60.7112 331.266 59.8975 329.638 59.8975C328.572 59.8975 327.778 60.2266 327.352 60.478V61.9893C327.914 61.5441 328.534 61.2725 329.251 61.2725C330.296 61.2725 330.703 61.8732 330.703 63.1523V70.7089V70.7089Z" fill="white"/>
<path d="M335.024 70.7089H336.653V68.6161C336.653 67.3178 337.02 66.2335 338.803 66.2335H339.269V64.8575H338.803C337.68 64.8575 337.136 65.0897 336.71 66.0972L336.653 66.078V63.8883C336.653 62.1448 337.311 61.2725 338.609 61.2725C339.946 61.2725 340.586 62.1448 340.586 63.8883V70.7089H342.233V63.8883C342.233 61.3119 341.147 59.8975 338.629 59.8975C336.11 59.8975 335.024 61.3119 335.024 63.8883V70.7089V70.7089Z" fill="white"/>
<path d="M340.799 75.7654H342.233V73.1304C342.233 72.3944 341.884 71.9482 341.09 71.9482C340.78 71.9482 340.334 71.9876 340.024 72.1229L340.14 73.2858C340.237 73.2465 340.334 73.2081 340.47 73.2081C340.683 73.2081 340.799 73.3636 340.799 73.6927V75.7654Z" fill="white"/>
<path d="M346.748 70.9027C347.136 70.9027 347.562 70.8442 347.949 70.6312L347.736 69.3914C347.581 69.4691 347.368 69.5267 347.174 69.5267C346.729 69.5267 346.535 69.2945 346.535 68.6938V66.9695C346.535 65.5743 347.096 65.012 347.852 65.012L347.988 64.1013L346.36 63.0554C346.379 61.8924 347.096 61.2725 348.104 61.2725C349.073 61.2725 349.926 61.8156 349.926 63.6945V67.3763C349.926 69.9336 350.953 70.9027 352.561 70.9027C353.685 70.9027 354.654 70.2051 355.002 69.0229H355.099L355.215 70.7089H356.513V60.0913H354.886V66.3304C354.886 68.2485 354.13 69.5075 352.987 69.5075C352.135 69.5075 351.553 68.8492 351.553 67.2794V63.5208C351.553 60.8465 349.984 59.8975 348.124 59.8975C345.992 59.8975 344.674 61.2533 344.674 62.9585V63.5976L346.419 64.4113L346.399 64.4698C345.508 64.7605 344.907 65.3612 344.907 66.9695V68.9068C344.907 70.4767 345.74 70.9027 346.748 70.9027V70.9027Z" fill="white"/>
<path d="M359.381 70.7089H361.009V64.5082C361.009 62.7263 361.783 61.2917 363.121 61.2917C364.225 61.2917 364.826 62.1064 364.826 63.6753V70.7089H366.453V63.5976C366.453 61.0211 365.387 59.8975 363.508 59.8975C362.171 59.8975 361.241 60.5951 360.893 61.7763H360.815L360.543 60.0913H359.381V70.7089V70.7089Z" fill="white"/>
<path d="M369.263 70.7094H370.89V66.66L372.595 64.5288C373.913 64.6449 374.475 65.5556 374.475 66.9508V70.7094H376.122V66.9508C376.122 64.7803 375.23 63.4628 373.564 63.3083L376.063 60.1494V60.0918H374.204L370.929 64.7227H370.89V60.0918H369.263V70.7094Z" fill="white"/>
<path d="M381.063 70.7089H382.71V62.9C382.71 60.7112 381.625 59.8975 379.998 59.8975C378.932 59.8975 378.137 60.2266 377.711 60.478V61.9893C378.272 61.5441 378.893 61.2725 379.61 61.2725C380.656 61.2725 381.063 61.8732 381.063 63.1523V70.7089V70.7089Z" fill="white"/>
<path d="M387.902 70.9027C390.421 70.9027 391.274 69.4499 391.274 67.8216C391.274 65.9235 390.15 65.2058 388.619 64.5475C387.107 63.8883 386.565 63.4623 386.565 62.59C386.565 61.8924 387.03 61.2725 388.27 61.2725C389.219 61.2725 390.227 61.6026 390.751 61.9125V60.5173C390.266 60.1297 389.316 59.8975 388.27 59.8975C386.023 59.8975 384.918 61.0988 384.918 62.6677C384.918 64.5082 385.964 65.2643 387.844 66.0396C389.065 66.5434 389.626 67.0856 389.626 67.977C389.626 68.9845 388.929 69.5267 387.902 69.5267C386.875 69.5267 385.887 69.1592 385.248 68.8099L384.782 70.1667C385.577 70.5544 386.7 70.9027 387.902 70.9027V70.9027Z" fill="white"/>
<path d="M395.634 70.9027C396.157 70.9027 396.641 70.825 397.048 70.6312L396.835 69.353C396.603 69.4691 396.312 69.5267 395.983 69.5267C395.052 69.5267 394.472 69.0229 394.472 67.8216C394.472 66.5626 395.091 65.9034 396.932 65.7489L398.249 65.6328V70.7089H399.877V63.5208C399.877 61.0595 398.675 59.8975 396.525 59.8975C395.208 59.8975 394.122 60.3043 393.541 60.6911V62.2417C394.355 61.6218 395.343 61.2725 396.37 61.2725C397.707 61.2725 398.249 61.9317 398.249 63.6177V64.2376L396.719 64.3537C393.987 64.5475 392.843 65.7297 392.843 67.8609C392.843 69.8175 393.832 70.9027 395.634 70.9027V70.9027Z" fill="white"/>
<path d="M404.992 70.7089H406.639V62.9C406.639 60.7112 405.554 59.8975 403.927 59.8975C402.861 59.8975 402.066 60.2266 401.64 60.478V61.9893C402.202 61.5441 402.822 61.2725 403.539 61.2725C404.585 61.2725 404.992 61.8732 404.992 63.1523V70.7089V70.7089Z" fill="white"/>
<path d="M412.239 70.9027C412.626 70.9027 413.13 70.8442 413.44 70.6513L413.265 69.3722C413.052 69.4691 412.801 69.5267 412.51 69.5267C411.057 69.5267 410.631 67.764 410.631 65.4965C410.631 62.0095 411.58 61.2725 412.917 61.2725C414.332 61.2725 414.855 62.164 414.855 63.7722V70.7089H416.502V63.6177C416.502 61.3311 415.436 59.8975 412.898 59.8975C410.573 59.8975 408.984 61.118 408.984 65.4773C408.984 68.4616 409.759 70.9027 412.239 70.9027V70.9027Z" fill="white"/>
<path d="M419.117 70.7089H420.745V67.0079C420.745 65.6328 421.326 65.0321 422.101 65.012L422.217 64.1013L420.648 63.0554C420.648 62.0287 421.345 61.2725 422.528 61.2725C423.67 61.2725 424.523 61.9509 424.523 63.7146V70.7089H426.151V63.54C426.151 60.9626 424.562 59.8975 422.547 59.8975C420.279 59.8975 418.962 61.3887 418.962 62.9585V63.5976L420.648 64.4113L420.629 64.4698C419.718 64.7605 419.117 65.3612 419.117 66.9887V70.7089V70.7089Z" fill="white"/>
<path d="M431.344 70.9027C433.863 70.9027 434.716 69.4499 434.716 67.8216C434.716 65.9235 433.592 65.2058 432.061 64.5475C430.55 63.8883 430.007 63.4623 430.007 62.59C430.007 61.8924 430.473 61.2725 431.713 61.2725C432.662 61.2725 433.669 61.6026 434.193 61.9125V60.5173C433.709 60.1297 432.759 59.8975 431.713 59.8975C429.465 59.8975 428.361 61.0988 428.361 62.6677C428.361 64.5082 429.407 65.2643 431.287 66.0396C432.507 66.5434 433.068 67.0856 433.068 67.977C433.068 68.9845 432.371 69.5267 431.344 69.5267C430.317 69.5267 429.329 69.1592 428.69 68.8099L428.225 70.1667C429.019 70.5544 430.143 70.9027 431.344 70.9027V70.9027Z" fill="white"/>
<path d="M437.971 64.0245H440.257V62.707H438.164C437.757 62.707 437.641 62.4546 437.641 62.1255C437.641 61.8923 437.68 61.6217 437.738 61.5056L436.44 61.2725C436.285 61.544 436.168 61.9893 436.168 62.3577C436.168 63.2108 436.653 64.0245 437.971 64.0245V64.0245ZM437.971 69.4498H440.257V68.1314H438.164C437.757 68.1314 437.641 67.88 437.641 67.5509C437.641 67.3177 437.68 67.0471 437.738 66.931L436.44 66.6978C436.285 66.9694 436.168 67.4146 436.168 67.7831C436.168 68.6352 436.653 69.4498 437.971 69.4498V69.4498Z" fill="white"/>
<path d="M445.876 70.9032C448.356 70.9032 449.384 69.4888 449.384 66.9115V60.0918H447.755V66.9115C447.755 68.6559 447.155 69.5272 445.876 69.5272C444.578 69.5272 443.978 68.6559 443.978 66.9115V60.0918H442.35V66.9115C442.35 69.4888 443.377 70.9032 445.876 70.9032V70.9032Z" fill="white"/>
<path d="M447.348 58.3858H451.302V57.1067H447.562C447.175 57.1067 447.019 56.816 447.019 56.4868C447.019 56.2738 447.059 56.0022 447.097 55.8861L445.818 55.6338C445.643 55.9245 445.546 56.4283 445.546 56.7968C445.546 57.6297 446.012 58.3858 447.348 58.3858V58.3858Z" fill="white"/>
<path d="M453.452 70.7077H454.343C455.739 70.7077 456.572 70.2423 457.172 69.4871C457.908 68.5573 458.471 66.9491 458.471 64.934C458.471 63.3641 458.141 61.9689 457.425 61.0976C456.862 60.3799 456.029 59.9932 455.003 59.9932C454.692 59.9932 454.285 60.0316 453.859 60.1861L454.208 61.5045C454.382 61.4268 454.615 61.3683 454.866 61.3683C456.087 61.3683 456.843 62.7059 456.843 64.8755C456.843 66.1737 456.572 67.5881 456.029 68.4604C455.719 68.9449 455.292 69.2741 454.828 69.2741H454.673L452.503 60.0901H450.855L453.452 70.7077Z" fill="white"/>
</g>
<defs>
<clipPath id="clip0_853_4507">
<rect width="457.143" height="96" fill="white" transform="translate(0.177002)"/>
</clipPath>
</defs>
</svg>
