<svg width="96" height="96" viewBox="0 0 96 96" fill="none" xmlns="http://www.w3.org/2000/svg">
<path d="M66.9937 37.0367L71.3905 36.7295L67.9393 33.9935L67.6321 29.5967L64.8913 33.0479L60.4993 33.3551L63.9505 36.0911L64.2577 40.4879L66.9937 37.0367Z" fill="white"/>
<path d="M73.9584 75.9457L75.3168 73.4785L72.648 74.3809L70.1808 73.0225L71.0832 75.6913L69.72 78.1585L72.3936 77.2561L74.8608 78.6145L73.9584 75.9457Z" fill="white"/>
<path d="M29.0449 31.7476L31.6705 30.73L29.0449 29.7076L28.0225 27.082L27.0049 29.7076L24.3745 30.73L27.0049 31.7476L28.0225 34.3732L29.0449 31.7476Z" fill="white"/>
<path d="M31.2864 40.7475L33.912 39.7251L31.2864 38.7027L30.264 36.0771L29.2416 38.7027L26.616 39.7251L29.2416 40.7475L30.264 43.3731L31.2864 40.7475Z" fill="white"/>
<path d="M33.3216 50.0259L35.952 49.0035L33.3216 47.9859L32.304 45.3555L31.2816 47.9859L28.656 49.0035L31.2816 50.0259L32.304 52.6515L33.3216 50.0259Z" fill="white"/>
<path d="M17.8753 24.0234L26.3281 22.2138L18.2689 20.505L19.8817 18.0138L17.1553 19.785L15.3169 11.2266L13.5025 19.785L10.7761 18.0138L12.3937 20.5098L4.33447 22.233L12.7825 24.0282L10.7761 27.1194L13.6369 25.2666L15.3409 33.2202L17.0305 25.2714L19.8817 27.1194L17.8753 24.0234Z" fill="white"/>
<path d="M41.3616 76.6222L45.1344 75.8158L41.5344 75.0526L42.2544 73.939L41.04 74.731L40.2192 70.9102L39.4128 74.731L38.1936 73.939L38.9136 75.0526L35.3184 75.8254L39.0912 76.6222L38.1936 78.0046L39.4704 77.1742L40.2288 80.7262L40.9824 77.179L42.2544 78.0046L41.3616 76.6222Z" fill="white"/>
<path d="M30.2591 79.1955L34.5407 78.2787L30.2543 77.3715L32.6351 73.6899L28.9631 76.0803L28.0463 71.7939L27.1343 76.0803L23.4575 73.6995L25.8431 77.3715L21.5615 78.2931L25.8479 79.2003L23.4671 82.8771L27.1391 80.4915L28.0559 84.7731L28.9679 80.4915L32.6447 82.8675L30.2591 79.1955Z" fill="white"/>
<path d="M69.2016 24.4946L71.088 24.0914L69.2016 23.6881L70.248 22.0706L68.6352 23.1217L68.2272 21.2354L67.8288 23.1217L66.2112 22.0754L67.2624 23.693L65.376 24.0962L67.2624 24.4946L66.2112 26.117L67.8288 25.0658L68.2368 26.9522L68.6352 25.061L70.2528 26.1122L69.2016 24.4946Z" fill="white"/>
<path d="M72.3312 70.8146C72.4752 72.4178 72.576 74.021 72.6144 75.6146C57.7073 74.7131 42.7459 75.6043 28.0512 78.269C26.9184 60.2258 22.5984 42.4082 17.0112 25.2578" stroke="white" stroke-width="0.36" stroke-miterlimit="10"/>
<path d="M15.8784 22.2239C30.1824 18.8351 44.4144 15.6719 59.4384 18.0431C64.1808 27.5327 66.5568 38.6015 68.8416 49.0031" stroke="white" stroke-width="0.36" stroke-miterlimit="10"/>
<path d="M28.0513 30.7197C28.0513 30.7197 39.7921 28.3197 46.1473 28.0125C52.5025 27.7053 57.9937 28.0125 57.9937 28.0125" stroke="white" stroke-width="0.36" stroke-miterlimit="10"/>
<path d="M29.4863 39.9453C29.4863 39.9453 41.2271 37.5453 47.5823 37.2381C53.9375 36.9309 59.4287 37.2381 59.4287 37.2381" stroke="white" stroke-width="0.36" stroke-miterlimit="10"/>
<path d="M31.6799 49.0039C31.6799 49.0039 43.4207 46.6039 49.7759 46.2967C56.1311 45.9895 61.6223 46.2967 61.6223 46.2967" stroke="white" stroke-width="0.36" stroke-miterlimit="10"/>
<path d="M57.9937 83.7405C58.9826 83.3207 59.9444 82.8397 60.8737 82.3005C61.3537 81.9261 67.9297 64.8237 73.6033 53.3373C74.4097 51.7053 75.1969 50.1837 75.9505 48.8397C81.984 38.0685 84.5664 34.3725 84.5664 34.3725C84.5664 34.3725 75.9264 50.5917 74.0064 55.0797C72.0864 59.5677 68.6401 67.6797 68.6401 67.6797C68.6401 67.6797 71.2369 67.7901 72.1537 67.7901C73.0705 67.7901 75.3313 66.7677 75.7633 66.0141C76.1953 65.2605 78.8881 60.8397 78.8881 60.8397L76.0081 61.0557L79.2385 59.8701C80.0868 57.7544 81.0581 55.6901 82.1473 53.6877C83.3857 51.6333 84.5473 50.0157 84.5473 50.0157L79.9009 50.6637L84.8017 49.0461L81.4081 48.9933L85.4401 47.7453C85.4401 47.7453 86.3041 45.4173 87.3601 43.0989C88.4161 40.7805 91.2001 35.9901 91.2001 35.9901L87.0001 36.4701C87.0001 36.4701 90.5521 35.1789 90.8785 34.7997C91.2049 34.4205 91.7376 30.4173 91.632 29.2989C91.5264 28.1805 89.6353 26.0205 89.4241 26.0205C89.2129 26.0205 86.7313 28.2285 86.7313 28.2285L87.2113 26.5053C87.2113 26.5053 80.5297 30.9213 80.1025 32.2173C79.6753 33.5133 77.7601 37.0701 77.7601 37.0701L78.0289 41.5917L77.0689 38.5773C77.0689 38.5773 73.6224 45.2013 73.1376 46.2237C72.6528 47.2461 73.2433 50.4237 73.2433 50.4237L72.4369 48.4317L72.3841 50.4765L71.7937 49.1853C71.7937 49.1853 68.0209 57.9117 67.2145 59.8461C66.4081 61.7805 66.0289 66.0429 66.0289 66.0429L57.9937 83.7405Z" fill="white"/>
</svg>
