<svg width="190" height="80" viewBox="0 0 190 80" fill="none" xmlns="http://www.w3.org/2000/svg">
<path d="M64.8682 39.1971C64.8682 53.4149 53.3424 64.9407 39.1246 64.9407C24.9068 64.9407 13.3812 53.4149 13.3812 39.1971C13.3812 24.9793 24.9068 13.4535 39.1246 13.4535C53.3424 13.4535 64.8682 24.9793 64.8682 39.1971Z" fill="white"/>
<path d="M32.6635 42.8125C32.6635 42.8125 28.4256 37.1969 30.5578 32.4084C30.5578 32.4084 32.7152 25.0348 41.4239 26.1759C45.6628 26.7765 49.3265 29.395 49.5667 35.0347C49.5667 35.0347 49.9872 38.4626 47.3445 42.2119C47.3445 42.2119 45.4827 44.9146 45.1403 47.1068C45.1403 47.1068 44.9721 50.4101 41.5487 50.821C38.7902 51.1522 36.0532 51.0707 34.8821 47.9176C33.7109 44.7645 33.7145 44.3926 32.6635 42.8125Z" fill="#7F9E5D"/>
<path d="M40.9205 43.7162C40.7918 43.6322 40.716 43.5825 40.716 43.5825L39.3268 43.293L38.6031 39.1789L43.1406 35.6725L44.1018 36.1295L44.0715 36.0558L37.4649 32.4084L36.5941 32.9627L33.7599 37.4729L31.5381 40.9808C32.1309 42.1058 32.6638 42.8125 32.6638 42.8125C33.7149 44.3926 33.7112 44.7645 34.8823 47.9176C35.0037 48.244 35.1425 48.5357 35.2957 48.7993L37.4649 45.6353L40.9205 43.7162Z" fill="white"/>
<path d="M16.9541 13.6135C16.9541 15.272 15.6096 16.6165 13.9511 16.6165C12.2926 16.6165 10.9481 15.272 10.9481 13.6135C10.9481 11.955 12.2926 10.6105 13.9511 10.6105C15.6096 10.6105 16.9541 11.955 16.9541 13.6135Z" fill="#C0E6CF"/>
<path d="M6.06299 38.3583C6.06299 40.0168 4.71849 41.3613 3.05999 41.3613C1.4015 41.3613 0.0569955 40.0168 0.0569955 38.3583C0.0569955 36.6998 1.4015 35.3553 3.05999 35.3553C4.71849 35.3553 6.06299 36.6998 6.06299 38.3583Z" fill="#C2E6E6"/>
<path d="M16.8345 66.1059C16.8345 67.7644 15.49 69.1089 13.8315 69.1089C12.173 69.1089 10.8285 67.7644 10.8285 66.1059C10.8285 64.4473 12.173 63.1029 13.8315 63.1029C15.49 63.1029 16.8345 64.4473 16.8345 66.1059Z" fill="#C1A2CE"/>
<path d="M43.0205 76.997C43.0205 78.6555 41.6759 80 40.0174 80C38.3588 80 37.0143 78.6555 37.0143 76.997C37.0143 75.3383 38.3588 73.9939 40.0174 73.9939C41.6759 73.9939 43.0205 75.3383 43.0205 76.997Z" fill="#F7A7A6"/>
<path d="M68.0049 64.7448C68.0049 66.4033 66.6603 67.7478 65.0018 67.7478C63.3432 67.7478 61.9986 66.4033 61.9986 64.7448C61.9986 63.0861 63.3432 61.7417 65.0018 61.7417C66.6603 61.7417 68.0049 63.0861 68.0049 64.7448Z" fill="#EFCBA1"/>
<path d="M79.1362 38.3986C79.1362 40.0571 77.7916 41.4016 76.1331 41.4016C74.4745 41.4016 73.13 40.0571 73.13 38.3986C73.13 36.7399 74.4745 35.3955 76.1331 35.3955C77.7916 35.3955 79.1362 36.7399 79.1362 38.3986Z" fill="#FEDD8E"/>
<path d="M68.0049 13.5737C68.0049 15.2322 66.6603 16.5767 65.0018 16.5767C63.3432 16.5767 61.9986 15.2322 61.9986 13.5737C61.9986 11.9149 63.3432 10.5705 65.0018 10.5705C66.6603 10.5705 68.0049 11.9149 68.0049 13.5737Z" fill="#DEE2C2"/>
<path d="M42.5425 3.00311C42.5425 4.6616 41.1979 6.0061 39.5394 6.0061C37.8807 6.0061 36.5362 4.6616 36.5362 3.00311C36.5362 1.34437 37.8807 -9.65118e-06 39.5394 -9.65118e-06C41.1979 -9.65118e-06 42.5425 1.34437 42.5425 3.00311Z" fill="#96A876"/>
<g opacity="0.7">
<path d="M23.625 19.524C23.625 19.524 40.2526 11.1173 55.6456 19.2831C55.6456 19.2831 50.0193 10.9588 38.345 11.5988C38.345 11.5988 28.6655 12.0962 23.625 19.524Z" fill="#97A875"/>
</g>
<g opacity="0.7">
<path d="M41.4243 13.7378C41.4243 13.7378 59.1977 19.3283 64.5168 35.9216C64.5168 35.9216 66.3007 26.0338 57.496 18.3412C57.496 18.3412 50.2189 11.9393 41.4243 13.7378Z" fill="#DEE2C2"/>
</g>
<g opacity="0.7">
<path d="M59.2422 23.1875C59.2422 23.1875 67.7254 39.7761 59.6307 55.2065C59.6307 55.2065 67.9288 49.542 67.2352 37.8708C67.2352 37.8708 66.6931 28.1937 59.2422 23.1875Z" fill="#FEDD8E"/>
</g>
<g opacity="0.7">
<path d="M65.1904 42.0715C65.1904 42.0715 59.1792 59.7069 42.4644 64.6303C42.4644 64.6303 52.3066 66.6485 60.2064 58.0292C60.2064 58.0292 66.7795 50.9063 65.1904 42.0715Z" fill="#EFCBA1"/>
</g>
<g opacity="0.7">
<path d="M55.5553 59.3507C55.5553 59.3507 38.8073 67.5147 23.5347 59.126C23.5347 59.126 29.0392 67.5311 40.7217 67.061C40.7217 67.061 50.4074 66.7045 55.5553 59.3507Z" fill="#F7A7A6"/>
</g>
<g opacity="0.7">
<path d="M19.6323 56.3303C19.6323 56.3303 11.2168 39.7073 19.3743 24.3101C19.3743 24.3101 11.0532 29.9404 11.6993 41.6145C11.6993 41.6145 12.2018 51.2938 19.6323 56.3303Z" fill="#C2E6E6"/>
</g>
<path d="M42.9773 36.7647C42.4827 36.4268 42.3386 35.777 42.6554 35.313L44.3348 32.8547C44.6518 32.3906 45.3094 32.2883 45.8042 32.6262C46.2987 32.9641 46.4429 33.6141 46.1259 34.078L44.4467 36.5365C44.1297 37.0004 43.472 37.1026 42.9773 36.7647Z" fill="white"/>
<path d="M41.1401 35.3381C40.6891 35.0301 40.5805 34.4044 40.8974 33.9404L42.5766 31.4821C42.8936 31.018 43.5159 30.8916 43.967 31.1996C44.4178 31.5076 44.5264 32.1333 44.2095 32.5973L42.5303 35.0557C42.2134 35.5197 41.5911 35.6461 41.1401 35.3381Z" fill="white"/>
<path d="M39.016 34.4777C38.5724 34.1747 38.4696 33.5529 38.7865 33.089L40.4657 30.6308C40.7827 30.1666 41.3992 30.0362 41.8429 30.3392C42.2865 30.6423 42.3893 31.264 42.0723 31.7279L40.3932 34.1864C40.0762 34.6503 39.4597 34.7808 39.016 34.4777Z" fill="white"/>
<path d="M37.0072 33.697C36.5636 33.3939 36.4608 32.7721 36.7777 32.3082L38.4569 29.85C38.7739 29.3859 39.3904 29.2554 39.8341 29.5585C40.2778 29.8615 40.3805 30.4833 40.0636 30.9472L38.3844 33.4057C38.0674 33.8696 37.4509 34 37.0072 33.697Z" fill="white"/>
<path d="M45.6627 46.5754L45.6626 46.6256C45.6626 46.6256 45.6629 46.6251 45.6627 46.5754Z" stroke="white" stroke-width="0.000488711" stroke-miterlimit="10"/>
<path d="M36.5938 32.9627L37.4647 32.4084L44.0713 36.0558L44.1015 36.1295L45.7229 36.9006C45.0923 38.1356 46.0833 38.8786 46.0833 38.8786L48.4832 40.2573C49.8493 37.3508 49.5668 35.0347 49.5668 35.0347C49.3265 29.395 45.6629 26.7765 41.424 26.1759C32.7153 25.0348 30.5578 32.4084 30.5578 32.4084C29.1817 35.4989 30.4589 38.9334 31.5377 40.9808L33.7597 37.4731L36.5938 32.9627Z" stroke="white" stroke-width="0.000488711" stroke-miterlimit="10"/>
<path d="M40.9203 43.7163L37.4647 45.6355L35.2954 48.7994C36.6212 51.0815 39.0759 51.118 41.5487 50.821C44.9721 50.4102 45.1404 47.1069 45.1404 47.1069C45.1782 46.8651 45.2352 46.6168 45.3055 46.367C45.2559 46.3451 45.2023 46.3218 45.1404 46.2961C44.4607 46.0129 41.6954 44.2215 40.9203 43.7163Z" stroke="white" stroke-width="0.000488711" stroke-miterlimit="10"/>
<path d="M48.4834 40.2573L46.0835 38.8786C46.0835 38.8786 45.0925 38.1358 45.7232 36.9006L44.1017 36.1296L44.3912 36.8365L41.6691 41.1909L41.2499 43.5332L40.9204 43.7163C41.6955 44.2215 44.4608 46.0129 45.1406 46.296C45.2024 46.3218 45.256 46.3451 45.3056 46.367C45.8719 44.3511 47.3448 42.2119 47.3448 42.2119C47.8154 41.5442 48.1874 40.8871 48.4834 40.2573Z" fill="#E2E2E2"/>
<path d="M38.603 39.1789L39.3267 43.293L40.7159 43.5825C40.7159 43.5825 40.7917 43.6322 40.9205 43.7162L41.25 43.5333L41.6691 41.1909L44.3911 36.8366L44.1018 36.1295L43.1406 35.6726L38.603 39.1789Z" fill="white"/>
<path d="M36.5938 52.0918C36.5938 52.0918 38.8468 53.1128 40.0022 53.1131C41.4286 53.1133 43.4106 51.8816 43.4106 51.8816" stroke="#8B9A72" stroke-width="0.00244355" stroke-miterlimit="10" stroke-linecap="round"/>
<path d="M36.5938 54.2627C36.5938 54.2627 38.8468 55.2837 40.0022 55.284C41.4286 55.2842 43.4106 54.0525 43.4106 54.0525" stroke="#8B9A72" stroke-width="0.00244355" stroke-miterlimit="10" stroke-linecap="round"/>
<path d="M41.4516 34.3991C41.8074 33.7589 42.5122 33.4716 43.0258 33.7571L45.747 35.2704C46.2608 35.5561 46.3886 36.3062 46.0328 36.9464C45.677 37.5863 44.9721 37.8738 44.4585 37.5881L41.7372 36.075C41.2237 35.7893 41.0955 35.0392 41.4516 34.3991Z" fill="#E2E2E2"/>
<path d="M40.0246 33.1488C39.7314 33.6164 39.1077 33.7536 38.6317 33.4551L36.1095 31.8735C35.6334 31.575 35.4853 30.9538 35.7785 30.4862C36.0717 30.0185 36.6955 29.8814 37.1715 30.1799L39.6937 31.7615C40.1697 32.06 40.3178 32.6812 40.0246 33.1488Z" fill="#E2E2E2"/>
<path d="M39.0086 35.1596C38.7405 35.587 38.0957 35.6652 37.5682 35.3344L34.773 33.5816C34.2453 33.2508 34.035 32.6363 34.3029 32.2088C34.5709 31.7814 35.2159 31.7031 35.7434 32.0339L38.5387 33.7868C39.0662 34.1176 39.2765 34.7322 39.0086 35.1596Z" fill="#E2E2E2"/>
<path d="M37.5929 36.5496C37.3508 36.9355 36.7837 37.0155 36.3258 36.7284L33.9002 35.2074C33.4422 34.9203 33.2673 34.3748 33.5092 33.9889C33.7511 33.6029 34.3186 33.5228 34.7764 33.8099L37.2021 35.331C37.6598 35.6181 37.8349 36.1636 37.5929 36.5496Z" fill="#E2E2E2"/>
<path d="M36.278 38.0789C36.036 38.4648 35.5227 38.5787 35.1315 38.3334L33.0586 37.0335C32.6672 36.7881 32.5463 36.2765 32.7882 35.8905C33.0301 35.5046 33.5436 35.3906 33.9349 35.636L36.0079 36.9359C36.3989 37.1812 36.52 37.6929 36.278 38.0789Z" fill="#E2E2E2"/>
<path d="M40.0059 42.9121C39.6679 42.2624 39.8451 41.5012 40.4016 41.2119L43.3498 39.6794C43.9065 39.3899 44.6312 39.6821 44.9692 40.332C45.3068 40.9816 45.1295 41.743 44.5731 42.0322L41.625 43.5649C41.0686 43.8542 40.3436 43.562 40.0059 42.9121Z" fill="white"/>
<g opacity="0.7">
<path d="M13.9516 36.8367C13.9516 36.8367 19.8975 19.179 36.5942 14.1941C36.5942 14.1941 26.7443 12.2121 18.8765 20.8607C18.8765 20.8607 12.33 28.0078 13.9516 36.8367Z" fill="#C0E6CF"/>
</g>
<g opacity="0.7">
<path d="M35.0149 64.9674C35.0149 64.9674 17.8312 57.7659 14.0609 40.7539C14.0609 40.7539 11.3751 50.4353 19.4349 58.9052C19.4349 58.9052 26.0922 65.9495 35.0149 64.9674Z" fill="#C1A2CE"/>
</g>
<path d="M91.8227 10.1606H89.3623V22.4343H91.8227V10.1606Z" fill="white"/>
<path d="M105.854 12.3235H105.826L102.501 22.4344H100.149L96.8511 12.3235L96.8242 12.3504V22.4344H94.4722V10.1609H98.392L101.312 19.4607H101.339L104.258 10.1609H108.206V22.4344H105.854V12.3235Z" fill="white"/>
<path d="M115.884 12.6212L114.127 17.7032H117.695L115.938 12.6212H115.884ZM118.398 19.6227H113.424L112.343 22.4345H109.801L114.586 10.1609H117.344L122.156 22.4345H119.453L118.398 19.6227Z" fill="white"/>
<path d="M131.861 22.4614C131.194 22.5873 130.527 22.6508 129.861 22.6508C128.869 22.6508 127.963 22.5243 127.144 22.2726C126.323 22.0202 125.616 21.6419 125.022 21.1371C124.427 20.6323 123.967 19.9926 123.643 19.2175C123.318 18.4428 123.156 17.5413 123.156 16.514C123.156 14.3874 123.746 12.7655 124.927 11.6478C126.107 10.5307 127.752 9.97144 129.861 9.97144C130.581 9.97144 131.235 10.0167 131.82 10.1066C132.406 10.197 132.96 10.3144 133.483 10.4585L133.321 12.54C132.852 12.3236 132.33 12.1617 131.753 12.0536C131.176 11.9454 130.645 11.891 130.158 11.891C129.437 11.891 128.802 12.0041 128.252 12.229C127.702 12.4544 127.239 12.7697 126.86 13.1756C126.481 13.5807 126.193 14.0494 125.995 14.5812C125.796 15.1128 125.697 15.6939 125.697 16.3246C125.697 16.9559 125.792 17.5371 125.981 18.0687C126.171 18.6004 126.445 19.0643 126.806 19.4608C127.166 19.8574 127.603 20.1636 128.117 20.3799C128.631 20.5963 129.212 20.7044 129.861 20.7044C130.545 20.7044 131.086 20.6501 131.483 20.5419V17.352H128.888V15.4055H133.835V22.0019C133.186 22.1821 132.528 22.3355 131.861 22.4614Z" fill="white"/>
<path d="M138.673 10.1606H136.213V22.4343H138.673V10.1606Z" fill="white"/>
<path d="M143.566 13.2696H143.539V22.4344H141.188V10.1609H144.215L148.892 19.3526H148.919V10.1609H151.271V22.4344H148.27L143.566 13.2696Z" fill="white"/>
<path d="M154.001 10.1606H161.22V12.1069H156.462V15.135H160.814V17.0546H156.462V20.5147H161.274V22.4343H154.001V10.1606Z" fill="white"/>
<path d="M95.1593 44.495H92.699V34.1679H89.1846V32.2214H98.6738V34.1679H95.1593V44.495Z" fill="white"/>
<path d="M107.622 39.1154H102.701V44.4949H100.241V32.2214H102.701V37.1958H107.622V32.2214H110.081V44.4949H107.622V39.1154Z" fill="white"/>
<path d="M117.731 34.6817L115.973 39.7638H119.542L117.785 34.6817H117.731ZM120.245 41.6833H115.271L114.19 44.495H111.648L116.434 32.2214H119.191L124.003 44.495H121.299L120.245 41.6833Z" fill="white"/>
<path d="M127.842 32.2214H125.383V44.495H127.842V32.2214Z" fill="white"/>
<path d="M130.493 32.2214H132.952V42.5755H137.711V44.495H130.493V32.2214Z" fill="white"/>
<path d="M144.09 34.6817L142.333 39.7638H145.902L144.144 34.6817H144.09ZM146.604 41.6833H141.63L140.549 44.495H138.007L142.793 32.2214H145.55L150.362 44.495H147.659L146.604 41.6833Z" fill="white"/>
<path d="M154.2 35.3301H154.173V44.4949H151.821V32.2214H154.849L159.526 41.4131H159.553V32.2214H161.905V44.4949H158.905L154.2 35.3301Z" fill="white"/>
<path d="M172.504 38.3582C172.504 37.6916 172.391 37.097 172.166 36.5739C171.94 36.0513 171.638 35.6143 171.26 35.263C170.882 34.9115 170.449 34.6409 169.962 34.4521C169.476 34.2626 168.971 34.1679 168.448 34.1679H167.097V42.5755H168.448C168.971 42.5755 169.476 42.4808 169.962 42.292C170.449 42.1025 170.882 41.8281 171.26 41.4669C171.638 41.1071 171.94 40.6651 172.166 40.1427C172.391 39.6202 172.504 39.025 172.504 38.3582ZM175.072 38.3582C175.072 39.5658 174.878 40.5662 174.49 41.3588C174.103 42.1527 173.585 42.7827 172.936 43.2514C172.287 43.7201 171.534 44.0446 170.679 44.2249C169.823 44.4052 168.926 44.495 167.989 44.495H164.637V32.2214H167.989C168.926 32.2214 169.823 32.3119 170.679 32.4916C171.534 32.6725 172.287 32.9963 172.936 33.465C173.585 33.9337 174.103 34.5602 174.49 35.3436C174.878 36.1277 175.072 37.133 175.072 38.3582Z" fill="white"/>
<path d="M101.497 56.5396H101.47L98.1451 66.6504H95.7931L92.4948 56.5396L92.4679 56.5665V66.6504H90.1157V54.377H94.0357L96.9557 63.6768H96.9825L99.9021 54.377H103.849V66.6504H101.497V56.5396Z" fill="white"/>
<path d="M115.556 60.4867C115.556 59.9458 115.492 59.4142 115.367 58.8916C115.24 58.3692 115.038 57.9004 114.759 57.4855C114.479 57.0711 114.123 56.7381 113.691 56.4857C113.258 56.2334 112.735 56.1068 112.123 56.1068C111.51 56.1068 110.982 56.2334 110.541 56.4857C110.099 56.7381 109.739 57.0711 109.46 57.4855C109.18 57.9004 108.977 58.3692 108.852 58.8916C108.725 59.4142 108.662 59.9458 108.662 60.4867C108.662 61.0453 108.725 61.591 108.852 62.122C108.977 62.6537 109.176 63.1273 109.446 63.5416C109.717 63.956 110.072 64.2896 110.514 64.5413C110.956 64.7943 111.492 64.9203 112.123 64.9203C112.753 64.9203 113.285 64.7943 113.717 64.5413C114.15 64.2896 114.502 63.956 114.772 63.5416C115.042 63.1273 115.24 62.6537 115.367 62.122C115.492 61.591 115.556 61.0453 115.556 60.4867ZM118.124 60.4867C118.124 61.4057 117.993 62.2571 117.732 63.0412C117.471 63.8252 117.083 64.5011 116.57 65.0688C116.056 65.6365 115.43 66.0784 114.691 66.3937C113.952 66.7084 113.096 66.8667 112.123 66.8667C111.131 66.8667 110.261 66.7084 109.514 66.3937C108.766 66.0784 108.139 65.6414 107.635 65.0822C107.13 64.5237 106.752 63.8521 106.499 63.0681C106.247 62.2845 106.121 61.4241 106.121 60.4867C106.121 59.5499 106.252 58.6937 106.513 57.9182C106.774 57.1433 107.157 56.4814 107.662 55.9315C108.166 55.3815 108.793 54.9537 109.541 54.6468C110.289 54.3408 111.149 54.1873 112.123 54.1873C113.078 54.1873 113.929 54.3408 114.677 54.6468C115.425 54.9537 116.056 55.3864 116.57 55.9448C117.083 56.5034 117.471 57.1708 117.732 57.9451C117.993 58.7206 118.124 59.5675 118.124 60.4867Z" fill="white"/>
<path d="M123.341 66.6503L119.124 54.3767H121.773L124.909 64.028H124.963L128.072 54.3767H130.505L126.369 66.6503H123.341Z" fill="white"/>
<path d="M132.127 54.3767H139.345V56.323H134.587V59.3511H138.94V61.2706H134.587V64.7308H139.4V66.6503H132.127V54.3767Z" fill="white"/>
<path d="M153.268 56.5396H153.241L149.915 66.6504H147.563L144.265 56.5396L144.238 56.5665V66.6504H141.886V54.377H145.806L148.726 63.6768H148.753L151.673 54.377H155.619V66.6504H153.268V56.5396Z" fill="white"/>
<path d="M158.485 54.3767H165.703V56.323H160.945V59.3511H165.298V61.2706H160.945V64.7308H165.758V66.6503H158.485V54.3767Z" fill="white"/>
<path d="M170.488 57.4857H170.461V66.6504H168.109V54.377H171.137L175.814 63.5686H175.841V54.377H178.193V66.6504H175.192L170.488 57.4857Z" fill="white"/>
<path d="M185.6 66.6503H183.14V56.3231H179.625V54.3767H189.115V56.3231H185.6V66.6503Z" fill="white"/>
</svg>
