<svg width="248" height="88" viewBox="0 0 248 88" fill="none" xmlns="http://www.w3.org/2000/svg">
<path d="M9.15182 56.5646C7.65345 55.0919 6.47419 53.3266 5.68742 51.3785C4.90064 49.4305 4.5232 47.3414 4.57856 45.2412C4.5539 43.1645 4.9455 41.104 5.73025 39.1811C6.515 37.2583 7.677 35.5121 9.14765 34.0458C10.6183 32.5794 12.3678 31.4224 14.2929 30.6433C16.218 29.8641 18.2797 29.4785 20.3563 29.5092C24.6155 29.4193 28.7548 30.923 31.9632 33.7257L27.7467 38.299C25.6396 36.6521 23.0302 35.7802 20.3563 35.8294C19.1042 35.7646 17.8524 35.962 16.6811 36.4091C15.5098 36.8562 14.4448 37.5431 13.5544 38.4257C12.664 39.3083 11.9679 40.3673 11.5106 41.5346C11.0533 42.702 10.8449 43.952 10.8988 45.2046C10.8395 46.4873 11.0425 47.7686 11.4954 48.9701C11.9484 50.1717 12.6417 51.2682 13.533 52.1925C14.4407 53.0679 15.5168 53.7495 16.6961 54.1961C17.8753 54.6426 19.1331 54.8447 20.3929 54.7901C23.052 54.8393 25.6432 53.9485 27.7101 52.2749L31.9632 56.8664C28.7553 59.6689 24.6149 61.1697 20.3563 61.0738C18.281 61.1174 16.2184 60.7404 14.2928 59.9654C12.3671 59.1905 10.6183 58.0336 9.15182 56.5646V56.5646Z" fill="white"/>
<path d="M81.8848 61.1012V29.5092H83.9885L97.7082 45.0582L111.428 29.5092H113.532V61.1012H107.211V42.8082L97.6808 53.3084L88.1959 42.7807V61.0738L81.8848 61.1012Z" fill="white"/>
<path d="M119.825 61.1012V29.5092H133.544C140.917 29.5092 144.603 32.558 144.603 38.6557C144.603 44.9485 140.923 48.0949 133.563 48.0949H126.09V61.1012H119.825ZM126.145 42.1496H134.99C137.532 42.107 138.837 40.9484 138.904 38.674C138.84 36.5886 137.551 35.5093 135.054 35.4269H126.145V42.1496Z" fill="white"/>
<path d="M38.4208 44.418L38.2196 45.0033C37.2585 48.0081 36.4555 51.0611 35.814 54.1499C35.4545 55.8898 35.2222 57.6537 35.1189 59.4274C34.9909 61.9061 34.8811 65.2903 37.8629 66.1501C38.119 66.2233 38.3751 66.2781 38.6312 66.3422L39.6098 66.5708C40.7806 66.8178 44.7044 67.33 45.8935 67.4855V61.6683L51.2259 51.04L38.4208 44.418Z" fill="white"/>
<path d="M60.3176 33.0123C60.1247 32.6574 59.8914 32.3259 59.6225 32.0244C58.0767 29.939 55.7169 28.7866 52.3053 28.3658C48.8936 27.9451 46.4515 30.1951 44.5307 32.5824C42.9533 34.6158 41.6123 36.8221 40.5337 39.1587L53.6589 46.2839L60.3176 33.0123Z" fill="white"/>
<path d="M62.2752 40.3112L58.2324 48.7808L63.2813 51.5248L63.1715 49.0278C63.029 46.1083 62.7298 43.1986 62.2752 40.3112V40.3112Z" fill="white"/>
<path d="M45.8936 67.4763C49.4973 67.769 56.4761 67.952 59.9243 66.7355C62.3207 65.8757 62.9884 65.1714 63.2628 62.5098C63.4242 60.7921 63.4944 59.0671 63.4732 57.342L55.9913 53.4822L51.0522 63.8269L45.8936 67.4763Z" fill="white"/>
<path d="M77.4582 59.7475C76.068 52.0187 74.1838 43.1466 72.263 35.5184C71.6864 33.0848 70.9219 30.6995 69.9764 28.3841C69.0617 26.1707 67.5891 25.6402 65.4031 26.5C64.6426 26.8301 63.9315 27.2641 63.2903 27.7896C62.961 28.0457 62.7141 28.6128 62.1653 28.3018C61.6165 27.9908 61.8086 27.4786 61.8086 27.0305C61.7951 26.1046 61.6723 25.1836 61.4427 24.2865C60.528 20.5273 55.6072 18.9907 52.8358 21.6249C51.667 22.8374 50.8511 24.3459 50.476 25.9878C50.3846 26.2896 50.1467 27.2866 50.5766 27.1585C51.6624 26.8921 52.7883 26.83 53.8968 26.9756C54.2535 24.4603 54.9944 23.6645 57.0341 23.7926C57.6383 23.9556 58.1534 24.351 58.467 24.8926C58.7806 25.4341 58.8672 26.0777 58.7079 26.6829C58.525 27.1128 58.1865 26.9939 57.8756 26.9847C56.84 26.9354 55.8021 26.9813 54.7749 27.1219C55.3782 27.2189 55.9698 27.3783 56.5402 27.5975C58.4464 28.2516 60.1042 29.4782 61.2872 31.1098C62.3786 32.5386 63.1238 34.2011 63.4641 35.9666L63.711 37.3111C64.347 40.6643 64.7595 44.056 64.9458 47.4638C65.019 49.1467 65.1104 50.8297 65.1745 52.5218C65.2476 54.4243 65.2842 56.3267 65.2293 58.2201C65.191 59.9862 65.0475 61.7485 64.7995 63.4976C64.6897 64.2568 64.8909 64.3391 65.4854 64.1013C66.1651 63.8721 66.7625 63.4482 67.2032 62.8823C67.6439 62.3164 67.9085 61.6334 67.9642 60.9183C67.9642 60.5067 68.0373 60.0951 68.0465 59.6744L73.0771 62.272C73.5467 62.6182 74.1199 62.795 74.703 62.7734C75.2862 62.7518 75.8447 62.5331 76.2875 62.1531C76.7194 61.936 77.068 61.5829 77.2795 61.1482C77.4911 60.7136 77.5539 60.2214 77.4582 59.7475V59.7475ZM67.9093 51.3785C67.6272 46.0017 66.9763 40.6506 65.9611 35.3629C65.833 34.741 65.6958 34.1282 65.522 33.5336L65.7507 33.058L71.2386 55.9243L68.3483 54.3511C67.955 53.9304 67.9367 51.8267 67.9093 51.3785Z" fill="white"/>
<path d="M177.338 29.8658V61.1012H170.799V47.0521H156.795V61.1012H150.274V29.8658H156.795V41.0154H170.799V29.8658H177.338Z" fill="white"/>
<path d="M210.87 29.8384V46.8052C210.87 54.8358 205.647 61.1103 197.324 61.1103C189.238 61.1103 183.796 54.9456 183.796 46.8052V29.8384H190.327V46.485C190.327 50.6741 192.421 55.0736 197.342 55.0736C201.979 55.0736 204.339 50.9943 204.339 46.485V29.8384H210.87Z" fill="white"/>
<path d="M237.815 44.2442C240.559 45.7899 242.699 48.3144 242.699 51.7352C242.699 57.3969 238.602 61.1012 233.224 61.1012H217.345V29.8842H230.315C235.565 29.8842 239.763 33.5428 239.763 39.2319C239.721 41.0793 239.032 42.8534 237.815 44.2442V44.2442ZM223.858 35.7013V42.5429H230.37C231.267 42.5072 232.119 42.1358 232.756 41.5024C233.393 40.8689 233.768 40.0195 233.809 39.1221C233.809 37.0093 231.98 35.7013 229.913 35.7013H223.858ZM232.391 55.2017C232.884 55.2369 233.378 55.1703 233.843 55.0061C234.309 54.8418 234.736 54.5835 235.097 54.2471C235.458 53.9107 235.746 53.5035 235.943 53.0509C236.14 52.5983 236.242 52.1099 236.242 51.6163C236.242 51.1226 236.14 50.6343 235.943 50.1817C235.746 49.729 235.458 49.3219 235.097 48.9855C234.736 48.6491 234.309 48.3907 233.843 48.2265C233.378 48.0622 232.884 47.9956 232.391 48.0308H223.83V55.2017H232.391Z" fill="white"/>
</svg>
