<svg width="161" height="80" viewBox="0 0 161 80" fill="none" xmlns="http://www.w3.org/2000/svg">
<g clip-path="url(#clip0_1136_8595)">
<path d="M56.0644 14.2535C55.9755 14.2541 55.8875 14.2371 55.8053 14.2034C55.7231 14.1697 55.6484 14.12 55.5856 14.0572C55.3464 13.783 55.0524 13.5621 54.7225 13.4087C54.3926 13.2553 54.0342 13.1728 53.6704 13.1666C53.0532 13.2376 52.4846 13.5364 52.0761 14.0045C51.9591 14.1404 51.7941 14.2257 51.6156 14.2427C51.4371 14.2597 51.259 14.2069 51.1185 14.0955C50.9798 13.9806 50.8919 13.8156 50.874 13.6363C50.8561 13.4571 50.9095 13.278 51.0227 13.1379C51.3515 12.7242 51.7685 12.3891 52.2432 12.1569C52.7179 11.9248 53.2385 11.8015 53.7669 11.796C54.2953 11.7905 54.8183 11.9029 55.2977 12.1251C55.7772 12.3473 56.201 12.6737 56.5384 13.0804C56.6369 13.1754 56.7048 13.2976 56.7332 13.4315C56.7616 13.5654 56.7492 13.7047 56.6977 13.8314C56.6462 13.9582 56.5578 14.0666 56.4441 14.1427C56.3304 14.2188 56.1964 14.259 56.0596 14.2583" fill="white"/>
<path d="M35.0217 36.9241C34.6591 36.9242 34.3057 36.8103 34.0115 36.5985C31.289 34.6244 29.1017 32.0027 27.6473 28.9706C26.1929 25.9385 25.5174 22.5916 25.6819 19.2327C25.8464 15.8739 26.8457 12.609 28.5893 9.7335C30.333 6.85797 32.766 4.46252 35.6683 2.76382C38.5706 1.06512 41.8506 0.116779 45.2116 0.00458292C48.5726 -0.107613 51.9086 0.619875 54.9177 2.12124C57.9268 3.6226 60.5142 5.85047 62.4457 8.60331C64.3773 11.3561 65.592 14.5471 65.9801 17.8875L67.3686 17.8588H67.4165H68.8146C69.2054 14.5205 70.422 11.3322 72.3545 8.58227C74.287 5.8323 76.8744 3.60733 79.8828 2.10851C82.8912 0.609693 86.2257 -0.115711 89.5849 -0.00211651C92.9441 0.111478 96.222 1.06049 99.1222 2.75912C102.022 4.45775 104.454 6.85243 106.196 9.72667C107.938 12.6009 108.937 15.8641 109.101 19.2211C109.266 22.5782 108.591 25.9233 107.138 28.954C105.684 31.9847 103.499 34.6055 100.778 36.5794C100.596 36.7219 100.388 36.8263 100.164 36.8863C99.9412 36.9462 99.7082 36.9605 99.4793 36.9284C99.2504 36.8962 99.0304 36.8182 98.8323 36.699C98.6343 36.5799 98.4623 36.422 98.3267 36.2348C98.191 36.0476 98.0946 35.8351 98.043 35.6097C97.9914 35.3844 97.9858 35.151 98.0265 34.9235C98.0673 34.696 98.1534 34.479 98.2799 34.2856C98.4064 34.0921 98.5706 33.9262 98.7628 33.7976C101.012 32.1669 102.821 30.0035 104.029 27.5015C105.236 24.9994 105.804 22.2369 105.681 19.4615C105.558 16.6861 104.749 13.9845 103.325 11.5989C101.901 9.21325 99.9079 7.21817 97.5235 5.79244C95.1391 4.36671 92.4382 3.55489 89.6629 3.42972C86.8876 3.30456 84.1245 3.86997 81.6215 5.07529C79.1184 6.2806 76.9535 8.08814 75.3209 10.3359C73.6882 12.5837 72.6388 15.2014 72.2666 17.9545C73.9759 17.9976 75.9724 18.0599 77.9881 18.1461C89.345 18.6248 90.1015 19.3957 90.7095 20.0037C91.241 20.5352 91.8012 21.5598 91.4373 23.4319C90.8244 26.635 87.8751 31.0542 84.4709 32.5289C81.7929 33.6781 78.7728 33.74 76.0499 32.7016C73.327 31.6632 71.115 29.6059 69.8823 26.9653H69.8296C69.1865 25.1441 68.8092 23.2397 68.7092 21.3108H67.4021H66.0807C65.9803 23.2381 65.6029 25.1408 64.9603 26.9605H64.9077C63.676 29.6008 61.4643 31.6574 58.7417 32.6943C56.0191 33.7311 52.9997 33.6666 50.3238 32.5145C46.6515 30.9393 43.9367 26.1705 43.3957 23.3313C43.1132 21.8614 43.343 20.7411 44.0852 20.0037C44.6836 19.4005 45.3635 18.7206 56.7539 18.1939C58.7887 18.0982 60.8044 18.0311 62.5281 17.9785C62.1568 15.225 61.108 12.6067 59.4758 10.3582C57.8436 8.10982 55.6789 6.30156 53.1759 5.09556C50.6729 3.88957 47.9097 3.32354 45.1341 3.44822C42.3585 3.5729 39.6572 4.38438 37.2724 5.80993C34.8876 7.23548 32.8938 9.23053 31.4697 11.6162C30.0457 14.002 29.2359 16.7038 29.1129 19.4794C28.99 22.2551 29.5578 25.0179 30.7653 27.5202C31.9729 30.0225 33.7825 32.186 36.0319 33.8168C36.3247 34.0304 36.5425 34.3311 36.6541 34.676C36.7657 35.0208 36.7654 35.392 36.6534 35.7367C36.5413 36.0814 36.3232 36.3818 36.0301 36.5951C35.7371 36.8083 35.3841 36.9235 35.0217 36.9241ZM46.7137 22.503C46.91 24.1213 49.1076 28.2485 51.674 29.3641C52.6128 29.769 53.6223 29.9847 54.6446 29.9987C55.667 30.0128 56.682 29.825 57.6317 29.446C58.5813 29.067 59.4468 28.5044 60.1785 27.7903C60.9103 27.0763 61.494 26.2248 61.8961 25.2848C62.2937 24.026 62.5381 22.7239 62.6238 21.4066C55.5713 21.6125 48.806 22.0242 46.7137 22.503ZM72.8938 25.2848C73.71 27.1787 75.244 28.6717 77.1593 29.4364C79.0746 30.2011 81.215 30.1751 83.1112 29.3641C85.8115 28.2006 88.0427 24.0064 88.1337 22.503C86.1515 21.9811 79.3048 21.5742 72.1517 21.397C72.2402 22.7226 72.4878 24.0327 72.8891 25.2991L72.8938 25.2848Z" fill="white"/>
<path d="M83.2541 14.2535C83.1526 14.254 83.0523 14.232 82.9604 14.1889C82.8684 14.1458 82.7873 14.0829 82.7227 14.0046C82.3106 13.5383 81.7414 13.2401 81.1235 13.1667C80.7596 13.172 80.4009 13.254 80.0709 13.4075C79.7408 13.561 79.4469 13.7824 79.2084 14.0572C79.1439 14.1201 79.0677 14.1697 78.9841 14.2031C78.9005 14.2365 78.8111 14.2532 78.7211 14.2521C78.6311 14.2509 78.5421 14.2321 78.4594 14.1966C78.3766 14.1612 78.3017 14.1097 78.2388 14.0453C78.1759 13.9808 78.1264 13.9046 78.0929 13.821C78.0595 13.7374 78.0429 13.6481 78.044 13.558C78.0451 13.468 78.0639 13.3791 78.0994 13.2963C78.1349 13.2136 78.1863 13.1386 78.2508 13.0757C78.622 12.6637 79.0775 12.3363 79.5864 12.1157C80.0953 11.8952 80.6456 11.7866 81.2001 11.7974C82.1965 11.8971 83.1168 12.3752 83.7712 13.1332C83.8827 13.2744 83.9346 13.4535 83.9158 13.6324C83.897 13.8113 83.809 13.9758 83.6707 14.0908C83.5483 14.1887 83.3965 14.2427 83.2398 14.244" fill="white"/>
<path d="M10 40.6683C10 39.3708 10 37.8866 10.0479 36.6369C13.5047 36.5412 17.7085 36.4933 21.7064 36.4933C23.8657 36.4933 26.0729 36.4933 28.7589 37.312C32.6419 38.5569 35.189 42.4925 35.189 46.567C35.189 50.359 32.7376 53.8589 29.525 55.4916C27.3178 56.5976 23.9615 56.9758 22.8219 56.9758C22.1995 56.9758 20.9068 56.9758 20.5669 56.9328L20.5333 63.5975L24.8951 63.7411C24.8951 64.9908 24.8951 66.4319 24.8472 67.7246C22.4533 67.7246 19.1401 67.6768 16.229 67.6768C14.1655 67.6768 11.9582 67.7246 10.0862 67.7246C10.0862 66.4319 10.1341 64.9908 10.1819 63.7411L12.437 63.5975C12.4627 63.5997 12.4886 63.5962 12.5128 63.5874C12.5371 63.5785 12.5591 63.5645 12.5773 63.5462C12.5955 63.528 12.6096 63.506 12.6184 63.4818C12.6273 63.4575 12.6307 63.4317 12.6285 63.406V40.7641L10 40.6683ZM20.5333 52.4226C20.5333 52.9014 21.3999 52.9014 22.2139 52.9014C23.4186 52.9114 24.5829 52.4669 25.4744 51.6565C26.4847 50.6463 27.0592 48.9178 27.0592 46.8064C27.0592 43.2586 24.8999 40.381 22.166 40.381C21.6494 40.3523 21.1314 40.4007 20.6291 40.5247L20.5333 52.4226Z" fill="white"/>
<path d="M49.1935 66.0729C46.3208 67.5092 44.0131 68.1843 42.1889 68.1843C39.6992 68.1843 36.0029 65.642 36.0029 62.5729C36.0029 59.9348 39.1677 55.3289 46.7948 55.3289H49.0978C49.2414 52.978 48.3317 51.5369 46.1724 51.5369C44.5876 51.5369 42.0452 52.9301 40.1253 54.2229C39.2295 53.1367 38.3966 52.0001 37.6308 50.8187C41.0877 47.989 44.6355 46.0691 49.2414 46.0691C52.9329 46.0691 56.5812 49.186 56.5812 53.2509C56.5812 56.4157 56.5334 60.9738 56.4855 63.0373C56.4855 63.3246 56.4855 63.4204 56.7249 63.3725L59.2672 63.2767C59.2672 64.5264 59.3151 65.9627 59.2672 67.2076C58.5012 67.4996 55.0922 68.1652 51.2571 68.1652C50.5998 67.5122 49.9902 66.813 49.4329 66.0729H49.1935ZM45.842 63.5784C46.9853 63.5075 48.0914 63.1449 49.0547 62.525C49.1224 62.4452 49.1567 62.3423 49.1504 62.2378V58.9246C48.8166 58.8876 48.4807 58.8733 48.145 58.8815C44.9754 58.8815 43.6348 60.2221 43.6348 61.7542C43.6348 62.8554 44.8844 63.5736 45.842 63.5736" fill="white"/>
<path d="M61.0913 51.4603C61.0913 50.1675 61.1392 48.7264 61.1392 47.5294C63.5331 47.3858 70.5905 46.1361 70.8777 46.1361C70.9735 46.1361 70.9735 46.184 70.9735 46.2798C71.2129 47.2852 71.4044 48.2476 71.6438 49.253L71.8832 49.3057C76.537 46.4713 77.5951 46.0883 79.8023 46.0883C81.8611 46.0883 83.829 47.9603 84.7865 49.5403C85.5543 50.8296 85.938 52.3112 85.8925 53.8111C85.8925 56.545 85.7968 60.5141 85.701 63.5975L88.095 63.7412C88.095 64.9908 88.095 66.4272 88.0471 67.6768H81.8611C79.8023 67.6768 77.552 67.7247 75.8667 67.7247C75.8667 66.4751 75.9146 65.0387 75.9146 63.7891L77.8297 63.6454C77.8794 63.6421 77.9262 63.6208 77.9614 63.5856C77.9966 63.5504 78.0179 63.5036 78.0213 63.4539C78.0691 61.4861 78.0213 58.8001 78.0213 56.9759C78.0213 54.7256 78.0213 53.5717 77.6382 52.8535C77.4839 52.5082 77.2244 52.2204 76.8968 52.0312C76.5693 51.8421 76.1903 51.7612 75.814 51.8002C74.7559 51.8002 73.128 52.5663 71.9837 53.476C71.9407 56.3056 71.8401 60.8637 71.8401 63.5975L73.9037 63.7412C73.9037 65.0387 73.9037 66.4272 73.8558 67.6768H67.8518C65.8888 67.6768 63.3943 67.7247 61.5222 67.7247C61.5222 66.4751 61.5701 65.0387 61.5701 63.7891L63.9209 63.6454C63.9466 63.6476 63.9725 63.6441 63.9967 63.6353C64.021 63.6264 64.043 63.6124 64.0612 63.5942C64.0795 63.5759 64.0935 63.5539 64.1023 63.5297C64.1112 63.5055 64.1146 63.4796 64.1125 63.4539V51.556L61.0913 51.4603Z" fill="white"/>
<path d="M94.8172 66.7671C94.2407 66.3274 93.7844 65.7494 93.4906 65.0866C93.1969 64.4237 93.0751 63.6975 93.1366 62.975C93.1366 60.289 93.1845 57.9861 93.1845 57.4115C93.1845 56.4013 93.2324 51.556 93.2324 51.1298H89.8809C89.8809 49.7844 89.9335 48.3912 90.0293 47.0506C90.9869 46.9979 92.1838 46.8543 93.1462 46.8064C93.2406 46.7978 93.3281 46.7533 93.3905 46.682C93.4529 46.6107 93.4854 46.518 93.4813 46.4233C93.5771 45.1306 93.7207 43.5937 93.8165 42.4446C96.1348 41.4086 98.5255 40.5429 100.97 39.8544C101.065 39.8544 101.118 39.8975 101.118 40.0411C101.065 41.0992 101.017 45.461 100.97 46.7441C103.416 46.7441 106.102 46.6963 108.357 46.6963C108.357 48.0895 108.309 49.7701 108.166 51.2064C106.15 51.2064 103.177 51.1586 100.984 51.1586V55.1421C100.936 57.1051 100.936 58.8335 100.936 60.9929C100.944 61.5715 101.18 62.1236 101.594 62.5283C102.007 62.933 102.565 63.1573 103.143 63.1522C104.909 63.1317 106.666 62.8904 108.372 62.434C108.611 63.7267 108.803 65.2158 108.951 66.4606C105.617 67.6786 102.086 68.2648 98.5373 68.1891C97.1653 68.2176 95.8378 67.7011 94.8459 66.7527" fill="white"/>
<path d="M110.545 51.5081C110.545 50.1675 110.593 48.6833 110.641 47.3858C113.231 47.1943 121.002 46.0883 121.39 46.0883C121.486 46.0883 121.486 46.1361 121.486 46.2319C121.438 51.4603 121.342 58.8001 121.342 63.5975L123.98 63.7412V67.6768H117.363C115.3 67.6768 112.757 67.7247 110.837 67.7247C110.837 66.4751 110.837 65.0387 110.89 63.7891L113.428 63.6454C113.454 63.6484 113.48 63.6455 113.505 63.6369C113.53 63.6284 113.552 63.6145 113.571 63.5962C113.59 63.5779 113.605 63.5556 113.614 63.531C113.623 63.5064 113.626 63.48 113.624 63.4539V51.6039L110.545 51.5081ZM121.294 38.9878C121.307 40.1307 120.865 41.2318 120.066 42.0488C119.267 42.8659 118.176 43.3321 117.033 43.3448C115.89 43.3575 114.789 42.9157 113.972 42.1166C113.155 41.3174 112.689 40.2264 112.676 39.0836C112.676 37.0727 114.452 35.1049 117.09 35.1049C119.872 35.1049 121.313 37.02 121.313 38.9878" fill="white"/>
<path d="M136.171 48.87C141.011 46.2798 141.538 46.0883 143.558 46.0883C147.537 46.0883 150.898 50.5985 150.846 55.5874C150.803 57.8107 150.298 60.0007 149.361 62.0176C148.554 63.8496 147.299 65.4497 145.713 66.6714C144.173 67.6388 142.399 68.1685 140.58 68.2035C139.143 68.2557 137.708 68.028 136.357 67.5332L136.027 67.629C136.07 70.0229 136.07 72.4743 136.07 74.9209L139.958 75.0645C139.958 76.3621 139.958 77.7505 139.91 79.0002C137.607 79.0002 134.73 79.0002 132.187 79.0481C130.272 79.0481 127.773 79.0481 125.853 79.0959C125.853 77.8463 125.853 76.4578 125.901 75.1603L128.204 74.9688C128.347 74.9688 128.395 74.873 128.395 74.7294L128.443 51.556L125.422 51.5082C125.422 50.2154 125.47 48.827 125.518 47.5773C127.773 47.2853 135.017 46.0404 135.256 46.0404C135.352 46.0404 135.352 46.0883 135.352 46.1362C135.543 47.0506 135.687 47.9125 135.879 48.827L136.171 48.87ZM141.878 52.9014C141.495 52.3269 140.92 51.6566 140.006 51.6566C138.665 51.7743 137.377 52.2361 136.266 52.9972C136.214 55.6832 136.171 59.5231 136.171 62.2091C136.171 63.1667 138.086 63.8848 139.096 63.8848C139.575 63.8972 140.049 63.7898 140.475 63.5724C140.901 63.355 141.267 63.0345 141.538 62.64C142.213 61.6345 142.644 59.9061 142.644 57.3733C142.644 55.1661 142.357 53.6292 141.878 52.911" fill="white"/>
<path d="M11.4697 71.6986H12.7529V77.6499H15.64V78.7272H11.4697V71.6986Z" fill="white"/>
<path d="M18.2258 76.5492C18.2545 77.4639 18.9633 77.8613 19.7917 77.8613C20.2694 77.8698 20.7448 77.7919 21.1948 77.6315L21.3864 78.5078C20.8231 78.7324 20.2209 78.8431 19.6145 78.8334C17.9624 78.8334 16.9951 77.8182 16.9951 76.2667C16.9951 74.8588 17.8523 73.5323 19.4757 73.5323C21.099 73.5323 21.6689 74.8876 21.6689 76.0033C21.6691 76.1861 21.6547 76.3687 21.6258 76.5492H18.2258ZM20.4573 75.649C20.4783 75.4968 20.4669 75.342 20.4239 75.1945C20.3809 75.0471 20.3073 74.9104 20.2079 74.7933C20.1084 74.6763 19.9854 74.5815 19.8469 74.5152C19.7083 74.4489 19.5574 74.4126 19.4038 74.4087C19.087 74.4281 18.7893 74.5668 18.5707 74.7969C18.3521 75.0271 18.2289 75.3315 18.2258 75.649H20.4573Z" fill="white"/>
<path d="M27.5291 77.507C27.5201 77.9156 27.5474 78.3243 27.6105 78.7281H26.4516L26.3606 78.163H26.3271C26.1478 78.3816 25.9207 78.5561 25.6633 78.6732C25.406 78.7903 25.1252 78.8467 24.8426 78.8382C24.637 78.8507 24.431 78.8208 24.2374 78.7506C24.0437 78.6804 23.8665 78.5713 23.7166 78.4299C23.5668 78.2886 23.4475 78.1181 23.366 77.9289C23.2846 77.7397 23.2428 77.5358 23.2432 77.3298C23.2432 76.056 24.3829 75.4143 26.26 75.4143V75.3329C26.26 74.9977 26.1212 74.447 25.2257 74.447C24.7455 74.4471 24.2742 74.5761 23.8609 74.8205L23.6119 73.9873C24.1729 73.6783 24.8056 73.523 25.446 73.5371C27.0741 73.5371 27.5434 74.5715 27.5434 75.6873L27.5291 77.507ZM26.2792 76.2428C25.3741 76.2428 24.5074 76.4199 24.5074 77.2005C24.4987 77.2985 24.5115 77.3972 24.5449 77.4897C24.5784 77.5822 24.6316 77.6663 24.7009 77.7361C24.7703 77.8059 24.854 77.8597 24.9463 77.8937C25.0386 77.9278 25.1372 77.9412 25.2353 77.9332C25.4557 77.9376 25.6721 77.8731 25.8541 77.7486C26.0361 77.6241 26.1747 77.4459 26.2505 77.2388C26.274 77.1466 26.2837 77.0514 26.2792 76.9563V76.2428Z" fill="white"/>
<path d="M29.7594 75.285C29.7594 74.5954 29.7594 74.0974 29.7163 73.6473H30.8225L30.8752 74.605H30.9087C31.0003 74.3033 31.1838 74.0378 31.4336 73.8455C31.6835 73.6532 31.9871 73.5437 32.3022 73.5323C32.4037 73.5328 32.5048 73.5441 32.6039 73.5659V74.763C32.4773 74.7425 32.3491 74.7329 32.2208 74.7343C31.9452 74.7254 31.6758 74.818 31.464 74.9946C31.2521 75.1711 31.1124 75.4193 31.0715 75.692C31.0514 75.8204 31.0418 75.9501 31.0428 76.0799V78.7185H29.7594V75.285Z" fill="white"/>
<path d="M34.3557 75.1701C34.3557 74.5859 34.3557 74.0974 34.3174 73.6568H35.4331L35.4954 74.4182H35.5241C35.6961 74.1434 35.9367 73.9181 36.2222 73.7645C36.5076 73.6108 36.8282 73.5341 37.1523 73.5419C38.0382 73.5419 38.9528 74.1166 38.9528 75.7208V78.7377H37.6743V75.8644C37.6743 75.1318 37.4013 74.5811 36.7165 74.5811C36.4924 74.5873 36.2757 74.6629 36.0964 74.7976C35.9171 74.9323 35.7841 75.1193 35.7157 75.3329C35.6703 75.4636 35.6492 75.6016 35.6534 75.7399V78.7329H34.3557V75.1701Z" fill="white"/>
<path d="M40.6035 79.9869C40.9128 79.0901 41.1467 78.1691 41.3027 77.2334L42.6435 77.1328C42.3596 78.0973 41.9693 79.0272 41.4798 79.9055L40.6035 79.9869Z" fill="white"/>
<path d="M50.6682 77.3291C51.1857 77.621 51.7691 77.7759 52.3632 77.7792C53.1771 77.7792 53.6367 77.3914 53.6367 76.8216C53.6367 76.2519 53.2824 75.979 52.3967 75.6534C51.2284 75.2368 50.4815 74.624 50.4815 73.6137C50.4815 72.4551 51.4391 71.5885 52.976 71.5885C53.5562 71.573 54.132 71.6944 54.6565 71.9428L54.3501 72.977C53.9168 72.7525 53.4352 72.6375 52.9473 72.6418C52.1333 72.6418 51.7886 73.0679 51.7886 73.4845C51.7886 74.0255 52.1908 74.2793 53.134 74.6431C54.3501 75.1219 54.9342 75.7156 54.9342 76.7307C54.9342 77.8654 54.082 78.8421 52.277 78.8421C51.6116 78.854 50.9537 78.7011 50.3618 78.3968L50.6682 77.3291Z" fill="white"/>
<path d="M56.9214 71.3395H58.2045V74.3511C58.3647 74.1087 58.5838 73.911 58.8413 73.7765C59.1124 73.6263 59.4172 73.5472 59.7271 73.5467C60.5937 73.5467 61.4986 74.1212 61.4986 75.7491V78.7415H60.2154V75.8688C60.2154 75.1411 59.9473 74.5761 59.2579 74.5761C59.0373 74.5778 58.8227 74.6477 58.6435 74.7763C58.4644 74.9049 58.3294 75.0859 58.2572 75.2943C58.2173 75.4195 58.1995 75.5507 58.2045 75.6821V78.7272H56.9214V71.3395Z" fill="white"/>
<path d="M67.6944 77.5069C67.6855 77.9155 67.7127 78.3242 67.7758 78.728H66.6217L66.526 78.163H66.4972C66.3154 78.3836 66.0852 78.5593 65.8244 78.6764C65.5636 78.7935 65.2793 78.8489 64.9936 78.8382C64.7882 78.8506 64.5824 78.8208 64.3891 78.7505C64.1957 78.6802 64.0187 78.571 63.8693 78.4296C63.7198 78.2882 63.6009 78.1176 63.52 77.9284C63.4391 77.7393 63.3979 77.5355 63.3989 77.3297C63.3989 76.0559 64.5339 75.4142 66.411 75.4142V75.3328C66.411 74.9976 66.277 74.4469 65.3815 74.4469C64.9011 74.4456 64.4294 74.5747 64.0167 74.8204L63.7629 73.9872C64.3242 73.6788 64.9567 73.5236 65.597 73.5371C67.2251 73.5371 67.6944 74.5714 67.6944 75.6872V77.5069ZM66.4446 76.2427C65.5347 76.2427 64.668 76.4199 64.668 77.2004C64.6591 77.2988 64.6721 77.398 64.7058 77.4909C64.7395 77.5838 64.7932 77.6681 64.863 77.738C64.9329 77.8079 65.0173 77.8616 65.1102 77.8953C65.203 77.929 65.3022 77.9419 65.4006 77.9331C65.6204 77.9373 65.836 77.8725 66.0172 77.748C66.1984 77.6235 66.3361 77.4454 66.411 77.2387C66.4384 77.1472 66.4498 77.0516 66.4446 76.9562V76.2427Z" fill="white"/>
<path d="M69.9249 75.285C69.9249 74.5954 69.9249 74.0974 69.8818 73.6473H70.9928L71.0407 74.605H71.0742C71.1667 74.303 71.3511 74.0373 71.6018 73.845C71.8524 73.6527 72.1568 73.5434 72.4725 73.5323C72.574 73.5328 72.6751 73.5441 72.7742 73.5659V74.763C72.646 74.7423 72.5162 74.7327 72.3863 74.7343C72.1115 74.7266 71.8433 74.8197 71.6325 74.9962C71.4216 75.1726 71.2827 75.4202 71.2418 75.692C71.2177 75.8199 71.2065 75.9498 71.2083 76.0799V78.7185H69.9249V75.285Z" fill="white"/>
<path d="M75.3406 76.5492C75.3693 77.4639 76.078 77.8613 76.9017 77.8613C77.381 77.8697 77.8578 77.7919 78.3096 77.6315L78.4963 78.5078C77.9333 78.7334 77.3309 78.8441 76.7245 78.8334C75.0772 78.8334 74.1099 77.8182 74.1099 76.2667C74.1099 74.8588 74.9623 73.5323 76.5904 73.5323C78.2186 73.5323 78.7836 74.8876 78.7836 76.0033C78.7839 76.1861 78.7695 76.3687 78.7405 76.5492H75.3406ZM77.5721 75.649C77.593 75.4968 77.5816 75.342 77.5386 75.1945C77.4956 75.0471 77.422 74.9104 77.3226 74.7933C77.2232 74.6763 77.1002 74.5815 76.9616 74.5152C76.8231 74.4489 76.6721 74.4126 76.5186 74.4087C76.2014 74.4269 75.903 74.5653 75.6842 74.7957C75.4653 75.0261 75.3425 75.3312 75.3406 75.649H77.5721Z" fill="white"/>
<path d="M90.3736 78.7272L89.9235 78.2484C89.4697 78.6293 88.8927 78.8319 88.3004 78.8182C87.0364 78.8182 86.3853 78.0234 86.3853 77.1903C86.3931 76.8358 86.5017 76.4908 86.6984 76.1957C86.8951 75.9007 87.1718 75.6677 87.496 75.5241V75.5002C87.2084 75.1822 87.0393 74.7746 87.0173 74.3463C87.0207 74.1421 87.0656 73.9408 87.1494 73.7546C87.2332 73.5683 87.354 73.4011 87.5046 73.2631C87.6551 73.1251 87.8322 73.0192 88.025 72.9519C88.2178 72.8846 88.4223 72.8573 88.626 72.8717C88.8064 72.8544 88.9885 72.8748 89.1607 72.9315C89.3329 72.9881 89.4914 73.0799 89.6264 73.2009C89.7614 73.3219 89.8698 73.4696 89.9448 73.6346C90.0198 73.7996 90.0599 73.9783 90.0624 74.1596C90.0624 74.7581 89.7128 75.2417 88.8797 75.6726C89.2819 76.1514 89.7224 76.6301 90.0384 76.9892C90.3149 76.5194 90.4925 75.998 90.5603 75.4571H91.5179C91.4284 76.2476 91.1163 76.9965 90.6177 77.6164C90.9433 77.9803 91.2497 78.3251 91.604 78.7033L90.3736 78.7272ZM89.416 77.65C89.0665 77.2957 88.5206 76.6924 87.9796 76.0556C87.8109 76.1547 87.6693 76.294 87.5674 76.4611C87.4655 76.6281 87.4064 76.8178 87.3955 77.0132C87.394 77.151 87.4208 77.2877 87.4743 77.4147C87.5278 77.5417 87.6068 77.6564 87.7065 77.7516C87.8062 77.8467 87.9244 77.9204 88.0537 77.968C88.1831 78.0156 88.3208 78.0361 88.4584 78.0282C88.8169 78.0287 89.161 77.8876 89.416 77.6356M87.9796 74.2362C87.9959 74.5846 88.1449 74.9135 88.3962 75.1555C88.875 74.8491 89.1622 74.5809 89.1622 74.1979C89.1702 74.1164 89.1612 74.0342 89.1358 73.9564C89.1105 73.8786 89.0693 73.8068 89.0149 73.7457C88.9605 73.6845 88.894 73.6353 88.8197 73.6011C88.7453 73.5668 88.6647 73.5483 88.5829 73.5467C88.4959 73.5501 88.4106 73.5714 88.3323 73.6093C88.2539 73.6472 88.1843 73.7009 88.1276 73.767C88.071 73.833 88.0286 73.9101 88.0031 73.9933C87.9777 74.0765 87.9697 74.1641 87.9796 74.2506" fill="white"/>
<path d="M99.2031 71.6986H103.263V72.7519H100.481V74.691H103.067V75.7348H100.481V78.7272H99.2031V71.6986Z" fill="white"/>
<path d="M109.588 77.2053C109.588 77.8087 109.588 78.3067 109.632 78.7281H108.516L108.449 77.9667H108.42C108.247 78.2428 108.005 78.4686 107.718 78.6215C107.43 78.7745 107.108 78.8492 106.782 78.8383C105.868 78.8383 105.02 78.2876 105.02 76.6307V73.6473H106.303V76.4104C106.303 77.2532 106.576 77.7991 107.261 77.7991C107.476 77.7991 107.685 77.7328 107.861 77.6094C108.037 77.486 108.17 77.3115 108.243 77.1096C108.296 76.984 108.32 76.8483 108.315 76.7121V73.6473H109.588V77.2053Z" fill="white"/>
<path d="M111.838 75.17C111.838 74.5858 111.838 74.0974 111.795 73.6568H112.939L112.997 74.4182H113.03C113.202 74.143 113.443 73.9175 113.728 73.7638C114.014 73.6101 114.334 73.5336 114.659 73.5419C115.544 73.5419 116.464 74.1165 116.464 75.7207V78.7376H115.181V75.8644C115.181 75.1317 114.908 74.581 114.223 74.581C113.998 74.5865 113.781 74.6619 113.602 74.7967C113.423 74.9315 113.29 75.1189 113.222 75.3328C113.177 75.4636 113.155 75.6015 113.16 75.7399V78.7328H111.838V75.17Z" fill="white"/>
</g>
<defs>
<clipPath id="clip0_1136_8595">
<rect width="160" height="80" fill="white" transform="translate(0.798828)"/>
</clipPath>
</defs>
</svg>
