<svg width="304" height="80" viewBox="0 0 304 80" fill="none" xmlns="http://www.w3.org/2000/svg">
<path fill-rule="evenodd" clip-rule="evenodd" d="M91.8031 28.3966C89.2947 28.4888 87.1022 29.4961 85.2257 31.4184C83.2786 33.4377 82.305 36.0819 82.305 39.3511C82.305 42.7406 83.3146 45.6011 85.3339 47.9329C87.2622 50.1367 89.5852 51.2882 92.3028 51.3874C94.3167 51.3137 96.1604 50.655 97.8339 49.4112C99.6368 48.0891 100.875 46.3342 101.548 44.1467C101.668 43.8102 101.848 43.6419 102.089 43.6419C102.298 43.6419 102.454 43.6799 102.556 43.7557C102.643 43.6799 102.744 43.642 102.858 43.642C103.267 43.642 103.471 43.7862 103.471 44.0747C102.918 47.8968 102.606 49.892 102.533 50.0603C102.413 50.4689 102.137 50.6732 101.704 50.6732H101.668H100.658C100.37 50.6732 100.154 50.6973 100.009 50.7454C99.8892 50.7934 99.7089 50.9016 99.4685 51.0699C99.2521 51.2382 99.0718 51.3583 98.9276 51.4305C96.7642 52.6805 94.4805 53.3055 92.0767 53.3055C91.95 53.3055 91.8236 53.3036 91.6973 53.2999C91.5677 53.3036 91.4378 53.3054 91.3075 53.3054C89.6008 53.3054 87.9301 52.9689 86.2955 52.2958C84.6608 51.6227 83.2185 50.6852 81.9685 49.4833C80.7185 48.2573 79.733 46.815 79.0118 45.1564C78.3147 43.4977 77.9661 41.791 77.9661 40.0362C77.9661 38.2333 78.3387 36.4905 79.0839 34.8078C79.8291 33.1251 80.8267 31.6828 82.0767 30.4809C84.7209 27.9568 87.858 26.6948 91.4878 26.6948H91.5238C91.647 26.6948 91.7692 26.6963 91.8906 26.6992C92.0121 26.6963 92.1343 26.6949 92.2569 26.6949H92.293C93.6151 26.6949 94.8291 26.8631 95.9348 27.1997C97.0646 27.5122 97.93 27.8367 98.531 28.1732C98.7517 28.2921 98.9364 28.39 99.0852 28.4668C99.153 28.3678 99.2166 28.2338 99.2762 28.065C99.4205 27.6564 99.6128 27.416 99.8532 27.3439H100.07C100.166 27.3198 100.226 27.3078 100.25 27.3078C100.361 27.3078 100.452 27.3331 100.525 27.3837C100.557 27.3672 100.589 27.3539 100.622 27.3439H100.839C100.935 27.3199 100.995 27.3079 101.019 27.3079C101.283 27.3079 101.44 27.4521 101.488 27.7406L101.74 29.6156C101.908 30.8896 102.077 32.1756 102.245 33.4737C102.413 34.7718 102.497 35.4689 102.497 35.5651C102.497 35.9737 102.245 36.1781 101.74 36.1781C101.558 36.1781 101.407 36.1666 101.286 36.1438C101.195 36.1666 101.09 36.178 100.971 36.178C100.514 36.178 100.25 36.1059 100.178 35.9617C100.106 35.7934 100.021 35.2886 99.9253 34.4472C99.8051 33.5338 99.4806 32.7285 98.9517 32.0314C98.1104 30.9737 97.0407 30.1083 95.7426 29.4352C94.551 28.7953 93.2378 28.449 91.8031 28.3966ZM23.5464 28.7141C23.1618 28.69 22.8733 28.666 22.681 28.6419C22.4887 28.6179 22.3084 28.5338 22.1402 28.3895C21.9719 28.2213 21.8878 27.9929 21.8878 27.7044C21.8878 27.5362 21.9479 27.3679 22.0681 27.1996C22.2123 27.0314 22.4166 26.9472 22.681 26.9472C22.7287 26.9472 22.8945 26.959 23.1785 26.9827C23.2606 26.9591 23.3512 26.9473 23.4502 26.9473C23.4983 26.9473 23.6666 26.9593 23.955 26.9833C24.2435 27.0074 24.6281 27.0314 25.1089 27.0555C25.5151 27.0748 25.9446 27.0864 26.3975 27.0901C26.853 27.0864 27.2848 27.0748 27.6931 27.0554C28.1979 27.0314 28.5825 27.0073 28.8469 26.9833C29.1113 26.9592 29.2796 26.9472 29.3517 26.9472C29.4752 26.9472 29.5875 26.9571 29.6884 26.9769C29.9114 26.9571 30.0556 26.9473 30.1209 26.9473C30.4815 26.9473 30.7459 27.0314 30.9142 27.1997C31.0824 27.3439 31.1666 27.5122 31.1666 27.7045C31.1666 27.9449 31.0704 28.1492 30.8781 28.3175C30.7098 28.4617 30.4574 28.654 30.1209 28.8944C29.7843 29.1348 29.4959 29.4112 29.2555 29.7237L23.8829 36.6468C23.4743 37.1997 23.0536 37.7646 22.6209 38.3415C22.2122 38.8944 21.8997 39.3271 21.6834 39.6396C21.467 39.9281 21.2387 40.2165 20.9983 40.505C20.7819 40.7934 20.6257 41.0098 20.5295 41.154C20.4574 41.2982 20.3733 41.4425 20.2771 41.5867C20.181 41.7069 20.1209 41.8271 20.0968 41.9473C20.0968 42.0675 20.0848 42.1756 20.0608 42.2718V42.6324V49.8079C20.0608 50.1684 20.193 50.3968 20.4574 50.493C20.7218 50.5651 21.455 50.6252 22.6569 50.6732C23.2579 50.6973 23.7387 50.7213 24.0993 50.7454C24.6521 50.7694 24.9286 51.0579 24.9286 51.6107V51.9353C24.9286 52.392 24.7243 52.6204 24.3156 52.6204L23.8247 52.5736C23.7459 52.6047 23.6531 52.6203 23.5464 52.6203L22.7892 52.5482C22.3084 52.5242 21.6474 52.4881 20.806 52.44C20.0213 52.4169 19.2365 52.4049 18.4518 52.404H17.5007C16.9718 52.4281 16.5031 52.4521 16.0944 52.4761C15.6858 52.5002 15.3132 52.5242 14.9767 52.5482C14.6642 52.5723 14.4118 52.5843 14.2194 52.5843C14.0271 52.6083 13.919 52.6204 13.8949 52.6204C13.7765 52.6204 13.6692 52.6078 13.5732 52.5828C13.5298 52.5838 13.4888 52.5842 13.4503 52.5842C13.258 52.6083 13.1498 52.6203 13.1258 52.6203C12.5008 52.6203 12.1883 52.2717 12.1883 51.5746V51.3222C12.2123 51.2261 12.2243 51.154 12.2243 51.1059C12.2483 51.0338 12.2844 50.9857 12.3325 50.9617C12.4046 50.9136 12.4527 50.8775 12.4767 50.8535C12.5248 50.8294 12.5969 50.8054 12.6931 50.7814C12.8133 50.7573 12.9094 50.7453 12.9815 50.7453C13.0777 50.7213 13.1979 50.7092 13.3421 50.7092H13.8108C13.9791 50.6852 14.1714 50.6732 14.3878 50.6732C14.6282 50.6732 14.8565 50.6612 15.0729 50.6371L15.2171 50.6011H15.3974H15.5416C15.6378 50.577 15.6979 50.565 15.7219 50.565C15.7459 50.541 15.794 50.5169 15.8661 50.4929C15.9383 50.4689 15.9743 50.4328 15.9743 50.3847L16.0464 50.2405C16.0945 50.1924 16.1185 50.1323 16.1185 50.0602C16.1426 49.9881 16.1546 49.904 16.1546 49.8078V42.1636C16.1546 41.9472 16.1306 41.7549 16.0825 41.5867C16.0344 41.3943 15.9983 41.2621 15.9743 41.19C15.9503 41.1179 15.8541 40.9496 15.6858 40.6852C15.5416 40.4208 15.4334 40.2405 15.3613 40.1443C13.1017 36.5145 11.1426 33.3655 9.48392 30.6972C8.93104 29.8318 8.63056 29.3511 8.58248 29.2549C8.3421 28.9424 7.98152 28.7742 7.50075 28.7501C7.01998 28.702 6.7195 28.5458 6.59931 28.2814C6.50316 28.1371 6.45508 27.9689 6.45508 27.7766C6.45508 27.5602 6.52719 27.3679 6.67142 27.1996C6.83969 27.0314 7.08008 26.9472 7.39258 26.9472C7.45509 26.9472 7.61693 26.9563 7.87811 26.9743C7.96493 26.9563 8.05948 26.9473 8.16175 26.9473C8.23387 26.9473 8.43819 26.9593 8.77473 26.9833C9.13531 27.0074 9.61608 27.0314 10.217 27.0555C10.7281 27.0751 11.2712 27.0867 11.8465 27.0903C12.4217 27.0868 12.9563 27.0752 13.4503 27.0554C14.0512 27.0314 14.52 27.0073 14.8565 26.9833C15.1931 26.9592 15.3974 26.9472 15.4695 26.9472C15.5602 26.9472 15.6418 26.9572 15.7145 26.9771C15.9984 26.9572 16.1731 26.9473 16.2387 26.9473C16.6954 26.9473 16.9238 27.1997 16.9238 27.7045C16.9238 27.8247 16.9118 27.9329 16.8877 28.029C16.8877 28.1252 16.8637 28.2093 16.8156 28.2814C16.7916 28.3535 16.7555 28.4136 16.7074 28.4617C16.6834 28.5098 16.6233 28.5579 16.5271 28.6059C16.431 28.63 16.3468 28.654 16.2747 28.6781C16.2267 28.6781 16.1185 28.6901 15.9502 28.7141C15.806 28.7381 15.6738 28.7502 15.5536 28.7502C15.4574 28.7502 15.3012 28.7622 15.0848 28.7862C14.8685 28.7862 14.6762 28.7982 14.5079 28.8223C13.8589 28.8944 13.5343 29.1708 13.5343 29.6516V29.7237C13.5343 29.892 14.1233 30.9857 15.3012 33.005C16.5512 35.1925 17.717 37.2117 18.7988 39.0627C18.841 39.1331 18.8814 39.1966 18.92 39.2532C22.416 34.4336 24.3307 31.7499 24.6642 31.202C25.0969 30.4328 25.3133 29.916 25.3133 29.6516C25.3133 29.2669 25.2051 29.0266 24.9887 28.9304C24.7724 28.8102 24.3758 28.7381 23.7988 28.7141H23.5464ZM40.7994 27.0899C40.32 27.0858 39.8629 27.0744 39.4281 27.0555C38.8993 27.0314 38.4786 27.0074 38.1661 26.9833C37.8776 26.9593 37.7093 26.9473 37.6613 26.9473C37.5594 26.9473 37.4652 26.9588 37.3787 26.9818C37.1013 26.9587 36.9392 26.9472 36.8921 26.9472C36.5796 26.9472 36.3392 27.0554 36.1709 27.2717C36.0267 27.4881 35.9546 27.7285 35.9546 27.9929C35.9546 28.2092 36.0147 28.3775 36.1349 28.4977C36.2551 28.666 36.6036 28.7621 37.1806 28.7862C37.7575 28.8102 38.1301 29.0386 38.2983 29.4713C38.3224 29.5434 38.4546 29.9881 38.695 30.8054C38.9594 31.6227 39.2959 32.6804 39.7046 33.9785C40.1373 35.2525 40.6421 36.7309 41.219 38.4136C41.7959 40.0722 42.5051 42.0314 43.3464 44.291C44.2118 46.5506 45.1133 48.8342 46.0508 51.1419C46.0988 51.2621 46.1589 51.4424 46.231 51.6828C46.3272 51.9232 46.4113 52.1155 46.4834 52.2597C46.5556 52.404 46.6397 52.5602 46.7358 52.7285C46.832 52.8967 46.9402 53.0169 47.0604 53.0891C47.1806 53.1852 47.3248 53.2333 47.4931 53.2333C47.5652 53.2333 47.6733 53.1852 47.8176 53.0891H47.8294C47.8295 53.0891 47.8295 53.0891 47.8295 53.0891C47.9497 53.1853 48.094 53.2333 48.2622 53.2333C48.3343 53.2333 48.4425 53.1853 48.5868 53.0891H48.6228C48.7911 53.017 48.9714 52.7526 49.1637 52.2958C49.38 51.8391 49.981 50.3247 50.9666 47.7526C51.9544 45.1623 52.8419 42.8427 53.6293 40.7937C53.8462 41.2923 54.1566 42.0494 54.5604 43.065C55.6421 45.8775 56.7118 48.6059 57.7695 51.2501C58.2262 52.5722 58.7551 53.2333 59.356 53.2333C59.4706 53.2333 59.5874 53.1955 59.7064 53.1199C59.8419 53.1955 59.9815 53.2333 60.1252 53.2333C60.5819 53.2333 61.0747 52.6324 61.6036 51.4305C62.7334 49.0266 63.7911 46.6468 64.7767 44.291C65.7863 41.9353 66.6156 39.9281 67.2646 38.2694C67.9137 36.5867 68.4786 35.0843 68.9593 33.7622C69.4401 32.4401 69.8007 31.4184 70.0411 30.6973C70.3055 29.9521 70.4497 29.5555 70.4738 29.5074C70.642 29.1949 70.8824 28.9785 71.1949 28.8583C71.5315 28.7381 71.8319 28.6781 72.0964 28.6781C72.3848 28.6781 72.6372 28.618 72.8536 28.4978C73.0699 28.3535 73.1781 28.1252 73.1781 27.8127C73.1781 27.2357 72.9738 26.9473 72.5651 26.9473C72.4951 26.9473 72.3117 26.9586 72.015 26.9813C71.95 26.9586 71.877 26.9472 71.7959 26.9472C71.7238 26.9472 71.5315 26.9592 71.219 26.9833C70.9065 27.0073 70.4618 27.0314 69.8849 27.0554C69.4381 27.0748 68.9677 27.0864 68.4739 27.0901C67.9633 27.0863 67.4761 27.0748 67.0122 27.0555C66.4593 27.0314 66.0267 27.0074 65.7142 26.9833C65.4017 26.9593 65.2093 26.9473 65.1372 26.9473C65.0474 26.9473 64.9663 26.958 64.8941 26.9794C64.6115 26.958 64.4362 26.9472 64.3681 26.9472C63.9113 26.9472 63.683 27.2237 63.683 27.7766C63.683 28.3054 63.9354 28.5939 64.4402 28.6419C64.6084 28.666 64.8128 28.69 65.0532 28.7141C65.3176 28.7381 65.5099 28.7621 65.6301 28.7862C65.7503 28.7862 65.8945 28.7982 66.0628 28.8222C66.231 28.8463 66.3512 28.8823 66.4233 28.9304C66.4955 28.9544 66.5676 29.0025 66.6397 29.0746C66.7358 29.1467 66.7959 29.2309 66.82 29.327C66.844 29.3992 66.856 29.5073 66.856 29.6516C66.856 29.9881 66.6157 30.9857 66.1349 32.6443C65.6541 34.303 64.9089 36.4905 63.8993 39.2068C62.9137 41.9232 61.8681 44.4472 60.7623 46.779C60.7027 46.9678 60.6348 47.1176 60.5587 47.2283C60.535 47.2011 60.5106 47.1715 60.4858 47.1396C60.3175 46.8992 59.8728 45.9377 59.1517 44.255C58.4545 42.5482 57.5892 40.3487 56.5555 37.6564C55.5218 34.9641 54.6084 32.416 53.8151 30.0122C53.767 29.7718 53.743 29.6156 53.743 29.5434C53.743 29.0386 54.1276 28.7381 54.8968 28.642C55.594 28.5699 56.0267 28.4978 56.1949 28.4256C56.3872 28.3295 56.4834 28.1131 56.4834 27.7766C56.4834 27.2237 56.2791 26.9473 55.8704 26.9473C55.8027 26.9473 55.6185 26.9579 55.3179 26.9791C55.2535 26.9578 55.1813 26.9472 55.1012 26.9472C55.0291 26.9472 54.8248 26.9592 54.4883 26.9833C54.1758 27.0073 53.731 27.0314 53.1541 27.0554C52.6839 27.075 52.1897 27.0866 51.6716 27.0902C51.1405 27.0865 50.6411 27.0749 50.1733 27.0555C49.6204 27.0314 49.1757 27.0074 48.8392 26.9833C48.5267 26.9593 48.3343 26.9473 48.2622 26.9473C48.157 26.9473 48.0613 26.9569 47.9753 26.9761C47.7183 26.9568 47.5576 26.9472 47.4931 26.9472C46.9161 26.9472 46.6277 27.2357 46.6277 27.8126C46.6277 28.3655 46.844 28.6419 47.2767 28.6419C48.4065 28.69 49.0556 28.7621 49.2238 28.8583C49.4161 28.9544 49.6205 29.3391 49.8368 30.0121C51.4714 34.7237 52.2887 37.1516 52.2887 37.2958V37.3318C52.2887 37.428 52.2647 37.5722 52.2166 37.7645C51.832 38.702 51.3512 39.916 50.7743 41.4064C49.6445 44.291 48.9834 45.9496 48.7911 46.3823C48.7375 46.4964 48.6847 46.5945 48.6329 46.6767C48.5804 46.586 48.529 46.4758 48.4786 46.3463C45.9065 39.4713 43.9834 34.0146 42.7093 29.9761C42.6372 29.8319 42.6012 29.6756 42.6012 29.5074C42.6012 29.3391 42.6613 29.1829 42.7815 29.0386C42.9257 28.8704 43.142 28.7622 43.4305 28.7141C43.5115 28.7017 43.5908 28.6916 43.6685 28.684C43.7382 28.6839 43.8048 28.6791 43.8682 28.6696C44.0171 28.6629 44.1597 28.6657 44.2959 28.6781C44.5843 28.7021 44.8247 28.654 45.017 28.5338C45.2334 28.4136 45.3416 28.1973 45.3416 27.8848C45.3416 27.2598 45.1132 26.9473 44.6565 26.9473C44.609 26.9473 44.4326 26.959 44.1272 26.9825C44.0558 26.959 43.9758 26.9472 43.8873 26.9472C43.8392 26.9472 43.6589 26.9592 43.3464 26.9833C43.058 27.0073 42.6493 27.0314 42.1205 27.0554C41.7026 27.0744 41.2623 27.0859 40.7994 27.0899ZM127.911 27.4881H129.718C130.391 27.4641 130.919 27.44 131.304 27.416C131.689 27.3919 131.917 27.3799 131.989 27.3799C132.076 27.3799 132.152 27.389 132.218 27.4071C132.516 27.389 132.696 27.38 132.758 27.38C133.023 27.38 133.191 27.4641 133.263 27.6324C133.335 27.7766 133.371 28.017 133.371 28.3535C133.371 28.9305 133.095 29.2189 132.542 29.2189C132.302 29.2189 132.037 29.2309 131.749 29.255H131.136H130.631C130.463 29.255 130.33 29.267 130.234 29.291C130.138 29.291 130.042 29.3151 129.946 29.3631C129.85 29.3872 129.778 29.4232 129.73 29.4713C129.681 29.5194 129.633 29.5915 129.585 29.6877C129.561 29.7598 129.537 29.8439 129.513 29.9401V30.3006V49.0146C129.513 49.8025 129.833 50.1991 130.474 50.2044H136.785H136.893C137.807 50.2044 138.48 49.8679 138.912 49.1948C139.032 49.0025 139.297 48.4496 139.706 47.5362C140.138 46.6227 140.391 46.1299 140.463 46.0578C140.607 45.8655 140.787 45.7693 141.004 45.7693C141.124 45.7693 141.256 45.7934 141.4 45.8415C141.418 45.8444 141.436 45.8483 141.454 45.8532C141.55 45.7973 141.656 45.7694 141.773 45.7694C141.893 45.7694 142.025 45.7934 142.169 45.8415C142.314 45.8656 142.47 45.9497 142.638 46.0939C142.806 46.2141 142.891 46.3824 142.891 46.5987C142.891 46.791 142.65 48.5338 142.169 51.8271C142.145 51.9954 142.109 52.1276 142.061 52.2237C142.037 52.3199 141.941 52.404 141.773 52.4761C141.629 52.5723 141.424 52.6204 141.16 52.6204C141.11 52.6204 140.938 52.6146 140.644 52.603C140.567 52.6145 140.482 52.6203 140.391 52.6203C140.319 52.6203 139.994 52.6083 139.417 52.5842C138.84 52.5842 138.071 52.5722 137.109 52.5482C136.148 52.5242 135.066 52.5001 133.864 52.4761C132.663 52.4521 131.27 52.428 129.685 52.404H125.763H123.816C123.812 52.404 123.808 52.404 123.804 52.404H123.047C122.638 52.404 122.434 52.2117 122.434 51.827C122.434 51.5145 122.53 51.3102 122.722 51.2141C122.939 51.0939 123.419 50.9617 124.165 50.8174C124.309 50.7934 124.417 50.7693 124.489 50.7453C125.042 50.6011 125.319 50.2044 125.319 49.5554V49.4472V30.0482C125.319 29.904 125.307 29.7958 125.282 29.7237C125.282 29.6275 125.258 29.5434 125.21 29.4713C125.186 29.3992 125.138 29.3511 125.066 29.327C125.018 29.279 124.958 29.2549 124.886 29.2549C124.814 29.2309 124.718 29.2189 124.597 29.2189C124.505 29.1958 124.39 29.1838 124.254 29.1829H124.032C124.032 29.1828 124.032 29.1828 124.032 29.1828H123.804H123.263C122.638 29.1347 122.326 28.8342 122.326 28.2814C122.326 27.6804 122.566 27.3799 123.047 27.3799C123.132 27.3799 123.311 27.3893 123.584 27.4081C123.654 27.3894 123.731 27.38 123.816 27.38C123.912 27.38 124.129 27.392 124.465 27.416C124.802 27.416 125.282 27.4281 125.907 27.4521C126.531 27.4752 127.198 27.4872 127.911 27.4881ZM174.461 26.9851C174.468 26.9845 174.475 26.9839 174.481 26.9833C174.77 26.9593 174.938 26.9473 174.986 26.9473C175.443 26.9473 175.671 27.2718 175.671 27.9208C175.671 28.2574 175.539 28.4857 175.275 28.6059C175.01 28.7021 174.722 28.7502 174.409 28.7502C174.121 28.7502 173.844 28.9545 173.58 29.3631C173.316 29.7478 173.183 30.3848 173.183 31.2742C173.183 31.3223 173.171 31.3944 173.147 31.4906V31.6708V40.0362V40.9016C173.171 41.2862 173.183 41.5747 173.183 41.767V42.9569C173.183 43.7502 173.147 44.4593 173.075 45.0843C173.027 45.6853 172.895 46.3824 172.679 47.1757C172.486 47.9689 172.15 48.7021 171.669 49.3752C171.212 50.0482 170.623 50.6372 169.902 51.142C168.195 52.3439 165.876 52.9449 162.943 52.9449C162.811 52.9449 162.68 52.9437 162.55 52.9415C162.426 52.9437 162.3 52.9448 162.174 52.9448C160.515 52.9448 159.013 52.7645 157.667 52.404C156.344 52.0434 155.311 51.6347 154.566 51.178C153.844 50.6972 153.207 50.1323 152.655 49.4833C152.102 48.8102 151.729 48.2814 151.537 47.8967C151.369 47.4881 151.224 47.0674 151.104 46.6347C150.792 45.5049 150.635 43.9304 150.635 41.9112V40.5049C150.659 39.8799 150.671 39.4112 150.671 39.0987V29.7958C150.671 29.6516 150.659 29.5314 150.635 29.4352C150.635 29.315 150.599 29.2309 150.527 29.1828C150.455 29.1107 150.407 29.0506 150.383 29.0025C150.359 28.9544 150.275 28.9184 150.131 28.8943C149.986 28.8703 149.89 28.8583 149.842 28.8583C149.818 28.8342 149.698 28.8102 149.482 28.7862C149.289 28.7621 149.169 28.7501 149.121 28.7501C148.448 28.654 148.111 28.3535 148.111 27.8487C148.111 27.2477 148.364 26.9472 148.869 26.9472C148.936 26.9472 149.107 26.9576 149.382 26.9785C149.459 26.9577 149.544 26.9473 149.638 26.9473C149.71 26.9473 149.902 26.9593 150.215 26.9833C150.527 27.0074 150.96 27.0314 151.513 27.0555C152.008 27.0761 152.53 27.0879 153.079 27.0908C153.671 27.088 154.226 27.0762 154.746 27.0554C155.347 27.0314 155.816 27.0073 156.152 26.9833C156.489 26.9592 156.693 26.9472 156.765 26.9472C156.847 26.9472 156.922 26.9577 156.989 26.9786C157.285 26.9577 157.467 26.9473 157.534 26.9473C157.991 26.9473 158.219 27.2718 158.219 27.9208C158.219 28.1131 158.195 28.2694 158.147 28.3896C158.099 28.5098 157.991 28.5939 157.823 28.642C157.679 28.6901 157.534 28.7261 157.39 28.7502C157.27 28.7742 157.054 28.7982 156.741 28.8223C156.429 28.8463 156.164 28.8704 155.948 28.8944C155.155 28.9906 154.758 29.4232 154.758 30.1925V41.7309C154.758 43.3656 154.902 44.7478 155.191 45.8776C155.479 47.0074 156.092 47.993 157.03 48.8343C158.428 50.1181 160.504 50.7898 163.258 50.8492C166.491 50.7723 168.618 49.6559 169.638 47.5001C170.119 46.4905 170.359 45.1203 170.359 43.3895V42.8847C170.359 42.6203 170.347 42.2357 170.323 41.7309V40.577V30.553C170.323 30.1203 170.287 29.7838 170.215 29.5434C170.143 29.279 169.95 29.0867 169.638 28.9665C169.349 28.8463 169.133 28.7742 168.989 28.7501C168.844 28.7261 168.46 28.678 167.835 28.6059C167.306 28.5578 167.042 28.2814 167.042 27.7766C167.042 27.2237 167.27 26.9472 167.727 26.9472C167.775 26.9472 167.943 26.9592 168.232 26.9833C168.234 26.9835 168.236 26.9837 168.238 26.9839C168.314 26.9595 168.4 26.9473 168.496 26.9473C168.544 26.9473 168.712 26.9593 169.001 26.9833C169.289 27.0074 169.674 27.0314 170.155 27.0555C170.526 27.074 170.925 27.0854 171.354 27.0896C171.784 27.0854 172.186 27.074 172.558 27.0554C173.039 27.0314 173.424 27.0073 173.712 26.9833C174.001 26.9592 174.169 26.9472 174.217 26.9472C174.307 26.9472 174.388 26.9598 174.461 26.9851ZM186.3 27.0907C186.918 27.0877 187.483 27.0759 187.995 27.0554C188.62 27.0314 189.101 27.0073 189.438 26.9833C189.798 26.9592 190.015 26.9472 190.087 26.9472C190.174 26.9472 190.253 26.9567 190.324 26.9756C190.615 26.9567 190.792 26.9473 190.856 26.9473C191.096 26.9473 191.277 27.0194 191.397 27.1636C191.517 27.3079 191.577 27.5963 191.577 28.029C191.577 28.2934 191.445 28.4737 191.181 28.5699C190.916 28.666 190.616 28.7141 190.279 28.7141C189.943 28.6901 189.642 28.7502 189.378 28.8944C189.113 29.0386 188.981 29.279 188.981 29.6156C188.981 29.7838 189.125 30.1564 189.414 30.7333C191.391 33.946 192.661 35.9856 193.225 36.8521C193.495 36.4721 193.771 36.0791 194.053 35.6732C194.462 35.1203 194.786 34.6756 195.027 34.3391C195.267 34.0025 195.52 33.654 195.784 33.2934C196.048 32.9328 196.253 32.6443 196.397 32.428L196.83 31.779C196.998 31.5386 197.118 31.3583 197.19 31.2381L197.407 30.8054C197.479 30.6612 197.527 30.541 197.551 30.4448C197.599 30.3487 197.623 30.2525 197.623 30.1564C197.647 30.0602 197.659 29.952 197.659 29.8318C197.659 29.6636 197.647 29.5193 197.623 29.3992C197.599 29.279 197.539 29.1828 197.443 29.1107L197.226 28.8943C197.178 28.8463 197.07 28.8102 196.902 28.7862C196.733 28.7621 196.613 28.7501 196.541 28.7501C196.469 28.7261 196.313 28.7141 196.072 28.7141C195.856 28.69 195.712 28.678 195.64 28.678C194.991 28.6299 194.666 28.2693 194.666 27.5963C194.666 27.1636 194.87 26.9472 195.279 26.9472C195.344 26.9472 195.523 26.9568 195.818 26.976C195.885 26.9569 195.962 26.9473 196.048 26.9473C196.12 26.9473 196.337 26.9593 196.697 26.9833C197.058 27.0074 197.563 27.0314 198.212 27.0555C198.748 27.0753 199.317 27.087 199.919 27.0904C200.537 27.087 201.106 27.0754 201.625 27.0554C202.274 27.0314 202.779 27.0073 203.14 26.9833C203.524 26.9592 203.753 26.9472 203.825 26.9472C203.914 26.9472 203.995 26.956 204.067 26.9736C204.357 26.9561 204.532 26.9473 204.594 26.9473C205.051 26.9473 205.279 27.1756 205.279 27.6324C205.279 28.0651 205.171 28.3656 204.955 28.5338C204.738 28.7021 204.486 28.7742 204.197 28.7502C203.909 28.7261 203.536 28.7502 203.08 28.8223C202.623 28.8944 202.226 29.0627 201.89 29.3271C201.601 29.5434 201.193 29.9881 200.664 30.6612C200.135 31.3103 199.774 31.779 199.582 32.0675C196.385 36.5867 194.786 38.8944 194.786 38.9906C194.786 39.1107 196.902 42.5122 201.132 49.1949C201.589 49.916 201.95 50.3367 202.214 50.4569C202.479 50.5771 203.176 50.6973 204.306 50.8175C204.955 50.9136 205.279 51.2622 205.279 51.8632C205.279 52.368 205.063 52.6204 204.63 52.6204C204.606 52.6204 204.51 52.6083 204.342 52.5843C204.28 52.5843 204.208 52.5827 204.127 52.5795C204.05 52.6067 203.961 52.6203 203.861 52.6203C203.837 52.6203 203.741 52.6083 203.572 52.5842C203.404 52.5842 203.164 52.5722 202.851 52.5482C202.563 52.5242 202.226 52.5001 201.842 52.4761C201.481 52.4521 201.049 52.428 200.545 52.404H199.87H198.428C197.947 52.4281 197.515 52.4521 197.13 52.4761C196.769 52.5002 196.445 52.5242 196.156 52.5482C195.868 52.5723 195.628 52.5843 195.435 52.5843C195.267 52.6083 195.171 52.6204 195.147 52.6204C195.042 52.6204 194.949 52.6071 194.868 52.5805C194.796 52.583 194.728 52.5842 194.666 52.5842C194.498 52.6083 194.402 52.6203 194.378 52.6203C193.921 52.6203 193.693 52.3679 193.693 51.8631C193.693 51.3583 193.921 51.0458 194.378 50.9256C194.522 50.9016 195.027 50.8294 195.892 50.7092C196.445 50.6131 196.721 50.3367 196.721 49.8799V49.8078C196.721 49.5674 195.856 48.077 194.125 45.3367C193.378 44.154 192.739 43.1325 192.207 42.2721C191.512 43.2014 189.956 45.4128 187.539 48.9064C187.274 49.267 187.142 49.5795 187.142 49.8439C187.142 50.2045 187.262 50.4449 187.503 50.5651C187.767 50.6612 188.284 50.7454 189.053 50.8175C189.197 50.8415 189.318 50.8535 189.414 50.8535C190.087 50.9737 190.423 51.2982 190.423 51.8271C190.423 52.3559 190.207 52.6204 189.774 52.6204C189.75 52.6204 189.666 52.6083 189.522 52.5843C189.453 52.5843 189.371 52.5816 189.275 52.5761C189.197 52.6056 189.107 52.6203 189.005 52.6203C188.981 52.6203 188.897 52.6083 188.753 52.5842C188.608 52.5842 188.404 52.5722 188.14 52.5482C187.875 52.5242 187.587 52.5001 187.274 52.4761C186.962 52.4521 186.602 52.428 186.194 52.404H185.736C185.087 52.404 184.438 52.416 183.789 52.4401C183.164 52.4882 182.659 52.5242 182.274 52.5482L181.697 52.6204C181.589 52.6204 181.497 52.5998 181.421 52.5587L180.928 52.6203C180.568 52.6203 180.387 52.3919 180.387 51.9352V51.6467C180.411 51.5506 180.423 51.4785 180.423 51.4304C180.423 51.3583 180.447 51.2982 180.495 51.2501C180.544 51.178 180.568 51.1299 180.568 51.1059C180.592 51.0578 180.64 51.0217 180.712 50.9977C180.808 50.9737 180.868 50.9496 180.892 50.9256C180.94 50.9016 181.024 50.8775 181.145 50.8535C181.265 50.8294 181.349 50.8174 181.397 50.8174C181.469 50.7934 181.589 50.7693 181.757 50.7453C181.95 50.7213 182.094 50.6972 182.19 50.6732C182.358 50.6492 182.515 50.6131 182.659 50.565C182.803 50.5169 182.923 50.4689 183.02 50.4208C183.14 50.3727 183.26 50.3006 183.38 50.2044C183.524 50.0842 183.632 50.0001 183.705 49.952C183.777 49.8799 183.885 49.7477 184.029 49.5554C184.197 49.3631 184.318 49.2189 184.39 49.1227C184.462 49.0266 184.594 48.8342 184.786 48.5458C185.003 48.2333 185.171 47.9929 185.291 47.8246C188.921 42.7525 190.736 40.1804 190.736 40.1083C190.736 40.0121 188.777 36.8391 184.858 30.5891C184.33 29.7477 183.909 29.2549 183.596 29.1107C183.284 28.9424 182.683 28.8222 181.794 28.7501C181.169 28.702 180.856 28.3775 180.856 27.7766C180.856 27.2237 181.108 26.9472 181.613 26.9472C181.676 26.9472 181.849 26.9564 182.132 26.9747C182.207 26.9564 182.291 26.9473 182.382 26.9473C182.455 26.9473 182.671 26.9593 183.031 26.9833C183.392 27.0074 183.897 27.0314 184.546 27.0555C185.096 27.0758 185.681 27.0876 186.3 27.0907ZM236.488 26.9851C236.495 26.9845 236.502 26.9839 236.509 26.9833C236.798 26.9593 236.966 26.9473 237.014 26.9473C237.471 26.9473 237.699 27.2718 237.699 27.9208C237.699 28.2574 237.567 28.4857 237.303 28.6059C237.038 28.7021 236.75 28.7502 236.437 28.7502C236.149 28.7502 235.872 28.9545 235.608 29.3631C235.343 29.7478 235.211 30.3848 235.211 31.2742C235.211 31.3223 235.199 31.3944 235.175 31.4906V31.6708V40.0362V40.9016C235.199 41.2862 235.211 41.5747 235.211 41.767V42.9569C235.211 43.7502 235.175 44.4593 235.103 45.0843C235.055 45.6853 234.923 46.3824 234.706 47.1757C234.514 47.9689 234.178 48.7021 233.697 49.3752C233.24 50.0482 232.651 50.6372 231.93 51.142C230.223 52.3439 227.904 52.9449 224.971 52.9449C224.839 52.9449 224.708 52.9437 224.578 52.9415C224.454 52.9437 224.328 52.9448 224.202 52.9448C222.543 52.9448 221.041 52.7645 219.695 52.404C218.372 52.0434 217.339 51.6347 216.594 51.178C215.872 50.6972 215.235 50.1323 214.682 49.4833C214.13 48.8102 213.757 48.2814 213.565 47.8967C213.396 47.4881 213.252 47.0674 213.132 46.6347C212.82 45.5049 212.663 43.9304 212.663 41.9112V40.5049C212.687 39.8799 212.699 39.4112 212.699 39.0987V29.7958C212.699 29.6516 212.687 29.5314 212.663 29.4352C212.663 29.315 212.627 29.2309 212.555 29.1828C212.483 29.1107 212.435 29.0506 212.411 29.0025C212.387 28.9544 212.303 28.9184 212.158 28.8943C212.014 28.8703 211.918 28.8583 211.87 28.8583C211.846 28.8342 211.726 28.8102 211.509 28.7862C211.317 28.7621 211.197 28.7501 211.149 28.7501C210.476 28.654 210.139 28.3535 210.139 27.8487C210.139 27.2477 210.392 26.9472 210.896 26.9472C210.964 26.9472 211.135 26.9576 211.41 26.9785C211.487 26.9577 211.572 26.9473 211.666 26.9473C211.738 26.9473 211.93 26.9593 212.243 26.9833C212.555 27.0074 212.988 27.0314 213.541 27.0555C214.036 27.0761 214.558 27.0879 215.107 27.0908C215.699 27.088 216.254 27.0762 216.774 27.0554C217.375 27.0314 217.844 27.0073 218.18 26.9833C218.517 26.9592 218.721 26.9472 218.793 26.9472C218.875 26.9472 218.95 26.9577 219.017 26.9786C219.313 26.9577 219.495 26.9473 219.562 26.9473C220.019 26.9473 220.247 27.2718 220.247 27.9208C220.247 28.1131 220.223 28.2694 220.175 28.3896C220.127 28.5098 220.019 28.5939 219.851 28.642C219.706 28.6901 219.562 28.7261 219.418 28.7502C219.298 28.7742 219.081 28.7982 218.769 28.8223C218.456 28.8463 218.192 28.8704 217.976 28.8944C217.182 28.9906 216.786 29.4232 216.786 30.1925V41.7309C216.786 43.3656 216.93 44.7478 217.218 45.8776C217.507 47.0074 218.12 47.993 219.057 48.8343C220.456 50.1181 222.532 50.7898 225.286 50.8492C228.519 50.7723 230.646 49.6559 231.666 47.5001C232.146 46.4905 232.387 45.1203 232.387 43.3895V42.8847C232.387 42.6203 232.375 42.2357 232.351 41.7309V40.577V30.553C232.351 30.1203 232.315 29.7838 232.243 29.5434C232.17 29.279 231.978 29.0867 231.666 28.9665C231.377 28.8463 231.161 28.7742 231.017 28.7501C230.872 28.7261 230.488 28.678 229.863 28.6059C229.334 28.5578 229.07 28.2814 229.07 27.7766C229.07 27.2237 229.298 26.9472 229.755 26.9472C229.803 26.9472 229.971 26.9592 230.259 26.9833C230.262 26.9835 230.264 26.9837 230.266 26.9839C230.342 26.9595 230.428 26.9473 230.524 26.9473C230.572 26.9473 230.74 26.9593 231.029 26.9833C231.317 27.0074 231.702 27.0314 232.182 27.0555C232.553 27.074 232.953 27.0854 233.381 27.0896C233.812 27.0854 234.214 27.074 234.586 27.0554C235.067 27.0314 235.452 27.0073 235.74 26.9833C236.029 26.9592 236.197 26.9472 236.245 26.9472C236.335 26.9472 236.416 26.9598 236.488 26.9851ZM258.425 34.0867C258.425 32.5722 257.8 31.2621 256.55 30.1564C255.379 29.0985 253.956 28.5359 252.28 28.4685C251.388 28.4986 250.796 28.6286 250.504 28.8583C250.36 28.9545 250.288 29.1468 250.288 29.4353V29.4713L250.324 29.5434V38.2333C250.324 38.5458 250.444 38.7381 250.684 38.8103C250.885 38.8505 251.398 38.8739 252.222 38.8805C253.503 38.8612 254.561 38.6936 255.396 38.3775C256.237 38.041 256.946 37.5001 257.523 36.7549C258.124 36.0097 258.425 35.1203 258.425 34.0867ZM266.156 50.5498C265.649 50.4192 265.119 50.0397 264.567 49.4112C264.23 49.0266 263.797 48.4016 263.268 47.5362C262.764 46.6708 262.043 45.5771 261.105 44.255C260.192 42.9088 259.074 41.4665 257.752 39.9281C257.704 39.88 257.68 39.8319 257.68 39.7838C257.68 39.7357 257.74 39.6756 257.86 39.6035C258.677 39.3151 259.579 38.618 260.564 37.5122C261.55 36.4064 262.043 35.0603 262.043 33.4737C262.043 32.7526 261.898 32.0434 261.61 31.3463C261.321 30.6492 260.865 29.9761 260.24 29.3271C259.639 28.654 258.749 28.1131 257.571 27.7045C256.393 27.2718 255.023 27.0555 253.461 27.0555C253.35 27.0555 253.227 27.0571 253.093 27.0603C252.961 27.057 252.827 27.0554 252.692 27.0554C251.946 27.0554 250.684 27.1275 248.906 27.2717C247.127 27.416 245.66 27.4881 244.507 27.4881H243.244C242.908 27.4881 242.74 27.7165 242.74 28.1732C242.74 28.5097 242.932 28.7141 243.317 28.7862C244.759 29.0266 245.636 29.2189 245.949 29.3631C246.261 29.4833 246.418 29.8198 246.418 30.3727V49.4472C246.418 49.8559 246.345 50.1684 246.201 50.3847C246.081 50.577 245.817 50.6972 245.408 50.7453C245.264 50.7693 245.083 50.7934 244.867 50.8174H244.434C244.338 50.8174 244.218 50.8294 244.074 50.8535C243.93 50.8535 243.821 50.8655 243.749 50.8895C243.677 50.9136 243.593 50.9376 243.497 50.9617C243.425 50.9857 243.365 51.0217 243.317 51.0698L243.208 51.178C243.184 51.2261 243.16 51.2862 243.136 51.3583V51.6107C243.136 52.2838 243.353 52.6203 243.785 52.6203C243.809 52.6203 243.906 52.6083 244.074 52.5842C244.144 52.5842 244.225 52.5822 244.316 52.578C244.386 52.6062 244.466 52.6204 244.555 52.6204C244.579 52.6204 244.675 52.6083 244.843 52.5843C245.011 52.5843 245.24 52.5723 245.528 52.5482C245.841 52.5242 246.177 52.5002 246.538 52.4761C246.898 52.4521 247.319 52.4281 247.8 52.404H249.278H249.952C250.457 52.428 250.889 52.4521 251.249 52.4761C251.634 52.5001 251.97 52.5242 252.259 52.5482C252.547 52.5722 252.776 52.5842 252.944 52.5842C253.136 52.6083 253.244 52.6203 253.269 52.6203C253.38 52.6203 253.479 52.6074 253.566 52.5817C253.619 52.5834 253.668 52.5843 253.713 52.5843C253.905 52.6083 254.014 52.6204 254.038 52.6204C254.543 52.6204 254.795 52.3559 254.795 51.8271C254.795 51.7069 254.783 51.5987 254.759 51.5026C254.735 51.4064 254.699 51.3223 254.651 51.2502C254.603 51.154 254.543 51.0819 254.47 51.0338C254.422 50.9857 254.326 50.9497 254.182 50.9257C254.062 50.8776 253.942 50.8415 253.821 50.8175C253.725 50.7934 253.569 50.7814 253.353 50.7814C253.16 50.7574 252.98 50.7454 252.812 50.7454C252.668 50.7213 252.451 50.6973 252.163 50.6732C251.874 50.6492 251.622 50.6252 251.405 50.6011C250.78 50.529 250.468 50.1324 250.468 49.4112V49.3031V40.7574C250.468 40.3968 250.636 40.2165 250.973 40.2165H252.925C253.204 40.2184 253.403 40.2664 253.521 40.3607C253.713 40.4809 254.855 42.0073 256.946 44.94L260.624 50.2044C261.97 51.9833 263.269 52.8727 264.519 52.8727C264.661 52.8727 264.8 52.8649 264.935 52.8493C265.053 52.865 265.171 52.8728 265.288 52.8728C266.225 52.8728 266.994 52.5362 267.595 51.8632C268.22 51.166 268.533 50.6132 268.533 50.2045C268.533 49.916 268.401 49.7718 268.136 49.7718C268.048 49.7718 267.915 49.8495 267.736 50.0049C267.684 49.8495 267.561 49.7717 267.367 49.7717C267.247 49.7717 267.043 49.916 266.754 50.2044C266.569 50.3738 266.37 50.4889 266.156 50.5498ZM289.331 28.6419C289.523 28.666 289.811 28.69 290.196 28.7141H290.448C291.025 28.7381 291.422 28.8102 291.638 28.9304C291.855 29.0266 291.963 29.2669 291.963 29.6516C291.963 29.916 291.746 30.4328 291.314 31.202C290.98 31.7499 289.066 34.4336 285.57 39.2532C285.531 39.1966 285.491 39.1331 285.448 39.0627C284.367 37.2117 283.201 35.1925 281.951 33.005C280.773 30.9857 280.184 29.892 280.184 29.7237V29.6516C280.184 29.1708 280.508 28.8944 281.157 28.8223C281.326 28.7982 281.518 28.7862 281.734 28.7862C281.951 28.7622 282.107 28.7502 282.203 28.7502C282.323 28.7502 282.456 28.7381 282.6 28.7141C282.768 28.6901 282.876 28.6781 282.924 28.6781C282.996 28.654 283.081 28.63 283.177 28.6059C283.273 28.5579 283.333 28.5098 283.357 28.4617C283.405 28.4136 283.441 28.3535 283.465 28.2814C283.513 28.2093 283.537 28.1252 283.537 28.029C283.561 27.9329 283.573 27.8247 283.573 27.7045C283.573 27.1997 283.345 26.9473 282.888 26.9473C282.823 26.9473 282.648 26.9572 282.364 26.9771C282.291 26.9572 282.21 26.9472 282.119 26.9472C282.047 26.9472 281.843 26.9592 281.506 26.9833C281.17 27.0073 280.701 27.0314 280.1 27.0554C279.606 27.0752 279.071 27.0868 278.496 27.0903C277.921 27.0867 277.378 27.0751 276.867 27.0555C276.266 27.0314 275.785 27.0074 275.424 26.9833C275.088 26.9593 274.883 26.9473 274.811 26.9473C274.709 26.9473 274.614 26.9563 274.528 26.9743C274.266 26.9563 274.105 26.9472 274.042 26.9472C273.73 26.9472 273.489 27.0314 273.321 27.1996C273.177 27.3679 273.105 27.5602 273.105 27.7766C273.105 27.9689 273.153 28.1371 273.249 28.2814C273.369 28.5458 273.67 28.702 274.15 28.7501C274.631 28.7742 274.992 28.9424 275.232 29.2549C275.28 29.3511 275.581 29.8318 276.133 30.6972C277.792 33.3655 279.751 36.5145 282.011 40.1443C282.083 40.2405 282.191 40.4208 282.335 40.6852C282.504 40.9496 282.6 41.1179 282.624 41.19C282.648 41.2621 282.684 41.3943 282.732 41.5867C282.78 41.7549 282.804 41.9472 282.804 42.1636V49.8078C282.804 49.904 282.792 49.9881 282.768 50.0602C282.768 50.1323 282.744 50.1924 282.696 50.2405L282.624 50.3847C282.624 50.4328 282.588 50.4689 282.516 50.4929C282.444 50.5169 282.395 50.541 282.371 50.565C282.347 50.565 282.287 50.577 282.191 50.6011H282.047H281.867L281.722 50.6371C281.506 50.6612 281.278 50.6732 281.037 50.6732C280.821 50.6732 280.629 50.6852 280.46 50.7092H279.992C279.847 50.7092 279.727 50.7213 279.631 50.7453C279.559 50.7453 279.463 50.7573 279.343 50.7814C279.246 50.8054 279.174 50.8294 279.126 50.8535C279.102 50.8775 279.054 50.9136 278.982 50.9617C278.934 50.9857 278.898 51.0338 278.874 51.1059C278.874 51.154 278.862 51.2261 278.838 51.3222V51.5746C278.838 52.2717 279.15 52.6203 279.775 52.6203C279.799 52.6203 279.907 52.6083 280.1 52.5842C280.138 52.5842 280.179 52.5838 280.223 52.5828C280.319 52.6078 280.426 52.6204 280.544 52.6204C280.568 52.6204 280.677 52.6083 280.869 52.5843C281.061 52.5843 281.314 52.5723 281.626 52.5482C281.963 52.5242 282.335 52.5002 282.744 52.4761C283.153 52.4521 283.621 52.4281 284.15 52.404H285.101C285.886 52.4049 286.671 52.4169 287.456 52.44C288.297 52.4881 288.958 52.5242 289.439 52.5482L290.196 52.6203C290.303 52.6203 290.395 52.6047 290.474 52.5736L290.965 52.6204C291.374 52.6204 291.578 52.392 291.578 51.9353V51.6107C291.578 51.0579 291.302 50.7694 290.749 50.7454C290.388 50.7213 289.907 50.6973 289.306 50.6732C288.105 50.6252 287.371 50.5651 287.107 50.493C286.843 50.3968 286.71 50.1684 286.71 49.8079V42.6324V42.2718C286.734 42.1756 286.746 42.0675 286.746 41.9473C286.77 41.8271 286.831 41.7069 286.927 41.5867C287.023 41.4425 287.107 41.2982 287.179 41.154C287.275 41.0098 287.431 40.7934 287.648 40.505C287.888 40.2165 288.117 39.9281 288.333 39.6396C288.549 39.3271 288.862 38.8944 289.27 38.3415C289.703 37.7646 290.124 37.1997 290.532 36.6468L295.905 29.7237C296.145 29.4112 296.434 29.1348 296.77 28.8944C297.107 28.654 297.359 28.4617 297.528 28.3175C297.72 28.1492 297.816 27.9449 297.816 27.7045C297.816 27.5122 297.732 27.3439 297.564 27.1997C297.395 27.0314 297.131 26.9473 296.77 26.9473C296.705 26.9473 296.561 26.9571 296.338 26.9769C296.237 26.9571 296.125 26.9472 296.001 26.9472C295.929 26.9472 295.761 26.9592 295.496 26.9833C295.232 27.0073 294.847 27.0314 294.343 27.0554C293.934 27.0748 293.502 27.0864 293.047 27.0901C292.594 27.0864 292.165 27.0748 291.758 27.0555C291.278 27.0314 290.893 27.0074 290.605 26.9833C290.316 26.9593 290.148 26.9473 290.1 26.9473C290.001 26.9473 289.91 26.9591 289.828 26.9827C289.544 26.959 289.378 26.9472 289.331 26.9472C289.066 26.9472 288.862 27.0314 288.718 27.1996C288.597 27.3679 288.537 27.5362 288.537 27.7044C288.537 27.9929 288.621 28.2213 288.79 28.3895C288.958 28.5338 289.138 28.6179 289.331 28.6419Z" fill="white"/>
</svg>
