<svg width="232" height="80" viewBox="0 0 232 80" fill="none" xmlns="http://www.w3.org/2000/svg">
<g clip-path="url(#clip0_1137_7480)">
<path opacity="0.978" fill-rule="evenodd" clip-rule="evenodd" d="M10.7039 26.2701C14.6089 25.9198 18.0336 27.0013 20.9783 29.5146C19.6723 31.0009 18.3204 32.443 16.9226 33.8407C15.1407 31.8871 12.9777 31.2336 10.4335 31.8805C9.1 32.405 8.58181 33.3739 8.87883 34.787C9.27669 35.5401 9.88505 36.0582 10.7039 36.3417C12.7159 36.9875 14.6988 37.7085 16.6522 38.5048C20.6489 40.8506 21.798 44.2078 20.0996 48.5764C19.0398 50.7624 17.35 52.227 15.03 52.9701C10.4255 54.2681 6.14448 53.5921 2.18692 50.9422C1.77568 50.558 1.37011 50.1749 0.970215 49.7931C2.3259 48.3248 3.74539 46.9278 5.2287 45.6022C7.23478 47.8031 9.69078 48.5917 12.5966 47.9681C13.9845 47.4141 14.5027 46.4001 14.1512 44.9263C13.6724 43.9983 12.9288 43.3448 11.9206 42.966C9.55518 42.3282 7.30197 41.4269 5.1611 40.2622C2.61412 38.2092 1.73539 35.573 2.5249 32.3536C3.5226 29.4187 5.52787 27.5486 8.54085 26.7432C9.27967 26.5805 10.0008 26.4228 10.7039 26.2701Z" fill="#FEFFFE"/>
<path opacity="0.981" fill-rule="evenodd" clip-rule="evenodd" d="M82.6251 26.2701C86.1269 25.9115 89.4167 26.565 92.494 28.2304C93.2951 28.7605 94.0161 29.3914 94.657 30.123C93.2356 31.567 91.7936 32.9865 90.3309 34.3815C87.9507 32.0768 85.2017 31.5135 82.0844 32.6916C79.1767 34.2004 77.7346 36.6112 77.7583 39.9243C77.7392 42.7025 78.8207 44.9331 81.0028 46.6162C83.8959 48.2494 86.6899 48.1142 89.3846 46.2106C89.7737 45.8444 90.1341 45.4614 90.4661 45.0615C91.9532 46.481 93.4403 47.9005 94.9274 49.32C91.2639 53.0534 86.8476 54.4053 81.6788 53.3757C75.7826 52.031 72.2001 48.4034 70.9312 42.4929C70.0683 37.2636 71.5779 32.87 75.46 29.3119C77.6002 27.7007 79.9886 26.6868 82.6251 26.2701Z" fill="#FEFFFE"/>
<path opacity="0.981" fill-rule="evenodd" clip-rule="evenodd" d="M190.236 26.2701C193.738 25.9115 197.028 26.565 200.105 28.2304C200.907 28.7605 201.627 29.3914 202.268 30.123C200.847 31.567 199.405 32.9865 197.942 34.3815C195.561 32.0768 192.813 31.5135 189.696 32.6916C186.788 34.2004 185.347 36.6112 185.37 39.9243C185.351 42.7025 186.432 44.9331 188.614 46.6162C191.507 48.2494 194.302 48.1142 196.996 46.2106C197.385 45.8444 197.745 45.4614 198.077 45.0615C199.564 46.481 201.052 47.9005 202.539 49.32C198.875 53.0534 194.458 54.4053 189.29 53.3757C183.394 52.031 179.812 48.4034 178.542 42.4929C177.68 37.2636 179.189 32.87 183.071 29.3119C185.211 27.7007 187.6 26.6868 190.236 26.2701Z" fill="#FEFFFE"/>
<path opacity="0.982" fill-rule="evenodd" clip-rule="evenodd" d="M215.246 26.2701C218.879 25.865 222.305 26.5184 225.521 28.2303C229.678 30.9561 231.752 34.8315 231.74 39.8566C231.5 46.8527 228.031 51.314 221.33 53.2404C216.416 54.3308 211.954 53.3844 207.946 50.4015C204.163 46.8046 202.699 42.4109 203.552 37.2204C204.46 32.3175 207.231 28.9603 211.867 27.1488C212.994 26.7882 214.12 26.4954 215.246 26.2701ZM216.193 32.0832C221.566 31.8914 224.45 34.4824 224.845 39.8566C224.815 42.8926 223.552 45.236 221.06 46.8865C217.385 48.5314 214.253 47.8329 211.664 44.7911C209.944 41.7991 209.809 38.7348 211.258 35.5982C212.443 33.7574 214.088 32.5859 216.193 32.0832Z" fill="#FEFFFE"/>
<path opacity="0.98" fill-rule="evenodd" clip-rule="evenodd" d="M24.7642 26.946C28.6399 26.9234 32.5153 26.946 36.3905 27.0136C42.4054 27.5737 45.0866 30.8408 44.4343 36.8148C43.5531 40.2188 41.3675 42.2242 37.8776 42.8308C37.341 42.9461 36.8003 43.0361 36.2553 43.1012C34.5885 43.1688 32.9213 43.1913 31.2533 43.1688C31.2533 46.4133 31.2533 49.6579 31.2533 52.9024C29.0902 52.9024 26.9272 52.9024 24.7642 52.9024C24.7642 44.2503 24.7642 35.5981 24.7642 26.946ZM31.2533 32.2184C32.696 32.1958 34.1381 32.2184 35.5794 32.286C37.8737 32.8125 38.6172 34.1869 37.81 36.4093C37.1097 37.402 36.1409 37.9201 34.9034 37.9639C33.6875 38.0315 32.4708 38.054 31.2533 38.0315C31.2533 36.0939 31.2533 34.1561 31.2533 32.2184Z" fill="#FEFFFE"/>
<path opacity="0.981" fill-rule="evenodd" clip-rule="evenodd" d="M53.6946 26.9461C55.8006 26.9023 57.896 26.9473 59.9809 27.0813C63.5593 35.677 67.0968 44.284 70.5933 52.9026C68.2049 52.9026 65.8167 52.9026 63.4283 52.9026C62.8551 51.2376 62.2241 49.5927 61.5356 47.9682C58.2451 47.8556 54.9554 47.8781 51.6667 48.0358C51.0534 49.6451 50.4225 51.2449 49.7741 52.835C47.4763 52.9026 45.178 52.9252 42.8794 52.9026C46.4093 44.2203 50.0144 35.5681 53.6946 26.9461ZM56.5336 34.3816C56.6684 34.3775 56.7585 34.4451 56.804 34.5844C57.7719 37.2626 58.7182 39.944 59.6429 42.6282C57.6146 42.6507 55.5867 42.6282 53.5594 42.5606C54.6181 39.8576 55.6094 37.1312 56.5336 34.3816Z" fill="#FEFFFE"/>
<path opacity="0.991" fill-rule="evenodd" clip-rule="evenodd" d="M97.3608 26.946C103.219 26.946 109.078 26.946 114.936 26.946C114.936 28.7485 114.936 30.5512 114.936 32.3536C111.15 32.3536 107.365 32.3536 103.58 32.3536C103.58 33.9309 103.58 35.508 103.58 37.0853C107.14 37.0853 110.7 37.0853 114.26 37.0853C114.26 38.7977 114.26 40.5101 114.26 42.2225C110.7 42.2225 107.14 42.2225 103.58 42.2225C103.58 43.98 103.58 45.7374 103.58 47.4949C107.533 47.5394 111.476 47.4942 115.409 47.3597C115.609 49.1859 115.676 51.0335 115.611 52.9025C109.528 52.9025 103.444 52.9025 97.3608 52.9025C97.3608 44.2504 97.3608 35.5982 97.3608 26.946Z" fill="#FEFFFE"/>
<path opacity="0.99" fill-rule="evenodd" clip-rule="evenodd" d="M117.099 26.946C124.084 26.946 131.068 26.946 138.053 26.946C138.053 28.7937 138.053 30.6412 138.053 32.4888C135.62 32.4888 133.186 32.4888 130.753 32.4888C130.753 39.2933 130.753 46.098 130.753 52.9025C128.634 52.9025 126.517 52.9025 124.399 52.9025C124.399 46.098 124.399 39.2933 124.399 32.4888C121.965 32.4888 119.532 32.4888 117.099 32.4888C117.099 30.6412 117.099 28.7937 117.099 26.946Z" fill="#FEFFFE"/>
<path opacity="0.983" fill-rule="evenodd" clip-rule="evenodd" d="M140.622 26.946C142.785 26.946 144.948 26.946 147.111 26.946C147.111 30.1906 147.111 33.4352 147.111 36.6797C150.4 36.6797 153.69 36.6797 156.98 36.6797C156.98 33.4352 156.98 30.1906 156.98 26.946C159.098 26.946 161.215 26.946 163.333 26.946C163.333 35.5982 163.333 44.2504 163.333 52.9025C161.215 52.9025 159.098 52.9025 156.98 52.9025C157.003 49.2971 156.98 45.6922 156.912 42.0873C153.655 42.2217 150.388 42.2668 147.111 42.2225C147.111 45.7825 147.111 49.3426 147.111 52.9025C144.948 52.9025 142.785 52.9025 140.622 52.9025C140.622 44.2504 140.622 35.5982 140.622 26.946Z" fill="#FEFFFE"/>
<path opacity="0.972" fill-rule="evenodd" clip-rule="evenodd" d="M170.634 46.0078C173.36 45.7618 174.937 46.9785 175.365 49.658C174.734 52.7682 172.887 53.8721 169.822 52.9701C167.723 51.7083 167.205 49.9732 168.268 47.7653C168.89 46.9381 169.679 46.3523 170.634 46.0078Z" fill="#FEFFFE"/>
</g>
<defs>
<clipPath id="clip0_1137_7480">
<rect width="230.769" height="80" fill="white" transform="translate(0.970215)"/>
</clipPath>
</defs>
</svg>
