<svg width="159" height="81" viewBox="0 0 159 81" fill="none" xmlns="http://www.w3.org/2000/svg">
<path d="M53.1825 38.2994V50.5274C53.1825 52.1163 51.9224 53.395 50.3724 53.395H48.4897C46.9394 53.395 45.6796 52.1163 45.6796 50.5274V37.4905C45.5026 36.5586 44.9363 36.2338 43.6976 36.2338C41.8149 36.2338 40.406 37.729 38.4665 40.0402C38.2823 40.257 38.1834 40.5242 38.1834 40.7912V50.5274C38.1834 52.1163 36.9234 53.395 35.3734 53.395H33.5117C31.9617 53.395 30.7017 52.1163 30.7017 50.5274V16.5H35.3734C36.9234 16.5 38.1834 17.7858 38.1834 19.3673V31.4522C38.1834 31.4522 40.372 28.6858 44.356 28.6858C48.6243 28.6858 53.1825 31.2137 53.1825 38.2994Z" fill="white" stroke="white" stroke-width="0.00432558" stroke-miterlimit="10"/>
<path d="M82.9968 31.1697V50.3828C82.9968 52.0728 81.6499 53.4452 79.982 53.4452H78.5208C77.1095 53.4452 75.9408 51.8634 75.6058 50.5343C73.8809 52.8965 72.0423 53.8641 69.5192 53.8641C63.7961 53.8641 60.5103 50.2383 60.5103 43.9108V28.1144H65.0005C66.6185 28.1144 67.9298 29.4002 68.0084 31.0182V37.3742C68.0013 40.4728 68.0013 43.5931 68.0013 43.6222C68.0013 43.7666 68.0013 43.8966 68.0084 44.0265V44.431C68.0084 46.0203 69.2841 47.3132 70.8593 47.3132C73.6389 47.3132 74.7506 45.3413 75.335 42.7048C75.3849 42.6541 75.4775 41.4045 75.4775 41.4045L75.506 31.1697C75.506 29.4794 76.853 28.1144 78.5208 28.1144H79.982C81.6499 28.1144 82.9968 29.4794 82.9968 31.1697Z" fill="white" stroke="white" stroke-width="0.00432558" stroke-miterlimit="10"/>
<path d="M23.4353 20.8797V22.3533C23.4353 24.0434 22.0629 25.4158 20.3728 25.4158H15.9165V50.3407C15.9165 52.0307 14.5441 53.396 12.8541 53.396H11.3805C9.69044 53.396 8.31804 52.0307 8.31804 50.3407V25.4158H3.85467C2.17172 25.4158 0.799316 24.0434 0.799316 22.3533V20.8797C0.799316 19.1894 2.17172 17.8173 3.85467 17.8173H20.3728C22.0629 17.8173 23.4353 19.1894 23.4353 20.8797Z" fill="white" stroke="white" stroke-width="0.00432558" stroke-miterlimit="10"/>
<path d="M95.5669 38.788C95.567 38.7661 95.5671 38.748 95.5672 38.725C95.5671 38.7335 95.567 38.7581 95.5669 38.788Z" fill="white"/>
<path d="M95.5669 38.788C95.567 38.7661 95.5671 38.748 95.5672 38.725C95.5671 38.7335 95.567 38.7581 95.5669 38.788Z" stroke="white" stroke-width="0.00432558" stroke-miterlimit="10"/>
<path d="M127.576 37.3671V50.5273C127.576 52.1165 126.347 53.3949 124.826 53.3949H122.986C121.465 53.3949 120.229 52.1165 120.229 50.5273V35.0266C120.229 34.5935 119.868 34.2613 119.459 34.2901C114.064 34.7522 112.578 39.1512 112.578 39.1512V50.5273C112.578 52.1165 111.342 53.3949 109.821 53.3949H108.009C106.495 53.3949 105.26 52.1165 105.253 50.5418C105.246 46.6055 105.232 40.5595 105.225 37.1577V37.0853C105.225 36.9771 105.232 36.883 105.225 36.7893C105.225 36.7748 105.225 36.7605 105.218 36.746C105.225 35.9876 105.218 35.3879 105.218 35.0197C105.218 34.5935 104.857 34.2613 104.44 34.2975C99.4753 34.7813 97.5591 39.1512 97.5591 39.1512V50.5273C97.5591 52.1165 96.3232 53.3949 94.8028 53.3949H92.9976C91.4769 53.3949 90.2407 52.1165 90.2407 50.5273V28.0421H94.0734V28.0783C94.3793 28.0783 94.6638 28.1073 94.8028 28.1506C95.8929 28.2951 97.3439 29.3498 97.3439 30.9675C98.2605 29.1905 101.086 27.58 103.898 27.58C106.975 27.58 109.488 28.909 110.988 31.2709C113.251 28.8803 116.042 27.58 118.966 27.58C122.937 27.58 127.576 30.1441 127.576 37.3671Z" fill="white" stroke="white" stroke-width="0.00432558" stroke-miterlimit="10"/>
<path d="M152.738 43.9326C152.803 44.9725 152.124 45.3196 151.416 45.464C152.023 45.6737 152.333 46.1646 152.283 46.7498C152.239 47.219 151.871 47.5948 151.416 47.8042C149.574 48.6493 148.057 48.9094 146.028 49.1259C145.197 49.2128 144.092 49.2994 143.073 49.249C141.853 49.1983 140.892 48.1943 140.892 46.9734V43.2827L140.95 43.0514C141.289 41.7585 141.759 40.4946 142.373 39.2738C143.637 36.7604 143.918 36.5148 143.832 34.6512C143.774 33.3512 145.132 33.156 146.215 34.1743C147.198 35.1207 147.436 36.7458 146.663 38.7248C146.663 38.7248 150.766 37.6487 150.816 37.6487C151.611 37.5621 152.369 38.01 152.564 38.7105C152.73 39.3462 152.384 39.9673 151.748 40.2633C152.225 40.4223 152.6 40.7764 152.73 41.2457C152.897 41.8742 152.348 42.5531 151.719 42.8349C152.189 42.9938 152.694 43.2899 152.738 43.9326ZM147.368 28.6378C144.099 28.6378 142.045 30.3103 142.045 30.3103C142.456 29.8263 142.709 29.2052 142.709 28.5117V19.3673C142.709 17.7855 141.431 16.5 139.842 16.5H134.973V48.4615C134.973 51.3217 139.74 54.5865 146.451 54.5865C154.504 54.5865 158.679 50.7946 158.679 42.9215V40.1767C158.679 33.6979 155.652 28.6378 147.368 28.6378Z" fill="white"/>
<path d="M152.738 43.9326C152.803 44.9725 152.124 45.3196 151.416 45.464C152.023 45.6737 152.333 46.1646 152.283 46.7498C152.239 47.219 151.871 47.5948 151.416 47.8042C149.574 48.6493 148.057 48.9094 146.028 49.1259C145.197 49.2128 144.092 49.2994 143.073 49.249C141.853 49.1983 140.892 48.1943 140.892 46.9734V43.2827L140.95 43.0514C141.289 41.7585 141.759 40.4946 142.373 39.2738C143.637 36.7604 143.918 36.5148 143.832 34.6512C143.774 33.3512 145.132 33.156 146.215 34.1743C147.198 35.1207 147.436 36.7458 146.663 38.7248C146.663 38.7248 150.766 37.6487 150.816 37.6487C151.611 37.5621 152.369 38.01 152.564 38.7105C152.73 39.3462 152.384 39.9673 151.748 40.2633C152.225 40.4223 152.6 40.7764 152.73 41.2457C152.897 41.8742 152.348 42.5531 151.719 42.8349C152.189 42.9938 152.694 43.2899 152.738 43.9326ZM147.368 28.6378C144.099 28.6378 142.045 30.3103 142.045 30.3103C142.456 29.8263 142.709 29.2052 142.709 28.5117V19.3673C142.709 17.7855 141.431 16.5 139.842 16.5H134.973V48.4615C134.973 51.3217 139.74 54.5865 146.451 54.5865C154.504 54.5865 158.679 50.7946 158.679 42.9215V40.1767C158.679 33.6979 155.652 28.6378 147.368 28.6378Z" stroke="white" stroke-width="0.00432558" stroke-miterlimit="10"/>
</svg>
