<svg width="180" height="36" viewBox="0 0 180 36" fill="none" xmlns="http://www.w3.org/2000/svg">
<path d="M3.77904 27.6106C1.47273 25.3147 0.320496 22.4385 0.320496 18.9818C0.330679 15.6001 1.48661 12.7566 3.78706 10.4509C6.08782 8.14455 8.94 6.9917 12.3427 6.9917C15.7784 6.9917 18.7262 8.06123 21.1878 10.2015L17.9776 13.7168C16.34 12.4325 14.462 11.7907 12.3427 11.7907C10.1817 11.8018 8.4398 12.4757 7.11785 13.8131C5.79683 15.1511 5.13555 16.8628 5.13555 18.95C5.14665 21.1869 5.81503 22.9625 7.14223 24.2788C8.46911 25.5956 10.2138 26.2537 12.3748 26.2537C14.537 26.2537 16.4045 25.6165 17.9776 24.343L21.1878 27.859C18.7374 29.999 15.7883 31.0688 12.3427 31.0688C8.94 31.0586 6.08504 29.9055 3.77904 27.6106Z" fill="white"/>
<path d="M59.2215 31.0687V6.99164H60.8267L71.2607 18.8697L81.7103 6.99164H83.3156V31.0687H78.5002L78.4838 17.1034L71.2607 25.1298L64.0365 17.1034V31.0687H59.2215Z" fill="white"/>
<path d="M92.8769 16.6227H99.6188C101.555 16.5903 102.55 15.7071 102.604 13.9741C102.55 12.3899 101.572 11.5666 99.6663 11.5024H92.8769V16.6227ZM88.061 31.0687V6.99164H98.5594C104.177 6.99164 106.987 9.30227 106.987 13.9257C106.987 18.7201 104.183 21.1171 98.5748 21.1171H92.8769V31.0687H88.061Z" fill="white"/>
<path d="M26.119 18.1756C26.0681 18.3255 26.0138 18.474 25.9644 18.6242C25.9644 18.6242 25.2213 20.7346 24.1345 25.5987C23.8698 26.9253 23.6704 28.2685 23.6025 29.6192C23.5056 31.508 23.4186 34.0917 25.7018 34.7437C25.8943 34.7983 26.0903 34.844 26.2853 34.8931L27.0318 35.0671C27.9214 35.2554 30.9115 35.6445 31.8196 35.7494L31.8351 31.3139L35.9046 23.223L26.119 18.1756Z" fill="white"/>
<path d="M42.8545 9.85861C42.7153 9.60773 42.5409 9.34205 42.328 9.10166C41.1443 7.51773 39.3462 6.63952 36.7357 6.32662C34.1813 6.01959 32.2724 7.69332 30.81 9.53923C29.5936 11.0772 28.5997 12.7707 27.7607 14.5487L37.7663 19.975L42.8545 9.85861Z" fill="white"/>
<path d="M44.3647 15.3796L41.2857 21.831L45.1343 23.9188L45.0524 22.0142C44.9367 19.7884 44.7187 17.5744 44.3647 15.3796Z" fill="white"/>
<path d="M31.782 35.8362C34.5281 36.056 39.8464 36.2016 42.4752 35.2675C44.301 34.6192 44.808 34.0826 45.0176 32.0534C45.1536 30.7395 45.1894 29.4259 45.1789 28.1125L39.4749 25.1706L35.7133 33.0532L31.782 35.8362Z" fill="white"/>
<path d="M48.5227 23.6792C48.2628 19.5788 47.8549 15.4979 47.0375 11.4703C46.9418 10.9985 46.8347 10.5298 46.7045 10.0681L46.8764 9.70803L51.0734 27.1004C51.0734 27.1004 51.07 27.0986 51.0694 27.0986L48.8612 25.9003C48.5544 25.6399 48.5452 24.0372 48.5227 23.6792ZM55.7952 30.0763C54.7414 24.1831 53.301 17.4114 51.8198 11.6129C51.3474 9.76481 50.8305 7.9263 50.0742 6.17636C49.3444 4.48967 48.2591 4.05087 46.5882 4.73746C46.0047 4.97784 45.4863 5.33517 44.9833 5.72367C44.7299 5.91962 44.5408 6.35132 44.1205 6.11032C43.7428 5.8937 43.8539 5.48268 43.8539 5.14355C43.8517 4.42302 43.7382 3.71884 43.5746 3.02825C42.8973 0.167421 39.1225 -1.00394 37.0155 1.00459C36.0475 1.92693 35.5976 3.03905 35.2171 4.32489C35.1477 4.5591 34.9613 5.31882 35.2908 5.21606C36.3681 4.88033 37.823 5.08183 37.823 5.08183C38.094 3.16124 38.6568 2.55705 40.2114 2.65363C41.0909 2.70825 41.8716 4.06538 41.5118 4.89761C41.3695 5.22748 41.114 5.13275 40.8743 5.13151C40.333 5.13028 39.6939 5.06733 38.5158 5.22964C39.4545 5.40862 39.5069 5.49039 39.859 5.59561C41.1174 5.97362 42.4415 6.9117 43.4666 8.25278C44.2476 9.27479 44.8549 10.531 45.1255 11.9542C45.1903 12.2964 45.2533 12.6386 45.3147 12.9808C45.772 15.5386 46.1176 18.1112 46.2309 20.7128C46.2867 21.9975 46.354 23.2824 46.4024 24.5667C46.457 26.0173 46.4848 27.467 46.4447 28.9158C46.4071 30.2565 46.3105 31.5979 46.1173 32.9359C46.034 33.5102 46.1864 33.5738 46.6379 33.3929C47.7142 32.9581 48.3798 32.2009 48.5276 30.9666C48.5646 30.6562 48.5822 30.342 48.5924 30.0239L52.4249 32.0009C53.2279 32.6147 54.0706 32.4379 54.8735 31.9102C55.5113 31.4905 55.9557 30.9789 55.7952 30.0763Z" fill="white"/>
<path d="M130.483 6.99164V30.9802H125.555V20.1904H114.995V30.9802H110.084V6.99164H114.995V15.5565H125.555V6.99164H130.483Z" fill="white"/>
<path d="M155.316 6.9917V20.0063C155.316 26.1791 151.374 30.9969 145.1 30.9969C139.007 30.9969 134.901 26.2627 134.901 20.0063V6.9917H139.828V19.7721C139.828 22.9837 141.405 26.363 145.117 26.363C148.615 26.363 150.389 23.2349 150.389 19.7721V6.9917H155.316Z" fill="white"/>
<path d="M171.244 26.4299C172.673 26.4299 174.201 25.4931 174.201 23.6697C174.201 21.9802 172.805 20.9261 171.261 20.9261H164.806V26.4299H171.244ZM164.806 11.4581V16.7107H169.717C170.998 16.5767 172.312 15.6569 172.312 14.0844C172.312 12.4615 170.916 11.4581 169.372 11.4581H164.806ZM175.334 18.0153C177.403 19.2034 179.013 21.1437 179.013 23.7703C179.013 28.1194 175.925 30.9633 171.868 30.9633H159.895V6.9917H169.668C173.626 6.9917 176.795 9.80192 176.795 14.1683C176.795 15.5732 176.254 16.8613 175.334 18.0153Z" fill="white"/>
</svg>
