<svg width="104" height="104" viewBox="0 0 104 104" fill="none" xmlns="http://www.w3.org/2000/svg">
<path d="M46.2144 44.5888C46.2144 44.5888 43.0193 40.355 44.6267 36.7447C44.6267 36.7447 46.2534 31.1853 52.8192 32.0457C56.0152 32.4984 58.7774 34.4727 58.9585 38.7247C58.9585 38.7247 59.2756 41.3091 57.2831 44.136C57.2831 44.136 55.8795 46.1737 55.6213 47.8265C55.6213 47.8265 55.4945 50.3169 52.9135 50.6268C50.8336 50.8765 48.7702 50.8151 47.8871 48.4377C47.0041 46.0605 47.0068 45.7802 46.2144 44.5888Z" fill="#7F9E5D"/>
<path d="M52.4397 45.2701C52.3425 45.2069 52.2853 45.1694 52.2853 45.1694L51.2381 44.951L50.6923 41.8492L54.1134 39.2056L54.8383 39.5503L54.8153 39.4946L49.8342 36.7446L49.1777 37.1625L47.0409 40.5631L45.3657 43.2078C45.8126 44.056 46.2145 44.5888 46.2145 44.5888C47.0069 45.7802 47.0041 46.0605 47.8872 48.4377C47.9785 48.6838 48.0832 48.9039 48.1987 49.1027L49.8342 46.717L52.4397 45.2701Z" fill="white"/>
<path d="M28.425 23.8373C28.425 25.557 27.0309 26.951 25.3112 26.951C23.5915 26.951 22.1974 25.557 22.1974 23.8373C22.1974 22.1176 23.5915 20.7235 25.3112 20.7235C27.0309 20.7235 28.425 22.1176 28.425 23.8373Z" fill="#C0E6CF"/>
<path d="M17.1323 49.4949C17.1323 51.2146 15.7382 52.6087 14.0186 52.6087C12.2989 52.6087 10.9048 51.2146 10.9048 49.4949C10.9048 47.7752 12.2989 46.3811 14.0186 46.3811C15.7382 46.3811 17.1323 47.7752 17.1323 49.4949Z" fill="#C2E6E6"/>
<path d="M28.3004 78.2662C28.3004 79.9858 26.9063 81.3799 25.1866 81.3799C23.467 81.3799 22.0729 79.9858 22.0729 78.2662C22.0729 76.5464 23.467 75.1524 25.1866 75.1524C26.9063 75.1524 28.3004 76.5464 28.3004 78.2662Z" fill="#C1A2CE"/>
<path d="M55.4525 89.5588C55.4525 91.2785 54.0584 92.6726 52.3387 92.6726C50.6189 92.6726 49.225 91.2785 49.225 89.5588C49.225 87.839 50.6189 86.445 52.3387 86.445C54.0584 86.445 55.4525 87.839 55.4525 89.5588Z" fill="#F7A7A6"/>
<path d="M81.3591 76.8547C81.3591 78.5744 79.9649 79.9685 78.2452 79.9685C76.5254 79.9685 75.1313 78.5744 75.1313 76.8547C75.1313 75.1348 76.5254 73.7408 78.2452 73.7408C79.9649 73.7408 81.3591 75.1348 81.3591 76.8547Z" fill="#EFCBA1"/>
<path d="M92.9009 49.5366C92.9009 51.2563 91.5067 52.6504 89.787 52.6504C88.0672 52.6504 86.6731 51.2563 86.6731 49.5366C86.6731 47.8167 88.0672 46.4227 89.787 46.4227C91.5067 46.4227 92.9009 47.8167 92.9009 49.5366Z" fill="#FEDD8E"/>
<path d="M81.3591 23.796C81.3591 25.5157 79.9649 26.9098 78.2452 26.9098C76.5254 26.9098 75.1313 25.5157 75.1313 23.796C75.1313 22.0761 76.5254 20.6822 78.2452 20.6822C79.9649 20.6822 81.3591 22.0761 81.3591 23.796Z" fill="#DEE2C2"/>
<path d="M54.9575 12.8355C54.9575 14.5552 53.5632 15.9493 51.8436 15.9493C50.1238 15.9493 48.7297 14.5552 48.7297 12.8355C48.7297 11.1156 50.1238 9.72161 51.8436 9.72161C53.5632 9.72161 54.9575 11.1156 54.9575 12.8355Z" fill="#96A876"/>
<g opacity="0.7">
<path d="M35.3418 29.9659C35.3418 29.9659 52.5828 21.2491 68.5436 29.7162C68.5436 29.7162 62.7097 21.0848 50.6048 21.7483C50.6048 21.7483 40.5682 22.2642 35.3418 29.9659Z" fill="#97A875"/>
</g>
<g opacity="0.7">
<path d="M53.7974 23.9662C53.7974 23.9662 72.2264 29.7629 77.7416 46.9683C77.7416 46.9683 79.5914 36.7157 70.4619 28.7394C70.4619 28.7394 62.9164 22.1013 53.7974 23.9662Z" fill="#DEE2C2"/>
</g>
<g opacity="0.7">
<path d="M72.273 33.7645C72.273 33.7645 81.0692 50.965 72.6758 66.9647C72.6758 66.9647 81.28 61.0912 80.5609 48.9895C80.5609 48.9895 79.9988 38.9554 72.273 33.7645Z" fill="#FEDD8E"/>
</g>
<g opacity="0.7">
<path d="M78.4408 53.3452C78.4408 53.3452 72.2077 71.6311 54.8763 76.7361C54.8763 76.7361 65.0817 78.8288 73.2729 69.8915C73.2729 69.8915 80.0884 62.5059 78.4408 53.3452Z" fill="#EFCBA1"/>
</g>
<g opacity="0.7">
<path d="M68.4499 71.2618C68.4499 71.2618 51.0841 79.7269 35.2481 71.0287C35.2481 71.0287 40.9557 79.7439 53.0691 79.2565C53.0691 79.2565 63.1121 78.8868 68.4499 71.2618Z" fill="#F7A7A6"/>
</g>
<g opacity="0.7">
<path d="M31.2022 68.1298C31.2022 68.1298 22.4763 50.8936 30.9347 34.9284C30.9347 34.9284 22.3066 40.7665 22.9766 52.8712C22.9766 52.8712 23.4976 62.9075 31.2022 68.1298Z" fill="#C2E6E6"/>
</g>
<path d="M53.9906 40.0292C53.6177 39.7745 53.5092 39.2845 53.7479 38.9346L55.0142 37.0813C55.2531 36.7313 55.7488 36.6542 56.122 36.9089C56.4949 37.1637 56.6035 37.6537 56.3646 38.0036L55.0984 39.857C54.8596 40.2068 54.3636 40.284 53.9906 40.0292Z" fill="white"/>
<path d="M52.6052 38.9534C52.2652 38.7212 52.1833 38.2494 52.4222 37.8997L53.6881 36.0462C53.9273 35.6963 54.3965 35.601 54.7365 35.8333C55.0765 36.0654 55.1582 36.5372 54.9193 36.887L53.6534 38.7405C53.4143 39.0904 52.9452 39.1857 52.6052 38.9534Z" fill="white"/>
<path d="M51.004 38.3047C50.6694 38.0763 50.5919 37.6075 50.831 37.2578L52.097 35.4043C52.3359 35.0543 52.8007 34.9561 53.1354 35.1845C53.4699 35.413 53.5474 35.8817 53.3084 36.2316L52.0423 38.085C51.8035 38.4349 51.3388 38.5333 51.004 38.3047Z" fill="white"/>
<path d="M49.4894 37.7161C49.1548 37.4877 49.0774 37.0189 49.3164 36.6691L50.5824 34.8157C50.8214 34.4657 51.2861 34.3674 51.6208 34.5959C51.9552 34.8244 52.0327 35.2931 51.7936 35.643L50.5276 37.4964C50.2887 37.8463 49.824 37.9445 49.4894 37.7161Z" fill="white"/>
<path d="M55.9398 47.5099L56.0246 47.3496L56.0679 47.3944C56.0997 47.427 56.0947 47.4554 56.0887 47.4693C56.0733 47.5062 56.0288 47.5094 56.0154 47.5094L55.9398 47.5099Z" fill="white"/>
<path d="M51.4797 32.0005C48.6823 32.0005 46.9805 33.2927 46.0455 34.3768C45.0309 35.553 44.6738 36.7455 44.6703 36.7574C43.6797 38.9829 44.4933 41.4308 45.3694 43.1173L47.0026 40.5389L49.1448 37.1298L49.8327 36.692L54.8511 39.4627L54.8734 39.5169L56.122 40.1107L56.1009 40.1522C55.6491 41.0373 56.3302 41.5646 56.3595 41.5866L58.1215 42.5985C59.1098 40.4662 58.9157 38.7475 58.9137 38.7303C58.7561 35.0364 56.5326 32.6176 52.8131 32.0905C52.3573 32.0309 51.9086 32.0005 51.4797 32.0005ZM45.362 43.2982L45.3255 43.229C44.4268 41.523 43.5686 39.0101 44.5855 36.7263C44.5868 36.7199 44.9482 35.5114 45.9745 34.3205C46.9219 33.2208 48.6462 31.9099 51.4797 31.9099C51.9124 31.9099 52.3652 31.9406 52.8253 32.0008C54.5436 32.2442 56.0044 32.9107 57.051 33.928C58.2614 35.1046 58.9185 36.7178 59.004 38.7228C59.0057 38.7369 59.2062 40.5037 58.1826 42.6816L58.1618 42.7262L56.3096 41.6621C56.2975 41.6533 55.5553 41.0823 55.9996 40.1527L54.8029 39.5836L54.7795 39.5266L49.8359 36.7974L49.2105 37.1952L47.0792 40.5872L45.362 43.2982Z" fill="white"/>
<path d="M48.2523 49.1044C48.8876 50.1789 49.919 50.6797 51.4954 50.6797H51.4957C51.9025 50.6797 52.3512 50.6487 52.908 50.5818C55.4202 50.2803 55.5749 47.8486 55.5761 47.8242C55.602 47.6569 55.6407 47.48 55.6917 47.2943C55.6647 47.2826 55.6358 47.2703 55.6039 47.257C55.0982 47.0463 53.0827 45.7432 52.4377 45.3229L49.8656 46.7514L48.2523 49.1044ZM51.4957 50.7704H51.4954C49.8715 50.7703 48.8115 50.2477 48.1595 49.1253L48.1451 49.1006L49.8029 46.6827L49.8121 46.6774L52.4413 45.2173L52.4643 45.2321C53.0813 45.6344 55.1341 46.9633 55.6386 47.1733C55.6858 47.1929 55.7264 47.2105 55.764 47.2273L55.8 47.2431L55.7893 47.2809C55.7342 47.4773 55.6927 47.663 55.666 47.8334C55.6653 47.8539 55.5078 50.361 52.9188 50.6716C52.3583 50.739 51.906 50.7704 51.4957 50.7704Z" fill="white"/>
<path d="M35.6823 59.244H35.1926V61.6868H35.6823V59.244Z" fill="#6D6E6E"/>
<path d="M38.4749 59.6744H38.4695L37.8076 61.6868H37.3395L36.6831 59.6744L36.6777 59.6798V61.6868H36.2095V59.244H36.9897L37.5709 61.0949H37.5762L38.1574 59.244H38.9429V61.6868H38.4749V59.6744Z" fill="#6D6E6E"/>
<path d="M40.4711 59.7337L40.1213 60.7452H40.8316L40.4818 59.7337H40.4711ZM40.9715 61.1272H39.9815L39.7662 61.6869H39.2604L40.2128 59.244H40.7616L41.7193 61.6869H41.1814L40.9715 61.1272Z" fill="#6D6E6E"/>
<path d="M43.6511 61.6923C43.5183 61.7173 43.3855 61.73 43.2529 61.73C43.0556 61.73 42.8753 61.7049 42.7121 61.6547C42.5488 61.6045 42.4082 61.5291 42.2897 61.4288C42.1714 61.3282 42.0799 61.2009 42.0154 61.0466C41.9508 60.8924 41.9185 60.7131 41.9185 60.5086C41.9185 60.0853 42.0359 59.7625 42.2709 59.5401C42.5058 59.3177 42.8333 59.2064 43.2529 59.2064C43.3964 59.2064 43.5264 59.2154 43.643 59.2333C43.7596 59.2512 43.8698 59.2746 43.9739 59.3033L43.9417 59.7177C43.8482 59.6746 43.7444 59.6423 43.6295 59.6208C43.5147 59.5992 43.409 59.5884 43.3121 59.5884C43.1686 59.5884 43.0422 59.6109 42.9327 59.6556C42.8233 59.7006 42.731 59.7634 42.6557 59.8441C42.5803 59.9248 42.5229 60.0181 42.4834 60.1238C42.4439 60.2297 42.4243 60.3454 42.4243 60.4708C42.4243 60.5965 42.4431 60.7122 42.4808 60.818C42.5184 60.9238 42.5731 61.0161 42.6448 61.0951C42.7166 61.174 42.8036 61.235 42.9059 61.278C43.008 61.3211 43.1237 61.3426 43.2529 61.3426C43.3892 61.3426 43.4968 61.3317 43.5757 61.3103V60.6753H43.0592V60.288H44.0439V61.6009C43.9148 61.6368 43.7837 61.6673 43.6511 61.6923Z" fill="#6D6E6E"/>
<path d="M45.0069 59.244H44.5172V61.6868H45.0069V59.244Z" fill="#6D6E6E"/>
<path d="M45.9809 59.8628H45.9756V61.6869H45.5074V59.244H46.1101L47.0409 61.0735H47.0463V59.244H47.5144V61.6869H46.9172L45.9809 59.8628Z" fill="#6D6E6E"/>
<path d="M48.0578 59.244H49.4945V59.6313H48.5475V60.234H49.4138V60.6162H48.5475V61.3048H49.5053V61.6868H48.0578V59.244Z" fill="#6D6E6E"/>
<path d="M52.3786 61.6869H51.8889V59.6315H51.1894V59.2441H53.0781V59.6315H52.3786V61.6869Z" fill="#6D6E6E"/>
<path d="M54.859 60.6162H53.8797V61.6869H53.3901V59.244H53.8797V60.2342H54.859V59.244H55.3486V61.6869H54.859V60.6162Z" fill="#6D6E6E"/>
<path d="M56.8713 59.7337L56.5214 60.7452H57.2319L56.882 59.7337H56.8713ZM57.3717 61.1272H56.3815L56.1664 61.6869H55.6605L56.6131 59.244H57.1619L58.1195 61.6869H57.5815L57.3717 61.1272Z" fill="#6D6E6E"/>
<path d="M58.8837 59.244H58.394V61.6868H58.8837V59.244Z" fill="#6D6E6E"/>
<path d="M59.411 59.244H59.9006V61.3048H60.8476V61.6868H59.411V59.244Z" fill="#6D6E6E"/>
<path d="M62.1175 59.7337L61.7676 60.7452H62.4781L62.1282 59.7337H62.1175ZM62.6179 61.1272H61.6278L61.4127 61.6869H60.9067L61.8593 59.244H62.4081L63.3657 61.6869H62.8277L62.6179 61.1272Z" fill="#6D6E6E"/>
<path d="M64.1297 59.8628H64.1244V61.6869H63.6562V59.244H64.2589L65.1898 61.0735H65.1951V59.244H65.6633V61.6869H65.0661L64.1297 59.8628Z" fill="#6D6E6E"/>
<path d="M67.7726 60.4655C67.7726 60.3328 67.75 60.2144 67.7053 60.1102C67.6605 60.0062 67.6003 59.9193 67.5251 59.8494C67.4497 59.7794 67.3637 59.7256 67.2667 59.688C67.1699 59.6503 67.0694 59.6315 66.9655 59.6315H66.6963V61.3048H66.9655C67.0694 61.3048 67.1699 61.286 67.2667 61.2484C67.3637 61.2106 67.4497 61.1561 67.5251 61.0842C67.6003 61.0126 67.6605 60.9247 67.7053 60.8207C67.75 60.7167 67.7726 60.5981 67.7726 60.4655ZM68.2837 60.4655C68.2837 60.7058 68.2451 60.9049 68.168 61.0627C68.0909 61.2206 67.9878 61.346 67.8586 61.4393C67.7295 61.5326 67.5796 61.5973 67.4094 61.6331C67.239 61.669 67.0604 61.6869 66.8739 61.6869H66.2068V59.244H66.8739C67.0604 59.244 67.239 59.262 67.4094 59.2978C67.5796 59.3338 67.7295 59.3983 67.8586 59.4916C67.9878 59.5849 68.0909 59.7096 68.168 59.8655C68.2451 60.0216 68.2837 60.2216 68.2837 60.4655Z" fill="#6D6E6E"/>
<path d="M44.2167 64.5319H44.2113L43.5495 66.5443H43.0813L42.4249 64.5319L42.4195 64.5373V66.5443H41.9514V64.1015H42.7315L43.3127 65.9524H43.3181L43.8992 64.1015H44.6847V66.5443H44.2167V64.5319Z" fill="#6D6E6E"/>
<path d="M47.0146 65.3176C47.0146 65.21 47.0019 65.1041 46.9768 65.0001C46.9518 64.8961 46.9114 64.8028 46.8559 64.7203C46.8002 64.6378 46.7294 64.5715 46.6433 64.5212C46.5572 64.471 46.4531 64.4459 46.3312 64.4459C46.2092 64.4459 46.1042 64.471 46.0164 64.5212C45.9285 64.5715 45.8567 64.6378 45.8012 64.7203C45.7455 64.8028 45.7052 64.8961 45.6801 65.0001C45.655 65.1041 45.6424 65.21 45.6424 65.3176C45.6424 65.4288 45.655 65.5374 45.6801 65.6431C45.7052 65.7489 45.7448 65.8432 45.7985 65.9257C45.8523 66.0081 45.9231 66.0745 46.0111 66.1246C46.0989 66.175 46.2056 66.2 46.3312 66.2C46.4567 66.2 46.5626 66.175 46.6486 66.1246C46.7347 66.0745 46.8047 66.0081 46.8585 65.9257C46.9123 65.8432 46.9518 65.7489 46.9768 65.6431C47.0019 65.5374 47.0146 65.4288 47.0146 65.3176ZM47.5257 65.3176C47.5257 65.5006 47.4997 65.67 47.4478 65.826C47.3957 65.9821 47.3186 66.1166 47.2163 66.2296C47.1141 66.3425 46.9894 66.4306 46.8424 66.4932C46.6952 66.5559 46.525 66.5874 46.3312 66.5874C46.1339 66.5874 45.9607 66.5559 45.8119 66.4932C45.6631 66.4306 45.5384 66.3435 45.438 66.2323C45.3375 66.1211 45.2623 65.9874 45.2119 65.8314C45.1618 65.6754 45.1367 65.5042 45.1367 65.3176C45.1367 65.1312 45.1626 64.9608 45.2147 64.8064C45.2666 64.6521 45.343 64.5205 45.4434 64.411C45.5438 64.3015 45.6684 64.2163 45.8174 64.1553C45.9662 64.0944 46.1375 64.0639 46.3312 64.0639C46.5214 64.0639 46.6907 64.0944 46.8397 64.1553C46.9885 64.2163 47.1141 64.3025 47.2163 64.4136C47.3186 64.5248 47.3957 64.6576 47.4478 64.8117C47.4997 64.9661 47.5257 65.1346 47.5257 65.3176Z" fill="#6D6E6E"/>
<path d="M48.5643 66.5444L47.7249 64.1016H48.2521L48.8763 66.0225H48.8871L49.5059 64.1016H49.9902L49.1668 66.5444H48.5643Z" fill="#6D6E6E"/>
<path d="M50.313 64.1015H51.7496V64.4888H50.8027V65.0915H51.669V65.4736H50.8027V66.1623H51.7605V66.5443H50.313V64.1015Z" fill="#6D6E6E"/>
<path d="M54.5206 64.5319H54.5153L53.8534 66.5443H53.3854L52.7289 64.5319L52.7234 64.5373V66.5443H52.2554V64.1015H53.0355L53.6166 65.9524H53.622L54.2032 64.1015H54.9887V66.5443H54.5206V64.5319Z" fill="#6D6E6E"/>
<path d="M55.5591 64.1015H56.9957V64.4888H56.0488V65.0915H56.9151V65.4736H56.0488V66.1623H57.0065V66.5443H55.5591V64.1015Z" fill="#6D6E6E"/>
<path d="M57.948 64.7202H57.9427V66.5444H57.4745V64.1015H58.0772L59.0081 65.931H59.0134V64.1015H59.4816V66.5444H58.8844L57.948 64.7202Z" fill="#6D6E6E"/>
<path d="M60.9559 66.5444H60.4662V64.4889H59.7667V64.1016H61.6554V64.4889H60.9559V66.5444Z" fill="#6D6E6E"/>
<path d="M58.1416 42.6623L56.3322 41.6229C56.3322 41.6229 55.585 41.0628 56.0606 40.1315L54.8382 39.5503L55.0563 40.0833L53.004 43.3663L52.688 45.1323L52.4396 45.2701C53.0239 45.6511 55.1088 47.0018 55.6214 47.2152C55.668 47.2347 55.7083 47.2522 55.7458 47.2687C56.1727 45.7489 57.283 44.1361 57.283 44.1361C57.638 43.6325 57.9185 43.1372 58.1416 42.6623Z" fill="#E2E2E2"/>
<path d="M50.6922 41.8492L51.238 44.951L52.2852 45.1694C52.2852 45.1694 52.3424 45.2069 52.4395 45.2701L52.6879 45.1321L53.004 43.3661L55.0562 40.0832L54.8381 39.5503L54.1134 39.2056L50.6922 41.8492Z" fill="white"/>
<path d="M51.7476 52.5813H51.7474C50.8378 52.5811 49.1552 51.8234 49.0842 51.7911C48.9703 51.7394 48.9198 51.6052 48.9714 51.4914C49.0231 51.3776 49.1573 51.3272 49.2709 51.3786C49.2876 51.3861 50.9356 52.1283 51.7474 52.1284H51.7476C52.7469 52.1284 54.1832 51.243 54.1977 51.2341C54.3037 51.1681 54.4434 51.2006 54.5094 51.307C54.5754 51.4131 54.5428 51.5527 54.4366 51.6186C54.3734 51.6581 52.8748 52.5813 51.7476 52.5813Z" fill="#8B9A72"/>
<path d="M51.7476 54.218H51.7474C50.8378 54.2177 49.1552 53.4601 49.0842 53.4277C48.9703 53.376 48.9198 53.242 48.9714 53.1283C49.0231 53.0143 49.1573 52.9639 49.2709 53.0154C49.2876 53.0229 50.9356 53.765 51.7474 53.765H51.7476C52.7469 53.765 54.1832 52.8799 54.1977 52.871C54.3037 52.8048 54.4434 52.8372 54.5094 52.9437C54.5754 53.0499 54.5428 53.1894 54.4366 53.2553C54.3734 53.2947 52.8748 54.218 51.7476 54.218Z" fill="#8B9A72"/>
<path d="M52.8401 38.2455C53.1084 37.7628 53.6397 37.5462 54.0269 37.7614L56.0787 38.9025C56.4659 39.1177 56.5624 39.6833 56.294 40.166C56.0257 40.6485 55.4943 40.8651 55.107 40.6499L53.0554 39.509C52.6682 39.2937 52.5715 38.7281 52.8401 38.2455Z" fill="#E2E2E2"/>
<path d="M51.7642 37.3029C51.5432 37.6555 51.0728 37.7589 50.7141 37.5338L48.8125 36.3413C48.4535 36.1163 48.3417 35.648 48.5629 35.2954C48.784 34.9428 49.2543 34.8394 49.6131 35.0644L51.5146 36.257C51.8736 36.4821 51.9853 36.9503 51.7642 37.3029Z" fill="#E2E2E2"/>
<path d="M50.9981 38.8189C50.7959 39.1411 50.3098 39.2001 49.912 38.9508L47.8046 37.6292C47.4068 37.3797 47.2481 36.9164 47.4501 36.5942C47.6523 36.2719 48.1385 36.2128 48.5362 36.4623L50.6437 37.7837C51.0415 38.0332 51.2 38.4967 50.9981 38.8189Z" fill="#E2E2E2"/>
<path d="M49.9306 39.8667C49.7481 40.1577 49.3205 40.218 48.9751 40.0016L47.1465 38.8547C46.8012 38.6383 46.6693 38.227 46.8517 37.9361C47.0341 37.6451 47.462 37.5847 47.8071 37.8012L49.6359 38.948C49.9809 39.1644 50.1129 39.5758 49.9306 39.8667Z" fill="#E2E2E2"/>
<path d="M48.9395 41.0198C48.757 41.3108 48.37 41.3966 48.0751 41.2117L46.5122 40.2317C46.2172 40.0466 46.126 39.6608 46.3083 39.3699C46.4908 39.0789 46.8779 38.993 47.1729 39.178L48.7358 40.1582C49.0307 40.343 49.1218 40.7289 48.9395 41.0198Z" fill="#E2E2E2"/>
<path d="M51.7504 44.6638C51.4954 44.174 51.629 43.6 52.0487 43.3819L54.2714 42.2266C54.691 42.0084 55.2374 42.2286 55.4923 42.7186C55.747 43.2084 55.6132 43.7824 55.1937 44.0005L52.9711 45.156C52.5515 45.3741 52.005 45.1539 51.7504 44.6638Z" fill="white"/>
<g opacity="0.7">
<path d="M25.3112 47.9171C25.3112 47.9171 31.4765 29.6081 48.789 24.4392C48.789 24.4392 38.5759 22.3841 30.4178 31.3518C30.4178 31.3518 23.6298 38.7626 25.3112 47.9171Z" fill="#C0E6CF"/>
</g>
<g opacity="0.7">
<path d="M47.1516 77.0857C47.1516 77.0857 29.334 69.6185 25.4247 51.9789C25.4247 51.9789 22.6397 62.0175 30.9969 70.7998C30.9969 70.7998 37.8997 78.104 47.1516 77.0857Z" fill="#C1A2CE"/>
</g>
</svg>
