<svg width="129" height="80" viewBox="0 0 129 80" fill="none" xmlns="http://www.w3.org/2000/svg">
<path d="M5.6619 24H17.0441C27.7864 24 33.683 29.6676 32.722 39.9989C31.7632 50.4673 24.4946 55.9979 13.2451 55.9979H0.634277L5.6619 24ZM13.7074 49.2772C19.101 49.2772 22.9407 45.6665 23.6727 40.4099L23.8097 39.451C24.5867 34.0574 21.7978 30.7185 16.7252 30.7185H13.3863L10.4626 49.2772H13.7074ZM34.5969 43.1987C35.8319 35.4272 40.7675 31.6795 48.6311 31.6795C55.5786 31.6795 59.2813 35.3822 58.2754 41.739L57.5905 46.0346H42.4134C42.0025 48.6865 43.0084 50.1933 47.3511 50.1933H56.9505L56.0344 56H45.7609C37.6148 55.9979 33.317 51.1522 34.5969 43.1987V43.1987ZM51.3728 41.4158C51.8758 38.353 50.9619 36.7071 48.081 36.7071C45.4313 36.7071 43.6484 38.216 43.1454 41.4158H51.3728ZM62.526 32.2274H71.0745L69.5656 41.6448H70.4345L79.5759 32.2274H87.8953L87.6214 33.9183L77.4291 43.9778L84.4665 53.8511L84.1476 55.9914H75.8282L69.6576 46.666H68.7886L67.3268 55.9979H58.7783L62.526 32.2274ZM85.2905 40.8679H95.5748L94.5688 47.1754H84.2846L85.2905 40.8679ZM101.242 24H112.625C123.367 24 129.268 29.6676 128.305 39.9989C127.344 50.4673 120.075 55.9979 108.828 55.9979H96.2148L101.242 24ZM109.288 49.2772C114.681 49.2772 118.521 45.6665 119.253 40.4099L119.39 39.451C120.167 34.0574 117.378 30.7185 112.306 30.7185H108.969L106.043 49.2772H109.288Z" fill="white"/>
</svg>
