<svg width="195" height="64" viewBox="0 0 195 64" fill="none" xmlns="http://www.w3.org/2000/svg">
<path d="M20.7123 29.4057V35.1912H24.8446C22.9477 38.2772 19.5922 40.1699 15.952 40.1699C10.1986 40.1699 5.5168 35.4888 5.5168 29.7347C5.5168 23.9806 10.1986 19.2995 15.952 19.2995C19.7901 19.2995 23.3109 21.4039 25.1408 24.7922L25.2384 24.9744H30.8786L30.7141 24.511C28.5018 18.262 22.5696 14.0635 15.952 14.0635C7.31197 14.0635 0.280762 21.094 0.280762 29.7347C0.280762 38.3768 7.31197 45.4073 15.952 45.4073C22.5682 45.4073 28.5018 41.2088 30.7141 34.9585C31.3161 33.2575 31.6219 31.506 31.6233 29.7538V29.4057H20.7123Z" fill="white"/>
<path d="M46.0016 25.6685V23.2072H40.6304V45.4079H46.0016V35.7843C46.0016 34.2028 46.3299 32.8601 46.9858 31.7557C47.6418 30.6527 48.4861 29.8309 49.5161 29.2944C50.5441 28.7572 51.6267 28.4883 52.7611 28.4883C52.9986 28.4883 53.357 28.5183 53.8348 28.5784V22.7594C52.3133 22.7594 50.8799 23.0126 49.5373 23.5198C48.194 24.0276 47.0159 24.7436 46.0016 25.6685Z" fill="white"/>
<path d="M79.8585 37.5507C79.3056 38.5507 78.5452 39.3411 77.5767 39.9233C76.6067 40.5056 75.5535 40.7957 74.4211 40.7957C73.286 40.7957 72.2355 40.5056 71.2649 39.9233C70.2943 39.3411 69.5339 38.5507 68.983 37.5507C68.4308 36.5514 68.1544 35.4702 68.1544 34.3057C68.1544 33.142 68.4308 32.0608 68.983 31.0608C69.5339 30.0615 70.2943 29.2704 71.2649 28.6888C72.2355 28.1066 73.286 27.8151 74.4211 27.8151C75.5535 27.8151 76.6067 28.1066 77.5767 28.6888C78.5452 29.2704 79.3056 30.0615 79.8585 31.0608C80.4114 32.0608 80.6872 33.142 80.6872 34.3057C80.6872 35.4702 80.4114 36.5514 79.8585 37.5507ZM80.5527 25.936C79.5984 24.9217 78.4947 24.1388 77.2415 23.5859C75.9876 23.0344 74.6743 22.7579 73.3024 22.7579C71.3925 22.7579 69.6322 23.2733 68.0199 24.3019C66.4097 25.3319 65.1333 26.7346 64.1927 28.5093C63.2535 30.2847 62.7832 32.2184 62.7832 34.3057C62.7832 36.3951 63.2535 38.3268 64.1927 40.1029C65.1333 41.8782 66.4097 43.2802 68.0199 44.3102C69.6322 45.3396 71.3925 45.8542 73.3024 45.8542C74.6743 45.8542 75.9876 45.5778 77.2415 45.0263C78.4947 44.4747 79.5984 43.6912 80.5527 42.6762V45.4065H85.9239V23.2057H80.5527V25.936Z" fill="white"/>
<path d="M111.847 37.5414C111.296 38.5428 110.536 39.3339 109.568 39.9182C108.599 40.5025 107.548 40.7946 106.414 40.7966C105.279 40.7987 104.228 40.5106 103.256 39.9305C102.286 39.3496 101.523 38.5605 100.97 37.5619C100.415 36.5633 100.137 35.4821 100.136 34.3183C100.134 33.1545 100.407 32.0726 100.958 31.0713C101.508 30.0713 102.268 29.2789 103.235 28.6953C104.204 28.1117 105.255 27.8182 106.389 27.8161C107.524 27.8141 108.576 28.1035 109.548 28.6837C110.517 29.2632 111.281 30.0529 111.835 31.0515C112.388 32.0508 112.666 33.1313 112.668 34.2951C112.67 35.4596 112.396 36.5415 111.847 37.5414ZM112.784 24.2906C111.17 23.2647 109.409 22.7528 107.499 22.7569C106.127 22.7596 104.815 23.0381 103.561 23.5917C102.31 24.1466 101.207 24.9322 100.254 25.9479L100.249 23.2176L94.8784 23.2278L94.9378 55.5L100.309 55.4898L100.286 42.6887C101.242 43.7017 102.348 44.4825 103.601 45.032C104.856 45.5815 106.17 45.8552 107.542 45.8532C109.451 45.8491 111.211 45.331 112.821 44.2989C114.432 43.2662 115.704 41.8621 116.641 40.0847C117.577 38.3073 118.043 36.3599 118.04 34.2405C118.035 32.1518 117.562 30.2283 116.62 28.4687C115.676 26.7103 114.399 25.3179 112.784 24.2906Z" fill="white"/>
<path d="M143.934 37.5518C143.381 38.5518 142.619 39.3422 141.65 39.9244C140.68 40.5067 139.629 40.7968 138.494 40.7968C137.359 40.7968 136.309 40.5067 135.338 39.9244C134.369 39.3422 133.607 38.5518 133.056 37.5518C132.504 36.5525 132.227 35.4713 132.227 34.3068C132.227 33.143 132.504 32.0618 133.056 31.0619C133.607 30.0626 134.369 29.2715 135.338 28.6899C136.309 28.1077 137.359 27.8162 138.494 27.8162C139.629 27.8162 140.68 28.1077 141.65 28.6899C142.619 29.2715 143.381 30.0626 143.934 31.0619C144.484 32.0618 144.76 33.143 144.76 34.3068C144.76 35.4713 144.484 36.5525 143.934 37.5518ZM144.895 24.303C143.283 23.2744 141.522 22.759 139.613 22.759C138.24 22.759 136.928 23.0355 135.674 23.587C134.422 24.1399 133.317 24.9228 132.362 25.9371V23.2068H126.991V55.479H132.362V42.6773C133.317 43.6922 134.422 44.4758 135.674 45.0274C136.928 45.5789 138.24 45.8553 139.613 45.8553C141.522 45.8553 143.283 45.3407 144.895 44.3113C146.508 43.2813 147.782 41.8793 148.723 40.104C149.662 38.3279 150.132 36.3812 150.132 34.2625C150.132 32.1738 149.662 30.2496 148.723 28.4879C147.782 26.7282 146.508 25.333 144.895 24.303Z" fill="white"/>
<path d="M164.454 23.207H159.083V45.4078H164.454V23.207Z" fill="white"/>
<path d="M185.357 33.1422L194.175 23.2503H186.97L184.775 25.7083L178.778 32.4262V14.0745H173.407V45.4067H178.778V40.4833L181.688 37.2151L184.775 41.3399L187.819 45.4067H194.533L185.357 33.1422Z" fill="white"/>
</svg>
