<svg width="334" height="72" viewBox="0 0 334 72" fill="none" xmlns="http://www.w3.org/2000/svg">
<g clip-path="url(#clip0_1136_8217)">
<path d="M138.684 14.4V57.6H131.277V23.7H131.178L117.943 57.6H113.005L99.4733 23.7H99.3746V57.6H92.5596V14.4H103.227L115.474 46.4H115.671L128.61 14.4H138.684ZM144.808 17.7C144.808 16.5 145.203 15.5 146.092 14.7C146.981 13.9 147.968 13.5 149.154 13.5C150.438 13.5 151.524 13.9 152.314 14.7C153.104 15.5 153.598 16.5 153.598 17.7C153.598 18.9 153.203 19.9 152.314 20.7C151.425 21.5 150.438 21.9 149.154 21.9C147.87 21.9 146.882 21.5 146.092 20.7C145.302 19.8 144.808 18.8 144.808 17.7ZM152.808 26.6V57.6H145.598V26.6H152.808ZM174.636 52.3C175.722 52.3 176.908 52.1 178.192 51.5C179.475 51 180.661 50.3 181.747 49.5V56.3C180.562 57 179.278 57.5 177.796 57.8C176.315 58.1 174.735 58.3 172.957 58.3C168.413 58.3 164.759 56.9 161.994 54C159.129 51.1 157.747 47.4 157.747 43C157.747 38 159.228 33.9 162.092 30.7C164.957 27.5 169.006 25.9 174.34 25.9C175.722 25.9 177.105 26.1 178.389 26.4C179.772 26.7 180.858 27.2 181.648 27.6V34.6C180.562 33.8 179.377 33.1 178.29 32.7C177.105 32.3 175.92 32 174.735 32C171.87 32 169.599 32.9 167.821 34.8C166.043 36.7 165.253 39.2 165.253 42.4C165.253 45.5 166.142 48 167.821 49.7C169.5 51.4 171.772 52.3 174.636 52.3ZM202.192 26.1C202.785 26.1 203.279 26.1 203.772 26.2C204.266 26.3 204.661 26.4 204.958 26.5V33.9C204.563 33.6 204.069 33.3 203.279 33.1C202.488 32.9 201.698 32.7 200.612 32.7C198.834 32.7 197.353 33.5 196.167 35C194.982 36.5 194.291 38.8 194.291 42V57.6H187.081V26.6H194.291V31.5H194.389C195.081 29.8 196.069 28.5 197.353 27.5C198.735 26.6 200.316 26.1 202.192 26.1ZM205.353 42.6C205.353 37.5 206.834 33.4 209.6 30.4C212.464 27.4 216.415 25.9 221.452 25.9C226.193 25.9 229.946 27.3 232.613 30.2C235.279 33.1 236.662 37 236.662 41.9C236.662 46.9 235.181 50.9 232.415 53.9C229.551 56.9 225.699 58.4 220.761 58.4C216.02 58.4 212.267 57 209.501 54.2C206.736 51.3 205.353 47.4 205.353 42.6ZM212.859 42.3C212.859 45.5 213.55 48 215.032 49.7C216.514 51.4 218.588 52.3 221.254 52.3C223.822 52.3 225.897 51.5 227.279 49.7C228.662 48 229.353 45.5 229.353 42.1C229.353 38.8 228.662 36.3 227.279 34.5C225.897 32.8 223.822 31.9 221.353 31.9C218.686 31.9 216.711 32.8 215.23 34.6C213.55 36.5 212.859 39 212.859 42.3ZM247.428 34.8C247.428 35.8 247.724 36.7 248.416 37.3C249.107 37.9 250.49 38.6 252.761 39.5C255.626 40.7 257.7 42 258.786 43.4C259.972 44.9 260.564 46.6 260.564 48.7C260.564 51.6 259.478 53.9 257.206 55.7C255.033 57.5 251.971 58.3 248.218 58.3C246.934 58.3 245.551 58.1 243.971 57.8C242.391 57.5 241.107 57.1 240.02 56.6V49.4C241.304 50.3 242.786 51.1 244.267 51.6C245.749 52.1 247.132 52.4 248.416 52.4C249.996 52.4 251.28 52.2 251.971 51.7C252.761 51.2 253.156 50.5 253.156 49.4C253.156 48.4 252.761 47.6 251.971 46.8C251.181 46.1 249.601 45.3 247.428 44.4C244.761 43.3 242.885 42 241.798 40.6C240.712 39.2 240.119 37.4 240.119 35.2C240.119 32.4 241.206 30.1 243.378 28.3C245.551 26.5 248.416 25.6 251.873 25.6C252.959 25.6 254.144 25.7 255.428 26C256.712 26.3 257.897 26.6 258.786 26.9V34C257.799 33.4 256.712 32.8 255.428 32.3C254.144 31.8 252.86 31.6 251.675 31.6C250.292 31.6 249.206 31.9 248.514 32.4C247.823 33.1 247.428 33.8 247.428 34.8ZM263.626 42.6C263.626 37.5 265.107 33.4 267.873 30.4C270.737 27.4 274.688 25.9 279.725 25.9C284.466 25.9 288.219 27.3 290.886 30.2C293.553 33.1 294.935 37 294.935 41.9C294.935 46.9 293.454 50.9 290.688 53.9C287.824 56.9 283.972 58.4 279.034 58.4C274.293 58.4 270.54 57 267.774 54.2C265.107 51.3 263.626 47.4 263.626 42.6ZM271.132 42.3C271.132 45.5 271.824 48 273.305 49.7C274.787 51.4 276.861 52.3 279.528 52.3C282.096 52.3 284.17 51.5 285.552 49.7C286.935 48 287.627 45.5 287.627 42.1C287.627 38.8 286.935 36.3 285.552 34.5C284.17 32.8 282.096 31.9 279.626 31.9C276.96 31.9 274.984 32.8 273.503 34.6C271.922 36.5 271.132 39 271.132 42.3ZM318.936 32.6H308.17V57.6H300.862V32.6H295.726V26.6H300.862V22.3C300.862 19.1 301.948 16.4 304.022 14.3C306.096 12.2 308.763 11.2 312.022 11.2C312.911 11.2 313.701 11.3 314.393 11.3C315.084 11.3 315.677 11.5 316.171 11.7V18C315.973 17.9 315.479 17.7 314.887 17.5C314.294 17.3 313.603 17.2 312.812 17.2C311.331 17.2 310.146 17.7 309.356 18.6C308.565 19.5 308.17 21 308.17 22.8V26.5H318.936V19.5L326.146 17.3V26.5H333.455V32.5H326.146V47C326.146 48.9 326.541 50.2 327.134 51C327.825 51.8 328.912 52.2 330.393 52.2C330.788 52.2 331.282 52.1 331.875 51.9C332.467 51.7 332.961 51.5 333.356 51.2V57.2C332.862 57.5 332.171 57.7 331.085 57.9C329.998 58.1 329.01 58.2 327.924 58.2C324.862 58.2 322.59 57.4 321.109 55.8C319.627 54.2 318.837 51.7 318.837 48.4L318.936 32.6Z" fill="white"/>
<path d="M33.7929 0H0.0141602V34.2H33.7929V0Z" fill="#F25022"/>
<path d="M71.1273 0H37.3486V34.2H71.1273V0Z" fill="#7FBA00"/>
<path d="M33.7929 37.7999H0.0141602V71.9999H33.7929V37.7999Z" fill="#00A4EF"/>
<path d="M71.1273 37.7999H37.3486V71.9999H71.1273V37.7999Z" fill="#FFB900"/>
</g>
<defs>
<clipPath id="clip0_1136_8217">
<rect width="333.441" height="72" fill="white" transform="translate(0.0141602)"/>
</clipPath>
</defs>
</svg>
