<svg width="313" height="72" viewBox="0 0 313 72" fill="none" xmlns="http://www.w3.org/2000/svg">
<path d="M31.5458 28.6659C31.5458 27.2634 32.0201 26.0878 32.9689 25.1391C33.9588 24.1904 35.1345 23.716 36.4957 23.716H37.1144C37.5269 23.716 37.7332 23.9223 37.7332 24.3347V63.3154C37.7332 63.7279 37.5269 63.9341 37.1144 63.9341H36.4957C35.1345 63.9341 33.9588 63.4598 32.9689 62.511C32.0201 61.521 31.5458 60.3454 31.5458 58.9842V57.4992C30.6383 58.3242 29.6277 59.1286 28.5139 59.9123C27.4414 60.6961 26.3071 61.3973 25.1109 62.016C23.9146 62.5935 22.6771 63.0679 21.3984 63.4391C20.1197 63.8104 18.841 63.996 17.5622 63.996C15.5823 63.996 13.726 63.6248 11.9936 62.8823C10.2611 62.1398 8.75548 61.1498 7.47675 59.9123C6.23927 58.6336 5.24929 57.128 4.5068 55.3955C3.76431 53.663 3.39307 51.8068 3.39307 49.8269V24.3347C3.39307 23.9223 3.59931 23.716 4.01181 23.716H4.63055C5.99178 23.716 7.14676 24.211 8.09549 25.201C9.08548 26.1497 9.58047 27.3047 9.58047 28.6659V49.8269C9.58047 50.9406 9.78672 51.9924 10.1992 52.9824C10.6117 53.9312 11.1686 54.7768 11.8698 55.5193C12.6123 56.2205 13.4579 56.7774 14.4066 57.1899C15.3966 57.6024 16.4485 57.8086 17.5622 57.8086C19.0472 57.8086 20.5734 57.3961 22.1409 56.5711C23.7496 55.7461 25.214 54.7768 26.534 53.663C27.8539 52.5493 28.9677 51.4562 29.8752 50.3837C30.8239 49.27 31.3808 48.445 31.5458 47.9088V28.6659Z" fill="white"/>
<path d="M40.8336 18.8898H19.054C17.7752 18.8898 16.6821 18.4361 15.7746 17.5286C14.8672 16.6211 14.4134 15.528 14.4134 14.2493V8.86624C14.4134 8.53624 14.5372 8.35062 14.7847 8.30937L15.094 8.2475C15.5065 8.12375 15.919 8.06187 16.3315 8.06187C17.3627 8.06187 18.2496 8.43312 18.9921 9.17561C19.7346 9.87684 20.1058 10.7637 20.1058 11.8362V12.6406C20.1058 13.0118 20.2914 13.1974 20.6627 13.1974H36.7499C38.0699 13.1974 39.1837 13.6512 40.0911 14.5586C40.9986 15.4661 41.4524 16.5799 41.4524 17.8998V18.333C41.4524 18.7042 41.2461 18.8898 40.8336 18.8898Z" fill="white"/>
<path d="M59.5815 23.6541C61.8914 23.6541 63.9952 24.0254 65.8926 24.7679C67.8313 25.4691 69.4813 26.4591 70.8425 27.7378C72.245 29.0166 73.3175 30.5634 74.06 32.3784C74.8437 34.1521 75.2356 36.1321 75.2356 38.3183V58.9842C75.2356 60.3454 74.7406 61.521 73.7506 62.511C72.8019 63.4598 71.6469 63.9341 70.2857 63.9341H69.6669C69.2545 63.9341 69.0482 63.7279 69.0482 63.3154V38.3183C69.0482 35.7196 68.182 33.6571 66.4495 32.1309C64.7583 30.6047 62.4689 29.8415 59.5815 29.8415C58.9627 29.8828 58.0965 30.3159 56.9828 31.1409C55.9103 31.9659 54.7553 32.9559 53.5178 34.1108C52.3216 35.2246 51.1666 36.3796 50.0529 37.5758C48.9804 38.7308 48.1554 39.6795 47.5779 40.422V58.9842C47.5779 60.3454 47.0829 61.521 46.0929 62.511C45.1442 63.4598 43.9892 63.9341 42.628 63.9341H42.0092C41.5967 63.9341 41.3905 63.7279 41.3905 63.3154V24.3347C41.3905 23.9223 41.5967 23.716 42.0092 23.716H42.628C43.9892 23.716 45.1442 24.211 46.0929 25.201C47.0829 26.1497 47.5779 27.3047 47.5779 28.6659V31.2646C48.2791 30.5634 49.0835 29.7797 49.991 28.9134C50.9397 28.0472 51.9503 27.2222 53.0228 26.4385C54.0953 25.6547 55.1884 24.9947 56.3021 24.4585C57.4571 23.9223 58.5502 23.6541 59.5815 23.6541Z" fill="white"/>
<path d="M111.922 63.996C109.488 63.996 107.302 63.6041 105.363 62.8204C103.425 62.0367 101.775 61.0261 100.414 59.7886C99.0523 58.5511 98.0004 57.1486 97.2579 55.5811C96.5567 54.0137 96.2061 52.4256 96.2061 50.8168V43.392C96.2061 42.9795 96.4123 42.7732 96.8248 42.7732H97.4436C98.846 42.7732 100.022 43.2682 100.97 44.2582C101.919 45.2069 102.393 46.3619 102.393 47.7231V50.8168C102.393 51.5593 102.6 52.3431 103.012 53.168C103.425 53.993 104.023 54.7561 104.807 55.4574C105.632 56.1174 106.642 56.6742 107.838 57.128C109.035 57.5817 110.396 57.8086 111.922 57.8086C113.572 57.8086 114.954 57.6024 116.068 57.1899C117.223 56.7361 118.151 56.1586 118.852 55.4574C119.594 54.7149 120.11 53.9105 120.399 53.0443C120.729 52.1368 120.894 51.2293 120.894 50.3218C120.894 49.2494 120.77 48.3625 120.523 47.6613C120.275 46.96 119.78 46.3619 119.038 45.8669C118.336 45.3307 117.367 44.8769 116.13 44.5057C114.892 44.1344 113.283 43.7426 111.303 43.3301C110.272 43.1238 109.282 42.9382 108.333 42.7732C106.683 42.4432 105.033 42.1132 103.383 41.7832C101.775 41.412 100.31 40.8964 98.9904 40.2364C97.7117 39.5764 96.6804 38.7308 95.8967 37.6995C95.113 36.6683 94.7211 35.3483 94.7211 33.7396C94.7211 32.5846 95.0098 31.409 95.5873 30.2128C96.1648 29.0165 97.1136 27.9234 98.4335 26.9335C99.7535 25.9435 101.465 25.1391 103.569 24.5204C105.714 23.9016 108.313 23.5923 111.365 23.5923C113.551 23.5923 115.552 23.8191 117.367 24.2729C119.182 24.6854 120.791 25.201 122.193 25.8197C123.637 26.3972 124.833 26.9953 125.782 27.6141C126.772 28.1916 127.494 28.6453 127.947 28.9753C128.112 29.0578 128.195 29.2022 128.195 29.4084C128.195 29.5734 128.154 29.7178 128.071 29.8415L127.205 30.8315C126.215 32.069 124.957 32.6877 123.431 32.6877C122.688 32.6877 121.966 32.5021 121.265 32.1309C120.11 31.5534 118.687 31.0171 116.996 30.5221C115.346 30.0272 113.469 29.7797 111.365 29.7797C109.715 29.7797 108.251 29.9034 106.972 30.1509C105.693 30.3572 104.6 30.6459 103.693 31.0171C102.785 31.3884 102.084 31.8215 101.589 32.3165C101.135 32.7702 100.909 33.2446 100.909 33.7396C100.909 34.0696 101.177 34.379 101.713 34.6677C102.249 34.9565 102.93 35.2246 103.755 35.4721C104.58 35.6783 105.487 35.8846 106.477 36.0908C107.508 36.2971 108.498 36.4827 109.447 36.6477C109.942 36.7302 110.437 36.8333 110.932 36.9571C111.468 37.0396 111.984 37.1427 112.479 37.2664C114.088 37.5964 115.758 37.9883 117.491 38.442C119.223 38.8958 120.791 39.5764 122.193 40.4839C123.637 41.3914 124.813 42.6288 125.72 44.1963C126.627 45.7225 127.081 47.7644 127.081 50.3218C127.081 51.9718 126.772 53.6218 126.153 55.2718C125.576 56.8805 124.648 58.3448 123.369 59.6648C122.131 60.9436 120.564 61.9954 118.666 62.8204C116.769 63.6041 114.521 63.996 111.922 63.996Z" fill="white"/>
<path d="M160.582 28.6659C160.582 27.2634 161.057 26.0878 162.005 25.1391C162.995 24.1904 164.171 23.716 165.532 23.716H166.151C166.563 23.716 166.77 23.9223 166.77 24.3347V63.3154C166.77 63.7279 166.563 63.9341 166.151 63.9341H165.532C164.171 63.9341 162.995 63.4598 162.005 62.511C161.057 61.521 160.582 60.3454 160.582 58.9842V57.4992C159.675 58.3242 158.664 59.1286 157.55 59.9123C156.478 60.6961 155.343 61.3973 154.147 62.016C152.951 62.5935 151.714 63.0679 150.435 63.4391C149.156 63.8104 147.877 63.996 146.599 63.996C144.619 63.996 142.762 63.6248 141.03 62.8823C139.297 62.1398 137.792 61.1498 136.513 59.9123C135.276 58.6336 134.286 57.128 133.543 55.3955C132.801 53.663 132.429 51.8068 132.429 49.8269V24.3347C132.429 23.9223 132.636 23.716 133.048 23.716H133.667C135.028 23.716 136.183 24.211 137.132 25.201C138.122 26.1497 138.617 27.3047 138.617 28.6659V49.8269C138.617 50.9406 138.823 51.9924 139.236 52.9824C139.648 53.9312 140.205 54.7768 140.906 55.5193C141.649 56.2205 142.494 56.7774 143.443 57.1899C144.433 57.6024 145.485 57.8086 146.599 57.8086C148.084 57.8086 149.61 57.3961 151.177 56.5711C152.786 55.7461 154.25 54.7768 155.57 53.663C156.89 52.5493 158.004 51.4562 158.912 50.3837C159.86 49.27 160.417 48.445 160.582 47.9088V28.6659Z" fill="white"/>
<path d="M187.133 63.8723C184.122 64.2023 181.234 63.8929 178.471 62.9441C175.707 61.9954 173.252 60.5104 171.107 58.4892C170.819 58.2005 170.819 57.9117 171.107 57.623L172.036 56.6949C172.984 55.7461 174.139 55.2718 175.501 55.2718C176.367 55.2718 177.212 55.4986 178.037 55.9524C180.43 57.3549 183.09 57.953 186.019 57.7467C187.669 57.623 189.237 57.2311 190.722 56.5711C192.207 55.8699 193.506 54.9624 194.62 53.8487C195.775 52.7349 196.723 51.4562 197.466 50.0125C198.208 48.5687 198.662 47.0219 198.827 45.3719C199.075 43.2682 198.868 41.2676 198.208 39.3701C197.548 37.4727 196.579 35.8227 195.3 34.4202C194.022 32.9765 192.475 31.8421 190.66 31.0171C188.886 30.1922 186.968 29.7797 184.905 29.7797C183.709 29.7797 182.513 29.9447 181.317 30.2747C180.162 30.6046 179.069 31.0584 178.037 31.6359C177.212 32.0896 176.367 32.3165 175.501 32.3165C174.181 32.3165 173.005 31.8421 171.974 30.8934L171.107 29.9653C170.819 29.6765 170.819 29.3878 171.107 29.099C173.005 27.3253 175.129 25.9641 177.481 25.0154C179.832 24.0666 182.307 23.5923 184.905 23.5923C187.875 23.5923 190.639 24.1904 193.197 25.3866C195.795 26.5828 198.023 28.2122 199.879 30.2747C201.735 32.3371 203.138 34.7296 204.086 37.452C205.035 40.1333 205.344 43.0001 205.014 46.0525C204.767 48.3625 204.128 50.5487 203.096 52.6112C202.065 54.6737 200.745 56.5092 199.136 58.118C197.569 59.6854 195.754 60.9848 193.692 62.016C191.67 63.006 189.484 63.6248 187.133 63.8723Z" fill="white"/>
<path d="M210.368 18.8898H188.588C187.309 18.8898 186.216 18.4361 185.309 17.5286C184.401 16.6211 183.947 15.528 183.947 14.2493V8.86624C183.947 8.53624 184.071 8.35062 184.319 8.30937L184.628 8.2475C185.04 8.12375 185.453 8.06187 185.865 8.06187C186.897 8.06187 187.784 8.43312 188.526 9.17561C189.269 9.87684 189.64 10.7637 189.64 11.8362V12.6406C189.64 13.0118 189.825 13.1974 190.197 13.1974H206.284C207.604 13.1974 208.718 13.6512 209.625 14.5586C210.533 15.4661 210.986 16.5799 210.986 17.8998V18.333C210.986 18.7042 210.78 18.8898 210.368 18.8898Z" fill="white"/>
<path d="M257.069 63.996C256.079 63.996 255.048 63.8104 253.975 63.4391C252.903 63.0679 251.83 62.5935 250.758 62.016C249.685 61.4385 248.613 60.7786 247.54 60.0361C246.509 59.2523 245.519 58.4892 244.57 57.7467V58.9842C244.57 60.3454 244.075 61.521 243.085 62.511C242.137 63.4598 240.982 63.9341 239.62 63.9341H239.002C238.589 63.9341 238.383 63.7279 238.383 63.3154V35.7814C238.383 33.8015 237.888 32.2959 236.898 31.2646C235.949 30.2334 234.794 29.7178 233.433 29.7178C232.691 29.7178 232.072 29.924 231.577 30.3365C231.123 30.749 230.772 31.244 230.525 31.8215C230.277 32.399 230.112 32.9765 230.03 33.554C229.947 34.0902 229.906 34.5233 229.906 34.8533C229.906 35.1421 229.782 35.3277 229.535 35.4102L229.473 35.4721C229.102 35.6783 228.648 35.7814 228.112 35.7814C227.411 35.7814 226.771 35.5752 226.194 35.1627C225.616 34.709 225.245 34.0902 225.08 33.3065C224.874 32.3577 224.461 31.5328 223.843 30.8315C223.265 30.089 222.275 29.7178 220.873 29.7178C219.965 29.7178 219.058 30.0065 218.15 30.584C217.284 31.1203 216.5 31.9865 215.799 33.1827C215.098 34.3377 214.52 35.8021 214.066 37.5758C213.613 39.3083 213.386 41.3914 213.386 43.8251C213.386 45.1038 213.489 46.5682 213.695 48.2181C213.943 49.8269 214.417 51.3531 215.118 52.7968C215.82 54.1993 216.83 55.3955 218.15 56.3855C219.47 57.3342 221.203 57.8086 223.348 57.8086H223.966C224.956 57.7261 225.884 57.9324 226.751 58.4273C227.617 58.9223 228.277 59.6236 228.731 60.5311L229.473 62.0779C229.556 62.2429 229.576 62.4079 229.535 62.5729C229.494 62.7379 229.37 62.8616 229.164 62.9441C228.669 63.1504 227.906 63.3773 226.874 63.6248C225.884 63.8723 224.709 63.996 223.348 63.996C220.873 63.996 218.625 63.5423 216.603 62.6348C214.623 61.686 212.932 60.3454 211.53 58.613C210.127 56.8392 209.055 54.7149 208.312 52.2399C207.57 49.7237 207.198 46.9188 207.198 43.8251C207.198 40.3189 207.59 37.3077 208.374 34.7915C209.158 32.234 210.189 30.1303 211.468 28.4803C212.746 26.8303 214.211 25.6135 215.861 24.8297C217.511 24.0048 219.181 23.5923 220.873 23.5923C221.945 23.5923 223.018 23.7779 224.09 24.1491C225.204 24.4791 226.214 24.9535 227.122 25.5722C227.906 24.9535 228.875 24.4791 230.03 24.1491C231.185 23.7779 232.319 23.5923 233.433 23.5923C235.083 23.5923 236.589 23.9016 237.95 24.5204C239.311 25.1391 240.487 26.0053 241.477 27.1191C242.467 28.1916 243.23 29.4703 243.766 30.9553C244.302 32.4402 244.57 34.049 244.57 35.7814V49.5175C245.643 50.5487 246.777 51.5593 247.973 52.5493C249.211 53.5393 250.387 54.4262 251.5 55.2099C252.655 55.9936 253.707 56.633 254.656 57.128C255.646 57.5817 256.45 57.8086 257.069 57.8086C258.513 57.8086 259.688 57.3961 260.596 56.5711C261.544 55.7461 262.019 54.6737 262.019 53.3537V28.6659C262.019 27.3047 262.493 26.1497 263.442 25.201C264.391 24.211 265.566 23.716 266.969 23.716H267.588C268 23.716 268.206 23.9223 268.206 24.3347V53.3537C268.206 54.8799 267.917 56.303 267.34 57.623C266.763 58.9017 265.979 60.0154 264.989 60.9642C263.999 61.9129 262.823 62.6554 261.462 63.1916C260.101 63.7279 258.636 63.996 257.069 63.996Z" fill="white"/>
<path d="M301.472 28.6659C301.472 27.2634 301.947 26.0878 302.895 25.1391C303.885 24.1904 305.061 23.716 306.422 23.716H307.041C307.453 23.716 307.66 23.9223 307.66 24.3347V63.3154C307.66 63.7279 307.453 63.9341 307.041 63.9341H306.422C305.061 63.9341 303.885 63.4598 302.895 62.511C301.947 61.521 301.472 60.3454 301.472 58.9842V57.4992C300.565 58.3242 299.554 59.1286 298.44 59.9123C297.368 60.6961 296.234 61.3973 295.037 62.016C293.841 62.5935 292.604 63.0679 291.325 63.4391C290.046 63.8104 288.767 63.996 287.489 63.996C285.509 63.996 283.653 63.6248 281.92 62.8823C280.188 62.1398 278.682 61.1498 277.403 59.9123C276.166 58.6336 275.176 57.128 274.433 55.3955C273.691 53.663 273.32 51.8068 273.32 49.8269V24.3347C273.32 23.9223 273.526 23.716 273.938 23.716H274.557C275.918 23.716 277.073 24.211 278.022 25.201C279.012 26.1497 279.507 27.3047 279.507 28.6659V49.8269C279.507 50.9406 279.713 51.9924 280.126 52.9824C280.538 53.9312 281.095 54.7768 281.796 55.5193C282.539 56.2205 283.384 56.7774 284.333 57.1899C285.323 57.6024 286.375 57.8086 287.489 57.8086C288.974 57.8086 290.5 57.3961 292.067 56.5711C293.676 55.7461 295.14 54.7768 296.46 53.663C297.78 52.5493 298.894 51.4562 299.802 50.3837C300.75 49.27 301.307 48.445 301.472 47.9088V28.6659Z" fill="white"/>
<path d="M292.074 19.5086H291.641C291.229 19.5086 291.022 19.3023 291.022 18.8898V14.1255C291.022 13.2593 291.187 12.4549 291.517 11.7124C291.806 10.97 292.239 10.3306 292.817 9.79435C293.353 9.21685 294.013 8.78374 294.797 8.49499C295.539 8.165 296.343 8 297.21 8H311.503C311.915 8 312.121 8.20625 312.121 8.61874V9.05186C312.121 10.4131 311.626 11.5887 310.636 12.5787C309.688 13.5274 308.533 14.0018 307.171 14.0018H297.643C297.23 14.0018 297.024 14.1874 297.024 14.5586C297.024 15.9611 296.55 17.1367 295.601 18.0855C294.611 19.0342 293.435 19.5086 292.074 19.5086Z" fill="white"/>
</svg>
