<svg width="345" height="88" viewBox="0 0 345 88" fill="none" xmlns="http://www.w3.org/2000/svg">
<path d="M298.872 29.691C298.695 29.6813 298.517 29.675 298.336 29.675C298.155 29.675 297.976 29.6813 297.799 29.691C293.975 29.9107 290.778 32.4505 289.586 35.9246C289.264 36.8651 289.086 37.873 289.086 38.9246C289.086 39.9806 289.267 40.995 289.593 41.9404C290.686 45.11 293.455 47.4992 296.841 48.0504C297.328 48.1308 297.828 48.1723 298.336 48.1723H305.157H305.984C307.484 48.3741 308.641 49.6595 308.641 51.2139C308.641 52.7459 307.52 54.015 306.053 54.2457H305.087H296.8H292.586L289.158 60.478H305.186C305.315 60.4845 305.443 60.489 305.571 60.489C305.699 60.489 305.825 60.4845 305.954 60.478C309.848 60.3208 313.12 57.7648 314.34 54.2457C314.669 53.2938 314.851 52.2716 314.851 51.2075C314.851 50.1433 314.669 49.1243 314.341 48.1725C313.239 44.9865 310.452 42.5894 307.043 42.0446C306.721 41.9932 306.396 41.9582 306.064 41.9405C305.901 41.9308 305.736 41.9259 305.57 41.9259C305.404 41.9259 305.241 41.9308 305.075 41.9405H298.883H297.786C296.359 41.681 295.274 40.4326 295.274 38.9293C295.274 37.4343 296.348 36.1906 297.768 35.9248H298.903H307.083H311.301L314.728 29.6911H298.872V29.691Z" fill="white"/>
<path d="M125.171 29.694H132.268V53.7726H149.64V60.4694H125.171V29.694Z" fill="white"/>
<path d="M197.622 29.7166L195.329 33.7738L201.112 45.2876L209.4 29.7166H216.888L201.112 60.4458L185.715 29.7166H197.622Z" fill="white"/>
<path d="M270.456 44.299C271.294 44.299 272.015 43.9499 272.621 43.1548C273.226 42.3617 273.529 41.3457 273.529 40.1039C273.529 38.8347 273.183 37.8251 272.491 37.0733C271.799 36.3251 271.047 35.9486 270.241 35.9486H261.416V44.3456V50.5358V60.4458H254.317V29.7166H270.717C272.159 29.7166 273.492 30.0194 274.72 30.6249C275.946 31.2307 277.007 32.0257 277.901 33.0063C278.795 33.9871 279.495 35.0974 280 36.3379C280.505 37.5797 280.758 38.8346 280.758 40.1037C280.758 41.0556 280.641 41.9721 280.412 42.8535C280.181 43.7318 279.85 44.5617 279.415 45.3405C278.983 46.1194 278.457 46.8195 277.837 47.4399C277.215 48.0616 276.516 48.5871 275.738 49.0198L282.489 60.4458H274.483L264.498 44.299H270.456Z" fill="white"/>
<path d="M179.361 54.2136V60.4458H157.764V29.7166H178.971V35.9485H164.861V41.921H176.981V47.6786H164.861V54.2135H179.361V54.2136Z" fill="white"/>
<path d="M245.66 54.2136V60.4458H224.064V29.7166H245.271V35.9485H231.163V41.921H243.281V47.6786H231.163V54.2135H245.66V54.2136Z" fill="white"/>
<path d="M344.014 54.214V60.4462H322.416V29.717H343.625V35.9489H329.515V41.9214H341.633V47.679H329.515V54.2139H344.014V54.214Z" fill="white"/>
<path d="M104.57 54.187C99.5419 54.187 95.4658 50.1103 95.4658 45.0833C95.4658 40.0547 99.5419 35.9796 104.57 35.9796C107.154 35.9796 109.482 37.0596 111.139 38.7889L115.8 34.1271C112.95 31.2059 108.975 29.3854 104.57 29.3854C95.901 29.3854 88.8735 36.4139 88.8735 45.0833C88.8735 53.751 95.901 60.7793 104.57 60.7793C108.945 60.7793 112.898 58.9863 115.744 56.1002L111.083 51.437C109.43 53.1326 107.125 54.187 104.57 54.187Z" fill="white"/>
<path d="M0.960938 5.9743L22.9296 44.0289L39.4042 15.4851H50.3882L28.4214 53.4854L44.8942 82.0257L61.3715 53.5726L88.8648 5.9743H77.8479L50.4006 53.5483L44.8895 63.032L39.4007 53.5074L61.373 15.4436L66.8613 5.9743H33.9073L22.9248 24.9434L17.4376 15.4645L22.9263 5.9743H0.960938Z" fill="white"/>
</svg>
