<svg width="232" height="72" viewBox="0 0 232 72" fill="none" xmlns="http://www.w3.org/2000/svg">
<path fill-rule="evenodd" clip-rule="evenodd" d="M231.582 49.9408C231.582 57.0847 224.508 62.625 215.029 62.625C208.489 62.625 203.815 61.3571 198.942 58.954C198.718 58.8233 198.548 58.6172 198.462 58.3725C198.376 58.1277 198.38 57.8604 198.473 57.6185L200.21 54.0127C200.334 53.7646 200.547 53.5722 200.806 53.4738C201.066 53.3754 201.353 53.3781 201.61 53.4814C205.484 55.2806 209.757 56.5486 214.495 56.5486C219.702 56.5486 224.443 53.9475 224.443 49.8732C224.443 37.1914 198.473 44.2677 198.473 27.5116C198.473 19.4355 204.55 14.627 213.027 14.627C215.63 14.627 221.571 15.0279 228.114 17.9647C228.645 18.1651 228.848 18.7665 228.645 19.3002L226.911 23.1064C226.813 23.3628 226.618 23.57 226.368 23.6827C226.117 23.7954 225.833 23.8044 225.576 23.7078C222.306 22.4374 217.364 21.0367 214.563 21.0367C209.621 21.0367 205.685 22.039 205.351 26.9779C205.351 37.7251 231.585 31.5835 231.585 49.9408H231.582ZM182.792 44.3329V16.3634C182.792 15.8297 183.258 15.3612 183.792 15.3612H188.731C189.267 15.3612 189.733 15.8297 189.733 16.3634V44.3329C189.733 52.0782 184.994 62.5574 171.508 62.5574C158.025 62.5574 153.352 52.0758 153.352 44.3329V16.3634C153.352 15.8297 153.82 15.3612 154.354 15.3612H159.16C159.691 15.3612 160.16 15.8297 160.16 16.3634V44.3329C160.16 47.6054 162.43 56.6162 171.511 56.6162C180.587 56.6162 182.789 47.6054 182.789 44.3329H182.792ZM138.001 48.8733C138.001 46.2022 136.866 42.1979 129.724 42.0627H118.241V56.0824H129.454C136.864 56.0824 137.999 50.675 137.999 48.8733H138.001ZM137.999 28.6467C137.999 26.845 136.864 21.3048 129.454 21.3048H118.241V35.9887H129.722C136.864 35.8558 137.999 30.9821 137.999 28.6467V28.6467ZM145.01 48.8733C145.01 54.4136 141.271 62.0913 128.787 62.0913H112.497C112.234 62.0845 111.983 61.9767 111.797 61.7901C111.611 61.6035 111.504 61.3525 111.498 61.089V16.3634C111.498 15.8297 111.964 15.3612 112.497 15.3612H128.787C141.271 15.3612 145.01 23.1064 145.01 28.6443C145.01 32.1849 143.271 36.3244 139.334 38.7274C143.271 40.7295 145.01 45.8037 145.01 48.8709V48.8733ZM79.3741 15.7065L59.2465 59.8742C59.1183 60.1554 59.0627 60.4644 59.085 60.7727C59.1072 61.081 59.2066 61.3787 59.3739 61.6386C59.5413 61.8985 59.7712 62.1122 60.0426 62.2601C60.3141 62.408 60.6183 62.4853 60.9274 62.4849H68.407C69.1316 62.4849 69.7861 62.0623 70.088 61.4054L81.0526 37.3387L92.0221 61.4054C92.1689 61.7273 92.4052 62.0003 92.7028 62.1917C93.0004 62.3831 93.3467 62.4849 93.7006 62.4849H101.18C101.489 62.4853 101.794 62.408 102.065 62.2601C102.336 62.1122 102.566 61.8985 102.734 61.6386C102.901 61.3787 103 61.081 103.023 60.7727C103.045 60.4644 102.989 60.1554 102.861 59.8742L82.7335 15.7065C82.5869 15.384 82.3506 15.1105 82.0527 14.9188C81.7548 14.727 81.4081 14.625 81.0538 14.625C80.6996 14.625 80.3528 14.727 80.0549 14.9188C79.7571 15.1105 79.5207 15.384 79.3741 15.7065V15.7065ZM65.6442 14.627H58.1645C57.44 14.627 56.7855 15.0496 56.486 15.7089L36.2956 60.0118C36.1669 60.293 36.1109 60.602 36.1328 60.9104C36.1547 61.2189 36.2538 61.5169 36.4209 61.777C36.588 62.0372 36.8178 62.2512 37.0892 62.3994C37.3606 62.5476 37.6649 62.6251 37.9741 62.625H45.4538C46.1783 62.625 46.8352 62.2024 47.1347 61.543L67.3251 17.2401C67.4539 16.9588 67.5098 16.6496 67.4878 16.3409C67.4658 16.0323 67.3666 15.7341 67.1992 15.4739C67.0318 15.2137 66.8016 14.9997 66.5299 14.8517C66.2582 14.7037 65.9536 14.6264 65.6442 14.627V14.627ZM16.668 52.4453L20.7568 61.4174C20.9034 61.7399 21.1397 62.0134 21.4376 62.2052C21.7354 62.397 22.0822 62.499 22.4365 62.499C22.7907 62.499 23.1375 62.397 23.4354 62.2052C23.7332 62.0134 23.9696 61.7399 24.1162 61.4174L44.2486 17.2401C44.3773 16.959 44.4333 16.65 44.4114 16.3415C44.3895 16.0331 44.2905 15.7351 44.1234 15.4749C43.9563 15.2147 43.7264 15.0007 43.455 14.8526C43.1836 14.7044 42.8793 14.6268 42.5701 14.627H35.0881C34.3635 14.627 33.7066 15.0496 33.4072 15.7089L16.668 52.4405V52.4453Z" fill="white"/>
<path fill-rule="evenodd" clip-rule="evenodd" d="M2.30248 14.6268C1.99326 14.6267 1.68897 14.7043 1.41756 14.8524C1.14615 15.0006 0.916335 15.2146 0.74922 15.4748C0.582105 15.735 0.483055 16.0329 0.46117 16.3414C0.439286 16.6498 0.495268 16.9588 0.623974 17.24L16.6676 52.4452L28.2046 27.1275L23 15.7088C22.8536 15.3864 22.6174 15.113 22.3198 14.9211C22.0222 14.7293 21.6756 14.6271 21.3215 14.6268H2.30248Z" fill="#FF335C"/>
</svg>
