<svg width="195" height="72" viewBox="0 0 195 72" fill="none" xmlns="http://www.w3.org/2000/svg">
<path d="M71.3822 63.9395C70.5554 63.9395 69.7238 63.592 69.1575 63.01L63.3939 57.0874C63.6139 57.1229 63.852 57.1406 64.11 57.1406H80.1272C91.4928 57.1406 100.74 47.6403 100.74 35.9631C100.74 24.2855 91.4928 14.7853 80.1272 14.7853H75.3159V47.6288H68.7051V11.3436C68.7051 9.46103 70.1752 7.98655 72.0518 7.98655H80.1272C95.138 7.98655 107.35 20.5368 107.35 35.9631C107.35 51.3893 95.138 63.9395 80.1272 63.9395H71.3822ZM122.699 63.9395C121.881 63.9395 121.034 63.5839 120.486 63.0113L114.721 57.0874C114.941 57.1229 115.179 57.1406 115.437 57.1406H131.455C142.82 57.1406 152.067 47.6403 152.067 35.9631C152.067 24.2855 142.82 14.7853 131.455 14.7853H126.633V47.6288H120.022V11.3436C120.022 9.46103 121.492 7.98655 123.369 7.98655H131.455C146.465 7.98655 158.678 20.5368 158.678 35.9631C158.678 51.3893 146.465 63.9395 131.455 63.9395H122.699ZM28.2953 64.3943C13.648 64.3943 1.60818 52.7066 0.550293 37.9321C1.66905 43.4336 4.46876 48.1738 8.75204 51.7672C13.4108 55.676 19.4002 57.8284 25.6171 57.8284C37.4471 57.8284 49.4227 50.2667 49.4227 35.8148C49.4227 30.0115 47.22 24.5585 43.2207 20.4605C39.4646 16.6116 34.5352 14.4041 29.696 14.4041C20.3557 14.4041 13.8323 21.7028 13.8323 32.1524C13.8323 40.1981 18.2326 46.0472 22.9617 48.1749C21.2414 47.9196 18.4678 47.2304 15.7868 45.3744C10.8895 41.9838 8.40615 36.2535 8.40615 28.3421C8.40615 23.5834 10.3006 18.4913 13.4734 14.7202C16.2044 11.4743 21.211 7.60559 29.5519 7.60559C36.2038 7.60559 42.8885 10.5435 47.892 15.6662C53.1421 21.0414 56.0333 28.197 56.0333 35.8148C56.0333 51.5736 43.5902 64.3943 28.2953 64.3943ZM176.025 64.3943C171.532 64.3943 169.677 63.2669 168.454 62.1641L162.831 57.0431C165.349 58.1966 168.305 58.7387 172.018 58.7387C182.034 58.7387 187.439 52.2286 187.439 46.103C187.439 40.5111 184.358 36.7279 178.021 34.5372C170.15 31.8111 166.158 27.0094 166.158 20.2662C166.158 16.7278 167.548 13.5132 170.072 11.2153C172.629 8.88738 176.242 7.60559 180.248 7.60559C185.55 7.60559 190.715 9.99521 190.766 10.0195C192.009 10.5891 192.721 11.712 192.721 13.1005C192.721 15.0304 191.251 16.5424 189.374 16.5424C189.004 16.5424 188.308 16.2897 187.427 15.97C185.708 15.3466 183.11 14.4041 180.248 14.4041C175.679 14.4041 172.841 16.7073 172.841 20.4144C172.841 23.7897 175.048 26.2259 179.588 27.8619C181.4 28.5059 185.169 29.8457 188.386 32.6983C192.192 36.0718 194.122 40.5817 194.122 46.103C194.122 50.7209 192.256 55.3409 189.004 58.7784C185.577 62.4 180.967 64.3943 176.025 64.3943Z" fill="white"/>
<path d="M175.401 23.8059C174.735 23.0918 174.091 22.0878 174.091 20.1922C174.091 17.497 176.508 15.7554 180.249 15.7554C182.748 15.7554 184.9 16.5327 186.629 17.1571C187.77 17.5685 188.67 17.8936 189.375 17.8936C189.714 17.8936 190.029 17.8476 190.31 17.7823L185.819 21.9345C185.156 22.5558 184.258 22.8839 183.223 22.8839C182.903 22.8839 182.567 22.8526 182.224 22.7906C181.417 22.6213 180.636 22.5347 179.91 22.5347C177.834 22.5347 176.491 23.2366 175.51 23.749L175.401 23.8059ZM64.1113 55.7894C62.2406 55.7894 60.775 54.2777 60.775 52.3477V18.8901C60.775 17.9926 61.1098 17.1128 61.6703 16.5365L67.4691 10.5685C67.4182 10.8224 67.3858 11.0817 67.3858 11.3436V48.9905H80.1285C87.1208 48.9905 92.8096 43.1466 92.8096 35.9632C92.8096 28.7798 87.1208 22.9352 80.1285 22.9352H76.6376V16.1365H80.1285C90.766 16.1365 99.4202 25.0308 99.4202 35.9632C99.4202 46.8952 90.766 55.7894 80.1285 55.7894H64.1113ZM115.438 55.7894C113.562 55.7894 112.092 54.2777 112.092 52.3477V18.8901C112.092 17.9893 112.43 17.1099 112.996 16.5378L118.785 10.5806C118.736 10.8251 118.703 11.0833 118.703 11.3436V48.9905H131.456C138.443 48.9905 144.127 43.1466 144.127 35.9632C144.127 28.7798 138.443 22.9352 131.456 22.9352H127.965V16.1365H131.456C142.088 16.1365 150.737 25.0308 150.737 35.9632C150.737 46.8952 142.088 55.7894 131.456 55.7894H115.438ZM25.6184 56.5515C19.1928 56.5515 13.1427 54.1632 8.58199 49.8265C3.92587 45.3991 1.36182 39.3932 1.36182 32.9146C1.36182 27.3221 3.31953 21.9694 7.02343 17.4353C9.91576 13.8948 13.7153 11.0784 17.899 9.3407C15.1015 11.0374 12.6113 13.4733 10.7365 16.3788C8.38286 20.026 7.08669 24.2748 7.08669 28.3421C7.08669 35.5714 9.1255 41.1432 13.1466 44.9022C15.5135 47.1152 19.7539 49.7526 26.5145 49.7526C36.3476 49.7526 41.4925 42.7412 41.4925 35.8148C41.4925 28.4663 35.4495 22.258 28.2965 22.258C24.8066 22.258 21.5168 23.6568 19.0339 26.1972C16.9646 28.3141 15.6482 31.0197 15.2365 33.9481C15.195 33.4375 15.1645 32.8317 15.1645 32.1524C15.1645 27.5661 16.5509 23.4174 19.068 20.4713C21.7042 17.3861 25.3796 15.7554 29.6973 15.7554C34.2186 15.7554 38.8232 17.833 42.3303 21.4553C46.0529 25.3004 48.1033 30.4 48.1033 35.8148C48.1033 41.1091 46.0662 46.279 42.5147 49.9982C38.4206 54.2854 32.5779 56.5515 25.6184 56.5515ZM172.019 57.3875C166.868 57.3875 164.472 56.3783 162.631 55.4322C161.51 54.8564 160.813 53.7027 160.813 52.4218C160.813 50.4976 162.283 48.9905 164.16 48.9905C164.615 48.9905 165.106 49.1172 165.543 49.347L165.564 49.3567L165.72 49.4182C167.015 49.9323 168.482 50.5148 172.019 50.5148C177.185 50.5148 179.509 47.9349 179.509 46.103C179.509 45.1846 179.153 43.5101 176.771 42.6148C176.649 42.5754 176.476 42.5271 176.252 42.4647C174.77 42.0524 170.833 40.9569 167.31 38.3568C162.903 35.1047 160.669 30.6846 160.669 25.2197C160.669 18.9014 164.017 13.129 169.322 10.087C167.284 11.9279 164.911 15.1672 164.911 20.2663C164.911 27.565 169.174 32.788 177.581 35.7899C183.456 37.842 186.192 41.119 186.192 46.103C186.192 51.5734 181.224 57.3875 172.019 57.3875Z" fill="white"/>
</svg>
