<svg width="69" height="19" viewBox="0 0 69 19" fill="none" xmlns="http://www.w3.org/2000/svg">
<path d="M58.1112 14.4194C60.9847 14.4194 63.0303 12.4955 63.4199 9.695L63.4927 9.18371C63.9067 6.31005 62.4216 4.5324 59.7185 4.5324H57.9406L56.3821 14.4194H58.1112ZM53.825 0.952576H59.8887C65.6115 0.952576 68.7528 3.9723 68.2416 9.47596C67.7301 15.0526 63.8583 17.9991 57.8676 17.9991H51.1465L53.825 0.952576ZM45.3261 9.93856H50.8055L50.2697 13.2991H44.7904L45.3261 9.93856ZM33.1989 5.33593H37.7527L36.9491 10.3526H37.4117L42.2823 5.33593H46.7144L46.5682 6.23707L41.1379 11.5945L44.8878 16.8545L44.7173 17.9991H40.2853L36.9977 13.0313H36.5351L35.7559 17.9991H31.202L33.1989 5.33593ZM27.257 10.2308C27.5247 8.59922 27.0377 7.72248 25.5036 7.72248C24.0912 7.72248 23.1414 8.52613 22.8736 10.2308H27.257ZM18.3197 11.1806C18.9773 7.04061 21.6073 5.0438 25.7959 5.0438C29.4973 5.0438 31.4698 7.01632 30.9341 10.4014L30.5687 12.6903H22.4838C22.2649 14.1028 22.8006 14.9064 25.1139 14.9064H30.228L29.7407 17.9991H24.2617C19.927 17.9991 17.6379 15.4178 18.3197 11.1806ZM7.19073 14.4194C10.0643 14.4194 12.1099 12.4955 12.4996 9.695L12.5726 9.18371C12.9866 6.31005 11.5011 4.5324 8.79803 4.5324H7.02027L5.46177 14.4194H7.19073ZM2.90487 0.952576H8.9685C14.6912 0.952576 17.8327 3.9723 17.3212 9.47596C16.81 15.0526 12.9379 17.9991 6.94717 17.9991H0.226074L2.90487 0.952576Z" fill="white" stroke="#CECECF" stroke-width="0.00118776" stroke-miterlimit="10"/>
</svg>
