<svg width="104" height="104" viewBox="0 0 104 104" fill="none" xmlns="http://www.w3.org/2000/svg">
<g clip-path="url(#clip0_1137_7105)">
<path d="M20.1299 86.5293C16.3076 86.5293 13.1802 83.402 13.1802 79.5796V35.2083C13.1802 31.3859 16.3076 28.2585 20.1299 28.2585C23.9523 28.2585 27.0796 31.3859 27.0796 35.2083V79.5796C27.0796 83.402 23.9523 86.5293 20.1299 86.5293Z" fill="white"/>
<path d="M20.1299 22.9126C16.3076 22.9126 13.1802 19.7853 13.1802 15.9629C13.1802 12.1406 16.3076 9.01318 20.1299 9.01318C23.9523 9.01318 27.0796 12.1406 27.0796 15.9629C27.0796 19.7853 23.9523 22.9126 20.1299 22.9126Z" fill="white"/>
<path d="M79.4168 28.2585H35.0454C31.2231 28.2585 28.0957 31.3859 28.0957 35.2083C28.0957 39.0306 31.2231 42.158 35.0454 42.158H50.2814V79.5796C50.2814 83.402 53.4087 86.5293 57.2311 86.5293C61.0534 86.5293 64.1808 83.402 64.1808 79.5796V42.158H79.4168C83.2391 42.158 86.3665 39.0306 86.3665 35.2083C86.3665 31.3859 83.2391 28.2585 79.4168 28.2585Z" fill="white"/>
<path d="M6.87197 6.47928C8.66117 6.47928 10.1116 5.02885 10.1116 3.23964C10.1116 1.45044 8.66117 0 6.87197 0C5.08276 0 3.63232 1.45044 3.63232 3.23964C3.63232 5.02885 5.08276 6.47928 6.87197 6.47928Z" fill="white"/>
<path d="M3.68602 29.3813C5.69371 29.3813 7.32127 27.7538 7.32127 25.7461C7.32127 23.7384 5.69371 22.1108 3.68602 22.1108C1.67833 22.1108 0.0507812 23.7384 0.0507812 25.7461C0.0507812 27.7538 1.67833 29.3813 3.68602 29.3813Z" fill="white"/>
<path d="M33.709 15.2147C35.5396 15.2147 37.0235 13.7307 37.0235 11.9002C37.0235 10.0696 35.5396 8.58569 33.709 8.58569C31.8785 8.58569 30.3945 10.0696 30.3945 11.9002C30.3945 13.7307 31.8785 15.2147 33.709 15.2147Z" fill="white"/>
<path d="M8.66871 3.92308L7.53467 5.05713L16.1534 13.6759L17.2875 12.5418L8.66871 3.92308Z" fill="white"/>
<path d="M15.8323 17.079L5.646 23.7727L6.52674 25.113L16.713 18.4193L15.8323 17.079Z" fill="white"/>
<path d="M33.4921 10.8562L22.1221 15.248L22.6999 16.7441L34.07 12.3522L33.4921 10.8562Z" fill="white"/>
<path d="M39.1616 22.4851C43.5242 19.812 48.2385 17.7608 53.168 16.3907C54.7076 15.963 81.8543 8.78343 91.8726 22.1643C94.0752 25.1099 94.7167 28.0662 94.9733 29.3279C98.9881 48.9422 70.9593 69.4492 68.4574 71.2401C74.0205 68.3288 79.2236 64.7763 83.9606 60.6551C90.4185 55.0365 99.7098 46.9481 102.458 34.1392C103.329 30.0817 104.992 22.3301 100.64 16.2838C96.7856 10.9272 90.2421 9.72431 86.0937 9.02934C66.0945 5.65605 46.4963 17.5561 39.1616 22.4851Z" fill="white"/>
<path d="M44.3367 103.84C44.1878 103.84 44.0451 103.781 43.9398 103.675C43.8345 103.57 43.7754 103.427 43.7754 103.278V95.8475C43.7754 95.6986 43.8345 95.5558 43.9398 95.4505C44.0451 95.3453 44.1878 95.2861 44.3367 95.2861C44.4856 95.2861 44.6284 95.3453 44.7336 95.4505C44.8389 95.5558 44.898 95.6986 44.898 95.8475V103.278C44.898 103.427 44.8389 103.57 44.7336 103.675C44.6284 103.781 44.4856 103.84 44.3367 103.84V103.84Z" fill="white"/>
<path d="M56.1085 95.2861H50.9122C50.693 95.2861 50.522 95.5374 50.522 95.8475C50.522 96.1575 50.6984 96.4088 50.9122 96.4088H53.0025V103.278C53.0025 103.427 53.0616 103.57 53.1669 103.675C53.2722 103.781 53.4149 103.84 53.5638 103.84C53.7127 103.84 53.8555 103.781 53.9607 103.675C54.066 103.57 54.1251 103.427 54.1251 103.278V96.4088H56.1085C56.3277 96.4088 56.4987 96.1575 56.4987 95.8475C56.4987 95.5374 56.3277 95.2861 56.1085 95.2861Z" fill="white"/>
<path d="M66.8642 102.717H63.2931V95.8475C63.2931 95.6986 63.2339 95.5558 63.1286 95.4505C63.0234 95.3453 62.8806 95.2861 62.7317 95.2861C62.5829 95.2861 62.4401 95.3453 62.3348 95.4505C62.2296 95.5558 62.1704 95.6986 62.1704 95.8475V103.278C62.1704 103.588 62.3201 103.84 62.5019 103.84H66.8642C67.0459 103.84 67.1956 103.588 67.1956 103.278C67.1956 102.968 67.0459 102.717 66.8642 102.717Z" fill="white"/>
<path d="M21.9422 103.241L19.3976 98.8892L21.4611 96.0238C21.6215 95.7993 21.5466 95.4732 21.2954 95.2914C21.0441 95.1096 20.7127 95.1417 20.5523 95.3662L17.6388 99.4078V95.8474C17.6388 95.6985 17.5796 95.5557 17.4744 95.4505C17.3691 95.3452 17.2263 95.2861 17.0774 95.2861C16.9286 95.2861 16.7858 95.3452 16.6805 95.4505C16.5753 95.5557 16.5161 95.6985 16.5161 95.8474V103.278C16.5161 103.427 16.5753 103.57 16.6805 103.675C16.7858 103.78 16.9286 103.84 17.0774 103.84C17.2263 103.84 17.3691 103.78 17.4744 103.675C17.5796 103.57 17.6388 103.427 17.6388 103.278V101.327L18.6812 99.8836L20.9746 103.807C21.0869 104 21.397 104.027 21.6643 103.872C21.9316 103.717 22.0545 103.433 21.9422 103.241Z" fill="white"/>
<path d="M37.1515 95.5907C37.1515 95.5907 36.8468 95.1577 36.216 95.2005C35.5851 95.2432 35.3659 95.4678 35.1842 95.9489L32.6395 102.524L30.0948 95.9489C29.9077 95.4678 29.6939 95.2379 29.0631 95.2005C28.4323 95.1631 28.1275 95.5907 28.1275 95.5907C28.069 95.6434 28.0222 95.7077 27.9899 95.7795C27.9577 95.8513 27.9409 95.929 27.9404 96.0077V103.439C27.9404 103.587 27.9996 103.73 28.1048 103.835C28.2101 103.941 28.3529 104 28.5018 104C28.6506 104 28.7934 103.941 28.8987 103.835C29.0039 103.73 29.0631 103.587 29.0631 103.439V96.3873L31.7307 103.284C31.741 103.311 31.7535 103.338 31.7681 103.364V103.364C31.7681 103.364 31.982 103.995 32.6288 103.957C33.2757 103.92 33.42 103.615 33.5483 103.284L36.216 96.3873V103.439C36.216 103.587 36.2751 103.73 36.3804 103.835C36.4856 103.941 36.6284 104 36.7773 104C36.9261 104 37.0689 103.941 37.1742 103.835C37.2795 103.73 37.3386 103.587 37.3386 103.439V96.0077C37.3368 95.9292 37.3193 95.8519 37.2872 95.7803C37.2551 95.7087 37.2089 95.6442 37.1515 95.5907V95.5907Z" fill="white"/>
</g>
<defs>
<clipPath id="clip0_1137_7105">
<rect width="103.457" height="104" fill="white" transform="translate(0.0507812)"/>
</clipPath>
</defs>
</svg>
