<svg width="331" height="96" viewBox="0 0 331 96" fill="none" xmlns="http://www.w3.org/2000/svg">
<g clip-path="url(#clip0_1137_7554)">
<path d="M111.282 17.5547L85.4979 89.8984L5.20593 60.9006L2.22266 64.7696L87.7657 95.8224L115.162 18.3751L111.282 17.5547Z" fill="white"/>
<path fill-rule="evenodd" clip-rule="evenodd" d="M48.3388 3.80151L108.627 16.4866L83.7301 86.5993L5.99658 58.4886L48.3388 3.80151ZM48.6607 4.68037L7.29047 58.1128L83.2502 85.582L107.575 17.0763L48.6607 4.68037Z" fill="white"/>
<path fill-rule="evenodd" clip-rule="evenodd" d="M46.9001 0.668457L112.892 14.388L85.6382 90.2201L0.554199 59.8138L46.9001 0.668457ZM47.0873 1.17815L1.31159 59.5948L85.3588 89.6312L112.277 14.7315L47.0873 1.17815Z" fill="white"/>
<path d="M57.7764 50.8124C57.7407 50.4991 57.9321 50.0124 58.3508 49.3523C56.4447 49.8608 54.4944 50.1889 52.5273 50.3318C50.5623 50.4742 48.793 50.3812 47.215 50.053C45.4794 49.6904 44.0256 49.0636 42.8516 48.1718C41.6777 47.2802 41.0592 46.1562 40.9982 44.7996C40.9371 43.443 41.4799 42.0822 42.6307 40.717C44.0446 39.0351 46.2578 37.5157 49.2685 36.1591C52.1591 34.8368 55.2371 33.972 58.3949 33.5955C61.4687 33.2395 64.1196 33.295 66.3455 33.7621C68.0432 34.1182 69.4612 34.6971 70.5974 35.499C71.7334 36.3009 72.4468 37.3105 72.7326 38.5284L75.7031 36.2937L80.9378 37.3864L67.8307 47.1486C66.0088 48.5108 65.0158 49.2704 64.8517 49.427C64.5992 49.7247 64.5845 50.0227 64.8054 50.3211C65.0263 50.6195 65.4218 50.8281 65.9899 50.9471C67.0271 51.1606 68.6597 51.1215 70.8877 50.8297C73.7111 50.4833 76.4653 49.7077 79.0547 48.5297C81.5546 47.3783 83.4413 46.0451 84.7163 44.5305C86.2019 42.7614 86.757 40.9352 86.3803 39.0517C86.002 37.1683 84.5458 35.4203 82.013 33.8081C79.478 32.1964 76.2103 30.9731 72.2112 30.1376C67.6162 29.1824 62.9098 28.8876 58.233 29.2619C53.4846 29.6308 49.1611 30.6789 45.2627 32.4066C41.3643 34.1342 38.3746 36.2351 36.2982 38.7089C34.1206 41.2994 33.2833 43.7471 33.7883 46.0516C34.291 48.3559 36.1361 50.3653 39.3193 52.0794C42.5003 53.7926 46.4829 55.1489 51.265 56.1481C56.3773 57.2162 61.0542 57.6435 65.2956 57.4299C69.5349 57.2162 73.0757 56.6209 75.918 55.6438L81.2114 56.7483C79.2882 57.6462 76.6336 58.4179 73.2441 59.063C69.8547 59.7084 66.215 60.0166 62.325 59.9882C58.4265 59.9605 54.1262 59.4563 49.4263 58.4755C45.0944 57.5705 41.3537 56.4361 38.2022 55.0724C35.0505 53.7087 32.6942 52.1524 31.1311 50.4033C29.57 48.6587 28.8 46.8634 28.8189 45.0176C28.8568 42.6805 29.8477 40.3563 31.7917 38.0455C33.9587 35.4697 36.9966 33.2195 40.9077 31.2946C45.6918 28.9311 50.9116 27.446 56.5688 26.8391C62.224 26.2324 68.1716 26.5807 74.4116 27.8839C79.2481 28.8937 83.1404 30.3367 86.0902 32.2132C89.0399 34.0896 90.7332 36.3215 91.1709 38.9087C91.5269 41.1319 90.8027 43.3155 88.9955 45.4597C86.4204 48.5219 82.1391 50.8271 76.158 52.3752C70.8077 53.7667 66.0257 54.0228 61.8075 53.1433C60.4589 52.8627 59.4637 52.5258 58.8157 52.1327C58.1698 51.7397 57.8227 51.2995 57.7743 50.8124H57.7764ZM47.8735 42.0586C46.647 43.5144 46.3273 44.7786 46.9121 45.8517C47.497 46.9251 48.6057 47.6316 50.2425 47.9722C51.3323 48.1985 52.6262 48.2634 54.1283 48.1666C55.7483 48.0494 57.3536 47.763 58.9146 47.312C60.6461 46.8205 62.306 46.1088 63.8545 45.1947C65.4597 44.2521 66.7304 43.2517 67.6645 42.1944C68.8638 40.733 69.1436 39.4642 68.504 38.3874C67.8665 37.3107 66.6021 36.5751 64.7171 36.1806C63.4169 35.9183 62.0852 35.8464 60.7639 35.9668C59.3733 36.0823 57.8438 36.4152 56.1712 36.9656C54.4776 37.526 52.8555 38.2896 51.3429 39.2397C49.7986 40.2019 48.6415 41.1415 47.8735 42.0586Z" fill="white"/>
<path d="M57.7764 50.8124C57.7407 50.4991 57.9321 50.0124 58.3508 49.3523C56.4447 49.8608 54.4944 50.1889 52.5273 50.3318C50.5623 50.4742 48.793 50.3812 47.215 50.053C45.4794 49.6904 44.0256 49.0636 42.8516 48.1718C41.6777 47.2802 41.0592 46.1562 40.9982 44.7996C40.9371 43.443 41.4799 42.0822 42.6307 40.717C44.0446 39.0351 46.2578 37.5157 49.2685 36.1591C52.1591 34.8368 55.2371 33.972 58.3949 33.5955C61.4687 33.2395 64.1196 33.295 66.3455 33.7621C68.0432 34.1182 69.4612 34.6971 70.5974 35.499C71.7334 36.3009 72.4468 37.3105 72.7326 38.5284L75.7031 36.2937L80.9378 37.3864L67.8307 47.1486C66.0088 48.5108 65.0158 49.2704 64.8517 49.427C64.5992 49.7247 64.5845 50.0227 64.8054 50.3211C65.0263 50.6195 65.4218 50.8281 65.9899 50.9471C67.0271 51.1606 68.6597 51.1215 70.8877 50.8297C73.7111 50.4833 76.4653 49.7077 79.0547 48.5297C81.5546 47.3783 83.4413 46.0451 84.7163 44.5305C86.2019 42.7614 86.757 40.9352 86.3803 39.0517C86.002 37.1683 84.5458 35.4203 82.013 33.8081C79.478 32.1964 76.2103 30.9731 72.2112 30.1376C67.6162 29.1824 62.9098 28.8876 58.233 29.2619C53.4846 29.6308 49.1611 30.6789 45.2627 32.4066C41.3643 34.1342 38.3746 36.2351 36.2982 38.7089C34.1206 41.2994 33.2833 43.7471 33.7883 46.0516C34.291 48.3559 36.1361 50.3653 39.3193 52.0794C42.5003 53.7926 46.4829 55.1489 51.265 56.1481C56.3773 57.2162 61.0542 57.6435 65.2956 57.4299C69.5349 57.2162 73.0757 56.6209 75.918 55.6438L81.2114 56.7483C79.2882 57.6462 76.6336 58.4179 73.2441 59.063C69.8547 59.7084 66.215 60.0166 62.325 59.9882C58.4265 59.9605 54.1262 59.4563 49.4263 58.4755C45.0944 57.5705 41.3537 56.4361 38.2022 55.0724C35.0505 53.7087 32.6942 52.1524 31.1311 50.4033C29.57 48.6587 28.8 46.8634 28.8189 45.0176C28.8568 42.6805 29.8477 40.3563 31.7917 38.0455C33.9587 35.4697 36.9966 33.2195 40.9077 31.2946C45.6918 28.9311 50.9116 27.446 56.5688 26.8391C62.224 26.2324 68.1716 26.5807 74.4116 27.8839C79.2481 28.8937 83.1404 30.3367 86.0902 32.2132C89.0399 34.0896 90.7332 36.3215 91.1709 38.9087C91.5269 41.1319 90.8027 43.3155 88.9955 45.4597C86.4204 48.5219 82.1391 50.8271 76.158 52.3752C70.8077 53.7667 66.0257 54.0228 61.8075 53.1433C60.4589 52.8627 59.4637 52.5258 58.8157 52.1327C58.1698 51.7397 57.8227 51.2995 57.7743 50.8124H57.7764ZM47.8735 42.0586C46.647 43.5144 46.3273 44.7786 46.9121 45.8517C47.497 46.9251 48.6057 47.6316 50.2425 47.9722C51.3323 48.1985 52.6262 48.2634 54.1283 48.1666C55.7483 48.0494 57.3536 47.763 58.9146 47.312C60.6461 46.8205 62.306 46.1088 63.8545 45.1947C65.4597 44.2521 66.7304 43.2517 67.6645 42.1944C68.8638 40.733 69.1436 39.4642 68.504 38.3874C67.8665 37.3107 66.6021 36.5751 64.7171 36.1806C63.4169 35.9183 62.0852 35.8464 60.7639 35.9668C59.3733 36.0823 57.8438 36.4152 56.1712 36.9656C54.4776 37.526 52.8555 38.2896 51.3429 39.2397C49.7986 40.2019 48.6415 41.1415 47.8735 42.0586Z" fill="white"/>
<path d="M132.746 60.6807V44.6594H128.055V41.395H140.632V44.6647H135.941V60.6807H132.746Z" fill="white"/>
<path d="M142.702 60.6807V41.395H145.897V48.9822H152.16V41.395H155.354V60.6807H152.16V52.2455H145.897V60.6807H142.702Z" fill="white"/>
<path d="M172.898 60.6807H169.434L168.055 56.3161H161.732L160.425 60.6829H157.027L163.165 41.395H166.581L172.898 60.6807ZM167.043 53.0441L164.851 45.8885L162.704 53.0441H167.043Z" fill="white"/>
<path d="M174.497 60.6807V41.395H177.691V60.6807H174.497Z" fill="white"/>
<path d="M189.126 60.6807L185.339 41.395H188.616L190.993 54.6522L193.86 41.395H197.656L200.447 54.8829L202.864 41.395H206.075L202.285 60.6861H198.873L195.707 46.2513L192.585 60.6861L189.126 60.6807Z" fill="white"/>
<path d="M207.736 60.6807V41.395H219.464V44.6648H210.935V48.9317H218.87V52.1768H210.935V57.4174H219.768V60.6861L207.736 60.6807Z" fill="white"/>
<path d="M222.452 41.395H228.784C230.512 41.395 231.728 41.5528 232.433 41.8684C233.138 42.184 233.73 42.7407 234.21 43.5387C234.667 44.3301 234.916 45.2243 234.935 46.1382C234.954 47.0521 234.741 47.9558 234.317 48.7653C233.902 49.5146 233.366 50.0693 232.707 50.4292C233.614 50.7365 234.392 51.3394 234.917 52.1414C235.448 52.9486 235.714 53.9315 235.714 55.0901C235.714 56.4942 235.377 57.6818 234.701 58.653C234.026 59.6241 233.228 60.2227 232.306 60.4489C231.663 60.6091 230.175 60.6882 227.846 60.6861H222.464L222.452 41.395ZM225.646 44.6154V49.0584H227.744C229.004 49.0584 229.782 49.0365 230.079 48.9929C230.574 48.9285 231.027 48.6802 231.348 48.2973C231.655 47.9273 231.807 47.4228 231.806 46.7838C231.806 46.2169 231.682 45.7564 231.433 45.4022C231.223 45.077 230.901 44.841 230.528 44.7399C230.174 44.6533 229.158 44.6097 227.48 44.6089L225.646 44.6154ZM225.646 52.2777V57.4185H228.606C229.905 57.4185 230.739 57.3509 231.107 57.2156C231.497 57.0607 231.823 56.7785 232.033 56.4148C232.284 56.0176 232.408 55.512 232.408 54.9012C232.408 54.2708 232.275 53.7523 232.009 53.3458C231.758 52.9536 231.382 52.6577 230.941 52.5064C230.499 52.3539 229.594 52.2777 228.225 52.2777H225.646Z" fill="white"/>
<path d="M238.374 60.6807V41.395H243.145L246.023 54.5792L248.858 41.395H253.672V60.6807H250.704V45.4741L247.551 60.6839H244.485L241.345 45.4741V60.6807H238.374Z" fill="white"/>
<path d="M271.081 60.6807H267.616L266.237 56.3161H259.913L258.61 60.6807H255.214L261.349 41.395H264.763L271.081 60.6807ZM265.224 53.0441L263.033 45.8885L260.887 53.0441H265.224Z" fill="white"/>
<path d="M278.428 61.0057C274.551 61.0057 272.394 58.8008 271.956 54.3911L275.076 54.0175C275.426 56.48 276.57 57.7112 278.51 57.7112C279.472 57.7112 280.229 57.4608 280.782 56.9599C281.047 56.7265 281.258 56.4382 281.4 56.1149C281.544 55.7916 281.614 55.4411 281.607 55.0877C281.62 54.6958 281.52 54.3085 281.32 53.9713C281.103 53.6446 280.799 53.3845 280.443 53.22C280.05 53.0224 279.095 52.6922 277.578 52.2291C276.219 51.8176 275.224 51.3711 274.591 50.8894C273.945 50.3872 273.429 49.736 273.089 48.9916C272.715 48.2012 272.525 47.3367 272.531 46.4626C272.516 45.4693 272.763 44.4898 273.249 43.6232C273.705 42.804 274.396 42.1403 275.234 41.7179C276.077 41.2884 277.118 41.0737 278.358 41.0737C280.218 41.0737 281.673 41.5783 282.723 42.5873C283.773 43.5964 284.326 45.0387 284.383 46.9145L281.189 47.084C281.046 46.0471 280.741 45.3218 280.274 44.9081C279.808 44.4945 279.142 44.2881 278.275 44.2888C277.41 44.2888 276.744 44.4677 276.275 44.8255C275.808 45.1833 275.574 45.6288 275.574 46.1619C275.572 46.4173 275.629 46.6695 275.741 46.8991C275.853 47.1286 276.016 47.3293 276.218 47.4855C276.643 47.8433 277.613 48.2369 279.131 48.6663C280.736 49.1322 281.895 49.622 282.609 50.1359C283.319 50.6431 283.883 51.3279 284.246 52.1218C284.622 52.9326 284.809 53.917 284.81 55.0748C284.81 56.7495 284.295 58.1571 283.265 59.2978C282.234 60.4386 280.625 61.0086 278.435 61.0078L278.428 61.0057Z" fill="white"/>
<path d="M291.059 60.6807V44.6594H286.368V41.395H298.943V44.6647H294.253V60.6807H291.059Z" fill="white"/>
<path d="M301.014 60.6807V41.395H312.743V44.6648H304.21V48.9317H312.143V52.1768H304.21V57.4174H313.042V60.6861L301.014 60.6807Z" fill="white"/>
<path d="M315.752 60.6807V41.395H322.469C324.187 41.395 325.414 41.5682 326.151 41.9146C326.888 42.2609 327.493 42.8613 327.966 43.7158C328.439 44.5746 328.675 45.5987 328.676 46.788C328.676 48.2959 328.315 49.51 327.592 50.4303C326.87 51.3506 325.843 51.9292 324.512 52.1661C325.153 52.6188 325.725 53.1635 326.208 53.7827C326.656 54.3666 327.264 55.4132 328.032 56.9225L329.948 60.6861H326.119L323.832 56.4878C323.007 54.9656 322.445 54.0139 322.148 53.6324C321.904 53.2933 321.579 53.0212 321.202 52.8412C320.87 52.6982 320.337 52.6266 319.602 52.6266H318.946V60.6871L315.752 60.6807ZM318.946 49.5532H321.308C322.749 49.5532 323.668 49.4895 324.061 49.3622C324.462 49.2291 324.802 48.9563 325.018 48.5936C325.262 48.2072 325.385 47.6941 325.385 47.0542C325.385 46.4403 325.263 45.9471 325.018 45.575C324.784 45.2114 324.432 44.9396 324.022 44.8054C323.723 44.7095 322.862 44.6615 321.438 44.6615H318.947L318.946 49.5532Z" fill="white"/>
<path d="M128.803 84.2085L134.885 64.9175H137.129L143.6 84.2085H141.206L139.369 78.3689H132.705L130.997 84.2085H128.803ZM133.311 76.2985H138.725L137.076 70.9503C136.566 69.3086 136.193 67.9739 135.955 66.9463C135.748 68.1934 135.457 69.4253 135.085 70.6336L133.311 76.2985Z" fill="white"/>
<path d="M149.845 77.9448L151.842 77.7707C151.945 78.8367 152.183 79.6671 152.556 80.2617C152.947 80.8756 153.497 81.3714 154.148 81.6967C154.87 82.0635 155.672 82.2483 156.481 82.2333C157.722 82.2333 158.685 81.9295 159.371 81.322C160.057 80.7145 160.401 79.9271 160.401 78.9607C160.413 78.4391 160.283 77.9247 160.026 77.4712C159.753 77.0263 159.362 76.666 158.896 76.4288C158.395 76.1602 157.307 75.7755 155.631 75.2761C154.143 74.8327 153.081 74.3871 152.448 73.94C151.823 73.5023 151.316 72.9177 150.971 72.2371C150.612 71.5131 150.43 70.7132 150.444 69.9047C150.444 68.3439 150.948 67.0686 151.956 66.0789C152.965 65.0892 154.324 64.594 156.035 64.5933C157.21 64.5933 158.238 64.8258 159.117 65.291C159.983 65.7412 160.696 66.4374 161.168 67.2919C161.655 68.1599 161.916 69.1823 161.951 70.3588L159.954 70.5337C159.849 69.2799 159.474 68.3497 158.83 67.7428C158.185 67.1359 157.279 66.8336 156.112 66.8357C154.928 66.8357 154.025 67.1009 153.402 67.6311C153.099 67.8803 152.857 68.1954 152.694 68.5524C152.531 68.9094 152.453 69.2988 152.463 69.6911C152.463 70.4711 152.691 71.0755 153.147 71.5042C153.604 71.9326 154.628 72.3668 156.22 72.8052C157.777 73.2343 158.873 73.6076 159.504 73.925C160.466 74.4157 161.193 75.0619 161.683 75.8636C162.174 76.6653 162.419 77.6224 162.418 78.7357C162.43 79.7924 162.162 80.8334 161.641 81.7525C161.153 82.6323 160.421 83.3516 159.532 83.8244C158.643 84.298 157.572 84.5351 156.321 84.5351C154.366 84.5351 152.808 83.9419 151.648 82.7562C150.488 81.5706 149.887 79.9665 149.845 77.9448Z" fill="white"/>
<path d="M169.863 77.9448L171.859 77.7707C171.963 78.8367 172.202 79.6671 172.574 80.2617C172.964 80.8756 173.515 81.3714 174.166 81.6967C174.888 82.0635 175.689 82.2483 176.498 82.2333C177.739 82.2333 178.703 81.9295 179.39 81.322C180.077 80.7145 180.419 79.9271 180.418 78.9607C180.43 78.4391 180.301 77.9247 180.043 77.4712C179.77 77.0263 179.379 76.6653 178.913 76.4288C178.412 76.1602 177.324 75.7755 175.648 75.2761C174.16 74.8327 173.1 74.3871 172.466 73.94C171.841 73.503 171.334 72.9177 170.989 72.2371C170.629 71.5133 170.448 70.7133 170.462 69.9047C170.462 68.3439 170.966 67.0686 171.973 66.0789C172.981 65.0892 174.34 64.594 176.052 64.5933C177.226 64.5933 178.253 64.8258 179.134 65.291C180 65.7419 180.713 66.4378 181.185 67.2919C181.671 68.1599 181.931 69.1823 181.967 70.3588L179.972 70.5337C179.865 69.2799 179.49 68.3497 178.846 67.7428C178.202 67.1359 177.296 66.8336 176.127 66.8357C174.943 66.8357 174.04 67.1009 173.417 67.6311C173.115 67.8805 172.875 68.1953 172.713 68.5517C172.551 68.908 172.473 69.2966 172.483 69.6879C172.483 70.4679 172.711 71.0723 173.167 71.501C173.622 71.9297 174.647 72.3632 176.24 72.8016C177.8 73.2315 178.894 73.6047 179.525 73.9214C180.489 74.4128 181.215 75.0591 181.705 75.86C182.194 76.6617 182.439 77.6195 182.439 78.7328C182.451 79.7888 182.184 80.8298 181.664 81.749C181.175 82.6287 180.443 83.348 179.555 83.8208C178.666 84.2951 177.594 84.5315 176.341 84.5315C174.387 84.5315 172.829 83.9391 171.67 82.7527C170.51 81.567 169.908 79.9644 169.863 77.9448Z" fill="white"/>
<path d="M191.938 81.4838C190.65 79.6455 190.006 77.4239 190.006 74.8197C190.006 71.5331 190.73 69.0073 192.177 67.2425C193.624 65.4777 195.425 64.5947 197.58 64.5932C198.944 64.5825 200.276 64.9951 201.394 65.774C202.539 66.5612 203.448 67.7062 204.122 69.2091C204.796 70.7119 205.132 72.5007 205.128 74.5761C205.128 77.4339 204.479 79.7594 203.182 81.5541C201.751 83.5335 199.879 84.5236 197.567 84.525C195.235 84.525 193.36 83.5084 191.94 81.4745L191.938 81.4838ZM192.177 74.8534C192.177 77.224 192.699 79.0645 193.744 80.3748C194.788 81.6852 196.058 82.3393 197.554 82.3371C199.083 82.3371 200.366 81.6766 201.401 80.3548C202.437 79.033 202.956 77.0893 202.957 74.5246C202.957 72.8696 202.69 71.3899 202.156 70.0861C201.775 69.1299 201.132 68.3008 200.3 67.6945C199.519 67.1099 198.568 66.7943 197.593 66.7948C196.018 66.7948 194.722 67.4511 193.704 68.7636C192.686 70.076 192.175 72.1059 192.173 74.8534H192.177Z" fill="white"/>
<path d="M224.312 77.4454L226.408 78.0895C225.942 80.2545 225.128 81.8693 223.965 82.9332C222.802 83.9971 221.386 84.5301 219.718 84.5308C218.252 84.5308 217 84.1726 215.962 83.4569C214.923 82.7412 214.072 81.5964 213.408 80.0224C212.744 78.4427 212.413 76.5786 212.413 74.4307C212.413 72.3094 212.744 70.5141 213.408 69.0449C214.071 67.5756 214.968 66.4664 216.101 65.7172C217.224 64.9698 218.546 64.5778 219.894 64.5922C221.421 64.5922 222.734 65.0656 223.831 66.0123C224.928 66.9592 225.696 68.3493 226.138 70.1827L224.09 70.7817C223.388 68.1195 221.979 66.7884 219.864 66.7884C218.81 66.7884 217.897 67.0575 217.124 67.5957C216.352 68.1339 215.735 68.9726 215.275 70.1119C214.814 71.2498 214.584 72.6891 214.584 74.4307C214.584 77.0657 215.049 79.0423 215.979 80.3612C216.909 81.6802 218.147 82.3386 219.693 82.3364C220.242 82.3429 220.787 82.239 221.295 82.0305C221.803 81.822 222.263 81.514 222.649 81.1235C223.477 80.3161 224.031 79.0903 224.312 77.4454Z" fill="white"/>
<path d="M234.686 84.2085V64.9175H236.783V84.2085H234.686Z" fill="white"/>
<path d="M243.991 84.2085L250.071 64.9175H252.317L258.787 84.2085H256.393L254.559 78.3689H247.894L246.188 84.2085H243.991ZM248.498 76.2985H253.906L252.258 70.9503C251.749 69.3086 251.376 67.9739 251.139 66.9463C250.931 68.1935 250.639 69.4254 250.267 70.6336L248.498 76.2985Z" fill="white"/>
<path d="M268.181 84.2085V67.1889H262.967V64.9175H275.518V67.1889H270.277V84.2085H268.181Z" fill="white"/>
<path d="M283.295 84.2085V64.9175H285.391V84.2085H283.295Z" fill="white"/>
<path d="M295.682 81.4839C294.394 79.6455 293.75 77.4239 293.75 74.8197C293.75 71.5331 294.473 69.0072 295.92 67.2425C297.367 65.4777 299.17 64.5947 301.326 64.5932C302.689 64.5823 304.022 64.9949 305.14 65.774C306.288 66.5612 307.198 67.7062 307.868 69.209C308.539 70.7119 308.874 72.5007 308.874 74.5762C308.874 77.4339 308.226 79.7594 306.929 81.5541C305.498 83.5335 303.626 84.5236 301.313 84.5251C298.981 84.5251 297.105 83.5085 295.686 81.4745L295.682 81.4839ZM295.92 74.8534C295.92 77.224 296.442 79.0645 297.486 80.3748C298.531 81.6852 299.801 82.3393 301.296 82.3371C302.826 82.3371 304.109 81.6766 305.144 80.3548C306.179 79.033 306.698 77.0893 306.699 74.5246C306.699 72.8696 306.433 71.39 305.898 70.0861C305.518 69.1302 304.875 68.3011 304.044 67.6944C303.262 67.11 302.312 66.7944 301.336 66.7948C299.762 66.7948 298.465 67.4511 297.447 68.7636C296.428 70.076 295.919 72.1059 295.92 74.8534Z" fill="white"/>
<path d="M316.75 84.2085V64.9175H318.902L327.206 80.1113V64.9175H329.202V84.2085H327.062L318.772 69.0395V84.2085H316.75Z" fill="white"/>
<path d="M142.36 15.8947C142.038 16.3332 141.632 16.7042 141.168 16.9865C140.672 17.2499 140.138 17.4349 139.586 17.5349C139.938 17.8493 140.218 18.2357 140.407 18.6678C140.595 19.1 140.689 19.5678 140.681 20.0393V30.1352H138.832L135.301 22.621C135.144 22.3241 134.907 22.0762 134.619 21.905C134.39 21.7519 134.119 21.6765 133.844 21.6903C133.744 21.6886 133.644 21.6947 133.545 21.7086C132.677 21.8417 132.248 22.3526 132.248 23.2565V25.8446C132.336 25.8109 132.428 25.7868 132.522 25.7727C132.629 25.7512 132.818 25.733 133.095 25.7104C133.71 25.6972 134.305 25.9249 134.753 26.3448C134.977 26.5495 135.155 26.8002 135.274 27.0798C135.392 27.3593 135.449 27.6612 135.44 27.9647C135.444 28.2672 135.386 28.5672 135.272 28.847C135.142 29.1435 134.956 29.4118 134.723 29.6371C134.305 30.0887 133.735 30.3152 133.013 30.3166C132.222 30.3166 131.594 30.088 131.13 29.6307C130.676 29.1375 130.432 28.4868 130.45 27.8165V23.0719C130.45 22.3548 130.687 21.7773 131.171 21.3254C131.563 20.8923 132.077 20.5887 132.646 20.4548C132.811 20.4237 133.048 20.3904 133.357 20.3582C133.666 20.326 133.859 20.3002 133.93 20.2873C134.252 20.2841 134.572 20.3131 134.888 20.3743C135.174 20.4291 135.451 20.5299 135.705 20.6727C136.174 20.8874 136.531 21.2746 136.779 21.8342L138.885 26.4296V20.3624C138.885 19.5939 138.541 18.9337 137.86 18.3734C137.18 17.813 136.358 17.5349 135.384 17.5349C133.412 17.5349 132.106 18.31 131.464 19.8601H129.602C129.939 18.7087 130.642 17.7901 131.71 17.1045C132.256 16.7898 132.841 16.5476 133.45 16.3842C134.116 16.2099 134.802 16.1247 135.49 16.1309C135.77 16.1309 136.045 16.1449 136.306 16.1663C136.596 16.1923 136.883 16.243 137.165 16.3177C137.327 16.3509 137.487 16.3907 137.658 16.425C137.845 16.4819 138.039 16.541 138.239 16.5946C138.335 16.6219 138.436 16.6342 138.538 16.6311C138.903 16.6176 139.254 16.4866 139.539 16.2576C140.008 15.8813 140.386 15.4044 140.645 14.8621L142.36 15.8947ZM134.144 27.9421C134.144 27.706 134.036 27.4805 133.807 27.2691C133.715 27.1708 133.604 27.0936 133.479 27.0428C133.355 26.9921 133.221 26.9689 133.086 26.975C132.807 26.9791 132.538 27.0834 132.328 27.2691C132.175 27.4118 132.082 27.6373 132.048 27.9421C132.043 28.0777 132.063 28.2129 132.106 28.3415C132.156 28.4608 132.232 28.5676 132.328 28.6538C132.43 28.7278 132.543 28.7857 132.663 28.8256C132.802 28.8704 132.946 28.9006 133.092 28.9157C133.227 28.9188 133.363 28.9007 133.493 28.8621C133.613 28.8133 133.722 28.7427 133.816 28.6538C133.918 28.5657 134 28.4566 134.057 28.3338C134.114 28.2109 134.144 28.0774 134.144 27.9421Z" fill="white"/>
<path d="M156.171 28.2364C156.171 29.4931 155.618 30.1221 154.512 30.1236H153.894C153.613 29.3056 153.037 28.4826 152.167 27.6546C151.742 27.236 151.268 26.8715 150.754 26.5693C150.276 26.2932 149.766 26.0768 149.234 25.9253V28.0174C149.243 28.3062 149.195 28.594 149.091 28.8636C148.987 29.1332 148.829 29.3791 148.629 29.5868C148.23 30.0055 147.662 30.217 146.938 30.217C146.226 30.2225 145.539 29.9507 145.024 29.4591C144.503 28.8983 144.223 28.1556 144.244 27.3906C144.244 26.6069 144.574 25.9178 145.229 25.3252C145.543 25.0406 145.907 24.8157 146.302 24.6618C146.695 24.5094 147.112 24.4318 147.534 24.4331V20.7276C147.443 20.7666 147.347 20.7923 147.25 20.8038C147.142 20.8199 146.947 20.8424 146.66 20.8639C146.024 20.8719 145.408 20.6392 144.936 20.2124C144.723 20.0139 144.55 19.7763 144.427 19.5124C144.299 19.2299 144.235 18.9222 144.24 18.6118C144.239 18.3053 144.3 18.0018 144.418 17.7189C144.536 17.4359 144.709 17.1793 144.927 16.964C145.154 16.7315 145.426 16.5485 145.728 16.4266C146.029 16.3046 146.352 16.2464 146.676 16.2556C147.453 16.2556 148.068 16.4949 148.519 16.9737C148.993 17.4106 149.231 17.9978 149.231 18.7417V24.5212C149.672 24.5639 150.104 24.6724 150.513 24.8432C152.01 25.508 153.333 26.512 154.376 27.7759V16.4144H156.173L156.171 28.2364ZM147.633 18.6376C147.632 18.5104 147.604 18.3847 147.553 18.2684C147.502 18.152 147.427 18.0476 147.333 17.9613C147.242 17.8641 147.131 17.7868 147.009 17.7346C146.885 17.6823 146.753 17.656 146.62 17.6575C146.482 17.6581 146.345 17.6861 146.218 17.7399C146.092 17.7938 145.976 17.8723 145.88 17.971C145.717 18.1105 145.624 18.3316 145.586 18.6376C145.582 18.7686 145.603 18.8991 145.65 19.0219C145.7 19.146 145.779 19.2564 145.88 19.3439C145.979 19.4152 146.087 19.4723 146.202 19.5135C146.339 19.5556 146.481 19.5858 146.624 19.6037C146.889 19.607 147.145 19.5064 147.337 19.3235C147.433 19.2372 147.509 19.1312 147.56 19.0129C147.611 18.8944 147.636 18.7664 147.633 18.6376ZM147.533 27.8253V25.9253C147.098 25.9137 146.673 26.0631 146.342 26.345C146.198 26.4743 146.084 26.6322 146.005 26.8087C145.927 26.9851 145.887 27.176 145.887 27.3691C145.874 27.6882 145.956 28.0039 146.122 28.2761C146.205 28.3956 146.314 28.4943 146.44 28.5641C146.567 28.6341 146.709 28.6733 146.854 28.6787C147.311 28.6787 147.537 28.3953 147.537 27.8242L147.533 27.8253Z" fill="white"/>
<path d="M167.989 30.1234H166.193V20.3549C166.193 19.5283 165.941 18.8456 165.442 18.3014C164.914 17.7776 164.22 17.521 163.355 17.521C162.585 17.521 161.942 17.7207 161.437 18.1157C160.933 18.5107 160.526 19.0915 160.236 19.8471H158.365C158.641 18.7796 159.26 17.8324 160.127 17.1517C160.998 16.4626 162.089 16.1187 163.399 16.1201C164.741 16.1201 165.844 16.4647 166.705 17.1667C167.565 17.8688 167.993 18.8123 167.993 20.0028L167.989 30.1234Z" fill="white"/>
<path d="M182.282 30.1236H180.486V21.2032C180.506 20.2836 180.188 19.3885 179.59 18.6891C178.91 17.913 177.966 17.5244 176.748 17.5244C175.591 17.5244 174.644 17.8704 173.907 18.5624C173.17 19.2544 172.801 20.0667 172.8 20.9992C172.8 21.3083 172.809 21.6239 172.834 21.9481C172.86 22.2829 172.906 22.6159 172.972 22.9453L173.401 25.1266V26.7744C173.376 26.9418 173.36 27.0642 173.351 27.1415L173.631 25.0794C173.765 24.3749 173.934 23.6777 174.139 22.9904C174.32 22.3916 174.548 21.8082 174.823 21.2461C175.314 20.207 176.103 19.6871 177.191 19.6864C177.814 19.6846 178.415 19.9242 178.866 20.3551C179.1 20.5613 179.286 20.8161 179.411 21.1016C179.536 21.3871 179.599 21.6964 179.592 22.0082C179.597 22.3117 179.538 22.6127 179.42 22.8924C179.303 23.1721 179.129 23.4244 178.909 23.6335C178.682 23.8542 178.413 24.027 178.118 24.1417C177.823 24.2564 177.508 24.3106 177.191 24.3012C176.62 24.3065 176.064 24.1172 175.614 23.7644C175.388 24.3426 175.089 25.3446 174.715 26.7701C174.565 27.3637 174.421 27.9337 174.297 28.4876C174.172 29.0415 174.045 29.5857 173.93 30.1322H172.014V27.9681C172.014 27.0342 171.799 25.5753 171.37 23.5755C171.277 23.072 171.195 22.5804 171.123 22.0941C171.062 21.7206 171.026 21.3432 171.016 20.9648C171.016 19.6645 171.53 18.5409 172.559 17.5942C173.695 16.613 175.128 16.1228 176.859 16.1235C178.492 16.1235 179.807 16.5794 180.804 17.4911C181.801 18.4028 182.298 19.5149 182.295 20.8274L182.282 30.1236ZM178.24 22.0029C178.239 21.8728 178.21 21.7445 178.155 21.6263C178.101 21.5081 178.022 21.4027 177.925 21.3169C177.836 21.2125 177.724 21.1299 177.599 21.0752C177.474 21.0205 177.337 20.9952 177.2 21.0013C177.06 21.0004 176.921 21.0278 176.792 21.0821C176.663 21.1364 176.546 21.2163 176.449 21.3169C176.308 21.45 176.209 21.6819 176.148 22.0029C176.147 22.1366 176.173 22.2693 176.225 22.3927C176.277 22.5161 176.353 22.6278 176.449 22.721C176.567 22.8157 176.706 22.8814 176.853 22.9132C177.019 22.9518 177.138 22.9754 177.206 22.9883C177.34 22.9913 177.474 22.9747 177.602 22.9389C177.723 22.8892 177.832 22.8162 177.925 22.7243C178.12 22.5344 178.234 22.2753 178.24 22.0029Z" fill="white"/>
<path d="M197.088 28.2365C197.088 29.4932 196.535 30.1222 195.428 30.1237H194.812C194.525 29.3057 193.948 28.4827 193.08 27.6547C192.655 27.2356 192.181 26.8711 191.666 26.5694C191.19 26.2925 190.681 26.0762 190.151 25.9254V28.0175C190.159 28.3062 190.11 28.5935 190.006 28.8629C189.902 29.1323 189.745 29.3784 189.546 29.5869C189.14 30.0056 188.58 30.2171 187.852 30.2171C187.139 30.222 186.452 29.9503 185.934 29.4592C185.416 28.901 185.16 28.214 185.16 27.3907C185.16 26.607 185.482 25.9179 186.146 25.3253C186.459 25.0404 186.823 24.8155 187.219 24.6619C187.613 24.5092 188.032 24.4317 188.454 24.4332V20.7277C188.363 20.7658 188.266 20.7914 188.168 20.8039C188.06 20.82 187.865 20.8425 187.581 20.864C186.943 20.8719 186.326 20.6393 185.853 20.2125C185.641 20.0134 185.468 19.7759 185.345 19.5125C185.217 19.23 185.154 18.9222 185.16 18.6119C185.159 18.3053 185.218 18.0014 185.336 17.7183C185.454 17.4353 185.627 17.1788 185.846 16.9641C186.073 16.7312 186.344 16.548 186.645 16.426C186.946 16.304 187.269 16.246 187.593 16.2557C188.371 16.2557 188.985 16.495 189.436 16.9738C189.911 17.4107 190.151 17.9979 190.151 18.7418V24.5213C190.591 24.5645 191.022 24.673 191.431 24.8433C192.929 25.5073 194.251 26.5114 195.294 27.776V16.4145H197.091L197.088 28.2365ZM188.554 18.6377C188.553 18.5102 188.525 18.3845 188.473 18.2682C188.421 18.1519 188.345 18.0475 188.252 17.9614C188.159 17.8645 188.048 17.7875 187.926 17.7353C187.803 17.6831 187.67 17.6566 187.537 17.6576C187.399 17.6584 187.262 17.6864 187.136 17.7402C187.009 17.794 186.894 17.8725 186.798 17.9711C186.639 18.1106 186.54 18.3317 186.507 18.6377C186.505 18.7681 186.524 18.898 186.564 19.022C186.619 19.1447 186.698 19.2545 186.798 19.344C186.897 19.4151 187.005 19.4722 187.12 19.5136C187.257 19.5556 187.399 19.5858 187.541 19.6038C187.806 19.6066 188.063 19.5062 188.256 19.3236C188.352 19.2375 188.429 19.1317 188.48 19.0132C188.531 18.8949 188.557 18.7667 188.554 18.6377ZM188.454 27.8254V25.9254C188.019 25.9133 187.595 26.0628 187.263 26.3451C187.119 26.4739 187.004 26.6318 186.926 26.8084C186.847 26.9849 186.807 27.176 186.808 27.3692C186.792 27.6883 186.874 28.0047 187.042 28.2762C187.123 28.3949 187.232 28.493 187.358 28.5628C187.484 28.6326 187.624 28.6723 187.768 28.6788C188.224 28.6788 188.454 28.3954 188.454 27.8243V27.8254Z" fill="white"/>
<path d="M211.298 28.0001C211.298 28.7602 211.141 29.3065 210.827 29.6393C210.545 29.9613 210.112 30.1234 209.53 30.1234H208.916L206.003 23.7568L203.106 30.1234H200.716V18.7448C200.716 18.0084 200.946 17.4094 201.396 16.9489C201.847 16.4884 202.488 16.2512 203.318 16.2512C203.639 16.2434 203.958 16.3033 204.253 16.427C204.549 16.5508 204.816 16.7355 205.036 16.9693C205.258 17.1732 205.437 17.4207 205.56 17.6966C205.683 17.9724 205.748 18.2707 205.751 18.5727C205.754 18.8748 205.695 19.1742 205.577 19.4524C205.459 19.7306 205.286 19.9816 205.066 20.1897C204.844 20.4086 204.579 20.5805 204.289 20.6952C203.999 20.8099 203.688 20.8651 203.376 20.8574C203.202 20.8612 203.028 20.8547 202.854 20.838C202.733 20.8219 202.615 20.7821 202.509 20.721V27.618L205.382 21.5401L206.657 21.5347L209.496 27.6244V16.4143H211.292L211.298 28.0001ZM204.409 18.6375C204.408 18.5103 204.38 18.3848 204.326 18.2697C204.272 18.1545 204.194 18.0526 204.097 17.9709C204.009 17.8689 203.9 17.7879 203.776 17.7336C203.654 17.6794 203.52 17.6534 203.386 17.6574C203.248 17.658 203.111 17.686 202.983 17.7398C202.856 17.7936 202.74 17.8721 202.643 17.9709C202.493 18.1104 202.4 18.3315 202.363 18.6375C202.361 18.7714 202.382 18.9047 202.425 19.0314C202.471 19.148 202.545 19.2515 202.64 19.3331C202.754 19.4303 202.892 19.4968 203.039 19.5263C203.201 19.565 203.314 19.5885 203.382 19.6014C203.516 19.6061 203.648 19.5894 203.776 19.5521C203.896 19.5026 204.006 19.4296 204.097 19.3373C204.196 19.2492 204.274 19.1413 204.328 19.0207C204.382 18.9 204.409 18.7694 204.409 18.6375Z" fill="white"/>
<path d="M211.292 36.0941C211.292 36.9615 211.085 37.6195 210.668 38.0532C210.251 38.4869 209.577 38.7091 208.629 38.7091H204.286V37.4886C204.768 37.4886 205.108 37.4199 205.307 37.2857C205.472 37.1268 205.553 36.8338 205.553 36.4162V35.6798L204.829 35.8204C204.531 35.8297 204.233 35.78 203.954 35.6743C203.675 35.5686 203.419 35.4089 203.201 35.2043C202.788 34.7914 202.557 34.2315 202.557 33.6477C202.557 33.064 202.788 32.5041 203.201 32.0912C203.419 31.8864 203.675 31.7266 203.954 31.621C204.233 31.5154 204.531 31.4662 204.829 31.4761C205.559 31.4761 206.158 31.6983 206.626 32.1352C207.111 32.5378 207.35 33.0874 207.35 33.7851V37.4349H207.994C208.638 37.4349 209.051 37.3222 209.25 37.1043C209.329 36.9517 209.388 36.7897 209.425 36.6223C209.474 36.3829 209.497 36.1388 209.494 35.8945V31.6167L211.291 31.5996L211.292 36.0941ZM205.804 33.6488C205.808 33.5296 205.788 33.411 205.743 33.3002C205.7 33.1893 205.633 33.0888 205.548 33.0047C205.35 32.8258 205.097 32.7195 204.831 32.7031C204.709 32.6983 204.588 32.7177 204.473 32.7603C204.359 32.8029 204.255 32.8677 204.166 32.9511C203.986 33.1419 203.877 33.3891 203.858 33.6509C203.856 33.7764 203.879 33.901 203.928 34.0168C203.976 34.1326 204.048 34.2372 204.139 34.324C204.332 34.4896 204.576 34.5863 204.831 34.5988C204.952 34.6038 205.073 34.5842 205.187 34.5414C205.301 34.4987 205.404 34.4335 205.493 34.3498C205.675 34.1596 205.785 33.9116 205.804 33.6488Z" fill="white"/>
<path d="M213.936 9.29835C213.793 10.7368 213.14 11.8621 211.978 12.6743C211.456 13.0136 210.887 13.2758 210.29 13.4526C209.628 13.6421 208.941 13.7354 208.251 13.7295C207.655 13.7311 207.06 13.6649 206.479 13.532C206.783 13.3731 207.053 13.1582 207.277 12.8987C207.492 12.6393 207.652 12.3377 207.745 12.0131L207.374 12.0561C206.987 12.071 206.606 11.9673 206.28 11.759C205.953 11.5506 205.699 11.2475 205.55 10.8902C205.402 10.5431 205.363 10.1597 205.437 9.78982C205.51 9.42 205.693 9.08078 205.962 8.81635C206.154 8.64935 206.371 8.51416 206.606 8.41594C206.848 8.31328 207.11 8.26105 207.374 8.26241C207.658 8.25403 207.941 8.30182 208.207 8.40319C208.473 8.50449 208.716 8.6573 208.923 8.85281C209.122 9.037 209.28 9.26124 209.387 9.51084C209.493 9.76037 209.546 10.0296 209.541 10.3009C209.548 10.6727 209.509 11.0439 209.422 11.4056C209.369 11.6173 209.302 11.8252 209.222 12.0281C209.143 12.1978 209.049 12.3602 208.941 12.5134C209.386 12.5182 209.827 12.422 210.229 12.2321C210.657 12.0305 211.047 11.7563 211.38 11.4216C212.02 10.8069 212.34 10.0992 212.338 9.29835H213.936ZM208.248 10.1571C208.248 9.58886 207.95 9.3048 207.355 9.3048C206.754 9.3048 206.451 9.58922 206.451 10.1571C206.451 10.7045 206.754 10.9783 207.355 10.9783C207.956 10.9783 208.248 10.6992 208.248 10.1571Z" fill="white"/>
<path d="M225.565 30.1234H223.769V21.203C223.769 20.1713 223.47 19.3201 222.876 18.6556C222.225 17.8978 221.305 17.5242 220.12 17.5242C219.009 17.5242 218.092 17.8344 217.356 18.4613C216.621 19.0882 216.221 19.6819 216.152 20.2508L216.083 21.5164C216.089 21.9624 216.125 22.4074 216.19 22.8486C216.262 23.3495 216.382 23.9578 216.552 24.6734C216.873 26.0939 217.034 27.0375 217.035 27.5041C217.117 27.3603 217.204 27.2164 217.295 27.0747C217.401 26.9061 217.516 26.7434 217.64 26.5874C217.73 26.4475 217.828 26.3131 217.933 26.1849C218.084 25.9959 218.256 25.792 218.452 25.5654L219.632 24.229C219.115 24.1143 218.647 23.838 218.297 23.44C217.969 23.0323 217.789 22.5251 217.786 22.0015C217.786 21.409 218.014 20.8659 218.473 20.3785C218.943 19.9338 219.566 19.6873 220.213 19.6905C220.845 19.6893 221.452 19.9364 221.904 20.3785C222.136 20.5798 222.321 20.8299 222.447 21.111C222.572 21.392 222.633 21.6972 222.627 22.0048C222.627 22.4728 222.539 22.8464 222.366 23.1255C222.273 23.3073 222.165 23.4814 222.044 23.6461C221.907 23.8233 221.776 23.9853 221.648 24.1302L219.576 26.625C219.119 27.2207 218.663 27.8477 218.207 28.5121C217.842 29.0219 217.519 29.5604 217.241 30.1223H215.295V28.1321C215.292 27.6272 215.256 27.1232 215.188 26.6228C215.117 26.0861 214.991 25.4063 214.814 24.5832C214.632 23.7621 214.499 23.0729 214.418 22.5083C214.341 21.9961 214.3 21.4792 214.296 20.9614C214.296 19.6056 214.82 18.4645 215.874 17.5264C216.928 16.5882 218.348 16.1201 220.135 16.1201C221.751 16.1201 223.06 16.5677 224.065 17.4759C225.07 18.384 225.574 19.4962 225.574 20.824L225.565 30.1234ZM221.271 22.0026C221.27 21.8719 221.24 21.7431 221.185 21.6248C221.129 21.5065 221.049 21.4014 220.95 21.3167C220.856 21.2138 220.743 21.1322 220.615 21.0777C220.488 21.0233 220.349 20.9971 220.211 21.0011C220.067 20.9996 219.924 21.0271 219.791 21.082C219.657 21.137 219.536 21.2183 219.435 21.321C219.266 21.467 219.167 21.6924 219.129 22.0069C219.127 22.1375 219.147 22.2673 219.191 22.3902C219.249 22.5149 219.331 22.6261 219.435 22.7165C219.536 22.7931 219.649 22.8519 219.769 22.8904C219.912 22.9391 220.061 22.9704 220.212 22.9838C220.483 22.988 220.745 22.8929 220.95 22.7165C221.149 22.5307 221.265 22.274 221.273 22.0026H221.271Z" fill="white"/>
<path d="M225.596 36.0942C225.596 36.9615 225.39 37.6196 224.972 38.0532C224.554 38.4869 223.881 38.7091 222.933 38.7091H218.59V37.4886C219.071 37.4886 219.411 37.4199 219.61 37.2857C219.777 37.1268 219.857 36.8338 219.857 36.4162V35.6798L219.133 35.8204C218.835 35.8298 218.537 35.7802 218.258 35.6745C217.979 35.5687 217.723 35.409 217.505 35.2043C217.093 34.7914 216.861 34.2315 216.861 33.6477C216.861 33.064 217.093 32.5041 217.505 32.0912C217.723 31.8863 217.979 31.7264 218.258 31.6208C218.537 31.5152 218.835 31.4661 219.133 31.4761C219.863 31.4761 220.462 31.6984 220.93 32.1352C221.413 32.5381 221.654 33.0881 221.653 33.7851V37.4349H222.297C222.941 37.4349 223.356 37.3222 223.555 37.1043C223.635 36.9522 223.693 36.7901 223.729 36.6223C223.78 36.3832 223.803 36.1389 223.798 35.8945V31.6168L225.594 31.5996L225.596 36.0942ZM220.107 33.6488C220.111 33.5295 220.091 33.4107 220.047 33.2998C220.002 33.1889 219.936 33.0884 219.85 33.0048C219.653 32.8261 219.4 32.7198 219.133 32.7031C219.012 32.698 218.891 32.7173 218.778 32.76C218.664 32.8025 218.56 32.8676 218.472 32.9511C218.29 33.1406 218.179 33.3883 218.16 33.651C218.158 33.7768 218.181 33.9019 218.231 34.0178C218.28 34.1338 218.353 34.2381 218.444 34.324C218.637 34.4901 218.88 34.5868 219.133 34.5989C219.255 34.6034 219.377 34.5838 219.491 34.541C219.605 34.4983 219.709 34.4333 219.798 34.3498C219.98 34.1597 220.09 33.9115 220.107 33.6488Z" fill="white"/>
<path d="M234.783 27.9487C234.787 28.2537 234.73 28.5563 234.614 28.8386C234.484 29.1328 234.298 29.3987 234.066 29.6212C233.842 29.8473 233.573 30.0251 233.278 30.1432C232.983 30.2614 232.667 30.3176 232.349 30.3081C231.55 30.3081 230.913 30.0763 230.432 29.6169C229.975 29.1291 229.728 28.4802 229.746 27.8113V16.4326H231.543V25.8297C231.683 25.7738 231.973 25.7277 232.407 25.6955C233.023 25.6894 233.617 25.9156 234.073 26.3289C234.304 26.5295 234.487 26.779 234.61 27.059C234.732 27.3391 234.791 27.643 234.783 27.9487ZM233.435 27.9336C233.434 27.8059 233.406 27.6799 233.353 27.5637C233.299 27.4476 233.222 27.3439 233.126 27.2596C233.03 27.1643 232.917 27.0892 232.791 27.0383C232.666 26.9875 232.532 26.962 232.397 26.9632C232.115 26.959 231.844 27.0654 231.64 27.2596C231.477 27.4026 231.377 27.6274 231.339 27.9336C231.334 28.065 231.355 28.1961 231.402 28.319C231.455 28.4434 231.537 28.5536 231.64 28.6411C231.74 28.7108 231.848 28.7671 231.962 28.8085C232.101 28.8557 232.245 28.8874 232.392 28.903C232.662 28.9067 232.923 28.8059 233.121 28.6218C233.22 28.5366 233.298 28.4309 233.352 28.312C233.406 28.1932 233.433 28.064 233.431 27.9336H233.435ZM241.62 27.9487C241.624 28.2536 241.567 28.5562 241.452 28.8386C241.321 29.1326 241.135 29.3985 240.903 29.6212C240.678 29.8473 240.41 30.0251 240.115 30.1432C239.82 30.2614 239.503 30.3176 239.185 30.3081C238.386 30.3081 237.75 30.0763 237.27 29.6169C237.055 29.381 236.884 29.1073 236.768 28.8096C236.644 28.4914 236.582 28.1526 236.585 27.8113V16.4326H238.38V25.8297C238.66 25.7498 238.948 25.7047 239.239 25.6955C239.854 25.6892 240.449 25.9153 240.905 26.3289C241.135 26.5293 241.319 26.7786 241.442 27.0588C241.565 27.3389 241.624 27.6429 241.615 27.9487H241.62ZM240.272 27.9336C240.27 27.8048 240.24 27.678 240.184 27.5617C240.129 27.4455 240.049 27.3424 239.951 27.2596C239.859 27.1602 239.747 27.0822 239.623 27.0309C239.498 26.9797 239.364 26.9567 239.229 26.9632C238.961 26.9536 238.701 27.0494 238.503 27.2301C238.305 27.4108 238.186 27.6619 238.172 27.9293C238.167 28.0607 238.189 28.1916 238.234 28.3147C238.288 28.4386 238.37 28.5487 238.472 28.6368C238.572 28.7066 238.68 28.763 238.795 28.8042C238.933 28.8517 239.077 28.8834 239.224 28.8987C239.494 28.9024 239.757 28.8017 239.955 28.6175C240.054 28.5331 240.133 28.4282 240.187 28.3102C240.241 28.192 240.269 28.0636 240.268 27.9336H240.272Z" fill="white"/>
<path d="M254.539 30.1237H252.693L249.165 22.6095C249.003 22.315 248.767 22.0676 248.481 21.8913C248.252 21.7414 247.982 21.6664 247.708 21.6766C247.609 21.6747 247.508 21.6801 247.409 21.6927C246.541 21.8301 246.108 22.3368 246.108 23.2396V25.8298C246.197 25.7938 246.29 25.7679 246.385 25.7525C246.493 25.7375 246.681 25.7193 246.959 25.6956C247.573 25.6836 248.167 25.9107 248.615 26.329C248.839 26.533 249.017 26.783 249.136 27.0621C249.254 27.3412 249.311 27.6426 249.302 27.9456C249.307 28.2503 249.251 28.5529 249.137 28.8356C249.005 29.1287 248.818 29.3942 248.587 29.6181C248.17 30.0732 247.594 30.3051 246.877 30.3051C246.086 30.3051 245.455 30.0732 244.994 29.6116C244.538 29.1214 244.293 28.4713 244.311 27.8018V23.0635C244.311 22.3422 244.552 21.7636 245.031 21.317C245.425 20.8833 245.94 20.5793 246.51 20.4454C246.672 20.4121 246.909 20.3799 247.221 20.3434C247.533 20.3069 247.723 20.2876 247.794 20.2779C248.114 20.2755 248.434 20.3039 248.75 20.3627C249.036 20.4175 249.313 20.5194 249.566 20.6644C250.038 20.8791 250.396 21.2648 250.639 21.8215L252.744 26.4202V20.3466C252.744 19.5855 252.406 18.921 251.726 18.3629C251.045 17.8047 250.223 17.5245 249.248 17.5245C247.277 17.5245 245.969 18.2999 245.324 19.8507H243.463C243.803 18.6957 244.508 17.78 245.574 17.0951C246.12 16.7799 246.705 16.5381 247.314 16.3759C247.98 16.1998 248.666 16.115 249.353 16.1236C250.833 16.1236 252.066 16.4747 253.053 17.1767C254.041 17.8787 254.537 18.822 254.542 20.0063L254.539 30.1237ZM248 27.9338C247.996 27.8042 247.965 27.677 247.907 27.5607C247.849 27.4444 247.768 27.3418 247.667 27.2597C247.576 27.1604 247.463 27.0824 247.338 27.0313C247.213 26.98 247.078 26.9569 246.943 26.9634C246.665 26.9681 246.398 27.0733 246.192 27.2597C246.036 27.4035 245.942 27.6279 245.908 27.9338C245.905 28.0688 245.927 28.2033 245.97 28.331C246.02 28.4512 246.095 28.5587 246.192 28.6455C246.294 28.7156 246.405 28.7719 246.523 28.813C246.662 28.8587 246.806 28.8903 246.952 28.9074C247.089 28.912 247.227 28.8916 247.357 28.8473C247.477 28.8028 247.587 28.7342 247.679 28.6455C247.78 28.5561 247.86 28.4465 247.915 28.3238C247.971 28.2012 248 28.0683 248 27.9338Z" fill="white"/>
<path d="M263.724 27.9487C263.729 28.2535 263.671 28.5561 263.557 28.8386C263.423 29.1328 263.235 29.3986 263.001 29.6212C262.557 30.0763 261.984 30.3081 261.284 30.3081C260.492 30.3081 259.852 30.0763 259.372 29.6169C258.914 29.129 258.669 28.4798 258.689 27.8113V16.4326H260.485V25.8297C260.623 25.7738 260.914 25.7277 261.344 25.6955C261.959 25.6881 262.554 25.9145 263.009 26.3289C263.241 26.5292 263.425 26.7784 263.549 27.0585C263.672 27.3386 263.732 27.6426 263.724 27.9487ZM262.378 27.9336C262.375 27.8058 262.347 27.6797 262.293 27.5636C262.239 27.4475 262.162 27.3439 262.066 27.2596C261.97 27.1643 261.855 27.0891 261.73 27.0383C261.605 26.9874 261.471 26.9619 261.335 26.9632C261.055 26.9592 260.785 27.0656 260.584 27.2596C260.414 27.4026 260.314 27.6274 260.283 27.9336C260.28 28.0645 260.299 28.1951 260.341 28.319C260.397 28.443 260.48 28.553 260.584 28.6411C260.683 28.7115 260.791 28.7679 260.906 28.8085C261.045 28.8558 261.189 28.8875 261.335 28.903C261.606 28.9067 261.868 28.806 262.066 28.6218C262.165 28.5366 262.244 28.4309 262.297 28.3121C262.351 28.1933 262.378 28.0641 262.378 27.9336Z" fill="white"/>
<path d="M275.508 27.8049C275.508 28.5449 275.282 29.1471 274.829 29.6115C274.379 30.0742 273.736 30.3082 272.907 30.3082C272.583 30.3148 272.261 30.2575 271.96 30.1397C271.658 30.0218 271.383 29.8456 271.15 29.6212C270.712 29.1749 270.467 28.5741 270.468 27.9487C270.465 27.6485 270.526 27.3511 270.648 27.0766C270.77 26.8022 270.949 26.5571 271.173 26.3579C271.622 25.9259 272.223 25.689 272.844 25.6987C273.018 25.695 273.192 25.7004 273.366 25.7149C273.487 25.7342 273.604 25.7741 273.71 25.8329V20.3583C273.71 19.5532 273.389 18.8823 272.75 18.3359C272.112 17.7895 271.328 17.5201 270.406 17.5201C269.587 17.5183 268.781 17.7263 268.066 18.1244C267.419 18.5253 266.923 19.1293 266.656 19.842H264.779C265.173 18.6405 265.881 17.7219 266.9 17.0864C267.425 16.7771 267.986 16.5354 268.572 16.3672C269.2 16.1907 269.851 16.1057 270.503 16.1149C271.92 16.1149 273.109 16.466 274.07 17.1777C275.032 17.8894 275.51 18.8308 275.51 20.0041L275.508 27.8049ZM273.912 27.9337C273.907 27.8038 273.874 27.6763 273.816 27.5601C273.758 27.4438 273.675 27.3413 273.574 27.2595C273.483 27.1603 273.371 27.0824 273.245 27.0311C273.121 26.98 272.986 26.9568 272.851 26.9633C272.573 26.969 272.306 27.0741 272.099 27.2595C271.944 27.4034 271.852 27.6278 271.819 27.9337C271.816 28.0685 271.836 28.203 271.879 28.3309C271.928 28.4509 272.003 28.5583 272.099 28.6454C272.203 28.7156 272.316 28.7719 272.435 28.8129C272.571 28.8588 272.712 28.8905 272.855 28.9073C272.993 28.9118 273.13 28.8915 273.261 28.8472C273.381 28.8028 273.49 28.7341 273.583 28.6454C273.685 28.5565 273.766 28.4473 273.823 28.3246C273.879 28.202 273.909 28.0687 273.912 27.9337Z" fill="white"/>
<path d="M275.695 7.35864C275.695 8.1702 275.303 8.83575 274.515 9.3639C273.727 9.89455 272.796 10.1714 271.846 10.1572H270.582C270.417 10.1572 270.26 10.1572 270.089 10.1668C269.906 10.1759 269.724 10.1992 269.544 10.2366C269.238 10.2366 268.889 10.4105 268.489 10.7615C268.134 11.0331 267.959 11.427 267.959 11.9477C267.957 12.1479 267.997 12.3463 268.076 12.5301C268.156 12.7139 268.273 12.879 268.42 13.0147C268.586 13.1973 268.818 13.3072 269.064 13.3207L270.367 11.558C270.424 11.6138 270.487 11.6772 270.55 11.748C270.602 11.8033 270.646 11.8663 270.679 11.9348L271.403 12.5982C271.485 12.1543 271.711 11.7499 272.047 11.4485C272.434 11.1297 272.923 10.9611 273.424 10.9737C273.926 10.9863 274.406 11.1793 274.777 11.5172C274.949 11.6827 275.089 11.8798 275.187 12.098C275.288 12.3236 275.339 12.5681 275.337 12.815C275.339 13.0666 275.287 13.3157 275.184 13.5453C275.082 13.7748 274.93 13.9794 274.741 14.1451C274.534 14.3183 274.295 14.4505 274.039 14.5347C273.77 14.63 273.486 14.6776 273.201 14.6753C272.942 14.6737 272.683 14.6442 272.43 14.5873C272.175 14.5247 271.929 14.4325 271.695 14.3125C271.213 14.0873 270.784 13.7641 270.434 13.3636L269.642 14.5369H268.625C268.319 14.5379 268.016 14.4784 267.733 14.3618C267.45 14.2451 267.193 14.0738 266.975 13.8573C266.495 13.4022 266.255 12.7839 266.255 12.0207C266.255 11.2833 266.553 10.6252 267.156 10.0294C267.707 9.50883 268.308 9.21252 268.942 9.15026C269.287 9.08693 269.635 9.04681 269.985 9.03005H271.84C272.43 9.03005 272.924 8.90983 273.325 8.66288C273.702 8.36987 273.891 7.93615 273.891 7.35864H275.695ZM274.148 12.8C274.148 12.3041 273.893 12.0486 273.375 12.0486C272.856 12.0486 272.602 12.2998 272.602 12.8C272.602 13.3003 272.86 13.5514 273.375 13.5514C273.89 13.5514 274.148 13.2992 274.148 12.8Z" fill="white"/>
<path d="M290.617 26.8957C290.617 27.9767 290.366 28.8043 289.866 29.3711C289.372 29.8721 288.493 30.1225 287.226 30.1225H279.086V28.8129C279.776 28.8129 280.25 28.7056 280.508 28.5016C280.765 28.2977 280.892 27.8672 280.892 27.2403V20.7276C280.802 20.7659 280.707 20.7915 280.611 20.8039C280.503 20.8199 280.315 20.8425 280.035 20.864C279.405 20.8717 278.795 20.6387 278.33 20.2124C278.119 20.0137 277.949 19.776 277.829 19.5125C277.703 19.2291 277.64 18.9218 277.645 18.6118C277.645 18.3048 277.705 18.0007 277.824 17.7176C277.943 17.4345 278.118 17.1782 278.338 16.9641C278.568 16.7312 278.843 16.5481 279.147 16.4261C279.45 16.3043 279.776 16.2462 280.104 16.2556C280.89 16.2556 281.512 16.495 281.967 16.9738C282.445 17.4106 282.684 17.9978 282.684 18.7417V28.7249H286.233C287.327 28.7249 288.026 28.6079 288.331 28.3621C288.661 28.0679 288.824 27.4657 288.824 26.5371V16.4144H290.62L290.617 26.8957ZM281.085 18.6376C281.084 18.5095 281.056 18.3832 281.003 18.2667C280.949 18.1503 280.872 18.0462 280.776 17.9613C280.682 17.864 280.568 17.787 280.443 17.7347C280.318 17.6825 280.183 17.6563 280.048 17.6576C279.763 17.6573 279.49 17.7701 279.288 17.971C279.127 18.1106 279.027 18.3317 278.99 18.6376C278.985 18.7686 279.006 18.8992 279.053 19.0219C279.105 19.146 279.186 19.2563 279.288 19.344C279.388 19.4147 279.496 19.4717 279.611 19.5135C279.751 19.5556 279.894 19.5857 280.04 19.6037C280.31 19.6071 280.571 19.5068 280.768 19.3235C280.869 19.2399 280.95 19.1349 281.004 19.0163C281.059 18.8976 281.086 18.7682 281.085 18.6376Z" fill="white"/>
<path d="M300.822 27.9488C300.827 28.2536 300.77 28.5562 300.656 28.8387C300.524 29.1327 300.338 29.3986 300.105 29.6213C299.689 30.0764 299.116 30.3082 298.396 30.3082C297.606 30.3082 296.971 30.0778 296.493 29.617C296.279 29.382 296.11 29.1095 295.995 28.8129C295.881 28.491 295.826 28.1509 295.832 27.8092V9.65168L293.441 11.9607C293.119 11.2179 292.75 10.4971 292.333 9.80306C291.407 8.28877 290.41 7.26007 289.345 6.71688L290.889 5.73145C291.652 6.17657 292.396 6.91583 293.119 7.94919C293.226 8.09197 293.343 8.27122 293.471 8.48593C293.599 8.70064 293.758 8.97546 293.945 9.31253L296.321 7.01744C296.504 7.01764 296.684 7.06394 296.846 7.15209C297.007 7.24022 297.143 7.36739 297.242 7.52199C297.367 7.70697 297.459 7.91215 297.514 8.12851C297.58 8.36579 297.612 8.61109 297.611 8.85732V25.8298C297.701 25.7937 297.795 25.7677 297.891 25.7525C297.999 25.7375 298.188 25.7192 298.464 25.6956C299.081 25.6828 299.679 25.9099 300.13 26.329C300.357 26.5325 300.535 26.7828 300.655 27.0626C300.774 27.3423 300.832 27.6447 300.822 27.9488ZM299.526 27.9337C299.526 27.689 299.413 27.4679 299.188 27.2597C299.098 27.1605 298.986 27.0826 298.862 27.0313C298.737 26.9801 298.603 26.9569 298.469 26.9633C298.187 26.9585 297.914 27.065 297.71 27.2597C297.558 27.4034 297.463 27.6278 297.429 27.9337C297.424 28.0689 297.446 28.2036 297.491 28.3309C297.537 28.4487 297.611 28.5534 297.706 28.6358C297.823 28.7328 297.962 28.8002 298.112 28.8323C298.274 28.873 298.392 28.8945 298.464 28.9074C298.598 28.9107 298.731 28.8933 298.858 28.8558C299.044 28.7788 299.204 28.6518 299.321 28.489C299.439 28.3261 299.508 28.1339 299.522 27.9337H299.526Z" fill="white"/>
<path d="M314.775 30.1236H312.978V19.725C312.978 18.4053 312.533 17.7462 311.643 17.7477C311.362 17.7477 311.153 17.9914 311.01 18.4744L307.111 30.1236H305.143V20.7276C305.053 20.7669 304.959 20.7926 304.861 20.8038C304.754 20.8199 304.565 20.8425 304.284 20.8639C303.655 20.8716 303.046 20.6385 302.583 20.2124C302.373 20.0133 302.203 19.7757 302.083 19.5124C301.956 19.2294 301.894 18.9219 301.899 18.6118C301.899 18.3048 301.959 18.0008 302.078 17.7177C302.197 17.4347 302.371 17.1784 302.591 16.9641C302.821 16.7313 303.097 16.5482 303.401 16.4264C303.704 16.3045 304.03 16.2463 304.357 16.2556C305.144 16.2556 305.764 16.4949 306.219 16.9737C306.7 17.4106 306.939 17.9999 306.939 18.7471V23.4435C306.939 23.6742 306.924 23.9877 306.89 24.3763C306.855 24.7648 306.805 25.2072 306.739 25.6988C306.739 25.8963 306.726 26.1282 306.702 26.3804C306.678 26.6327 306.639 26.9258 306.595 27.2338C306.663 26.9258 306.716 26.6853 306.751 26.5178C306.778 26.3748 306.818 26.2346 306.872 26.0992C307.004 25.5122 307.172 24.934 307.375 24.3677L309.521 17.7939C309.837 16.7708 310.587 16.2556 311.776 16.2556C312.705 16.2556 313.433 16.506 313.958 17.007C314.238 17.2687 314.448 17.5959 314.569 17.9592C314.722 18.4227 314.794 18.9087 314.784 19.3965L314.775 30.1236ZM305.343 18.6376C305.341 18.5096 305.313 18.3833 305.26 18.2668C305.207 18.1503 305.13 18.0462 305.035 17.9613C304.939 17.8639 304.825 17.7868 304.7 17.7346C304.574 17.6823 304.439 17.6561 304.303 17.6575C304.02 17.6575 303.747 17.7703 303.545 17.971C303.381 18.1105 303.28 18.3316 303.246 18.6376C303.243 18.7685 303.265 18.8988 303.31 19.0219C303.363 19.1458 303.444 19.2559 303.545 19.3439C303.645 19.4141 303.753 19.4712 303.868 19.5135C304.008 19.5557 304.151 19.5859 304.297 19.6037C304.568 19.6073 304.829 19.507 305.028 19.3235C305.128 19.2397 305.208 19.1346 305.262 19.0159C305.317 18.8973 305.344 18.7681 305.343 18.6376Z" fill="white"/>
<path d="M328.402 26.8955C328.402 28.0001 328.152 28.8127 327.651 29.3409C327.15 29.869 326.274 30.1234 325.012 30.1234H318.518V25.2832C318.518 24.5883 318.686 24.0291 319.023 23.6054C319.192 23.4261 319.506 23.2007 319.964 22.9195C319.487 22.8046 319.047 22.5696 318.686 22.2367C318.514 22.0597 318.38 21.85 318.291 21.62C318.202 21.3901 318.16 21.1446 318.167 20.8981V18.7448C318.167 17.9933 318.392 17.3858 318.841 16.937C319.291 16.4883 319.933 16.2587 320.765 16.2587C321.085 16.2531 321.404 16.314 321.699 16.4376C321.994 16.5612 322.261 16.7448 322.482 16.9768C322.715 17.1805 322.9 17.4329 323.025 17.7158C323.149 17.9988 323.21 18.3057 323.204 18.6149C323.204 19.2268 322.96 19.7603 322.48 20.2154C322.265 20.4238 322.014 20.5909 321.739 20.7081C321.447 20.8224 321.136 20.8764 320.824 20.867C320.4 20.867 320.112 20.8208 319.959 20.7307C319.959 21.116 320.159 21.466 320.565 21.7784C321.005 22.0746 321.606 22.2238 322.368 22.2238H323.452V23.6247H322.327C320.983 23.6247 320.309 24.2076 320.309 25.3873V28.7247H324.014C325.104 28.7247 325.799 28.6077 326.103 28.3619C326.432 28.0677 326.596 27.4655 326.596 26.537V16.4143H328.394L328.402 26.8955ZM321.864 18.6374C321.863 18.5094 321.835 18.3831 321.782 18.2666C321.729 18.1501 321.651 18.046 321.556 17.9611C321.461 17.8634 321.347 17.7861 321.221 17.7339C321.095 17.6817 320.959 17.6556 320.823 17.6574C320.541 17.6591 320.271 17.7717 320.072 17.9708C319.906 18.1104 319.808 18.3315 319.773 18.6374C319.768 18.7685 319.789 18.8991 319.836 19.0217C319.887 19.1465 319.968 19.2569 320.072 19.3438C320.171 19.4148 320.279 19.4719 320.394 19.5133C320.534 19.5555 320.677 19.5856 320.823 19.6035C321.094 19.6077 321.356 19.5074 321.556 19.3233C321.655 19.2389 321.734 19.1336 321.787 19.0149C321.84 18.8964 321.866 18.7674 321.864 18.6374Z" fill="white"/>
</g>
<defs>
<clipPath id="clip0_1137_7554">
<rect width="329.497" height="96" fill="white" transform="translate(0.554199)"/>
</clipPath>
</defs>
</svg>
