<svg width="178" height="72" viewBox="0 0 178 72" fill="none" xmlns="http://www.w3.org/2000/svg">
<g clip-path="url(#clip0_999_6118)">
<path d="M-0.487503 -0.323364H176.742V72.3163H-0.487503V-0.323364Z" fill="#452279"/>
<path d="M160.598 51.1391L155.007 29.2451L140.185 15.8188L125.363 29.2451L119.771 51.1391L130.358 56.1253H138.721V48.6447C138.721 48.6447 123.185 56.8435 127.243 38.473C128.59 32.3823 135.732 24.2492 139.814 21.9933C139.943 21.9233 140.068 21.8593 140.185 21.8008H140.188C144.191 23.7429 151.741 32.1927 153.13 38.473C157.189 56.8435 141.652 48.6447 141.652 48.6447V56.1253H150.018L160.598 51.1391Z" fill="#F9B200"/>
<path d="M15.5782 51.2131L15.7846 51.3316C15.7846 51.3344 20.5198 54.0393 27.7083 54.0367C34.8753 54.0256 42.0206 50.9495 42.0332 43.7088V43.6126C42.0178 37.0047 37.8263 34.4629 31.5588 33.0322H31.5559C27.9361 32.183 25.7813 31.4999 24.5808 30.804C23.3954 30.1112 23.1396 29.5004 23.1279 28.5969C23.1433 26.7827 24.9426 25.0077 30.1581 24.9868H30.1881C32.4038 24.9868 34.7108 25.366 36.4767 25.7553C37.9719 26.0799 39.079 26.4063 39.3832 26.4969L39.4223 26.4692L39.5434 26.518L39.8278 26.6279L39.8838 26.2753L40.8081 20.4664L40.5857 20.3784C40.5494 20.3633 36.0061 18.57 29.8597 18.5674C23.7692 18.5951 15.9066 20.4035 15.9032 29.1811C15.9366 37.1386 24.9572 38.4659 26.8816 38.9805C28.9151 39.4631 34.7442 40.7247 34.8779 43.5455C34.8779 43.5455 34.8753 43.5483 34.8779 43.5817C34.8779 43.6265 34.8753 43.6517 34.8753 43.6754V43.7114C34.8779 45.1743 33.9207 46.1461 32.5377 46.7943C31.1718 47.4317 29.4276 47.6992 28.0584 47.6992L28.0087 47.7064C27.9236 47.7064 27.8513 47.6992 27.7717 47.6992C21.8911 47.5599 17.5294 45.1309 16.994 44.8702L16.7661 44.7574L16.7758 44.7391L16.5688 44.6192L15.5782 51.2131Z" fill="white"/>
<path d="M54.0163 51.5158C57.8305 53.8345 62.2227 54.0381 64.688 54.0381C69.6691 54.0298 74.6204 52.0232 74.663 52.0081L74.8883 51.9173L73.9699 45.7654L73.5867 45.9482L73.5447 45.8588L73.5107 45.8868L73.5475 45.9662C73.1369 46.1572 69.8727 47.5516 65.3474 47.5516C60.7093 47.4888 55.0494 46.8865 54.9952 36.3036C55.0529 25.5713 60.6267 25.1222 65.4716 25.0608L65.5355 25.0553C67.3831 25.0553 69.3743 25.3857 70.915 25.7107C72.2203 25.9951 73.2052 26.2753 73.4779 26.3506L73.5141 26.3284L73.6292 26.3701L73.9151 26.472L73.9699 26.1151L74.8149 20.2433L74.6024 20.1557C74.5627 20.1374 70.5352 18.4252 65.0581 18.4252C62.3287 18.4252 57.8397 18.693 54.0043 21.0912C50.1666 23.4782 47.0383 28.0112 47.0229 36.3105L47.0286 36.3579L47.0209 36.3913C47.0195 36.3984 47.018 36.4038 47.0166 36.4095L47.0229 36.4247L47.0195 36.4415C47.03 44.7379 50.2015 49.2013 54.0163 51.5158Z" fill="white"/>
<path d="M98.0121 47.2561H88.7291V38.6849H98.2463C100.639 38.7298 103.589 39.1187 103.592 42.8373C103.559 46.8071 101.229 47.2115 98.0121 47.2561ZM88.7234 33.1759V25.3481H97.3119C100.24 25.3857 102.351 26.1471 102.371 29.2357C102.329 31.9908 101.018 33.1285 97.3456 33.1759H88.7234ZM111.325 43.8733H111.32H111.325ZM81.4716 53.5236H81.7874C81.8057 53.5236 90.2303 53.447 97.7192 53.447C101.491 53.4442 104.814 52.8125 107.217 51.2522C109.609 49.7059 111.062 47.1947 111.067 43.6308C111.07 43.6308 111.071 43.6308 111.071 43.6237H111.067V43.5303C111.062 38.2137 107.569 36.2728 105.533 35.5492L104.953 35.3456L105.508 35.0863C107.031 34.3681 109.353 32.5876 109.446 28.1297H109.435V27.8801C109.423 20.6811 102.756 19.1182 97.0472 19.0945H81.4716V53.5236Z" fill="white"/>
</g>
<defs>
<clipPath id="clip0_999_6118">
<rect width="177.231" height="72" fill="white" transform="translate(0.655762)"/>
</clipPath>
</defs>
</svg>
