<svg width="219" height="96" viewBox="0 0 219 96" fill="none" xmlns="http://www.w3.org/2000/svg">
<path d="M6.58315 88.7415C1.47174 84.2552 0.113464 78.4141 0.113464 73.3573C0.113464 69.81 1.20924 63.6572 6.21427 59.0673C9.97342 55.6259 14.9218 53.5416 22.6952 53.5416C25.9285 53.5416 27.8564 53.7512 30.2578 54.0631C32.24 54.3225 33.9057 54.7898 35.473 54.9473C36.0466 54.9988 36.2559 55.2621 36.2559 55.5753C36.2559 55.9893 36.0984 56.6147 35.9932 58.4394C35.8931 60.164 35.9414 63.0324 35.8347 64.0726C35.7824 64.8553 35.6772 65.2748 35.2142 65.2748C34.7907 65.2748 34.6932 64.8553 34.6932 64.1261C34.6366 62.5108 33.9583 60.6858 32.6544 59.3298C30.9332 57.5026 26.8647 56.0948 22.0667 56.0948C17.5354 56.0948 14.5584 57.2421 12.2662 59.3298C8.46158 62.8179 7.46932 67.7775 7.46932 72.8323C7.46932 85.2469 16.9095 91.4038 23.897 91.4038C28.5361 91.4038 31.351 90.8785 33.4396 88.4802C34.3226 87.4896 35.0035 85.977 35.2142 85.0385C35.3683 84.2058 35.473 83.9944 35.8931 83.9944C36.2559 83.9944 36.3606 84.3596 36.3606 84.7751C36.3606 85.4028 35.7355 89.9417 35.2142 91.7129C34.9526 92.5993 34.7435 92.8607 33.8559 93.2253C31.7711 94.0554 27.8046 94.4249 24.4647 94.4249C17.3264 94.4249 11.3283 92.8607 6.58315 88.7415Z" fill="#1C4CA0" stroke="white" stroke-width="0.00260473"/>
<path d="M43.8872 69.2965C43.8872 61.0931 43.8872 59.5819 43.7765 57.853C43.6676 56.0214 43.2349 55.1533 41.4546 54.7767C41.0262 54.666 40.1032 54.6146 39.3517 54.6146C38.7552 54.6146 38.4326 54.5076 38.4326 54.1276C38.4326 53.7533 38.8078 53.6412 39.6213 53.6412C42.4814 53.6412 45.882 53.8079 47.3941 53.8079C49.6071 53.8079 52.7371 53.6412 55.2198 53.6412C61.968 53.6412 64.3983 55.9099 65.2582 56.7192C66.446 57.853 67.9581 60.2836 67.9581 63.1428C67.9581 70.8069 62.3423 76.2055 54.6808 76.2055C54.4088 76.2055 53.8186 76.2055 53.5504 76.1511C53.2796 76.0985 52.8964 76.0433 52.8964 75.6673C52.8964 75.2332 53.2796 75.0719 54.4088 75.0719C57.4345 75.0719 61.6446 71.6742 61.6446 66.1665C61.6446 64.3827 61.481 60.7663 58.4573 58.0683C56.5137 56.2885 54.301 55.9645 53.058 55.9645C52.2533 55.9645 51.4409 56.0214 50.9554 56.1807C50.6866 56.2885 50.5207 56.6102 50.5207 57.2084V78.7976C50.5207 83.7638 50.5207 88.0293 50.7972 90.3501C50.9554 91.8622 51.2776 93.0464 52.8964 93.2631C53.6548 93.3715 54.8455 93.4782 55.6504 93.4782C56.2452 93.4782 56.5137 93.6412 56.5137 93.9114C56.5137 94.2877 56.0791 94.4498 55.4874 94.4498C51.9279 94.4498 48.5236 94.2877 47.1242 94.2877C45.882 94.2877 42.4814 94.4498 40.3208 94.4498C39.6213 94.4498 39.2447 94.2877 39.2447 93.9114C39.2447 93.6412 39.4609 93.4782 40.1032 93.4782C40.9153 93.4782 41.5647 93.3715 42.0499 93.2631C43.1251 93.0464 43.3945 91.8622 43.6132 90.2929C43.8872 88.0293 43.8872 83.7638 43.8872 78.7976V69.2965Z" fill="#1C4CA0" stroke="white" stroke-width="0.00260473"/>
<path d="M87.241 81.7807C87.448 81.7807 87.4854 81.6623 87.448 81.5396L83.7798 71.4838C83.7375 71.3185 83.7006 71.1155 83.5788 71.1155C83.4541 71.1155 83.3769 71.3185 83.3354 71.4838L79.5886 81.5007C79.5445 81.6623 79.5886 81.7807 79.7524 81.7807H87.241ZM78.94 83.8187C78.7341 83.8187 78.6529 83.899 78.5717 84.1432L76.3733 89.9635C75.9647 90.983 75.7625 91.9606 75.7625 92.4513C75.7625 93.1831 76.1291 93.7089 77.3913 93.7089H77.9987C78.4885 93.7089 78.6097 93.7922 78.6097 94.0364C78.6097 94.3641 78.3687 94.4444 77.9209 94.4444C76.6172 94.4444 74.8646 94.3209 73.6033 94.3209C73.1532 94.3209 70.9162 94.4444 68.801 94.4444C68.2737 94.4444 68.0258 94.3641 68.0258 94.0364C68.0258 93.7922 68.1867 93.7089 68.5142 93.7089C68.883 93.7089 69.4529 93.6698 69.7795 93.6306C71.6514 93.3844 72.4209 91.9981 73.2367 89.9635L83.4541 64.4007C83.9431 63.2203 84.189 62.7725 84.5962 62.7725C84.9596 62.7725 85.2061 63.1408 85.617 64.0768C86.5893 66.3172 93.1067 82.9242 95.7069 89.1128C97.2568 92.7756 98.4346 93.3446 99.2887 93.548C99.9021 93.6698 100.512 93.7089 101.003 93.7089C101.33 93.7089 101.53 93.7527 101.53 94.0364C101.53 94.3641 101.163 94.4444 99.6533 94.4444C98.1924 94.4444 95.2199 94.4444 91.966 94.3641C91.2309 94.3209 90.7416 94.3209 90.7416 94.0364C90.7416 93.7922 90.9074 93.7089 91.3135 93.6698C91.5989 93.588 91.8831 93.222 91.681 92.7336L88.4242 84.1023C88.3413 83.899 88.2149 83.8187 88.0173 83.8187H78.94Z" fill="#1C4CA0" stroke="white" stroke-width="0.00260473"/>
<path d="M110.99 82.1645C110.99 87.5073 110.99 90.3894 111.866 91.1412C112.581 91.768 113.663 92.0565 116.921 92.0565C119.133 92.0565 120.765 92.0173 121.807 90.8913C122.304 90.3497 122.813 89.1773 122.893 88.3857C122.932 88.01 123.019 87.7566 123.354 87.7566C123.646 87.7566 123.684 87.9668 123.684 88.4672C123.684 88.9273 123.395 92.0565 123.058 93.2693C122.813 94.19 122.604 94.3982 120.427 94.3982C117.423 94.3982 115.25 94.3136 113.371 94.2721C111.494 94.19 109.99 94.1471 108.278 94.1471C107.82 94.1471 106.896 94.1471 105.897 94.19C104.938 94.19 103.846 94.2721 103.018 94.2721C102.474 94.2721 102.178 94.1471 102.178 93.8552C102.178 93.6456 102.348 93.5217 102.85 93.5217C103.473 93.5217 103.982 93.4368 104.353 93.355C105.185 93.1898 105.398 92.267 105.567 91.054C105.774 89.3045 105.774 86.0026 105.774 82.1645V74.8121C105.774 68.4682 105.774 67.2953 105.689 65.961C105.603 64.5401 105.271 63.871 103.895 63.583C103.557 63.497 103.058 63.4558 102.515 63.4558C102.052 63.4558 101.807 63.3723 101.807 63.0795C101.807 62.7886 102.1 62.7034 102.726 62.7034C104.691 62.7034 107.316 62.8284 108.446 62.8284C109.447 62.8284 112.489 62.7034 114.122 62.7034C114.712 62.7034 115 62.7886 115 63.0795C115 63.3723 114.753 63.4558 114.249 63.4558C113.791 63.4558 113.12 63.497 112.618 63.583C111.494 63.7886 111.162 64.4995 111.075 65.961C110.99 67.2953 110.99 68.4682 110.99 74.8121V82.1645Z" fill="#1C4CA0" stroke="white" stroke-width="0.00260473"/>
<path d="M132.472 82.1645C132.472 87.5073 132.472 90.3894 133.347 91.1412C134.06 91.768 135.145 92.0565 138.402 92.0565C140.614 92.0565 142.24 92.0173 143.284 90.8913C143.788 90.3497 144.286 89.1773 144.368 88.3857C144.415 88.01 144.498 87.7566 144.832 87.7566C145.124 87.7566 145.166 87.9668 145.166 88.4672C145.166 88.9273 144.875 92.0565 144.54 93.2693C144.286 94.19 144.08 94.3982 141.908 94.3982C138.903 94.3982 136.73 94.3136 134.851 94.2721C132.974 94.19 131.47 94.1471 129.753 94.1471C129.302 94.1471 128.379 94.1471 127.377 94.19C126.414 94.19 125.329 94.2721 124.493 94.2721C123.951 94.2721 123.659 94.1471 123.659 93.8552C123.659 93.6456 123.83 93.5217 124.33 93.5217C124.953 93.5217 125.459 93.4368 125.833 93.355C126.665 93.1898 126.875 92.267 127.045 91.054C127.251 89.3045 127.251 86.0026 127.251 82.1645V74.8121C127.251 68.4682 127.251 67.2953 127.169 65.961C127.084 64.5401 126.753 63.871 125.368 63.583C125.036 63.497 124.539 63.4558 123.993 63.4558C123.535 63.4558 123.287 63.3723 123.287 63.0795C123.287 62.7886 123.573 62.7034 124.205 62.7034C126.164 62.7034 128.795 62.8284 129.92 62.8284C130.928 62.8284 133.976 62.7034 135.605 62.7034C136.185 62.7034 136.474 62.7886 136.474 63.0795C136.474 63.3723 136.23 63.4558 135.726 63.4558C135.268 63.4558 134.605 63.497 134.102 63.583C132.974 63.7886 132.636 64.4995 132.555 65.961C132.472 67.2953 132.472 68.4682 132.472 74.8121V82.1645Z" fill="#1C4CA0" stroke="white" stroke-width="0.00260473"/>
<path d="M76.3616 46.0708L78.5297 33.4963C78.5297 33.4963 79.7032 18.4217 93.6157 20.4668C105.104 22.1582 109.425 22.1888 113.451 17.3453C113.451 17.3453 116.272 38.0938 97.6419 37.978H91.109C91.109 37.978 85.398 37.3701 81.3732 39.8842C79.3406 41.1538 77.8219 43.1703 76.3616 46.0708Z" fill="#01A7DF" stroke="white" stroke-width="0.00260473"/>
<path d="M72.5018 53.393C72.5018 53.393 74.5429 40.4158 74.5464 40.407C74.9052 38.1359 75.0199 36.0061 74.3822 33.7368C72.8063 28.1178 67.471 26.5254 62.3064 25.9646C57.4964 25.4442 52.7979 25.0902 48.2046 23.4213C46.9982 22.9844 45.8192 22.4754 44.688 21.8703C42.1233 20.4992 39.6077 18.432 38.6541 15.5794C38.423 14.8914 37.7902 12.7676 38.1834 12.0884C38.1834 12.0884 27.982 29.6643 37.8322 40.0161C47.983 50.6861 69.6434 37.9561 72.5018 53.393Z" fill="#EC1C24" stroke="white" stroke-width="0.00260473"/>
<path d="M76.1028 31.3579C76.1028 31.3579 76.9326 27.1721 77.7001 22.61C78.2177 19.5189 78.4473 16.7557 77.1385 14.3214C74.9404 10.2203 68.2874 7.31583 66.0898 4.57325C64.399 2.45777 65.272 0 65.272 0C65.272 0 59.1906 6.46712 60.0682 14.2576C60.941 22.0201 68.67 22.3527 72.4449 25.4567C75.8085 28.221 76.1028 31.3579 76.1028 31.3579Z" fill="#38B14A" stroke="white" stroke-width="0.00260473"/>
<path d="M6.58315 88.7415C1.47174 84.2552 0.113464 78.4141 0.113464 73.3573C0.113464 69.81 1.20924 63.6572 6.21427 59.0673C9.97342 55.6259 14.9218 53.5416 22.6952 53.5416C25.9285 53.5416 27.8564 53.7512 30.2578 54.0631C32.24 54.3225 33.9057 54.7898 35.473 54.9473C36.0466 54.9988 36.2559 55.2621 36.2559 55.5753C36.2559 55.9893 36.0984 56.6147 35.9932 58.4394C35.8931 60.164 35.9414 63.0324 35.8347 64.0726C35.7824 64.8553 35.6772 65.2748 35.2142 65.2748C34.7907 65.2748 34.6932 64.8553 34.6932 64.1261C34.6366 62.5108 33.9583 60.6858 32.6544 59.3298C30.9332 57.5026 26.8647 56.0948 22.0667 56.0948C17.5354 56.0948 14.5584 57.2421 12.2662 59.3298C8.46158 62.8179 7.46932 67.7775 7.46932 72.8323C7.46932 85.2469 16.9095 91.4038 23.897 91.4038C28.5361 91.4038 31.351 90.8785 33.4396 88.4802C34.3226 87.4896 35.0035 85.977 35.2142 85.0385C35.3683 84.2058 35.473 83.9944 35.8931 83.9944C36.2559 83.9944 36.3606 84.3596 36.3606 84.7751C36.3606 85.4028 35.7355 89.9417 35.2142 91.7129C34.9526 92.5993 34.7435 92.8607 33.8559 93.2253C31.7711 94.0554 27.8046 94.4249 24.4647 94.4249C17.3264 94.4249 11.3283 92.8607 6.58315 88.7415Z" fill="#1C4CA0" stroke="white" stroke-width="0.000651183"/>
<path d="M43.8872 69.2965C43.8872 61.0931 43.8872 59.5819 43.7765 57.853C43.6676 56.0214 43.2349 55.1533 41.4546 54.7767C41.0262 54.666 40.1032 54.6146 39.3517 54.6146C38.7552 54.6146 38.4326 54.5076 38.4326 54.1276C38.4326 53.7533 38.8078 53.6412 39.6213 53.6412C42.4814 53.6412 45.882 53.8079 47.3941 53.8079C49.6071 53.8079 52.7371 53.6412 55.2198 53.6412C61.968 53.6412 64.3983 55.9099 65.2582 56.7192C66.4469 57.853 67.9581 60.2836 67.9581 63.1428C67.9581 70.8069 62.3423 76.2055 54.6808 76.2055C54.4088 76.2055 53.8186 76.2055 53.5504 76.1511C53.2802 76.0985 52.8964 76.0433 52.8964 75.6673C52.8964 75.2332 53.2802 75.0719 54.4088 75.0719C57.4345 75.0719 61.6446 71.6742 61.6446 66.1665C61.6446 64.3827 61.481 60.7663 58.4576 58.0683C56.5143 56.2885 54.301 55.9645 53.058 55.9645C52.2533 55.9645 51.4409 56.0214 50.9554 56.1807C50.6866 56.2885 50.5207 56.6102 50.5207 57.2084V78.7976C50.5207 83.7638 50.5207 88.0293 50.7972 90.3501C50.9554 91.8622 51.2785 93.0464 52.8964 93.2631C53.6548 93.3715 54.8455 93.4782 55.6504 93.4782C56.2461 93.4782 56.5143 93.6412 56.5143 93.9114C56.5143 94.2877 56.0791 94.4498 55.4874 94.4498C51.9279 94.4498 48.5236 94.2877 47.1242 94.2877C45.882 94.2877 42.4814 94.4498 40.3208 94.4498C39.6213 94.4498 39.2447 94.2877 39.2447 93.9114C39.2447 93.6412 39.4609 93.4782 40.1032 93.4782C40.9153 93.4782 41.5647 93.3715 42.0499 93.2631C43.1251 93.0464 43.3945 91.8622 43.6132 90.2929C43.8872 88.0293 43.8872 83.7638 43.8872 78.7976V69.2965Z" fill="#1C4CA0" stroke="white" stroke-width="0.000651183"/>
<path d="M87.241 81.7807C87.448 81.7807 87.4854 81.6623 87.448 81.5396L83.7798 71.4838C83.7375 71.3185 83.7006 71.1155 83.5788 71.1155C83.4541 71.1155 83.3769 71.3185 83.3354 71.4838L79.5886 81.5007C79.5445 81.6623 79.5886 81.7807 79.7524 81.7807H87.241ZM78.94 83.8187C78.7341 83.8187 78.6529 83.899 78.5717 84.1432L76.3733 89.9635C75.9647 90.983 75.7625 91.9606 75.7625 92.4513C75.7625 93.1831 76.1291 93.7089 77.3913 93.7089H77.9987C78.4885 93.7089 78.6097 93.7922 78.6097 94.0364C78.6097 94.3641 78.3687 94.4444 77.9209 94.4444C76.6172 94.4444 74.8646 94.3209 73.6033 94.3209C73.1532 94.3209 70.9162 94.4444 68.7995 94.4444C68.2737 94.4444 68.0258 94.3641 68.0258 94.0364C68.0258 93.7922 68.1867 93.7089 68.5142 93.7089C68.8839 93.7089 69.4535 93.6698 69.7795 93.6306C71.6505 93.3844 72.4209 91.9981 73.2367 89.9635L83.4541 64.4007C83.9431 63.2203 84.189 62.7725 84.5962 62.7725C84.9596 62.7725 85.2061 63.1408 85.617 64.0768C86.5893 66.3172 93.1067 82.9242 95.7069 89.1128C97.2568 92.7756 98.4346 93.3446 99.2887 93.548C99.9021 93.6698 100.512 93.7089 101.003 93.7089C101.33 93.7089 101.53 93.7527 101.53 94.0364C101.53 94.3641 101.163 94.4444 99.6533 94.4444C98.1924 94.4444 95.2199 94.4444 91.966 94.3641C91.2309 94.3209 90.7416 94.3209 90.7416 94.0364C90.7416 93.7922 90.9074 93.7089 91.3135 93.6698C91.5989 93.588 91.8831 93.222 91.681 92.7336L88.4242 84.1023C88.3413 83.899 88.2149 83.8187 88.0173 83.8187H78.94Z" fill="#1C4CA0" stroke="white" stroke-width="0.000651183"/>
<path d="M110.99 82.1645C110.99 87.5073 110.99 90.3894 111.866 91.1412C112.581 91.768 113.663 92.0565 116.921 92.0565C119.133 92.0565 120.765 92.0173 121.807 90.8913C122.304 90.3497 122.813 89.1773 122.893 88.3857C122.932 88.01 123.019 87.7566 123.354 87.7566C123.646 87.7566 123.684 87.9668 123.684 88.4672C123.684 88.9273 123.395 92.0565 123.058 93.2693C122.813 94.19 122.604 94.3982 120.427 94.3982C117.423 94.3982 115.25 94.3136 113.371 94.2721C111.494 94.19 109.99 94.1471 108.278 94.1471C107.82 94.1471 106.896 94.1471 105.897 94.19C104.938 94.19 103.846 94.2721 103.018 94.2721C102.474 94.2721 102.178 94.1471 102.178 93.8552C102.178 93.6456 102.348 93.5217 102.85 93.5217C103.473 93.5217 103.982 93.4368 104.353 93.355C105.185 93.1898 105.398 92.267 105.567 91.054C105.774 89.3045 105.774 86.0026 105.774 82.1645V74.8121C105.774 68.4682 105.774 67.2953 105.689 65.961C105.603 64.5401 105.271 63.871 103.895 63.583C103.557 63.497 103.058 63.4558 102.515 63.4558C102.052 63.4558 101.807 63.3723 101.807 63.0795C101.807 62.7886 102.1 62.7034 102.726 62.7034C104.691 62.7034 107.316 62.8284 108.446 62.8284C109.447 62.8284 112.489 62.7034 114.122 62.7034C114.712 62.7034 115 62.7886 115 63.0795C115 63.3723 114.753 63.4558 114.249 63.4558C113.791 63.4558 113.12 63.497 112.618 63.583C111.494 63.7886 111.162 64.4995 111.075 65.961C110.99 67.2953 110.99 68.4682 110.99 74.8121V82.1645Z" fill="#1C4CA0" stroke="white" stroke-width="0.000651183"/>
<path d="M132.472 82.1645C132.472 87.5073 132.472 90.3894 133.347 91.1412C134.06 91.768 135.145 92.0565 138.402 92.0565C140.614 92.0565 142.24 92.0173 143.284 90.8913C143.788 90.3497 144.286 89.1773 144.368 88.3857C144.415 88.01 144.498 87.7566 144.832 87.7566C145.124 87.7566 145.166 87.9668 145.166 88.4672C145.166 88.9273 144.875 92.0565 144.54 93.2693C144.286 94.19 144.08 94.3982 141.908 94.3982C138.903 94.3982 136.73 94.3136 134.851 94.2721C132.974 94.19 131.47 94.1471 129.753 94.1471C129.302 94.1471 128.379 94.1471 127.377 94.19C126.414 94.19 125.329 94.2721 124.493 94.2721C123.951 94.2721 123.659 94.1471 123.659 93.8552C123.659 93.6456 123.83 93.5217 124.33 93.5217C124.953 93.5217 125.459 93.4368 125.833 93.355C126.665 93.1898 126.875 92.267 127.045 91.054C127.251 89.3045 127.251 86.0026 127.251 82.1645V74.8121C127.251 68.4682 127.251 67.2953 127.169 65.961C127.084 64.5401 126.753 63.871 125.368 63.583C125.036 63.497 124.539 63.4558 123.993 63.4558C123.535 63.4558 123.287 63.3723 123.287 63.0795C123.287 62.7886 123.573 62.7034 124.205 62.7034C126.164 62.7034 128.795 62.8284 129.92 62.8284C130.928 62.8284 133.976 62.7034 135.605 62.7034C136.185 62.7034 136.474 62.7886 136.474 63.0795C136.474 63.3723 136.23 63.4558 135.726 63.4558C135.268 63.4558 134.605 63.497 134.102 63.583C132.974 63.7886 132.636 64.4995 132.555 65.961C132.472 67.2953 132.472 68.4682 132.472 74.8121V82.1645Z" fill="#1C4CA0" stroke="white" stroke-width="0.000651183"/>
<path d="M76.3616 46.0708L78.5297 33.4963C78.5297 33.4963 79.7032 18.4217 93.6157 20.4668C105.104 22.1582 109.425 22.1888 113.451 17.3453C113.451 17.3453 116.272 38.0938 97.6419 37.978H91.109C91.109 37.978 85.398 37.3701 81.3732 39.8842C79.3406 41.1538 77.8219 43.1703 76.3616 46.0708Z" fill="#01A7DF" stroke="white" stroke-width="0.000651183"/>
<path d="M72.5018 53.393C72.5018 53.393 74.5429 40.4158 74.5464 40.407C74.9052 38.1359 75.0199 36.0061 74.3822 33.7368C72.8063 28.1178 67.471 26.5254 62.3064 25.9646C57.4964 25.4442 52.7979 25.0902 48.2046 23.4213C46.9982 22.9844 45.8192 22.4754 44.688 21.8703C42.1233 20.4992 39.6077 18.432 38.6541 15.5794C38.423 14.8914 37.7902 12.7676 38.1834 12.0884C38.1834 12.0884 27.982 29.6643 37.8322 40.0161C47.983 50.6861 69.642 37.9561 72.5018 53.393Z" fill="#EC1C24" stroke="white" stroke-width="0.000651183"/>
<path d="M76.1028 31.3579C76.1028 31.3579 76.9326 27.1721 77.7001 22.61C78.2177 19.5189 78.4473 16.7557 77.1385 14.3214C74.9404 10.2203 68.2874 7.31583 66.0898 4.57325C64.399 2.45777 65.272 0 65.272 0C65.272 0 59.1906 6.46712 60.0682 14.2576C60.941 22.0201 68.67 22.3527 72.4449 25.4567C75.8085 28.221 76.1028 31.3579 76.1028 31.3579Z" fill="#38B14A" stroke="white" stroke-width="0.000651183"/>
<path d="M156.202 34.2947H218.656V96H156.202V34.2947Z" fill="white"/>
<path d="M158.417 93.9087H216.565V36.5676H158.417V93.9087ZM211.2 43.542C210.891 47.3681 206.63 87.9211 206.63 87.9211C206.63 87.9211 206.504 89.954 204.037 89.954H194.841V92.231H180.144V89.954H170.951C168.479 89.954 168.354 87.9211 168.354 87.9211C168.354 87.9211 164.097 47.3681 163.79 43.542C163.482 39.7143 166.741 40.0974 166.741 40.0974H208.248C208.248 40.0974 211.507 39.7143 211.2 43.542Z" fill="#00A551"/>
<path d="M199.896 46.7042H171.472V57.4907H186.446C186.446 57.4907 190.593 50.9043 199.896 46.7042Z" fill="#F26F21"/>
<path d="M190.774 54.7492C196.742 48.5872 204.014 46.3058 204.014 46.3058V57.9847C204.014 57.9847 197.761 60.021 195.63 67.3872H183.827C183.827 67.3872 184.803 60.9032 190.774 54.7492Z" fill="#EC1C24"/>
<path d="M182.027 77.8005H194.2C194.2 77.8005 193.831 88.5417 193.924 91.3821H181.288C181.288 91.3821 181.288 82.195 182.027 77.8005Z" fill="#EC1C24"/>
<path d="M174.796 68.8097V70.4968L172.929 70.5257L172.923 71.9612H174.796V73.7332H172.923V75.1559H174.796V76.8476H170.491V68.8097H174.796Z" fill="#00A551"/>
<path d="M185.64 68.8097V70.4968L183.772 70.5257L183.77 71.9612H185.64V73.7332H183.77V75.1559H185.64V76.8476H181.335V68.8097H185.64Z" fill="#00A551"/>
<path d="M197.262 68.8097V70.4968L195.394 70.5257L195.39 71.9612H197.262V73.7332H195.39V75.1559H197.262V76.8476H192.952V68.8097H197.262Z" fill="#00A551"/>
<path d="M198.506 68.8181V76.9072H200.858V71.1747C200.858 71.1747 200.88 70.8192 201.114 70.6394C201.35 70.4635 202.171 70.2951 202.316 70.9888V76.9715H204.799V70.2453C204.799 70.2453 204.863 68.6048 202.969 68.5379C202.969 68.5379 201.666 68.5379 200.858 69.3163V68.8181H198.506Z" fill="#00A551"/>
<path d="M175.8 68.7957V76.8464H180.379V75.1261H178.315V68.7957H175.8Z" fill="#00A551"/>
<path d="M186.166 68.8941H188.348L189.334 74.2197L190.382 68.8941H192.195L190.657 76.958H187.459L186.166 68.8941Z" fill="#00A551"/>
<path fill-rule="evenodd" clip-rule="evenodd" d="M197.998 82.3404C197.119 82.3404 196.406 81.6206 196.406 80.7433C196.406 79.8617 197.119 79.1437 197.998 79.1437C198.884 79.1437 199.597 79.8617 199.597 80.7433C199.597 81.6206 198.884 82.3404 197.998 82.3404ZM197.998 78.9744C197.026 78.9744 196.233 79.7659 196.233 80.7433C196.233 81.7207 197.026 82.5088 197.998 82.5088C198.974 82.5088 199.77 81.7207 199.77 80.7433C199.77 79.7659 198.974 78.9744 197.998 78.9744Z" fill="#00A551"/>
<path d="M198.421 80.8227C198.619 80.7458 198.749 80.5982 198.759 80.3835C198.786 79.9065 198.415 79.7524 197.961 79.7524H197.334V81.632H197.68V80.8819H198.079L198.385 81.632H198.759L198.421 80.8227ZM197.68 80.6048V80.0601H198.052C198.244 80.0601 198.409 80.1244 198.409 80.3354C198.409 80.5245 198.228 80.6048 198.071 80.6048H197.68Z" fill="#00A551"/>
</svg>
