<svg width="337" height="78" viewBox="0 0 337 78" fill="none" xmlns="http://www.w3.org/2000/svg">
<path d="M145.9 70.4952L167.596 61.459L162.812 49.9732L141.117 59.009L145.9 70.4952ZM168.351 61.7098L145.562 71.2008L140.376 58.7496L163.165 49.2586L168.351 61.7098Z" fill="white"/>
<path d="M125.106 65.5022L137.861 60.1899L132.375 47.0167L157.187 36.6828L152.43 25.2618L127.697 35.5629L122.697 23.5555L147.517 13.2183L142.301 0.696195L104.647 16.3784L125.106 65.5022ZM138.551 60.4882L124.827 66.2041L103.955 16.0883L142.583 0L148.209 13.5076L123.401 23.8399L127.996 34.8724L152.716 24.5766L157.876 36.9676L133.06 47.3032L138.551 60.4882Z" fill="white"/>
<path d="M101.013 22.668L121.675 72.2797L134.921 66.763L129.436 53.5952L154.251 43.2604L149.29 31.3505L124.561 41.65L119.761 30.1253L144.581 19.7885L139.163 6.77881L101.013 22.668Z" fill="white"/>
<path d="M164.201 68.7355L141.956 78L136.974 66.0363L159.219 56.7719L164.201 68.7355Z" fill="#E75624"/>
<path d="M173.693 16.6718H162.159V10.3262H192.18V16.6718H180.659V72.8907H173.693V16.6718Z" fill="white" stroke="white" stroke-width="0.00375622" stroke-miterlimit="10"/>
<path d="M208.505 64.8457C209.759 66.3951 211.604 67.1785 214.055 67.1785C218.999 67.1785 221.456 64.1672 221.456 58.1538V25.0844C221.456 22.2213 220.851 20.0073 219.633 18.4277C218.408 16.8493 216.549 16.067 214.055 16.067C211.604 16.067 209.759 16.8493 208.505 18.4277C207.258 20.0073 206.63 22.2213 206.63 25.0844V58.1538C206.63 61.0595 207.258 63.2972 208.505 64.8457ZM203.368 13.9116C205.774 11.1072 209.345 9.70496 214.055 9.70496C218.747 9.70496 222.334 11.1072 224.77 13.9116C227.219 16.7157 228.443 20.5531 228.443 25.4318V57.7842C228.443 62.6625 227.219 66.5139 224.77 69.3179C222.334 72.1072 218.747 73.5181 214.055 73.5181C209.406 73.5181 205.862 72.1072 203.414 69.3179C200.97 66.5139 199.753 62.6625 199.753 57.7842V25.4318C199.753 20.5384 200.963 16.7157 203.368 13.9116Z" fill="white"/>
<path d="M208.505 64.8457C209.759 66.3951 211.604 67.1785 214.055 67.1785C218.999 67.1785 221.456 64.1672 221.456 58.1538V25.0844C221.456 22.2213 220.851 20.0073 219.633 18.4277C218.408 16.8493 216.549 16.067 214.055 16.067C211.604 16.067 209.759 16.8493 208.505 18.4277C207.258 20.0073 206.63 22.2213 206.63 25.0844V58.1538C206.63 61.0595 207.258 63.2972 208.505 64.8457ZM203.368 13.9116C205.774 11.1072 209.345 9.70496 214.055 9.70496C218.747 9.70496 222.334 11.1072 224.77 13.9116C227.219 16.7157 228.443 20.5531 228.443 25.4318V57.7842C228.443 62.6625 227.219 66.5139 224.77 69.3179C222.334 72.1072 218.747 73.5181 214.055 73.5181C209.406 73.5181 205.862 72.1072 203.414 69.3179C200.97 66.5139 199.753 62.6625 199.753 57.7842V25.4318C199.753 20.5384 200.963 16.7157 203.368 13.9116Z" stroke="white" stroke-width="0.00375622" stroke-miterlimit="10"/>
<path d="M257.443 57.6879V25.513C257.443 19.6238 254.949 16.6649 249.946 16.6649H242.433V66.5438H250.035C254.977 66.5438 257.443 63.5923 257.443 57.6879ZM260.794 14.4001C263.155 17.0996 264.329 20.9371 264.329 25.883V57.4371C264.329 62.3154 263.155 66.1156 260.794 68.832C258.44 71.5463 254.89 72.8973 250.123 72.8973H235.468V10.3327H250.123C254.89 10.3262 258.446 11.6846 260.794 14.4001Z" fill="white" stroke="white" stroke-width="0.00375622" stroke-miterlimit="10"/>
<path d="M295.527 54.3012L288.471 18.1929L281.595 54.3012H295.527ZM278.28 72.8907H271.838L283.823 10.3262H293.918L305.902 72.8907H298.921L296.515 60.285H280.693L278.28 72.8907Z" fill="white" stroke="white" stroke-width="0.00375622" stroke-miterlimit="10"/>
<path d="M302.652 10.3262H309.885L319.625 41.076L329.456 10.3262H336.068L322.755 50.456V72.8973H315.877V50.456L302.652 10.3262Z" fill="white" stroke="white" stroke-width="0.00375622" stroke-miterlimit="10"/>
<path d="M21.7179 45.8059H7.32317V72.8907H0.353027V10.3262H25.2013V16.6718H7.33137V39.4754H21.7179V45.8059Z" fill="white" stroke="white" stroke-width="0.00375622" stroke-miterlimit="10"/>
<path d="M40.5924 64.8457C41.8471 66.3951 43.6914 67.1785 46.1345 67.1785C51.075 67.1785 53.5468 64.1672 53.5468 58.1538V25.0844C53.5468 22.2213 52.9346 20.0073 51.7171 18.4277C50.4989 16.8493 48.6349 16.067 46.1345 16.067C43.6914 16.067 41.8393 16.8493 40.5924 18.4277C39.3483 20.0073 38.7222 22.2213 38.7222 25.0844V58.1538C38.7222 61.0595 39.3483 63.2972 40.5924 64.8457ZM35.4625 13.9116C37.8715 11.1072 41.4332 9.70496 46.141 9.70496C50.8497 9.70496 54.4212 11.1072 56.8651 13.9116C59.3028 16.7157 60.5272 20.5531 60.5272 25.4318V57.7842C60.5272 62.6625 59.3028 66.5139 56.8651 69.3179C54.4147 72.1072 50.8419 73.5181 46.141 73.5181C41.4922 73.5181 37.9494 72.1072 35.5084 69.3179C33.0612 66.5139 31.8442 62.6625 31.8442 57.7842V25.4318C31.8442 20.5384 33.0453 16.7157 35.4625 13.9116Z" fill="white"/>
<path d="M40.5924 64.8457C41.8471 66.3951 43.6914 67.1785 46.1345 67.1785C51.075 67.1785 53.5468 64.1672 53.5468 58.1538V25.0844C53.5468 22.2213 52.9346 20.0073 51.7172 18.4277C50.4989 16.8493 48.6349 16.067 46.1345 16.067C43.6914 16.067 41.8393 16.8493 40.5924 18.4277C39.3483 20.0073 38.7222 22.2213 38.7222 25.0844V58.1538C38.7222 61.0595 39.3483 63.2972 40.5924 64.8457ZM35.4625 13.9116C37.8715 11.1072 41.4332 9.70496 46.141 9.70496C50.8497 9.70496 54.4212 11.1072 56.8651 13.9116C59.3028 16.7157 60.5272 20.5531 60.5272 25.4318V57.7842C60.5272 62.6625 59.3028 66.5139 56.8651 69.3179C54.4147 72.1072 50.8419 73.5181 46.141 73.5181C41.4922 73.5181 37.9494 72.1072 35.5084 69.3179C33.0612 66.5139 31.8442 62.6625 31.8442 57.7842V25.4318C31.8442 20.5384 33.0453 16.7157 35.4625 13.9116Z" stroke="white" stroke-width="0.00375622" stroke-miterlimit="10"/>
<path d="M87.1799 37.9462C88.6367 36.6927 89.3677 34.457 89.3677 31.2391V25.2471C89.3677 22.384 88.8034 20.2434 87.6696 18.8125C86.5333 17.3795 84.6857 16.6645 82.1328 16.6645H75.336V39.8143H80.52C83.4973 39.8229 85.7183 39.1956 87.1799 37.9462ZM92.9073 13.9117C95.1343 16.2883 96.2522 19.8599 96.2522 24.6271V29.7336C96.2522 33.1875 95.6256 35.9777 94.3709 38.1322C93.1166 40.2716 91.1547 41.755 88.4785 42.5884C91.2133 43.4309 93.2084 44.9364 94.464 47.1131C95.7178 49.2906 96.3374 52.1319 96.3374 55.651V65.3928C96.3374 67.1188 96.4124 68.5661 96.5628 69.7245C96.7136 70.8829 97.0549 71.9454 97.5921 72.8973H90.5335C90.1167 71.9454 89.8143 70.9415 89.641 69.908C89.4595 68.8607 89.3722 67.3253 89.3722 65.3035V55.4744C89.3722 52.0795 88.6076 49.6737 87.0881 48.2715C85.5675 46.8762 83.2945 46.1825 80.2508 46.1825H75.336V72.9038H68.3691V10.3401H82.3123C87.132 10.3262 90.6703 11.5211 92.9073 13.9117Z" fill="white"/>
<path d="M87.1799 37.9462C88.6367 36.6927 89.3677 34.457 89.3677 31.2391V25.2471C89.3677 22.384 88.8034 20.2434 87.6696 18.8125C86.5333 17.3795 84.6857 16.6645 82.1328 16.6645H75.336V39.8143H80.52C83.4973 39.8229 85.7183 39.1956 87.1799 37.9462ZM92.9073 13.9117C95.1343 16.2883 96.2522 19.8599 96.2522 24.6271V29.7336C96.2522 33.1875 95.6256 35.9777 94.3709 38.1322C93.1166 40.2716 91.1547 41.755 88.4785 42.5884C91.2133 43.4309 93.2084 44.9364 94.464 47.1131C95.7178 49.2906 96.3374 52.1319 96.3374 55.651V65.3928C96.3374 67.1188 96.4124 68.5661 96.5628 69.7245C96.7136 70.8829 97.0549 71.9454 97.5921 72.8973H90.5335C90.1167 71.9454 89.8143 70.9415 89.641 69.908C89.4595 68.8607 89.3722 67.3253 89.3722 65.3035V55.4744C89.3722 52.0795 88.6076 49.6737 87.0881 48.2715C85.5675 46.8762 83.2945 46.1825 80.2508 46.1825H75.336V72.9038H68.3691V10.3401H82.3123C87.132 10.3262 90.6703 11.5211 92.9073 13.9117Z" stroke="white" stroke-width="0.00375622" stroke-miterlimit="10"/>
</svg>
