<svg width="324" height="124" viewBox="0 0 324 124" fill="none" xmlns="http://www.w3.org/2000/svg">
<path d="M226.838 42.871H308.832V123.881H226.838V42.871Z" fill="white"/>
<path d="M229.747 121.136H306.086V45.8549H229.747V121.136ZM299.043 55.0113C298.637 60.0343 293.042 113.275 293.042 113.275C293.042 113.275 292.878 115.944 289.639 115.944H277.566V118.933H258.271V115.944H246.201C242.956 115.944 242.792 113.275 242.792 113.275C242.792 113.275 237.203 60.0343 236.8 55.0113C236.396 49.9859 240.674 50.489 240.674 50.489H295.167C295.167 50.489 299.445 49.9859 299.043 55.0113Z" fill="#00A551"/>
<path d="M284.203 59.1631H246.886V73.3242H266.545C266.545 73.3242 271.989 64.6773 284.203 59.1631Z" fill="#F26F21"/>
<path d="M272.227 69.7249C280.062 61.6351 289.61 58.64 289.61 58.64V73.9728C289.61 73.9728 281.4 76.6461 278.602 86.3168H263.106C263.106 86.3168 264.388 77.8043 272.227 69.7249Z" fill="#EC1C24"/>
<path d="M260.742 99.9886H276.723C276.723 99.9886 276.24 114.09 276.362 117.819H259.772C259.772 117.819 259.772 105.758 260.742 99.9886Z" fill="#EC1C24"/>
<path d="M251.249 88.1846V90.3995L248.799 90.4374L248.791 92.322H251.249V94.6485H248.791V96.5162H251.249V98.7371H245.597V88.1846H251.249Z" fill="#00A551"/>
<path d="M265.485 88.1846V90.3995L263.033 90.4374L263.031 92.322H265.485V94.6485H263.031V96.5162H265.485V98.7371H259.833V88.1846H265.485Z" fill="#00A551"/>
<path d="M280.743 88.1847V90.3996L278.29 90.4376L278.286 92.3222H280.743V94.6486H278.286V96.5163H280.743V98.7373H275.085V88.1847H280.743Z" fill="#00A551"/>
<path d="M282.377 88.1957V98.8154H285.466V91.2895C285.466 91.2895 285.495 90.8228 285.801 90.5867C286.111 90.3558 287.19 90.1347 287.379 91.0455V98.8999H290.64V90.0694C290.64 90.0694 290.724 87.9156 288.237 87.8278C288.237 87.8278 286.526 87.8278 285.466 88.8496V88.1957H282.377Z" fill="#00A551"/>
<path d="M252.568 88.1663V98.7358H258.58V96.4773H255.87V88.1663H252.568Z" fill="#00A551"/>
<path d="M266.177 88.2955H269.042L270.335 95.2872L271.711 88.2955H274.092L272.073 98.8822H267.874L266.177 88.2955Z" fill="#00A551"/>
<path fill-rule="evenodd" clip-rule="evenodd" d="M281.711 105.948C280.556 105.948 279.62 105.003 279.62 103.851C279.62 102.694 280.556 101.751 281.711 101.751C282.874 101.751 283.81 102.694 283.81 103.851C283.81 105.003 282.874 105.948 281.711 105.948ZM281.711 101.529C280.434 101.529 279.393 102.568 279.393 103.851C279.393 105.135 280.434 106.169 281.711 106.169C282.992 106.169 284.037 105.135 284.037 103.851C284.037 102.568 282.992 101.529 281.711 101.529Z" fill="#00A551"/>
<path d="M282.265 103.956C282.526 103.855 282.696 103.661 282.71 103.379C282.745 102.753 282.259 102.551 281.662 102.551H280.839V105.018H281.293V104.034H281.817L282.219 105.018H282.71L282.265 103.956ZM281.293 103.67V102.955H281.782C282.034 102.955 282.25 103.039 282.25 103.316C282.25 103.564 282.013 103.67 281.807 103.67H281.293Z" fill="#00A551"/>
<path d="M47.8297 123.936C37.8309 123.936 30.1247 121.452 24.2655 116.421C18.5336 111.389 15.604 104.447 15.604 95.9133C15.604 92.4105 16.4319 83.5579 23.756 76.8071C29.2331 71.7758 36.175 69.4194 45.537 69.4194C49.8041 69.4194 52.3515 69.7378 55.2812 70.1199C56.5549 70.311 57.6376 70.5021 58.7203 70.6931C59.8666 70.9479 60.8856 71.1389 61.8409 71.2026C63.4968 71.33 64.07 72.4764 64.07 73.368C64.07 73.6227 64.0063 73.9412 64.0063 74.3233C63.9426 74.8965 63.8152 75.7244 63.7516 77.0618C63.6879 78.0808 63.6879 79.5456 63.6879 80.7557V80.8194C63.6879 82.2205 63.6242 83.4943 63.5605 84.1948C63.4331 86.0417 62.7326 86.997 61.3951 86.997C60.4398 86.997 59.2934 86.4875 59.2934 84.1311C59.2298 82.2842 58.4018 80.3736 57.1281 79.0361C55.4722 77.2529 50.8867 75.406 44.7728 75.406C39.6778 75.406 36.175 76.5523 33.3091 79.0998C29.4878 82.6026 27.7046 87.6976 27.7046 95.149C27.7046 110.243 39.2957 117.248 47.0655 117.248C53.2432 117.248 55.9817 116.421 58.0834 114.064C58.975 113.045 59.803 111.389 59.994 110.307C60.1214 109.479 60.4398 107.886 62.2231 107.886C63.1784 107.886 64.1974 108.523 64.1974 110.307C64.1974 111.262 63.3694 117.121 62.6689 119.478C62.2231 121.07 61.6499 121.707 60.1214 122.28C57.2555 123.49 51.842 123.936 47.8297 123.936Z" fill="white"/>
<path d="M87.0616 123.936C84.3231 123.936 81.7756 123.873 79.6739 123.809H79.4828H79.4191C78.1454 123.745 77.1264 123.745 76.4895 123.745C75.8527 123.745 74.5789 123.809 73.3052 123.809H73.1778C71.3946 123.873 69.3566 123.936 67.8281 123.936C65.2806 123.936 65.0258 122.344 65.0258 121.835C65.0258 121.389 65.2169 119.86 67.5096 119.86C68.2102 119.86 68.9744 119.797 69.675 119.606C70.0571 119.542 70.3119 118.778 70.5666 117.058C70.8851 114.32 70.8851 108.906 70.8851 102.729V90.6917C70.8851 80.3107 70.8851 78.4638 70.7577 76.2984C70.6303 74.2604 70.3119 74.0057 68.9108 73.6872C68.5923 73.6235 67.637 73.4962 66.5543 73.4962C64.2616 73.4962 64.0068 72.0951 64.0068 71.4582C64.0068 70.1208 64.9621 69.4202 66.9364 69.4202C69.0381 69.4202 71.4582 69.4839 73.3689 69.5476C74.77 69.6113 75.98 69.6113 76.808 69.6113C78.0817 69.6113 79.6739 69.5476 81.4571 69.4839H81.6482C83.3678 69.4202 85.151 69.3565 86.7432 69.3565C95.8505 69.3565 99.2896 72.6046 100.436 73.6235C102.219 75.3431 104.321 78.7185 104.321 82.7945C104.321 93.1755 96.6784 100.754 86.1063 100.754C85.3421 100.754 84.7689 100.754 84.3868 100.627C82.6672 100.308 82.4124 99.2258 82.4124 98.6526C82.4124 96.4873 84.8962 96.4873 85.7242 96.4873C88.9085 96.4873 93.494 92.666 93.494 86.6157C93.494 84.0046 93.1119 80.247 89.9275 77.4448C87.7622 75.4068 85.2784 75.152 84.0046 75.152C83.113 75.152 82.5398 75.2157 82.2214 75.2794V75.3431V102.665C82.2214 108.906 82.2214 114.256 82.5398 117.122C82.7309 119.224 83.1767 119.478 84.0046 119.606C84.8962 119.733 86.3611 119.86 87.3164 119.86C89.7365 119.86 89.8002 121.644 89.8002 121.835C89.8002 122.79 89.0996 123.936 87.0616 123.936Z" fill="white"/>
<path d="M142.978 123.936C141.131 123.936 137.373 123.936 133.234 123.809H132.979C132.087 123.745 130.304 123.682 130.304 122.026C130.304 121.644 130.432 120.816 131.387 120.37L127.629 110.435L117.376 110.498L114.828 117.377C114.319 118.587 114.128 119.669 114.128 120.051C114.128 120.115 114.128 120.179 114.128 120.179C114.191 120.179 114.382 120.243 114.765 120.243H115.529C117.503 120.243 117.694 121.516 117.694 122.089C117.694 122.408 117.567 124 115.401 124C114.573 124 113.618 123.936 112.663 123.936H112.535C111.516 123.873 110.625 123.873 109.924 123.873C109.733 123.873 109.415 123.873 108.969 123.873H108.842C107.695 123.936 105.721 124 103.874 124C101.709 124 101.518 122.663 101.518 122.089C101.518 121.198 102.154 120.243 103.556 120.243C103.938 120.243 104.638 120.179 104.957 120.179C106.358 119.988 107.122 119.16 108.205 116.421L121.133 84.0682C121.77 82.5397 122.343 81.1385 123.872 81.1385C125.4 81.1385 125.973 82.6034 126.419 83.6223C126.929 84.8324 128.776 89.4179 130.877 94.6402L131.068 95.1497C133.68 101.773 137.31 110.817 139.22 115.275C141.067 119.669 142.277 119.924 142.787 120.051C143.551 120.179 144.252 120.243 144.634 120.243C146.608 120.243 146.736 121.771 146.736 122.089C146.736 123.936 144.634 123.936 142.978 123.936ZM119.477 105.085H125.655L122.598 96.7419L119.477 105.085Z" fill="white"/>
<path d="M169.282 123.873C166.352 123.873 164.059 123.809 162.085 123.745H161.703L160.302 123.682C157.754 123.554 155.907 123.554 153.869 123.554C153.296 123.554 152.15 123.554 150.94 123.618C150.303 123.618 149.602 123.618 148.965 123.682H148.902C148.328 123.682 147.755 123.745 147.246 123.745C144.889 123.745 144.762 122.153 144.762 121.835C144.762 121.516 144.889 119.988 146.991 119.988C147.5 119.988 148.074 119.924 148.583 119.797C148.711 119.669 148.902 119.096 149.029 118.077C149.284 115.976 149.284 111.836 149.284 106.996V97.6973C149.284 89.6728 149.284 88.2079 149.156 86.5521C149.093 85.0873 148.902 85.0236 148.01 84.8325C147.692 84.7688 147.182 84.7051 146.545 84.7051C144.38 84.7051 144.252 83.113 144.252 82.7945C144.252 82.094 144.571 80.8839 146.8 80.8839C148.201 80.8839 149.793 80.9476 151.258 80.9476H151.385C152.468 81.0113 153.423 81.0113 153.997 81.0113C154.57 81.0113 155.589 81.0113 156.735 80.9476C158.264 80.8839 159.983 80.8839 161.193 80.8839C163.486 80.8839 163.741 82.2213 163.741 82.7945C163.741 83.2403 163.55 84.7051 161.384 84.7051C160.875 84.7051 160.111 84.7688 159.537 84.8325C159.092 84.8962 158.837 84.9599 158.773 86.5521C158.646 88.2079 158.646 89.6728 158.646 97.6973V106.996C158.646 111.963 158.646 116.612 159.283 117.313C159.856 117.823 161.002 118.141 164.76 118.141C167.371 118.141 169.027 118.077 169.918 117.122C170.364 116.676 170.874 115.466 170.937 114.766C171.128 112.919 172.402 112.728 172.912 112.728C173.612 112.728 174.759 113.046 174.759 115.02C174.759 115.657 174.377 119.797 173.931 121.453C173.358 123.618 172.02 123.873 169.282 123.873Z" fill="white"/>
<path d="M196.476 123.873C193.547 123.873 191.318 123.809 189.28 123.745H188.898L187.496 123.682C184.949 123.554 183.102 123.554 181.064 123.554C180.491 123.554 179.344 123.554 178.134 123.618C177.434 123.618 176.797 123.618 176.16 123.682H176.096C175.523 123.682 174.95 123.745 174.441 123.745C172.084 123.745 171.957 122.153 171.957 121.835C171.957 121.516 172.084 119.988 174.186 119.988C174.886 119.988 175.46 119.861 175.778 119.797C175.905 119.669 176.096 119.096 176.224 118.077C176.479 115.976 176.479 111.836 176.479 106.996V97.6973C176.479 89.6728 176.479 88.2079 176.351 86.5521C176.288 85.0873 176.096 85.0236 175.205 84.8325C174.886 84.7688 174.377 84.7051 173.74 84.7051C171.575 84.7051 171.447 83.113 171.447 82.7945C171.447 82.094 171.766 80.8839 173.995 80.8839C175.396 80.8839 176.988 80.9476 178.453 80.9476H178.58C179.663 81.0113 180.618 81.0113 181.255 81.0113C181.828 81.0113 182.847 81.0113 183.994 80.9476H184.185C185.65 80.8839 187.305 80.8839 188.388 80.8839C190.681 80.8839 190.936 82.2213 190.936 82.7945C190.936 83.2403 190.745 84.7051 188.579 84.7051C188.07 84.7051 187.305 84.7688 186.732 84.8325C186.286 84.8962 186.032 84.9599 185.968 86.5521C185.841 88.2079 185.841 89.6728 185.841 97.6973V106.996C185.841 111.963 185.841 116.612 186.477 117.313C187.051 117.823 188.197 118.141 191.955 118.141C194.566 118.141 196.222 118.077 197.113 117.122C197.559 116.676 198.069 115.466 198.132 114.766C198.323 112.919 199.597 112.728 200.107 112.728C200.807 112.728 201.953 113.046 201.953 115.02C201.953 115.657 201.571 119.797 201.126 121.453C200.552 123.618 199.151 123.873 196.476 123.873Z" fill="white"/>
<path d="M112.028 65.0246C111.964 65.0246 111.964 64.9609 111.964 64.9609C111.964 64.9609 114.893 47.4469 115.276 45.2816C115.276 45.1542 115.339 45.0268 115.339 44.8994C117.505 30.6972 125.72 27.7676 132.153 27.7676C133.235 27.7676 134.318 27.8313 135.464 28.0223C140.751 28.7866 144.954 29.2961 148.266 29.2961C153.615 29.2961 156.672 27.9586 159.666 24.3921C160.239 23.6916 160.557 22.2268 160.557 22.2268C160.557 22.1631 160.621 22.1631 160.621 22.1631C160.621 22.1631 160.685 22.1631 160.685 22.2268C160.685 22.2268 161.258 23.819 161.385 24.9016C161.64 27.1944 162.595 38.5307 156.099 45.9184C152.533 50.0581 147.31 52.0961 140.559 52.0961H140.368H132.089C132.025 52.0961 132.025 52.0961 131.962 52.0961C131.962 52.0961 131.261 52.0324 130.115 52.0324C127.822 52.0324 123.555 52.3508 120.307 54.3888C118.078 55.7899 116.74 57.7006 115.339 59.9296C114.575 61.1397 112.091 64.9609 112.028 65.0246C112.091 65.0246 112.091 65.0246 112.028 65.0246Z" fill="white"/>
<path d="M108.651 74.7686C108.587 74.7686 108.587 74.7686 108.587 74.7049C108.587 74.7049 108.396 73.6222 107.759 70.9474C105.721 60.8848 97.3143 60.8211 87.6338 60.8211C79.4181 60.8211 70.1198 60.7574 64.0058 54.325C51.2047 40.887 63.7511 18.7238 64.3243 17.8322L66.2349 14.6479L66.2986 14.5842C66.3623 14.5842 66.3623 14.6479 66.3623 14.6479C66.3623 14.7115 65.9165 18.0233 65.9165 18.6602C65.9801 19.8065 66.2349 21.0803 66.6807 22.4177C67.8908 26.0479 71.2662 28.4043 73.8774 29.8054C75.1511 30.506 76.6159 31.1428 78.2081 31.716C83.3031 33.563 88.4617 34.1362 93.9388 34.7093L95.8495 34.9004C101.772 35.5373 109.861 37.3205 112.153 45.4088C113.045 48.6568 112.727 51.5228 112.344 54.1339C112.344 54.325 108.905 73.877 108.778 74.7049C108.714 74.7049 108.714 74.7686 108.651 74.7686Z" fill="white"/>
<path d="M113.555 46.6827C113.491 46.6827 113.491 46.6827 113.491 46.6191C113.491 46.6191 113.045 44.8995 112.663 43.6894C111.58 40.314 109.988 37.7028 107.95 35.9833C106.613 34.9006 104.766 34.0727 102.855 33.1811C98.1424 31.0157 92.7927 28.5956 91.9647 21.2079C90.8184 11.0179 98.4608 2.73855 98.7793 2.35643C98.9703 2.16537 100.945 0 100.945 0H101.008C101.008 0 101.008 0 101.072 0L101.136 0.0636875L100.499 2.80224C100.499 2.86593 99.6072 6.05029 101.327 8.21565C102.346 9.4894 104.384 10.9542 106.549 12.4827C109.861 14.8391 113.618 17.4503 115.402 20.762C117.312 24.2648 116.803 28.1498 116.23 31.8436C115.274 37.5118 113.682 46.6191 113.682 46.6827C113.618 46.6827 113.555 46.6827 113.555 46.6827Z" fill="white"/>
<path d="M25.1578 115.338C18.6617 109.67 17.0059 102.283 17.0059 95.8501C17.0059 91.392 18.407 83.5585 24.712 77.7629C29.4886 73.4322 35.7299 70.7573 45.5377 70.7573C49.6137 70.7573 52.0975 71.0121 55.0908 71.3942C57.5746 71.7126 59.74 72.3495 61.7143 72.5406C62.4149 72.6043 62.7333 72.9227 62.7333 73.3048C62.7333 73.8143 62.5422 74.6422 62.4149 76.935C62.2875 79.1004 62.3512 82.7305 62.2238 84.068C62.1601 85.0869 62.0327 85.5965 61.4595 85.5965C60.9501 85.5965 60.8227 85.087 60.8227 84.1316C60.759 82.0937 59.8674 79.8009 58.2752 78.0814C56.1098 75.7886 50.9512 74.0054 44.9009 74.0054C39.169 74.0054 35.4115 75.4702 32.4819 78.0814C27.6416 82.4758 26.4316 88.7808 26.4316 95.1495C26.4316 110.88 38.4048 118.65 47.1936 118.65C53.0528 118.65 56.6193 118.013 59.2942 114.956C60.4405 113.683 61.2685 111.772 61.5232 110.626C61.7143 109.543 61.8417 109.288 62.3512 109.288C62.797 109.288 62.9244 109.734 62.9244 110.307C62.9244 111.071 62.1601 116.867 61.4595 119.096C61.1411 120.242 60.8864 120.561 59.74 121.007C57.1288 122.089 52.0975 122.535 47.8305 122.535C38.7869 122.535 31.2081 120.497 25.1578 115.338Z" fill="#1C4CA0"/>
<path d="M72.4134 90.6916C72.4134 80.3106 72.4134 78.4 72.286 76.2346C72.1586 73.9419 71.5854 72.7955 69.3564 72.3497C68.7832 72.2223 67.6368 72.1586 66.6815 72.1586C65.9173 72.1586 65.5352 72.0313 65.5352 71.5218C65.5352 71.0123 66.0447 70.8849 67.0637 70.8849C70.6938 70.8849 74.9609 71.076 76.8715 71.076C79.6737 71.076 83.6223 70.8849 86.8067 70.8849C95.3408 70.8849 98.3978 73.7508 99.5441 74.7698C101.073 76.2346 102.983 79.2916 102.983 82.9218C102.983 92.6022 95.8503 99.4805 86.1698 99.4805C85.8514 99.4805 85.0871 99.4805 84.705 99.4168C84.3866 99.3531 83.8771 99.2894 83.8771 98.7799C83.8771 98.2067 84.3866 98.0157 85.7877 98.0157C89.6089 98.0157 94.9587 93.6849 94.9587 86.743C94.9587 84.514 94.7676 79.9285 90.9464 76.4894C88.4626 74.2603 85.6603 73.8145 84.1318 73.8145C83.1128 73.8145 82.0938 73.8782 81.457 74.0692C81.1385 74.1966 80.8838 74.6424 80.8838 75.343V102.665C80.8838 108.97 80.8838 114.32 81.2022 117.313C81.3933 119.223 81.8391 120.752 83.8771 121.007C84.8324 121.134 86.3609 121.261 87.3799 121.261C88.1441 121.261 88.4626 121.453 88.4626 121.835C88.4626 122.28 87.8894 122.535 87.1888 122.535C82.667 122.535 78.4 122.344 76.6167 122.344C75.0246 122.344 70.7575 122.535 68.019 122.535C67.1273 122.535 66.6815 122.344 66.6815 121.835C66.6815 121.516 66.9363 121.261 67.7642 121.261C68.7832 121.261 69.6111 121.134 70.248 121.007C71.5854 120.752 71.9676 119.223 72.2223 117.249C72.5408 114.383 72.5408 108.97 72.5408 102.729V90.6916H72.4134Z" fill="#1C4CA0"/>
<path d="M116.739 109.097C116.484 109.097 116.357 109.224 116.293 109.479L113.491 116.866C112.982 118.14 112.727 119.414 112.727 119.987C112.727 120.942 113.173 121.579 114.765 121.579H115.529C116.166 121.579 116.293 121.707 116.293 121.961C116.293 122.343 115.975 122.471 115.402 122.471C113.746 122.471 111.517 122.343 109.925 122.343C109.351 122.343 106.549 122.471 103.874 122.471C103.237 122.471 102.919 122.343 102.919 121.961C102.919 121.643 103.11 121.579 103.556 121.579C104.002 121.579 104.766 121.516 105.148 121.452C107.504 121.133 108.523 119.414 109.542 116.803L122.471 84.4495C123.108 82.9847 123.426 82.4116 123.936 82.4116C124.382 82.4116 124.7 82.8574 125.209 84.0674C126.42 86.8697 134.699 107.95 138.011 115.72C139.985 120.369 141.45 121.07 142.532 121.324C143.297 121.452 144.061 121.516 144.698 121.516C145.08 121.516 145.398 121.579 145.398 121.898C145.398 122.28 144.953 122.407 143.042 122.407C141.195 122.407 137.437 122.407 133.298 122.28C132.342 122.216 131.769 122.216 131.769 121.898C131.769 121.579 131.96 121.516 132.47 121.452C132.852 121.324 133.17 120.879 132.916 120.242L128.776 109.288C128.649 109.033 128.521 108.905 128.266 108.905H116.739V109.097ZM127.247 106.485C127.502 106.485 127.566 106.358 127.502 106.167L122.853 93.4295C122.789 93.2384 122.726 92.9836 122.598 92.9836C122.471 92.9836 122.344 93.2384 122.28 93.4295L117.567 106.103C117.503 106.294 117.567 106.485 117.758 106.485H127.247Z" fill="#1C4CA0"/>
<path d="M157.307 106.995C157.307 113.746 157.307 117.376 158.39 118.332C159.282 119.096 160.683 119.478 164.759 119.478C167.561 119.478 169.599 119.414 170.936 118.013C171.573 117.313 172.21 115.848 172.338 114.829C172.401 114.383 172.465 114.065 172.911 114.065C173.293 114.065 173.357 114.319 173.357 114.956C173.357 115.529 172.974 119.478 172.592 121.006C172.274 122.153 172.019 122.408 169.281 122.408C165.459 122.408 162.721 122.28 160.364 122.216C158.008 122.089 156.097 122.089 153.932 122.089C153.359 122.089 152.212 122.089 150.939 122.153C149.729 122.153 148.327 122.28 147.308 122.28C146.608 122.28 146.226 122.153 146.226 121.771C146.226 121.516 146.417 121.325 147.054 121.325C147.818 121.325 148.455 121.197 148.964 121.134C150.047 120.943 150.302 119.733 150.493 118.204C150.748 115.975 150.748 111.835 150.748 106.932V97.6332C150.748 89.6086 150.748 88.1438 150.62 86.4243C150.493 84.641 150.111 83.8131 148.327 83.4309C147.882 83.3036 147.245 83.3036 146.608 83.3036C146.035 83.3036 145.716 83.1762 145.716 82.7941C145.716 82.412 146.098 82.3483 146.863 82.3483C149.346 82.3483 152.658 82.4756 154.123 82.4756C155.397 82.4756 159.218 82.3483 161.32 82.3483C162.084 82.3483 162.402 82.4756 162.402 82.7941C162.402 83.1762 162.084 83.3036 161.447 83.3036C160.874 83.3036 160.046 83.3673 159.409 83.4309C158.008 83.6857 157.562 84.5773 157.435 86.4243C157.307 88.1438 157.307 89.6086 157.307 97.6332V106.995Z" fill="#1C4CA0"/>
<path d="M184.503 106.995C184.503 113.746 184.503 117.376 185.585 118.332C186.477 119.096 187.878 119.478 191.954 119.478C194.756 119.478 196.794 119.414 198.132 118.013C198.769 117.313 199.406 115.848 199.533 114.829C199.597 114.383 199.66 114.065 200.106 114.065C200.488 114.065 200.552 114.319 200.552 114.956C200.552 115.529 200.17 119.478 199.788 121.006C199.469 122.153 199.214 122.408 196.476 122.408C192.655 122.408 189.916 122.28 187.56 122.216C185.203 122.089 183.293 122.089 181.127 122.089C180.554 122.089 179.408 122.089 178.134 122.153C176.924 122.153 175.523 122.28 174.504 122.28C173.803 122.28 173.421 122.153 173.421 121.771C173.421 121.516 173.612 121.325 174.249 121.325C175.013 121.325 175.65 121.197 176.16 121.134C177.242 120.943 177.497 119.733 177.688 118.204C177.943 115.975 177.943 111.835 177.943 106.932V97.6332C177.943 89.6086 177.943 88.1438 177.816 86.4243C177.688 84.641 177.306 83.8131 175.523 83.4309C175.077 83.3036 174.44 83.3036 173.803 83.3036C173.23 83.3036 172.912 83.1762 172.912 82.7941C172.912 82.412 173.294 82.3483 174.058 82.3483C176.542 82.3483 179.854 82.4756 181.318 82.4756C182.592 82.4756 186.413 82.3483 188.515 82.3483C189.279 82.3483 189.598 82.4756 189.598 82.7941C189.598 83.1762 189.279 83.3036 188.642 83.3036C188.069 83.3036 187.241 83.3673 186.604 83.4309C185.203 83.6857 184.757 84.5773 184.63 86.4243C184.503 88.1438 184.503 89.6086 184.503 97.6332V106.995Z" fill="#1C4CA0"/>
<path d="M113.493 61.3318L116.231 45.41C116.231 45.41 117.696 26.3676 135.337 28.915C149.858 31.0804 155.335 31.0804 160.43 24.9664C160.43 24.9664 163.997 51.2056 140.432 51.0782H132.153C132.153 51.0782 124.956 50.3139 119.861 53.4983C117.25 55.0905 115.34 57.638 113.493 61.3318Z" fill="#01A7DF"/>
<path d="M108.588 70.5661L111.199 54.1348C111.645 51.2689 111.772 48.594 111.008 45.6644C109.034 38.5314 102.283 36.5571 95.723 35.8565C89.609 35.2197 83.6861 34.7739 77.8906 32.6085C76.3621 32.0353 74.8973 31.3984 73.4325 30.6342C70.1844 28.9146 67.0001 26.3035 65.79 22.6733C65.4716 21.7817 64.7073 19.1068 65.2168 18.2789C65.2168 18.2789 52.2883 40.5057 64.771 53.6253C77.5722 67.127 104.958 51.0141 108.588 70.5661Z" fill="#EC1C24"/>
<path d="M113.302 42.6712C113.302 42.6712 114.257 37.3852 115.212 31.6533C115.849 27.7684 116.168 24.2656 114.512 21.1449C111.71 15.9863 103.303 12.2924 100.501 8.78962C98.3353 6.11475 99.4816 2.99408 99.4816 2.99408C99.4816 2.99408 91.7755 11.2097 92.8582 21.0813C93.9409 30.8891 103.749 31.3349 108.525 35.2198C112.792 38.7226 113.302 42.6712 113.302 42.6712Z" fill="#38B14A"/>
</svg>
