<svg width="279" height="72" viewBox="0 0 279 72" fill="none" xmlns="http://www.w3.org/2000/svg">
<g clip-path="url(#clip0_1136_8122)">
<path d="M268.16 62.4764L258.264 23.7259L232.031 -0.0373535L205.797 23.7259L195.898 62.4764L214.637 71.3015H229.44V58.0615C229.44 58.0615 201.942 72.5726 209.124 40.0585C211.508 29.2784 224.148 14.8836 231.374 10.8908C231.601 10.767 231.823 10.6538 232.031 10.5502H232.035C239.121 13.9875 252.484 28.9428 254.942 40.0585C262.126 72.5726 234.627 58.0615 234.627 58.0615V71.3015H249.434L268.16 62.4764Z" fill="#F9B200"/>
<path d="M11.4873 62.6072L11.8527 62.8169C11.8527 62.822 20.2336 67.6093 32.9565 67.6047C45.6415 67.585 58.2881 62.1407 58.3103 49.3253V49.1549C58.283 37.4596 50.8645 32.9608 39.7715 30.4287H39.7665C33.3598 28.9256 29.5459 27.7166 27.4211 26.4849C25.3231 25.2588 24.8703 24.1777 24.8496 22.5785C24.8769 19.3676 28.0615 16.2259 37.2925 16.189H37.3455C41.2671 16.189 45.3503 16.8602 48.4759 17.5491C51.1222 18.1238 53.0817 18.7015 53.62 18.8617L53.6893 18.8126L53.9035 18.8991L54.4069 19.0937L54.506 18.4695L56.142 8.18824L55.7483 8.03257C55.6841 8.00579 47.6429 4.83176 36.7643 4.82721C25.9847 4.87624 12.0685 8.07705 12.0625 23.6126C12.1216 37.6966 28.0873 40.0458 31.4933 40.9566C35.0924 41.8107 45.4095 44.0437 45.646 49.0362C45.646 49.0362 45.6415 49.0412 45.646 49.1004C45.646 49.1797 45.6415 49.2242 45.6415 49.2661V49.3298C45.646 51.9191 43.9519 53.639 41.5041 54.7863C39.0867 55.9144 35.9996 56.388 33.5761 56.388L33.4882 56.4006C33.3376 56.4006 33.2097 56.388 33.0687 56.388C22.6606 56.1414 14.9408 51.8423 13.9932 51.3808L13.5898 51.1812L13.607 51.1488L13.2406 50.9366L11.4873 62.6072Z" fill="white"/>
<path d="M79.5197 63.143C86.2706 67.247 94.0444 67.6073 98.4077 67.6073C107.224 67.5927 115.987 64.0411 116.062 64.0143L116.461 63.8536L114.836 52.9653L114.158 53.2888L114.083 53.1306L114.023 53.1801L114.088 53.3207C113.361 53.6588 107.584 56.1267 99.5747 56.1267C91.3657 56.0155 81.3483 54.9496 81.2523 36.2188C81.3543 17.2237 91.2196 16.4286 99.7945 16.32L99.9078 16.3104C103.178 16.3104 106.702 16.8951 109.429 17.4703C111.739 17.9737 113.482 18.4695 113.965 18.6029L114.029 18.5635L114.233 18.6373L114.739 18.8178L114.836 18.186L116.331 7.79356L115.955 7.6384C115.885 7.60605 108.757 4.57556 99.0627 4.57556C94.2319 4.57556 86.2867 5.04964 79.4985 9.29415C72.7061 13.5189 67.1693 21.542 67.142 36.2309L67.1521 36.3148L67.1384 36.374C67.1359 36.3866 67.1334 36.3962 67.1309 36.4063L67.142 36.4331L67.1359 36.4629C67.1546 51.1468 72.7678 59.0465 79.5197 63.143Z" fill="white"/>
<path d="M157.388 55.6036H140.958V40.4334H157.803C162.037 40.5128 167.259 41.2011 167.265 47.7827C167.205 54.809 163.081 55.5247 157.388 55.6036ZM140.948 30.6829V16.8284H156.149C161.331 16.8951 165.068 18.2425 165.102 23.7091C165.029 28.5854 162.709 30.599 156.209 30.6829H140.948ZM180.951 49.6164H180.941H180.951ZM128.113 66.6965H128.672C128.704 66.6965 143.615 66.561 156.87 66.561C163.545 66.556 169.426 65.438 173.681 62.6764C177.913 59.9395 180.485 55.4949 180.494 49.1873C180.499 49.1873 180.502 49.1873 180.502 49.1746H180.494V49.0094C180.485 39.5995 174.302 36.1642 170.699 34.8834L169.673 34.5231L170.655 34.0641C173.35 32.793 177.461 29.6417 177.625 21.7516H177.605V21.3099C177.585 8.5683 165.784 5.80214 155.68 5.76019H128.113V66.6965Z" fill="white"/>
</g>
<defs>
<clipPath id="clip0_1136_8122">
<rect width="277.5" height="72" fill="white" transform="translate(0.986816)"/>
</clipPath>
</defs>
</svg>
