<svg width="389" height="70" viewBox="0 0 389 70" fill="none" xmlns="http://www.w3.org/2000/svg">
<g clip-path="url(#clip0_1136_8167)">
<path d="M0.0673828 46.8886L12.7036 45.6575C13.4639 49.8937 15.0088 53.0075 17.326 54.9989C19.6553 56.9903 22.7812 57.9799 26.7398 57.9799C30.9277 57.9799 34.0777 57.0989 36.2019 55.3248C38.3139 53.5506 39.376 51.4868 39.376 49.1213C39.376 47.6006 38.9295 46.3093 38.0363 45.2351C37.1432 44.173 35.5863 43.2437 33.3657 42.4472C31.845 41.9162 28.3812 40.9868 22.9743 39.6351C16.0105 37.9093 11.1226 35.7851 8.32256 33.2748C4.376 29.7386 2.39668 25.4179 2.39668 20.3368C2.39668 17.0662 3.32599 14.0006 5.18461 11.1403C7.04323 8.29198 9.72253 6.11957 13.2105 4.62302C16.7105 3.12647 20.9226 2.39026 25.8708 2.39026C33.945 2.39026 40.0157 4.16442 44.095 7.70063C48.1743 11.2368 50.3105 15.9679 50.5157 21.8696L37.5295 22.4368C36.9743 19.1299 35.7795 16.7524 33.957 15.3041C32.1226 13.8558 29.3829 13.1317 25.726 13.1317C21.9484 13.1317 19.0036 13.9041 16.8674 15.461C15.4915 16.4506 14.8036 17.7903 14.8036 19.4558C14.8036 20.9765 15.4432 22.2799 16.7346 23.3662C18.376 24.742 22.3467 26.1782 28.6708 27.6627C34.9829 29.1593 39.6657 30.692 42.6829 32.2972C45.7122 33.8903 48.0777 36.0748 49.7915 38.8386C51.5053 41.6024 52.3622 45.0179 52.3622 49.0851C52.3622 52.7662 51.3363 56.2179 49.2967 59.4403C47.245 62.6627 44.3484 65.0524 40.607 66.6093C36.8657 68.1661 32.195 68.9506 26.607 68.9506C18.4726 68.9506 12.2329 67.0679 7.876 63.3144C3.51911 59.573 0.91221 54.0937 0.0673828 46.8886Z" fill="white"/>
<path d="M62.439 67.8278V3.51233H75.4252V28.8329H100.879V3.51233H113.865V67.8278H100.879V39.7071H75.4252V67.8278H62.439Z" fill="white"/>
<path d="M125.98 67.8278V3.51233H138.966V67.8278H125.98Z" fill="white"/>
<path d="M150.448 67.8278V3.51233H171.291C179.184 3.51233 184.338 3.83817 186.728 4.47782C190.409 5.44334 193.498 7.54335 195.984 10.7778C198.471 14.0123 199.714 18.1882 199.714 23.3055C199.714 27.252 199.002 30.571 197.565 33.2624C196.129 35.9536 194.307 38.0657 192.11 39.5986C189.902 41.1313 187.657 42.1451 185.376 42.6519C182.274 43.2674 177.784 43.5693 171.907 43.5693H163.434V67.8278H150.448ZM163.434 14.3864V32.6348H170.543C175.66 32.6348 179.088 32.2967 180.814 31.6209C182.54 30.945 183.891 29.895 184.869 28.4588C185.847 27.0226 186.341 25.3571 186.341 23.4502C186.341 21.1088 185.653 19.1779 184.29 17.6572C182.914 16.1365 181.176 15.1829 179.064 14.8088C177.519 14.5192 174.405 14.3744 169.722 14.3744H163.434V14.3864Z" fill="white"/>
<path d="M209.478 67.8278V3.51233H230.321C238.214 3.51233 243.367 3.83817 245.769 4.47782C249.45 5.44334 252.54 7.54335 255.026 10.7778C257.512 14.0123 258.755 18.1882 258.755 23.3055C258.755 27.252 258.031 30.571 256.607 33.2624C255.171 35.9536 253.348 38.0657 251.14 39.5986C248.931 41.1313 246.686 42.1451 244.405 42.6519C241.303 43.2674 236.814 43.5693 230.936 43.5693H222.476V67.8278H209.478ZM222.464 14.3864V32.6348H229.572C234.69 32.6348 238.105 32.2967 239.843 31.6209C241.569 30.945 242.921 29.895 243.898 28.4588C244.876 27.0226 245.371 25.3571 245.371 23.4502C245.371 21.1088 244.683 19.1779 243.307 17.6572C241.931 16.1365 240.193 15.1829 238.081 14.8088C236.524 14.5192 233.41 14.3744 228.74 14.3744H222.464V14.3864Z" fill="white"/>
<path d="M339.082 67.8277V3.51227H359.925C367.818 3.51227 372.971 3.83811 375.361 4.47776C379.042 5.44328 382.132 7.54329 384.618 10.7778C387.104 14.0122 388.347 18.1882 388.347 23.3054C388.347 27.252 387.635 30.5709 386.199 33.2623C384.763 35.9536 382.952 38.0656 380.744 39.5985C378.535 41.1313 376.29 42.1451 374.009 42.6518C370.907 43.2674 366.418 43.5692 360.54 43.5692H352.068V67.8277H339.082ZM352.068 14.3863V32.6347H359.176C364.294 32.6347 367.721 32.2967 369.447 31.6208C371.173 30.945 372.525 29.895 373.502 28.4587C374.48 27.0225 374.975 25.357 374.975 23.4501C374.975 21.1087 374.287 19.1778 372.911 17.6571C371.535 16.1365 369.797 15.1829 367.697 14.8087C366.14 14.5191 363.026 14.3744 358.344 14.3744H352.068V14.3863Z" fill="white"/>
<path d="M322.468 0H263.33C261.544 0 259.939 0.724136 258.768 1.88276L269.087 12.2017V17.9345V52.5603C269.087 56.1207 271.972 59.0052 275.532 59.0052H309.639H315.854L327.03 70.1931C328.165 69.0586 328.877 67.5017 328.925 65.7879V6.3C328.84 2.8 325.98 0 322.468 0ZM306.923 50.0138H281.518C280.009 50.0138 278.778 48.8069 278.742 47.3104V21.7483L278.827 19.1172L284.366 24.6569H287.034H301.685C303.218 24.6569 304.449 25.9 304.449 27.4207V42.3017V44.7638L309.675 49.9897L306.923 50.0138Z" fill="white"/>
<path d="M298.886 28.989H289.328C289.038 28.989 288.783 29.1097 288.59 29.2907L290.257 30.9563V31.8856V37.4856C290.257 38.0649 290.728 38.5235 291.295 38.5235H296.811H297.812L299.623 40.3338C299.804 40.1528 299.924 39.8994 299.936 39.6218V30.0028C299.924 29.4476 299.466 28.989 298.886 28.989Z" fill="white"/>
</g>
<defs>
<clipPath id="clip0_1136_8167">
<rect width="388.621" height="70" fill="white" transform="translate(0.0673828)"/>
</clipPath>
</defs>
</svg>
